%TF.GenerationSoftware,KiCad,Pcbnew,7.0.1*%
%TF.CreationDate,2023-07-22T01:41:38+01:00*%
%TF.ProjectId,QA403 Impedance Fixture,51413430-3320-4496-9d70-6564616e6365,rev?*%
%TF.SameCoordinates,Original*%
%TF.FileFunction,Soldermask,Top*%
%TF.FilePolarity,Negative*%
%FSLAX46Y46*%
G04 Gerber Fmt 4.6, Leading zero omitted, Abs format (unit mm)*
G04 Created by KiCad (PCBNEW 7.0.1) date 2023-07-22 01:41:38*
%MOMM*%
%LPD*%
G01*
G04 APERTURE LIST*
G04 Aperture macros list*
%AMRoundRect*
0 Rectangle with rounded corners*
0 $1 Rounding radius*
0 $2 $3 $4 $5 $6 $7 $8 $9 X,Y pos of 4 corners*
0 Add a 4 corners polygon primitive as box body*
4,1,4,$2,$3,$4,$5,$6,$7,$8,$9,$2,$3,0*
0 Add four circle primitives for the rounded corners*
1,1,$1+$1,$2,$3*
1,1,$1+$1,$4,$5*
1,1,$1+$1,$6,$7*
1,1,$1+$1,$8,$9*
0 Add four rect primitives between the rounded corners*
20,1,$1+$1,$2,$3,$4,$5,0*
20,1,$1+$1,$4,$5,$6,$7,0*
20,1,$1+$1,$6,$7,$8,$9,0*
20,1,$1+$1,$8,$9,$2,$3,0*%
G04 Aperture macros list end*
%ADD10C,1.605000*%
%ADD11C,2.595000*%
%ADD12RoundRect,0.250000X-0.350000X-0.450000X0.350000X-0.450000X0.350000X0.450000X-0.350000X0.450000X0*%
%ADD13RoundRect,0.249999X-0.450001X-1.075001X0.450001X-1.075001X0.450001X1.075001X-0.450001X1.075001X0*%
%ADD14C,3.000000*%
%ADD15R,2.600000X2.600000*%
%ADD16C,2.600000*%
%ADD17C,1.600000*%
%ADD18O,1.600000X1.600000*%
%ADD19RoundRect,0.250000X-0.400000X-0.625000X0.400000X-0.625000X0.400000X0.625000X-0.400000X0.625000X0*%
G04 APERTURE END LIST*
D10*
%TO.C,J6*%
X139700000Y-34165000D03*
D11*
X139700000Y-29845000D03*
X143430000Y-36325000D03*
X135970000Y-36325000D03*
%TD*%
D10*
%TO.C,J3*%
X121300396Y-34210000D03*
D11*
X121300396Y-29890000D03*
X125030396Y-36370000D03*
X117570396Y-36370000D03*
%TD*%
D10*
%TO.C,J5*%
X102900793Y-34165000D03*
D11*
X102900793Y-29845000D03*
X106630793Y-36325000D03*
X99170793Y-36325000D03*
%TD*%
D12*
%TO.C,R3*%
X111252000Y-56896000D03*
X113252000Y-56896000D03*
%TD*%
D13*
%TO.C,R1*%
X109852000Y-49896000D03*
X114652000Y-49896000D03*
%TD*%
D14*
%TO.C,J1*%
X86835000Y-66730000D03*
X86835000Y-50500000D03*
X80485000Y-66730000D03*
D15*
X80519000Y-56168000D03*
D14*
X80485000Y-50500000D03*
X93185000Y-66730000D03*
D16*
X80519000Y-61248000D03*
D14*
X93185000Y-50500000D03*
%TD*%
D17*
%TO.C,R4*%
X106000000Y-62000000D03*
D18*
X118700000Y-62000000D03*
%TD*%
D14*
%TO.C,J2*%
X138684000Y-50438000D03*
X138684000Y-66668000D03*
X145034000Y-50438000D03*
D15*
X145000000Y-61000000D03*
D14*
X145034000Y-66668000D03*
X132334000Y-50438000D03*
D16*
X145000000Y-55920000D03*
D14*
X132334000Y-66668000D03*
%TD*%
D10*
%TO.C,J4*%
X84455000Y-34165000D03*
D11*
X84455000Y-29845000D03*
X88185000Y-36325000D03*
X80725000Y-36325000D03*
%TD*%
D19*
%TO.C,R2*%
X110702000Y-53896000D03*
X113802000Y-53896000D03*
%TD*%
M02*
