%TF.GenerationSoftware,KiCad,Pcbnew,7.0.1*%
%TF.CreationDate,2023-07-22T01:41:38+01:00*%
%TF.ProjectId,QA403 Impedance Fixture,51413430-3320-4496-9d70-6564616e6365,rev?*%
%TF.SameCoordinates,Original*%
%TF.FileFunction,Legend,Top*%
%TF.FilePolarity,Positive*%
%FSLAX46Y46*%
G04 Gerber Fmt 4.6, Leading zero omitted, Abs format (unit mm)*
G04 Created by KiCad (PCBNEW 7.0.1) date 2023-07-22 01:41:38*
%MOMM*%
%LPD*%
G01*
G04 APERTURE LIST*
G04 Aperture macros list*
%AMRoundRect*
0 Rectangle with rounded corners*
0 $1 Rounding radius*
0 $2 $3 $4 $5 $6 $7 $8 $9 X,Y pos of 4 corners*
0 Add a 4 corners polygon primitive as box body*
4,1,4,$2,$3,$4,$5,$6,$7,$8,$9,$2,$3,0*
0 Add four circle primitives for the rounded corners*
1,1,$1+$1,$2,$3*
1,1,$1+$1,$4,$5*
1,1,$1+$1,$6,$7*
1,1,$1+$1,$8,$9*
0 Add four rect primitives between the rounded corners*
20,1,$1+$1,$2,$3,$4,$5,0*
20,1,$1+$1,$4,$5,$6,$7,0*
20,1,$1+$1,$6,$7,$8,$9,0*
20,1,$1+$1,$8,$9,$2,$3,0*%
G04 Aperture macros list end*
%ADD10C,0.150000*%
%ADD11C,0.200000*%
%ADD12C,0.300000*%
%ADD13C,0.254000*%
%ADD14C,0.120000*%
%ADD15C,1.605000*%
%ADD16C,2.595000*%
%ADD17RoundRect,0.250000X-0.350000X-0.450000X0.350000X-0.450000X0.350000X0.450000X-0.350000X0.450000X0*%
%ADD18RoundRect,0.249999X-0.450001X-1.075001X0.450001X-1.075001X0.450001X1.075001X-0.450001X1.075001X0*%
%ADD19C,3.000000*%
%ADD20R,2.600000X2.600000*%
%ADD21C,2.600000*%
%ADD22C,1.600000*%
%ADD23O,1.600000X1.600000*%
%ADD24RoundRect,0.250000X-0.400000X-0.625000X0.400000X-0.625000X0.400000X0.625000X-0.400000X0.625000X0*%
G04 APERTURE END LIST*
D10*
G36*
X114522618Y-28042590D02*
G01*
X114150486Y-26926190D01*
X114894752Y-26926190D01*
X114522618Y-28042590D01*
G37*
G36*
X116763906Y-26436639D02*
G01*
X116931086Y-26603819D01*
X117019047Y-26955662D01*
X117019047Y-27603861D01*
X116931086Y-27955703D01*
X116763906Y-28122883D01*
X116600152Y-28204761D01*
X116254608Y-28204761D01*
X116090855Y-28122884D01*
X115923674Y-27955703D01*
X115835714Y-27603861D01*
X115835714Y-26955663D01*
X115923674Y-26603819D01*
X116046428Y-26481066D01*
X116272460Y-26707098D01*
X116278904Y-26717948D01*
X116297404Y-26727197D01*
X116315527Y-26737094D01*
X116316987Y-26736989D01*
X116485467Y-26821228D01*
X116500597Y-26830952D01*
X116515928Y-26830952D01*
X116531011Y-26833666D01*
X116537555Y-26830952D01*
X116723877Y-26830952D01*
X116755355Y-26821709D01*
X116784197Y-26788423D01*
X116790465Y-26744828D01*
X116772169Y-26704764D01*
X116735117Y-26680952D01*
X116540323Y-26680952D01*
X116376569Y-26599075D01*
X116173040Y-26395546D01*
X116254609Y-26354761D01*
X116600152Y-26354761D01*
X116763906Y-26436639D01*
G37*
G36*
X111049620Y-26436639D02*
G01*
X111127645Y-26514664D01*
X111213758Y-26686890D01*
X111304761Y-27050900D01*
X111304761Y-27508623D01*
X111213758Y-27872634D01*
X111127646Y-28044857D01*
X111049620Y-28122883D01*
X110885866Y-28204761D01*
X110730798Y-28204761D01*
X110567045Y-28122884D01*
X110489019Y-28044858D01*
X110402906Y-27872632D01*
X110311904Y-27508623D01*
X110311904Y-27050901D01*
X110402906Y-26686891D01*
X110489019Y-26514664D01*
X110567044Y-26436639D01*
X110730799Y-26354761D01*
X110885866Y-26354761D01*
X111049620Y-26436639D01*
G37*
G36*
X117985714Y-28920714D02*
G01*
X107465476Y-28920714D01*
X107465476Y-26669105D01*
X108254428Y-26669105D01*
X108257142Y-26675649D01*
X108257142Y-27132864D01*
X108255211Y-27150748D01*
X108262067Y-27164461D01*
X108266385Y-27179164D01*
X108271738Y-27183802D01*
X108356092Y-27352510D01*
X108358775Y-27364841D01*
X108373401Y-27379467D01*
X108387465Y-27394586D01*
X108388882Y-27394948D01*
X108462935Y-27469002D01*
X108469380Y-27479853D01*
X108487880Y-27489103D01*
X108506003Y-27498999D01*
X108507463Y-27498894D01*
X108675942Y-27583133D01*
X108691072Y-27592857D01*
X108706402Y-27592857D01*
X108721485Y-27595571D01*
X108728029Y-27592857D01*
X108833526Y-27592857D01*
X108290069Y-28213948D01*
X108289882Y-28214004D01*
X108275663Y-28230413D01*
X108268599Y-28238487D01*
X108268520Y-28238657D01*
X108261040Y-28247290D01*
X108259467Y-28258230D01*
X108254826Y-28268264D01*
X108256397Y-28279579D01*
X108254772Y-28290885D01*
X108259363Y-28300939D01*
X108260884Y-28311888D01*
X108268321Y-28320556D01*
X108273068Y-28330949D01*
X108282368Y-28336926D01*
X108289565Y-28345313D01*
X108300508Y-28348583D01*
X108310120Y-28354761D01*
X108321175Y-28354761D01*
X108331764Y-28357926D01*
X108342739Y-28354761D01*
X109581019Y-28354761D01*
X109612497Y-28345518D01*
X109641339Y-28312232D01*
X109647607Y-28268637D01*
X109629311Y-28228573D01*
X109592259Y-28204761D01*
X108497425Y-28204761D01*
X109040881Y-27583669D01*
X109041069Y-27583614D01*
X109055287Y-27567204D01*
X109062352Y-27559131D01*
X109062430Y-27558960D01*
X109069911Y-27550328D01*
X109071484Y-27539386D01*
X109076124Y-27529355D01*
X109074553Y-27518041D01*
X109075036Y-27514683D01*
X110158802Y-27514683D01*
X110161904Y-27527091D01*
X110161904Y-27528639D01*
X110164508Y-27537508D01*
X110256141Y-27904039D01*
X110255211Y-27912653D01*
X110261377Y-27924986D01*
X110261996Y-27927459D01*
X110266177Y-27934585D01*
X110356092Y-28114415D01*
X110358775Y-28126746D01*
X110373399Y-28141370D01*
X110387465Y-28156491D01*
X110388882Y-28156853D01*
X110462936Y-28230907D01*
X110469380Y-28241757D01*
X110487880Y-28251007D01*
X110506003Y-28260903D01*
X110507463Y-28260798D01*
X110675942Y-28345037D01*
X110691072Y-28354761D01*
X110706402Y-28354761D01*
X110721485Y-28357475D01*
X110728029Y-28354761D01*
X110899531Y-28354761D01*
X110917415Y-28356692D01*
X110931128Y-28349835D01*
X110945831Y-28345518D01*
X110950469Y-28340164D01*
X111119177Y-28255810D01*
X111131508Y-28253128D01*
X111146132Y-28238503D01*
X111161253Y-28224438D01*
X111161615Y-28223020D01*
X111235669Y-28148966D01*
X111246519Y-28142523D01*
X111255769Y-28124022D01*
X111265665Y-28105900D01*
X111265560Y-28104439D01*
X111345630Y-27944299D01*
X111351943Y-27938364D01*
X111355287Y-27924984D01*
X111356427Y-27922706D01*
X111357889Y-27914576D01*
X111449528Y-27548020D01*
X111454761Y-27539879D01*
X111454761Y-27527091D01*
X111455137Y-27525587D01*
X111454761Y-27516341D01*
X111454761Y-27054009D01*
X111457863Y-27044840D01*
X111454761Y-27032432D01*
X111454761Y-27030884D01*
X111452156Y-27022014D01*
X111436040Y-26957552D01*
X111969058Y-26957552D01*
X111987354Y-26997616D01*
X112024406Y-27021428D01*
X112257142Y-27021428D01*
X112257142Y-27623877D01*
X112266385Y-27655355D01*
X112299671Y-27684197D01*
X112343266Y-27690465D01*
X112383330Y-27672169D01*
X112407142Y-27635117D01*
X112407142Y-27021428D01*
X113180466Y-27021428D01*
X112733772Y-28361512D01*
X112732587Y-28394297D01*
X112755044Y-28432185D01*
X112794420Y-28451917D01*
X112838213Y-28447230D01*
X112872520Y-28419609D01*
X113350962Y-26984279D01*
X113355625Y-26978899D01*
X113357800Y-26963765D01*
X113359084Y-26959916D01*
X113359329Y-26953136D01*
X113361893Y-26935304D01*
X113360114Y-26931409D01*
X113360269Y-26927131D01*
X113351083Y-26911634D01*
X113343597Y-26895240D01*
X113339994Y-26892924D01*
X113337812Y-26889243D01*
X113321710Y-26881174D01*
X113306545Y-26871428D01*
X113302261Y-26871428D01*
X113298436Y-26869511D01*
X113280525Y-26871428D01*
X112407142Y-26871428D01*
X112407142Y-26282586D01*
X113777837Y-26282586D01*
X113969667Y-26858076D01*
X113969058Y-26862314D01*
X113976543Y-26878704D01*
X114447178Y-28290610D01*
X114446873Y-28299058D01*
X114454004Y-28311090D01*
X114454877Y-28313707D01*
X114459488Y-28320342D01*
X114469330Y-28336946D01*
X114471936Y-28338251D01*
X114473600Y-28340646D01*
X114491442Y-28348026D01*
X114508706Y-28356678D01*
X114511605Y-28356367D01*
X114514299Y-28357482D01*
X114533292Y-28354046D01*
X114552499Y-28351991D01*
X114554771Y-28350161D01*
X114557639Y-28349643D01*
X114571761Y-28336482D01*
X114586806Y-28324370D01*
X114587728Y-28321603D01*
X114589861Y-28319616D01*
X114594628Y-28300903D01*
X115065248Y-26889041D01*
X115069911Y-26883661D01*
X115072087Y-26868526D01*
X115263846Y-26293249D01*
X115265031Y-26260464D01*
X115242574Y-26222576D01*
X115203198Y-26202844D01*
X115159405Y-26207531D01*
X115125098Y-26235152D01*
X114944752Y-26776190D01*
X114100486Y-26776190D01*
X113923694Y-26245815D01*
X113904971Y-26218875D01*
X113864272Y-26202039D01*
X113820932Y-26209879D01*
X113788710Y-26239906D01*
X113777837Y-26282586D01*
X112407142Y-26282586D01*
X112407142Y-26268979D01*
X112397899Y-26237501D01*
X112364613Y-26208659D01*
X112321018Y-26202391D01*
X112280954Y-26220687D01*
X112257142Y-26257739D01*
X112257142Y-26871428D01*
X112035646Y-26871428D01*
X112004168Y-26880671D01*
X111975326Y-26913957D01*
X111969058Y-26957552D01*
X111436040Y-26957552D01*
X111360523Y-26655483D01*
X111361454Y-26646870D01*
X111355287Y-26634536D01*
X111354669Y-26632064D01*
X111350486Y-26624935D01*
X111260572Y-26445107D01*
X111257890Y-26432777D01*
X111243270Y-26418157D01*
X111229201Y-26403032D01*
X111227782Y-26402669D01*
X111153727Y-26328614D01*
X111147285Y-26317767D01*
X111128801Y-26308524D01*
X111110662Y-26298620D01*
X111109200Y-26298724D01*
X110940720Y-26214482D01*
X110925593Y-26204761D01*
X110910263Y-26204761D01*
X110895180Y-26202047D01*
X110888636Y-26204761D01*
X110717129Y-26204761D01*
X110699250Y-26202831D01*
X110685541Y-26209685D01*
X110670834Y-26214004D01*
X110666193Y-26219359D01*
X110497487Y-26303712D01*
X110485157Y-26306395D01*
X110470532Y-26321019D01*
X110455412Y-26335085D01*
X110455049Y-26336502D01*
X110380995Y-26410556D01*
X110370147Y-26417000D01*
X110360906Y-26435481D01*
X110351000Y-26453623D01*
X110351104Y-26455084D01*
X110271034Y-26615225D01*
X110264722Y-26621160D01*
X110261377Y-26634538D01*
X110260238Y-26636817D01*
X110258774Y-26644949D01*
X110167136Y-27011502D01*
X110161904Y-27019644D01*
X110161904Y-27032432D01*
X110161528Y-27033936D01*
X110161904Y-27043182D01*
X110161904Y-27505514D01*
X110158802Y-27514683D01*
X109075036Y-27514683D01*
X109076179Y-27506733D01*
X109071586Y-27496677D01*
X109070067Y-27485730D01*
X109062629Y-27477061D01*
X109057883Y-27466669D01*
X109048582Y-27460691D01*
X109041386Y-27452305D01*
X109030442Y-27449034D01*
X109020831Y-27442857D01*
X109009775Y-27442857D01*
X108999186Y-27439692D01*
X108988211Y-27442857D01*
X108730798Y-27442857D01*
X108567043Y-27360979D01*
X108489020Y-27282954D01*
X108407142Y-27119199D01*
X108407142Y-26678420D01*
X108489019Y-26514664D01*
X108567044Y-26436639D01*
X108730799Y-26354761D01*
X109266818Y-26354761D01*
X109430572Y-26436639D01*
X109524828Y-26530895D01*
X109553622Y-26546618D01*
X109597553Y-26543475D01*
X109632812Y-26517081D01*
X109648204Y-26475814D01*
X109638842Y-26432777D01*
X109534679Y-26328614D01*
X109528237Y-26317767D01*
X109509753Y-26308524D01*
X109491614Y-26298620D01*
X109490152Y-26298724D01*
X109321672Y-26214482D01*
X109306545Y-26204761D01*
X109291215Y-26204761D01*
X109276132Y-26202047D01*
X109269588Y-26204761D01*
X108717129Y-26204761D01*
X108699250Y-26202831D01*
X108685541Y-26209685D01*
X108670834Y-26214004D01*
X108666193Y-26219359D01*
X108497487Y-26303712D01*
X108485157Y-26306395D01*
X108470532Y-26321019D01*
X108455412Y-26335085D01*
X108455049Y-26336502D01*
X108380995Y-26410556D01*
X108370147Y-26417000D01*
X108360906Y-26435481D01*
X108351000Y-26453623D01*
X108351104Y-26455084D01*
X108266865Y-26623561D01*
X108257142Y-26638692D01*
X108257142Y-26654022D01*
X108254428Y-26669105D01*
X107465476Y-26669105D01*
X107465476Y-26108650D01*
X115589747Y-26108650D01*
X115612238Y-26146519D01*
X115811524Y-26246161D01*
X115940362Y-26374999D01*
X115803730Y-26511631D01*
X115788532Y-26525922D01*
X115785520Y-26537966D01*
X115779572Y-26548861D01*
X115780289Y-26558891D01*
X115690946Y-26916264D01*
X115685714Y-26924406D01*
X115685714Y-26937194D01*
X115685338Y-26938698D01*
X115685714Y-26947944D01*
X115685714Y-27600752D01*
X115682612Y-27609921D01*
X115685714Y-27622329D01*
X115685714Y-27623877D01*
X115688318Y-27632746D01*
X115782913Y-28011125D01*
X115787347Y-28031508D01*
X115796127Y-28040288D01*
X115802408Y-28050993D01*
X115811376Y-28055537D01*
X115986746Y-28230907D01*
X115993190Y-28241757D01*
X116011690Y-28251007D01*
X116029813Y-28260903D01*
X116031273Y-28260798D01*
X116199752Y-28345037D01*
X116214882Y-28354761D01*
X116230212Y-28354761D01*
X116245295Y-28357475D01*
X116251839Y-28354761D01*
X116613817Y-28354761D01*
X116631701Y-28356692D01*
X116645414Y-28349835D01*
X116660117Y-28345518D01*
X116664755Y-28340164D01*
X116833463Y-28255810D01*
X116845794Y-28253128D01*
X116860418Y-28238503D01*
X116875539Y-28224438D01*
X116875901Y-28223020D01*
X117051021Y-28047900D01*
X117066229Y-28033602D01*
X117069240Y-28021555D01*
X117075189Y-28010662D01*
X117074471Y-28000632D01*
X117163814Y-27643258D01*
X117169047Y-27635117D01*
X117169047Y-27622329D01*
X117169423Y-27620825D01*
X117169047Y-27611579D01*
X117169047Y-26958771D01*
X117172149Y-26949602D01*
X117169047Y-26937194D01*
X117169047Y-26935646D01*
X117166442Y-26926776D01*
X117071847Y-26548397D01*
X117067414Y-26528015D01*
X117058634Y-26519235D01*
X117052353Y-26508529D01*
X117043382Y-26503983D01*
X116868013Y-26328614D01*
X116861571Y-26317767D01*
X116843087Y-26308524D01*
X116824948Y-26298620D01*
X116823486Y-26298724D01*
X116655006Y-26214482D01*
X116639879Y-26204761D01*
X116624549Y-26204761D01*
X116609466Y-26202047D01*
X116602922Y-26204761D01*
X116240939Y-26204761D01*
X116223060Y-26202831D01*
X116209351Y-26209685D01*
X116194644Y-26214004D01*
X116190003Y-26219359D01*
X116061237Y-26283742D01*
X115915633Y-26138138D01*
X115909190Y-26127290D01*
X115890708Y-26118049D01*
X115872567Y-26108143D01*
X115871105Y-26108247D01*
X115689373Y-26017381D01*
X115657085Y-26011571D01*
X115616402Y-26028444D01*
X115591299Y-26064634D01*
X115589747Y-26108650D01*
X107465476Y-26108650D01*
X107465476Y-25524286D01*
X117985714Y-25524286D01*
X117985714Y-28920714D01*
G37*
D11*
X116928857Y-56506095D02*
X117005047Y-56506095D01*
X117005047Y-56506095D02*
X117081238Y-56544190D01*
X117081238Y-56544190D02*
X117119333Y-56582285D01*
X117119333Y-56582285D02*
X117157428Y-56658476D01*
X117157428Y-56658476D02*
X117195523Y-56810857D01*
X117195523Y-56810857D02*
X117195523Y-57001333D01*
X117195523Y-57001333D02*
X117157428Y-57153714D01*
X117157428Y-57153714D02*
X117119333Y-57229904D01*
X117119333Y-57229904D02*
X117081238Y-57268000D01*
X117081238Y-57268000D02*
X117005047Y-57306095D01*
X117005047Y-57306095D02*
X116928857Y-57306095D01*
X116928857Y-57306095D02*
X116852666Y-57268000D01*
X116852666Y-57268000D02*
X116814571Y-57229904D01*
X116814571Y-57229904D02*
X116776476Y-57153714D01*
X116776476Y-57153714D02*
X116738380Y-57001333D01*
X116738380Y-57001333D02*
X116738380Y-56810857D01*
X116738380Y-56810857D02*
X116776476Y-56658476D01*
X116776476Y-56658476D02*
X116814571Y-56582285D01*
X116814571Y-56582285D02*
X116852666Y-56544190D01*
X116852666Y-56544190D02*
X116928857Y-56506095D01*
X117652666Y-56848952D02*
X117576476Y-56810857D01*
X117576476Y-56810857D02*
X117538381Y-56772761D01*
X117538381Y-56772761D02*
X117500285Y-56696571D01*
X117500285Y-56696571D02*
X117500285Y-56658476D01*
X117500285Y-56658476D02*
X117538381Y-56582285D01*
X117538381Y-56582285D02*
X117576476Y-56544190D01*
X117576476Y-56544190D02*
X117652666Y-56506095D01*
X117652666Y-56506095D02*
X117805047Y-56506095D01*
X117805047Y-56506095D02*
X117881238Y-56544190D01*
X117881238Y-56544190D02*
X117919333Y-56582285D01*
X117919333Y-56582285D02*
X117957428Y-56658476D01*
X117957428Y-56658476D02*
X117957428Y-56696571D01*
X117957428Y-56696571D02*
X117919333Y-56772761D01*
X117919333Y-56772761D02*
X117881238Y-56810857D01*
X117881238Y-56810857D02*
X117805047Y-56848952D01*
X117805047Y-56848952D02*
X117652666Y-56848952D01*
X117652666Y-56848952D02*
X117576476Y-56887047D01*
X117576476Y-56887047D02*
X117538381Y-56925142D01*
X117538381Y-56925142D02*
X117500285Y-57001333D01*
X117500285Y-57001333D02*
X117500285Y-57153714D01*
X117500285Y-57153714D02*
X117538381Y-57229904D01*
X117538381Y-57229904D02*
X117576476Y-57268000D01*
X117576476Y-57268000D02*
X117652666Y-57306095D01*
X117652666Y-57306095D02*
X117805047Y-57306095D01*
X117805047Y-57306095D02*
X117881238Y-57268000D01*
X117881238Y-57268000D02*
X117919333Y-57229904D01*
X117919333Y-57229904D02*
X117957428Y-57153714D01*
X117957428Y-57153714D02*
X117957428Y-57001333D01*
X117957428Y-57001333D02*
X117919333Y-56925142D01*
X117919333Y-56925142D02*
X117881238Y-56887047D01*
X117881238Y-56887047D02*
X117805047Y-56848952D01*
X118452667Y-56506095D02*
X118528857Y-56506095D01*
X118528857Y-56506095D02*
X118605048Y-56544190D01*
X118605048Y-56544190D02*
X118643143Y-56582285D01*
X118643143Y-56582285D02*
X118681238Y-56658476D01*
X118681238Y-56658476D02*
X118719333Y-56810857D01*
X118719333Y-56810857D02*
X118719333Y-57001333D01*
X118719333Y-57001333D02*
X118681238Y-57153714D01*
X118681238Y-57153714D02*
X118643143Y-57229904D01*
X118643143Y-57229904D02*
X118605048Y-57268000D01*
X118605048Y-57268000D02*
X118528857Y-57306095D01*
X118528857Y-57306095D02*
X118452667Y-57306095D01*
X118452667Y-57306095D02*
X118376476Y-57268000D01*
X118376476Y-57268000D02*
X118338381Y-57229904D01*
X118338381Y-57229904D02*
X118300286Y-57153714D01*
X118300286Y-57153714D02*
X118262190Y-57001333D01*
X118262190Y-57001333D02*
X118262190Y-56810857D01*
X118262190Y-56810857D02*
X118300286Y-56658476D01*
X118300286Y-56658476D02*
X118338381Y-56582285D01*
X118338381Y-56582285D02*
X118376476Y-56544190D01*
X118376476Y-56544190D02*
X118452667Y-56506095D01*
X119443143Y-56506095D02*
X119062191Y-56506095D01*
X119062191Y-56506095D02*
X119024095Y-56887047D01*
X119024095Y-56887047D02*
X119062191Y-56848952D01*
X119062191Y-56848952D02*
X119138381Y-56810857D01*
X119138381Y-56810857D02*
X119328857Y-56810857D01*
X119328857Y-56810857D02*
X119405048Y-56848952D01*
X119405048Y-56848952D02*
X119443143Y-56887047D01*
X119443143Y-56887047D02*
X119481238Y-56963238D01*
X119481238Y-56963238D02*
X119481238Y-57153714D01*
X119481238Y-57153714D02*
X119443143Y-57229904D01*
X119443143Y-57229904D02*
X119405048Y-57268000D01*
X119405048Y-57268000D02*
X119328857Y-57306095D01*
X119328857Y-57306095D02*
X119138381Y-57306095D01*
X119138381Y-57306095D02*
X119062191Y-57268000D01*
X119062191Y-57268000D02*
X119024095Y-57229904D01*
X120662191Y-57610857D02*
X120624096Y-57572761D01*
X120624096Y-57572761D02*
X120547905Y-57458476D01*
X120547905Y-57458476D02*
X120509810Y-57382285D01*
X120509810Y-57382285D02*
X120471715Y-57268000D01*
X120471715Y-57268000D02*
X120433620Y-57077523D01*
X120433620Y-57077523D02*
X120433620Y-56925142D01*
X120433620Y-56925142D02*
X120471715Y-56734666D01*
X120471715Y-56734666D02*
X120509810Y-56620380D01*
X120509810Y-56620380D02*
X120547905Y-56544190D01*
X120547905Y-56544190D02*
X120624096Y-56429904D01*
X120624096Y-56429904D02*
X120662191Y-56391809D01*
X120928857Y-56582285D02*
X120966953Y-56544190D01*
X120966953Y-56544190D02*
X121043143Y-56506095D01*
X121043143Y-56506095D02*
X121233619Y-56506095D01*
X121233619Y-56506095D02*
X121309810Y-56544190D01*
X121309810Y-56544190D02*
X121347905Y-56582285D01*
X121347905Y-56582285D02*
X121386000Y-56658476D01*
X121386000Y-56658476D02*
X121386000Y-56734666D01*
X121386000Y-56734666D02*
X121347905Y-56848952D01*
X121347905Y-56848952D02*
X120890762Y-57306095D01*
X120890762Y-57306095D02*
X121386000Y-57306095D01*
X121881239Y-56506095D02*
X121957429Y-56506095D01*
X121957429Y-56506095D02*
X122033620Y-56544190D01*
X122033620Y-56544190D02*
X122071715Y-56582285D01*
X122071715Y-56582285D02*
X122109810Y-56658476D01*
X122109810Y-56658476D02*
X122147905Y-56810857D01*
X122147905Y-56810857D02*
X122147905Y-57001333D01*
X122147905Y-57001333D02*
X122109810Y-57153714D01*
X122109810Y-57153714D02*
X122071715Y-57229904D01*
X122071715Y-57229904D02*
X122033620Y-57268000D01*
X122033620Y-57268000D02*
X121957429Y-57306095D01*
X121957429Y-57306095D02*
X121881239Y-57306095D01*
X121881239Y-57306095D02*
X121805048Y-57268000D01*
X121805048Y-57268000D02*
X121766953Y-57229904D01*
X121766953Y-57229904D02*
X121728858Y-57153714D01*
X121728858Y-57153714D02*
X121690762Y-57001333D01*
X121690762Y-57001333D02*
X121690762Y-56810857D01*
X121690762Y-56810857D02*
X121728858Y-56658476D01*
X121728858Y-56658476D02*
X121766953Y-56582285D01*
X121766953Y-56582285D02*
X121805048Y-56544190D01*
X121805048Y-56544190D02*
X121881239Y-56506095D01*
X122909810Y-57306095D02*
X122452667Y-57306095D01*
X122681239Y-57306095D02*
X122681239Y-56506095D01*
X122681239Y-56506095D02*
X122605048Y-56620380D01*
X122605048Y-56620380D02*
X122528858Y-56696571D01*
X122528858Y-56696571D02*
X122452667Y-56734666D01*
X123214572Y-56582285D02*
X123252668Y-56544190D01*
X123252668Y-56544190D02*
X123328858Y-56506095D01*
X123328858Y-56506095D02*
X123519334Y-56506095D01*
X123519334Y-56506095D02*
X123595525Y-56544190D01*
X123595525Y-56544190D02*
X123633620Y-56582285D01*
X123633620Y-56582285D02*
X123671715Y-56658476D01*
X123671715Y-56658476D02*
X123671715Y-56734666D01*
X123671715Y-56734666D02*
X123633620Y-56848952D01*
X123633620Y-56848952D02*
X123176477Y-57306095D01*
X123176477Y-57306095D02*
X123671715Y-57306095D01*
X123938382Y-57610857D02*
X123976477Y-57572761D01*
X123976477Y-57572761D02*
X124052668Y-57458476D01*
X124052668Y-57458476D02*
X124090763Y-57382285D01*
X124090763Y-57382285D02*
X124128858Y-57268000D01*
X124128858Y-57268000D02*
X124166954Y-57077523D01*
X124166954Y-57077523D02*
X124166954Y-56925142D01*
X124166954Y-56925142D02*
X124128858Y-56734666D01*
X124128858Y-56734666D02*
X124090763Y-56620380D01*
X124090763Y-56620380D02*
X124052668Y-56544190D01*
X124052668Y-56544190D02*
X123976477Y-56429904D01*
X123976477Y-56429904D02*
X123938382Y-56391809D01*
D10*
G36*
X99197581Y-64916028D02*
G01*
X99366931Y-65085378D01*
X99453044Y-65257604D01*
X99544047Y-65621614D01*
X99544047Y-65888861D01*
X99453044Y-66252872D01*
X99366931Y-66425096D01*
X99197581Y-66594447D01*
X98940208Y-66680238D01*
X98551190Y-66680238D01*
X98551190Y-64830238D01*
X98940210Y-64830238D01*
X99197581Y-64916028D01*
G37*
G36*
X107860335Y-64912115D02*
G01*
X107938360Y-64990140D01*
X108020238Y-65153895D01*
X108020238Y-65404200D01*
X107938360Y-65567953D01*
X107860335Y-65645979D01*
X107696581Y-65727857D01*
X107432443Y-65727857D01*
X107414398Y-65725987D01*
X107410698Y-65727857D01*
X107027381Y-65727857D01*
X107027381Y-64830238D01*
X107696580Y-64830238D01*
X107860335Y-64912115D01*
G37*
G36*
X101384144Y-64912115D02*
G01*
X101462169Y-64990140D01*
X101544047Y-65153895D01*
X101544047Y-65404200D01*
X101462169Y-65567953D01*
X101384144Y-65645979D01*
X101220390Y-65727857D01*
X100956252Y-65727857D01*
X100938207Y-65725987D01*
X100934507Y-65727857D01*
X100551190Y-65727857D01*
X100551190Y-64830238D01*
X101220389Y-64830238D01*
X101384144Y-64912115D01*
G37*
G36*
X108961905Y-67510714D02*
G01*
X97489286Y-67510714D01*
X97489286Y-66766362D01*
X98398820Y-66766362D01*
X98405739Y-66781514D01*
X98410433Y-66797498D01*
X98414745Y-66801234D01*
X98417116Y-66806426D01*
X98431132Y-66815433D01*
X98443719Y-66826340D01*
X98449365Y-66827151D01*
X98454168Y-66830238D01*
X98470830Y-66830238D01*
X98487314Y-66832608D01*
X98492504Y-66830238D01*
X98942977Y-66830238D01*
X98955205Y-66833353D01*
X98974817Y-66826815D01*
X98994640Y-66820995D01*
X98995598Y-66819888D01*
X99257985Y-66732427D01*
X99275556Y-66728605D01*
X99286394Y-66717766D01*
X99298981Y-66709019D01*
X99301689Y-66702471D01*
X99474955Y-66529204D01*
X99485805Y-66522761D01*
X99495059Y-66504251D01*
X99504950Y-66486138D01*
X99504845Y-66484679D01*
X99584916Y-66324537D01*
X99591229Y-66318602D01*
X99594573Y-66305222D01*
X99595713Y-66302944D01*
X99597175Y-66294814D01*
X99688814Y-65928258D01*
X99694047Y-65920117D01*
X99694047Y-65907329D01*
X99694423Y-65905825D01*
X99694047Y-65896579D01*
X99694047Y-65813981D01*
X100398820Y-65813981D01*
X100401190Y-65819171D01*
X100401190Y-66766020D01*
X100410433Y-66797498D01*
X100443719Y-66826340D01*
X100487314Y-66832608D01*
X100527378Y-66814312D01*
X100551190Y-66777260D01*
X100551190Y-65877857D01*
X100913331Y-65877857D01*
X101563787Y-66807080D01*
X101589411Y-66827568D01*
X101633220Y-66832108D01*
X101672529Y-66812242D01*
X101694858Y-66774279D01*
X101694531Y-66766020D01*
X102401190Y-66766020D01*
X102410433Y-66797498D01*
X102443719Y-66826340D01*
X102487314Y-66832608D01*
X102527378Y-66814312D01*
X102551190Y-66777260D01*
X102551190Y-64758063D01*
X103064742Y-64758063D01*
X103734082Y-66766087D01*
X103733777Y-66774535D01*
X103740908Y-66786567D01*
X103741781Y-66789184D01*
X103746393Y-66795821D01*
X103756234Y-66812423D01*
X103758839Y-66813728D01*
X103760504Y-66816124D01*
X103778357Y-66823509D01*
X103795610Y-66832155D01*
X103798507Y-66831844D01*
X103801203Y-66832960D01*
X103820204Y-66829522D01*
X103839403Y-66827468D01*
X103841674Y-66825638D01*
X103844543Y-66825120D01*
X103858669Y-66811956D01*
X103873710Y-66799847D01*
X103874631Y-66797081D01*
X103876765Y-66795094D01*
X103881532Y-66776379D01*
X103884871Y-66766362D01*
X105065487Y-66766362D01*
X105072406Y-66781514D01*
X105077100Y-66797498D01*
X105081412Y-66801234D01*
X105083783Y-66806426D01*
X105097799Y-66815433D01*
X105110386Y-66826340D01*
X105116032Y-66827151D01*
X105120835Y-66830238D01*
X105137497Y-66830238D01*
X105153981Y-66832608D01*
X105159171Y-66830238D01*
X106106020Y-66830238D01*
X106137498Y-66820995D01*
X106166340Y-66787709D01*
X106172608Y-66744114D01*
X106154312Y-66704050D01*
X106117260Y-66680238D01*
X105217857Y-66680238D01*
X105217857Y-65813981D01*
X106875011Y-65813981D01*
X106877381Y-65819171D01*
X106877381Y-66766020D01*
X106886624Y-66797498D01*
X106919910Y-66826340D01*
X106963505Y-66832608D01*
X107003569Y-66814312D01*
X107027381Y-66777260D01*
X107027381Y-65877857D01*
X107389522Y-65877857D01*
X108039978Y-66807080D01*
X108065602Y-66827568D01*
X108109411Y-66832108D01*
X108148720Y-66812242D01*
X108171049Y-66774279D01*
X108169309Y-66730269D01*
X107572620Y-65877857D01*
X107710246Y-65877857D01*
X107728130Y-65879788D01*
X107741843Y-65872931D01*
X107756546Y-65868614D01*
X107761184Y-65863260D01*
X107929892Y-65778906D01*
X107942223Y-65776224D01*
X107956845Y-65761601D01*
X107971968Y-65747534D01*
X107972330Y-65746116D01*
X108046384Y-65672061D01*
X108057234Y-65665618D01*
X108066483Y-65647118D01*
X108076380Y-65628994D01*
X108076275Y-65627534D01*
X108160514Y-65459055D01*
X108170238Y-65443926D01*
X108170238Y-65428596D01*
X108172952Y-65413513D01*
X108170238Y-65406969D01*
X108170238Y-65140231D01*
X108172169Y-65122346D01*
X108165312Y-65108632D01*
X108160995Y-65093930D01*
X108155641Y-65089291D01*
X108071287Y-64920583D01*
X108068605Y-64908253D01*
X108053985Y-64893633D01*
X108039916Y-64878508D01*
X108038497Y-64878145D01*
X107964443Y-64804091D01*
X107958000Y-64793243D01*
X107939518Y-64784002D01*
X107921377Y-64774096D01*
X107919915Y-64774200D01*
X107751438Y-64689961D01*
X107736308Y-64680238D01*
X107720978Y-64680238D01*
X107705895Y-64677524D01*
X107699351Y-64680238D01*
X106957741Y-64680238D01*
X106941257Y-64677868D01*
X106926104Y-64684787D01*
X106910121Y-64689481D01*
X106906384Y-64693793D01*
X106901193Y-64696164D01*
X106892185Y-64710180D01*
X106881279Y-64722767D01*
X106880467Y-64728413D01*
X106877381Y-64733216D01*
X106877381Y-64749878D01*
X106875011Y-64766362D01*
X106877381Y-64771552D01*
X106877381Y-65797497D01*
X106875011Y-65813981D01*
X105217857Y-65813981D01*
X105217857Y-65782619D01*
X105820306Y-65782619D01*
X105851784Y-65773376D01*
X105880626Y-65740090D01*
X105886894Y-65696495D01*
X105868598Y-65656431D01*
X105831546Y-65632619D01*
X105217857Y-65632619D01*
X105217857Y-64830238D01*
X106106020Y-64830238D01*
X106137498Y-64820995D01*
X106166340Y-64787709D01*
X106172608Y-64744114D01*
X106154312Y-64704050D01*
X106117260Y-64680238D01*
X105148217Y-64680238D01*
X105131733Y-64677868D01*
X105116580Y-64684787D01*
X105100597Y-64689481D01*
X105096860Y-64693793D01*
X105091669Y-64696164D01*
X105082661Y-64710180D01*
X105071755Y-64722767D01*
X105070943Y-64728413D01*
X105067857Y-64733216D01*
X105067857Y-64749878D01*
X105065487Y-64766362D01*
X105067857Y-64771552D01*
X105067857Y-65702259D01*
X105065487Y-65718743D01*
X105067857Y-65723933D01*
X105067857Y-66749878D01*
X105065487Y-66766362D01*
X103884871Y-66766362D01*
X104550751Y-64768727D01*
X104551936Y-64735941D01*
X104529479Y-64698053D01*
X104490103Y-64678321D01*
X104446310Y-64683009D01*
X104412003Y-64710629D01*
X103809522Y-66518067D01*
X103210599Y-64721292D01*
X103191876Y-64694352D01*
X103151177Y-64677516D01*
X103107837Y-64685356D01*
X103075615Y-64715383D01*
X103064742Y-64758063D01*
X102551190Y-64758063D01*
X102551190Y-64744456D01*
X102541947Y-64712978D01*
X102508661Y-64684136D01*
X102465066Y-64677868D01*
X102425002Y-64696164D01*
X102401190Y-64733216D01*
X102401190Y-66766020D01*
X101694531Y-66766020D01*
X101693118Y-66730269D01*
X101096429Y-65877857D01*
X101234055Y-65877857D01*
X101251939Y-65879788D01*
X101265652Y-65872931D01*
X101280355Y-65868614D01*
X101284993Y-65863260D01*
X101453701Y-65778906D01*
X101466032Y-65776224D01*
X101480654Y-65761601D01*
X101495777Y-65747534D01*
X101496139Y-65746116D01*
X101570193Y-65672061D01*
X101581043Y-65665618D01*
X101590292Y-65647118D01*
X101600189Y-65628994D01*
X101600084Y-65627534D01*
X101684323Y-65459055D01*
X101694047Y-65443926D01*
X101694047Y-65428596D01*
X101696761Y-65413513D01*
X101694047Y-65406969D01*
X101694047Y-65140231D01*
X101695978Y-65122346D01*
X101689121Y-65108632D01*
X101684804Y-65093930D01*
X101679450Y-65089291D01*
X101595096Y-64920583D01*
X101592414Y-64908253D01*
X101577794Y-64893633D01*
X101563725Y-64878508D01*
X101562306Y-64878145D01*
X101488252Y-64804091D01*
X101481809Y-64793243D01*
X101463327Y-64784002D01*
X101445186Y-64774096D01*
X101443724Y-64774200D01*
X101275247Y-64689961D01*
X101260117Y-64680238D01*
X101244787Y-64680238D01*
X101229704Y-64677524D01*
X101223160Y-64680238D01*
X100481550Y-64680238D01*
X100465066Y-64677868D01*
X100449913Y-64684787D01*
X100433930Y-64689481D01*
X100430193Y-64693793D01*
X100425002Y-64696164D01*
X100415994Y-64710180D01*
X100405088Y-64722767D01*
X100404276Y-64728413D01*
X100401190Y-64733216D01*
X100401190Y-64749878D01*
X100398820Y-64766362D01*
X100401190Y-64771552D01*
X100401190Y-65797497D01*
X100398820Y-65813981D01*
X99694047Y-65813981D01*
X99694047Y-65624723D01*
X99697149Y-65615554D01*
X99694047Y-65603146D01*
X99694047Y-65601598D01*
X99691442Y-65592728D01*
X99599809Y-65226197D01*
X99600740Y-65217584D01*
X99594573Y-65205250D01*
X99593955Y-65202778D01*
X99589772Y-65195649D01*
X99499858Y-65015821D01*
X99497176Y-65003491D01*
X99482556Y-64988871D01*
X99468487Y-64973746D01*
X99467068Y-64973383D01*
X99293982Y-64800297D01*
X99282704Y-64786289D01*
X99268162Y-64781441D01*
X99254710Y-64774096D01*
X99247642Y-64774601D01*
X98985017Y-64687060D01*
X98974402Y-64680238D01*
X98953722Y-64680238D01*
X98933083Y-64679492D01*
X98931824Y-64680238D01*
X98481550Y-64680238D01*
X98465066Y-64677868D01*
X98449913Y-64684787D01*
X98433930Y-64689481D01*
X98430193Y-64693793D01*
X98425002Y-64696164D01*
X98415994Y-64710180D01*
X98405088Y-64722767D01*
X98404276Y-64728413D01*
X98401190Y-64733216D01*
X98401190Y-64749878D01*
X98398820Y-64766362D01*
X98401190Y-64771552D01*
X98401190Y-66749878D01*
X98398820Y-66766362D01*
X97489286Y-66766362D01*
X97489286Y-64114286D01*
X108961905Y-64114286D01*
X108961905Y-67510714D01*
G37*
G36*
X106669859Y-44986878D02*
G01*
X106700264Y-45017283D01*
X106734523Y-45085799D01*
X106734523Y-45193246D01*
X106700264Y-45261763D01*
X106669857Y-45292170D01*
X106601342Y-45326428D01*
X106480062Y-45326428D01*
X106462017Y-45324558D01*
X106458317Y-45326428D01*
X106313095Y-45326428D01*
X106313095Y-44952619D01*
X106601341Y-44952619D01*
X106669859Y-44986878D01*
G37*
G36*
X117923812Y-46367857D02*
G01*
X105632143Y-46367857D01*
X105632143Y-45412552D01*
X106160725Y-45412552D01*
X106163095Y-45417742D01*
X106163095Y-45888401D01*
X106172338Y-45919879D01*
X106205624Y-45948721D01*
X106249219Y-45954989D01*
X106289283Y-45936693D01*
X106313095Y-45899641D01*
X106313095Y-45476428D01*
X106437141Y-45476428D01*
X106754264Y-45929462D01*
X106779887Y-45949949D01*
X106823696Y-45954489D01*
X106863005Y-45934624D01*
X106885335Y-45896660D01*
X106883594Y-45852651D01*
X106742191Y-45650647D01*
X107922630Y-45650647D01*
X107940926Y-45690711D01*
X107977978Y-45714523D01*
X108772687Y-45714523D01*
X108804165Y-45705280D01*
X108833007Y-45671994D01*
X108839275Y-45628399D01*
X108820979Y-45588335D01*
X108783927Y-45564523D01*
X107989218Y-45564523D01*
X107957740Y-45573766D01*
X107928898Y-45607052D01*
X107922630Y-45650647D01*
X106742191Y-45650647D01*
X106620666Y-45477039D01*
X106632891Y-45478359D01*
X106646604Y-45471502D01*
X106661307Y-45467185D01*
X106665945Y-45461831D01*
X106739414Y-45425096D01*
X106751746Y-45422414D01*
X106766373Y-45407786D01*
X106781491Y-45393725D01*
X106781853Y-45392306D01*
X106808288Y-45365871D01*
X106809868Y-45364933D01*
X107922630Y-45364933D01*
X107940926Y-45404997D01*
X107977978Y-45428809D01*
X108772687Y-45428809D01*
X108804165Y-45419566D01*
X108833007Y-45386280D01*
X108839275Y-45342685D01*
X108820979Y-45302621D01*
X108783927Y-45278809D01*
X107989218Y-45278809D01*
X107957740Y-45288052D01*
X107928898Y-45321338D01*
X107922630Y-45364933D01*
X106809868Y-45364933D01*
X106819138Y-45359428D01*
X106828392Y-45340918D01*
X106838283Y-45322805D01*
X106838178Y-45321346D01*
X106874801Y-45248100D01*
X106884523Y-45232974D01*
X106884523Y-45217644D01*
X106887237Y-45202561D01*
X106884523Y-45196017D01*
X106884523Y-45072126D01*
X106886453Y-45054251D01*
X106879598Y-45040541D01*
X106875280Y-45025835D01*
X106869925Y-45021195D01*
X106833191Y-44947726D01*
X106830509Y-44935396D01*
X106815889Y-44920776D01*
X106801820Y-44905651D01*
X106800401Y-44905288D01*
X106773966Y-44878853D01*
X106767523Y-44868004D01*
X106749022Y-44858753D01*
X106730900Y-44848858D01*
X106729439Y-44848962D01*
X106656198Y-44812342D01*
X106641069Y-44802619D01*
X106625739Y-44802619D01*
X106610656Y-44799905D01*
X106604112Y-44802619D01*
X106243455Y-44802619D01*
X106226971Y-44800249D01*
X106211818Y-44807168D01*
X106195835Y-44811862D01*
X106192098Y-44816174D01*
X106186907Y-44818545D01*
X106177899Y-44832561D01*
X106166993Y-44845148D01*
X106166181Y-44850794D01*
X106163095Y-44855597D01*
X106163095Y-44872259D01*
X106160725Y-44888743D01*
X106163095Y-44893933D01*
X106163095Y-45396068D01*
X106160725Y-45412552D01*
X105632143Y-45412552D01*
X105632143Y-44257143D01*
X117923812Y-44257143D01*
X117923812Y-46367857D01*
G37*
G36*
X120943561Y-66108809D02*
G01*
X120199295Y-66108809D01*
X120571428Y-64992408D01*
X120943561Y-66108809D01*
G37*
G36*
X126622240Y-64912115D02*
G01*
X126700265Y-64990140D01*
X126782143Y-65153895D01*
X126782143Y-65404200D01*
X126700265Y-65567953D01*
X126622240Y-65645979D01*
X126458486Y-65727857D01*
X126194348Y-65727857D01*
X126176303Y-65725987D01*
X126172603Y-65727857D01*
X125789286Y-65727857D01*
X125789286Y-64830238D01*
X126458485Y-64830238D01*
X126622240Y-64912115D01*
G37*
G36*
X117288906Y-64912115D02*
G01*
X117366931Y-64990140D01*
X117448809Y-65153895D01*
X117448809Y-65404200D01*
X117366931Y-65567953D01*
X117288906Y-65645979D01*
X117125152Y-65727857D01*
X116455952Y-65727857D01*
X116455952Y-64830238D01*
X117125151Y-64830238D01*
X117288906Y-64912115D01*
G37*
G36*
X127723810Y-67510714D02*
G01*
X113489286Y-67510714D01*
X113489286Y-65144581D01*
X114303238Y-65144581D01*
X114305952Y-65151125D01*
X114305952Y-65322626D01*
X114304021Y-65340510D01*
X114310877Y-65354223D01*
X114315195Y-65368926D01*
X114320548Y-65373564D01*
X114404902Y-65542272D01*
X114407585Y-65554603D01*
X114422209Y-65569227D01*
X114436275Y-65584348D01*
X114437692Y-65584710D01*
X114511747Y-65658765D01*
X114518190Y-65669613D01*
X114536673Y-65678855D01*
X114554813Y-65688760D01*
X114556274Y-65688655D01*
X114716414Y-65768726D01*
X114722349Y-65775039D01*
X114735727Y-65778383D01*
X114738006Y-65779523D01*
X114746138Y-65780986D01*
X115116679Y-65873621D01*
X115288906Y-65959734D01*
X115366931Y-66037759D01*
X115448809Y-66201514D01*
X115448809Y-66356581D01*
X115366931Y-66520334D01*
X115288906Y-66598360D01*
X115125152Y-66680238D01*
X114678836Y-66680238D01*
X114394440Y-66585439D01*
X114361655Y-66584254D01*
X114323767Y-66606711D01*
X114304035Y-66646087D01*
X114308722Y-66689880D01*
X114336343Y-66724187D01*
X114634028Y-66823415D01*
X114644644Y-66830238D01*
X114665324Y-66830238D01*
X114685963Y-66830984D01*
X114687222Y-66830238D01*
X115138817Y-66830238D01*
X115156701Y-66832169D01*
X115170414Y-66825312D01*
X115185117Y-66820995D01*
X115189755Y-66815641D01*
X115358463Y-66731287D01*
X115370794Y-66728605D01*
X115385416Y-66713982D01*
X115400539Y-66699915D01*
X115400901Y-66698497D01*
X115474955Y-66624442D01*
X115485805Y-66617999D01*
X115495054Y-66599499D01*
X115504951Y-66581375D01*
X115504846Y-66579915D01*
X115589085Y-66411436D01*
X115598809Y-66396307D01*
X115598809Y-66380977D01*
X115601523Y-66365894D01*
X115598809Y-66359350D01*
X115598809Y-66187850D01*
X115600740Y-66169965D01*
X115593883Y-66156251D01*
X115589566Y-66141549D01*
X115584212Y-66136910D01*
X115499858Y-65968202D01*
X115497176Y-65955872D01*
X115482556Y-65941252D01*
X115468487Y-65926127D01*
X115467068Y-65925764D01*
X115393014Y-65851710D01*
X115386571Y-65840862D01*
X115368089Y-65831621D01*
X115349948Y-65821715D01*
X115348486Y-65821819D01*
X115332810Y-65813981D01*
X116303582Y-65813981D01*
X116305952Y-65819171D01*
X116305952Y-66766020D01*
X116315195Y-66797498D01*
X116348481Y-66826340D01*
X116392076Y-66832608D01*
X116432140Y-66814312D01*
X116455952Y-66777260D01*
X116455952Y-66766362D01*
X118303582Y-66766362D01*
X118310501Y-66781514D01*
X118315195Y-66797498D01*
X118319507Y-66801234D01*
X118321878Y-66806426D01*
X118335894Y-66815433D01*
X118348481Y-66826340D01*
X118354127Y-66827151D01*
X118358930Y-66830238D01*
X118375592Y-66830238D01*
X118392076Y-66832608D01*
X118397266Y-66830238D01*
X119344115Y-66830238D01*
X119375593Y-66820995D01*
X119404435Y-66787709D01*
X119406329Y-66774535D01*
X119829016Y-66774535D01*
X119851473Y-66812423D01*
X119890849Y-66832155D01*
X119934642Y-66827468D01*
X119968949Y-66799847D01*
X120149295Y-66258809D01*
X120993561Y-66258809D01*
X121170353Y-66789184D01*
X121189076Y-66816123D01*
X121229775Y-66832959D01*
X121273115Y-66825120D01*
X121305337Y-66795093D01*
X121316210Y-66752413D01*
X121124379Y-66176922D01*
X121124989Y-66172685D01*
X121117503Y-66156294D01*
X121025898Y-65881480D01*
X121828382Y-65881480D01*
X121829762Y-65900769D01*
X121829762Y-66766020D01*
X121839005Y-66797498D01*
X121872291Y-66826340D01*
X121915886Y-66832608D01*
X121955950Y-66814312D01*
X121979762Y-66777260D01*
X121979762Y-65929161D01*
X122182362Y-65726560D01*
X122994088Y-66808863D01*
X123020369Y-66828500D01*
X123064303Y-66831602D01*
X123102940Y-66810459D01*
X123124014Y-66771784D01*
X123123621Y-66766362D01*
X123827392Y-66766362D01*
X123834311Y-66781514D01*
X123839005Y-66797498D01*
X123843317Y-66801234D01*
X123845688Y-66806426D01*
X123859704Y-66815433D01*
X123872291Y-66826340D01*
X123877937Y-66827151D01*
X123882740Y-66830238D01*
X123899402Y-66830238D01*
X123915886Y-66832608D01*
X123921076Y-66830238D01*
X124867925Y-66830238D01*
X124899403Y-66820995D01*
X124928245Y-66787709D01*
X124934513Y-66744114D01*
X124916217Y-66704050D01*
X124879165Y-66680238D01*
X123979762Y-66680238D01*
X123979762Y-65813981D01*
X125636916Y-65813981D01*
X125639286Y-65819171D01*
X125639286Y-66766020D01*
X125648529Y-66797498D01*
X125681815Y-66826340D01*
X125725410Y-66832608D01*
X125765474Y-66814312D01*
X125789286Y-66777260D01*
X125789286Y-65877857D01*
X126151427Y-65877857D01*
X126801883Y-66807080D01*
X126827507Y-66827568D01*
X126871316Y-66832108D01*
X126910625Y-66812242D01*
X126932954Y-66774279D01*
X126931214Y-66730269D01*
X126334525Y-65877857D01*
X126472151Y-65877857D01*
X126490035Y-65879788D01*
X126503748Y-65872931D01*
X126518451Y-65868614D01*
X126523089Y-65863260D01*
X126691797Y-65778906D01*
X126704128Y-65776224D01*
X126718750Y-65761601D01*
X126733873Y-65747534D01*
X126734235Y-65746116D01*
X126808289Y-65672061D01*
X126819139Y-65665618D01*
X126828388Y-65647118D01*
X126838285Y-65628994D01*
X126838180Y-65627534D01*
X126922419Y-65459055D01*
X126932143Y-65443926D01*
X126932143Y-65428596D01*
X126934857Y-65413513D01*
X126932143Y-65406969D01*
X126932143Y-65140231D01*
X126934074Y-65122346D01*
X126927217Y-65108632D01*
X126922900Y-65093930D01*
X126917546Y-65089291D01*
X126833192Y-64920583D01*
X126830510Y-64908253D01*
X126815890Y-64893633D01*
X126801821Y-64878508D01*
X126800402Y-64878145D01*
X126726348Y-64804091D01*
X126719905Y-64793243D01*
X126701423Y-64784002D01*
X126683282Y-64774096D01*
X126681820Y-64774200D01*
X126513343Y-64689961D01*
X126498213Y-64680238D01*
X126482883Y-64680238D01*
X126467800Y-64677524D01*
X126461256Y-64680238D01*
X125719646Y-64680238D01*
X125703162Y-64677868D01*
X125688009Y-64684787D01*
X125672026Y-64689481D01*
X125668289Y-64693793D01*
X125663098Y-64696164D01*
X125654090Y-64710180D01*
X125643184Y-64722767D01*
X125642372Y-64728413D01*
X125639286Y-64733216D01*
X125639286Y-64749878D01*
X125636916Y-64766362D01*
X125639286Y-64771552D01*
X125639286Y-65797497D01*
X125636916Y-65813981D01*
X123979762Y-65813981D01*
X123979762Y-65782619D01*
X124582211Y-65782619D01*
X124613689Y-65773376D01*
X124642531Y-65740090D01*
X124648799Y-65696495D01*
X124630503Y-65656431D01*
X124593451Y-65632619D01*
X123979762Y-65632619D01*
X123979762Y-64830238D01*
X124867925Y-64830238D01*
X124899403Y-64820995D01*
X124928245Y-64787709D01*
X124934513Y-64744114D01*
X124916217Y-64704050D01*
X124879165Y-64680238D01*
X123910122Y-64680238D01*
X123893638Y-64677868D01*
X123878485Y-64684787D01*
X123862502Y-64689481D01*
X123858765Y-64693793D01*
X123853574Y-64696164D01*
X123844566Y-64710180D01*
X123833660Y-64722767D01*
X123832848Y-64728413D01*
X123829762Y-64733216D01*
X123829762Y-64749878D01*
X123827392Y-64766362D01*
X123829762Y-64771552D01*
X123829762Y-65702259D01*
X123827392Y-65718743D01*
X123829762Y-65723933D01*
X123829762Y-66749878D01*
X123827392Y-66766362D01*
X123123621Y-66766362D01*
X123120832Y-66727855D01*
X122289504Y-65619418D01*
X123108276Y-64800647D01*
X123123999Y-64771853D01*
X123120856Y-64727922D01*
X123094462Y-64692663D01*
X123053195Y-64677271D01*
X123010158Y-64686633D01*
X122145044Y-65551746D01*
X122135155Y-65557158D01*
X122129793Y-65566997D01*
X121979762Y-65717029D01*
X121979762Y-64744456D01*
X121970519Y-64712978D01*
X121937233Y-64684136D01*
X121893638Y-64677868D01*
X121853574Y-64696164D01*
X121829762Y-64733216D01*
X121829762Y-65878953D01*
X121828382Y-65881480D01*
X121025898Y-65881480D01*
X120646868Y-64744388D01*
X120647174Y-64735941D01*
X120640042Y-64723908D01*
X120639170Y-64721292D01*
X120634557Y-64714654D01*
X120624717Y-64698053D01*
X120622111Y-64696747D01*
X120620447Y-64694352D01*
X120602593Y-64686966D01*
X120585341Y-64678321D01*
X120582443Y-64678631D01*
X120579748Y-64677516D01*
X120560746Y-64680953D01*
X120541548Y-64683008D01*
X120539276Y-64684837D01*
X120536408Y-64685356D01*
X120522285Y-64698516D01*
X120507241Y-64710629D01*
X120506318Y-64713395D01*
X120504186Y-64715383D01*
X120499418Y-64734095D01*
X120028798Y-66145957D01*
X120024136Y-66151338D01*
X120021959Y-66166472D01*
X119830201Y-66741750D01*
X119829016Y-66774535D01*
X119406329Y-66774535D01*
X119410703Y-66744114D01*
X119392407Y-66704050D01*
X119355355Y-66680238D01*
X118455952Y-66680238D01*
X118455952Y-65782619D01*
X119058401Y-65782619D01*
X119089879Y-65773376D01*
X119118721Y-65740090D01*
X119124989Y-65696495D01*
X119106693Y-65656431D01*
X119069641Y-65632619D01*
X118455952Y-65632619D01*
X118455952Y-64830238D01*
X119344115Y-64830238D01*
X119375593Y-64820995D01*
X119404435Y-64787709D01*
X119410703Y-64744114D01*
X119392407Y-64704050D01*
X119355355Y-64680238D01*
X118386312Y-64680238D01*
X118369828Y-64677868D01*
X118354675Y-64684787D01*
X118338692Y-64689481D01*
X118334955Y-64693793D01*
X118329764Y-64696164D01*
X118320756Y-64710180D01*
X118309850Y-64722767D01*
X118309038Y-64728413D01*
X118305952Y-64733216D01*
X118305952Y-64749878D01*
X118303582Y-64766362D01*
X118305952Y-64771552D01*
X118305952Y-65702259D01*
X118303582Y-65718743D01*
X118305952Y-65723933D01*
X118305952Y-66749878D01*
X118303582Y-66766362D01*
X116455952Y-66766362D01*
X116455952Y-65877857D01*
X117138817Y-65877857D01*
X117156701Y-65879788D01*
X117170414Y-65872931D01*
X117185117Y-65868614D01*
X117189755Y-65863260D01*
X117358463Y-65778906D01*
X117370794Y-65776224D01*
X117385416Y-65761601D01*
X117400539Y-65747534D01*
X117400901Y-65746116D01*
X117474955Y-65672061D01*
X117485805Y-65665618D01*
X117495054Y-65647118D01*
X117504951Y-65628994D01*
X117504846Y-65627534D01*
X117589085Y-65459055D01*
X117598809Y-65443926D01*
X117598809Y-65428596D01*
X117601523Y-65413513D01*
X117598809Y-65406969D01*
X117598809Y-65140231D01*
X117600740Y-65122346D01*
X117593883Y-65108632D01*
X117589566Y-65093930D01*
X117584212Y-65089291D01*
X117499858Y-64920583D01*
X117497176Y-64908253D01*
X117482556Y-64893633D01*
X117468487Y-64878508D01*
X117467068Y-64878145D01*
X117393014Y-64804091D01*
X117386571Y-64793243D01*
X117368089Y-64784002D01*
X117349948Y-64774096D01*
X117348486Y-64774200D01*
X117180009Y-64689961D01*
X117164879Y-64680238D01*
X117149549Y-64680238D01*
X117134466Y-64677524D01*
X117127922Y-64680238D01*
X116386312Y-64680238D01*
X116369828Y-64677868D01*
X116354675Y-64684787D01*
X116338692Y-64689481D01*
X116334955Y-64693793D01*
X116329764Y-64696164D01*
X116320756Y-64710180D01*
X116309850Y-64722767D01*
X116309038Y-64728413D01*
X116305952Y-64733216D01*
X116305952Y-64749878D01*
X116303582Y-64766362D01*
X116305952Y-64771552D01*
X116305952Y-65797497D01*
X116303582Y-65813981D01*
X115332810Y-65813981D01*
X115188345Y-65741749D01*
X115182411Y-65735437D01*
X115169033Y-65732092D01*
X115166754Y-65730953D01*
X115158621Y-65729489D01*
X114788078Y-65636854D01*
X114615854Y-65550740D01*
X114537829Y-65472715D01*
X114455952Y-65308961D01*
X114455952Y-65153896D01*
X114537829Y-64990140D01*
X114615854Y-64912115D01*
X114779609Y-64830238D01*
X115225925Y-64830238D01*
X115510321Y-64925037D01*
X115543106Y-64926222D01*
X115580994Y-64903765D01*
X115600726Y-64864389D01*
X115596039Y-64820596D01*
X115568418Y-64786289D01*
X115270732Y-64687060D01*
X115260117Y-64680238D01*
X115239437Y-64680238D01*
X115218798Y-64679492D01*
X115217539Y-64680238D01*
X114765945Y-64680238D01*
X114748060Y-64678307D01*
X114734346Y-64685163D01*
X114719644Y-64689481D01*
X114715005Y-64694834D01*
X114546297Y-64779188D01*
X114533967Y-64781871D01*
X114519347Y-64796490D01*
X114504222Y-64810560D01*
X114503859Y-64811978D01*
X114429805Y-64886032D01*
X114418957Y-64892476D01*
X114409716Y-64910957D01*
X114399810Y-64929099D01*
X114399914Y-64930560D01*
X114315675Y-65099037D01*
X114305952Y-65114168D01*
X114305952Y-65129498D01*
X114303238Y-65144581D01*
X113489286Y-65144581D01*
X113489286Y-64114286D01*
X127723810Y-64114286D01*
X127723810Y-67510714D01*
G37*
X85826571Y-42976000D02*
X85998000Y-43033142D01*
X85998000Y-43033142D02*
X86283714Y-43033142D01*
X86283714Y-43033142D02*
X86398000Y-42976000D01*
X86398000Y-42976000D02*
X86455142Y-42918857D01*
X86455142Y-42918857D02*
X86512285Y-42804571D01*
X86512285Y-42804571D02*
X86512285Y-42690285D01*
X86512285Y-42690285D02*
X86455142Y-42576000D01*
X86455142Y-42576000D02*
X86398000Y-42518857D01*
X86398000Y-42518857D02*
X86283714Y-42461714D01*
X86283714Y-42461714D02*
X86055142Y-42404571D01*
X86055142Y-42404571D02*
X85940857Y-42347428D01*
X85940857Y-42347428D02*
X85883714Y-42290285D01*
X85883714Y-42290285D02*
X85826571Y-42176000D01*
X85826571Y-42176000D02*
X85826571Y-42061714D01*
X85826571Y-42061714D02*
X85883714Y-41947428D01*
X85883714Y-41947428D02*
X85940857Y-41890285D01*
X85940857Y-41890285D02*
X86055142Y-41833142D01*
X86055142Y-41833142D02*
X86340857Y-41833142D01*
X86340857Y-41833142D02*
X86512285Y-41890285D01*
X87026571Y-42233142D02*
X87026571Y-43433142D01*
X87026571Y-42290285D02*
X87140857Y-42233142D01*
X87140857Y-42233142D02*
X87369428Y-42233142D01*
X87369428Y-42233142D02*
X87483714Y-42290285D01*
X87483714Y-42290285D02*
X87540857Y-42347428D01*
X87540857Y-42347428D02*
X87597999Y-42461714D01*
X87597999Y-42461714D02*
X87597999Y-42804571D01*
X87597999Y-42804571D02*
X87540857Y-42918857D01*
X87540857Y-42918857D02*
X87483714Y-42976000D01*
X87483714Y-42976000D02*
X87369428Y-43033142D01*
X87369428Y-43033142D02*
X87140857Y-43033142D01*
X87140857Y-43033142D02*
X87026571Y-42976000D01*
X88569428Y-42976000D02*
X88455142Y-43033142D01*
X88455142Y-43033142D02*
X88226571Y-43033142D01*
X88226571Y-43033142D02*
X88112285Y-42976000D01*
X88112285Y-42976000D02*
X88055142Y-42861714D01*
X88055142Y-42861714D02*
X88055142Y-42404571D01*
X88055142Y-42404571D02*
X88112285Y-42290285D01*
X88112285Y-42290285D02*
X88226571Y-42233142D01*
X88226571Y-42233142D02*
X88455142Y-42233142D01*
X88455142Y-42233142D02*
X88569428Y-42290285D01*
X88569428Y-42290285D02*
X88626571Y-42404571D01*
X88626571Y-42404571D02*
X88626571Y-42518857D01*
X88626571Y-42518857D02*
X88055142Y-42633142D01*
X89655142Y-43033142D02*
X89655142Y-42404571D01*
X89655142Y-42404571D02*
X89597999Y-42290285D01*
X89597999Y-42290285D02*
X89483713Y-42233142D01*
X89483713Y-42233142D02*
X89255142Y-42233142D01*
X89255142Y-42233142D02*
X89140856Y-42290285D01*
X89655142Y-42976000D02*
X89540856Y-43033142D01*
X89540856Y-43033142D02*
X89255142Y-43033142D01*
X89255142Y-43033142D02*
X89140856Y-42976000D01*
X89140856Y-42976000D02*
X89083713Y-42861714D01*
X89083713Y-42861714D02*
X89083713Y-42747428D01*
X89083713Y-42747428D02*
X89140856Y-42633142D01*
X89140856Y-42633142D02*
X89255142Y-42576000D01*
X89255142Y-42576000D02*
X89540856Y-42576000D01*
X89540856Y-42576000D02*
X89655142Y-42518857D01*
X90226570Y-43033142D02*
X90226570Y-41833142D01*
X90340856Y-42576000D02*
X90683713Y-43033142D01*
X90683713Y-42233142D02*
X90226570Y-42690285D01*
X91655142Y-42976000D02*
X91540856Y-43033142D01*
X91540856Y-43033142D02*
X91312285Y-43033142D01*
X91312285Y-43033142D02*
X91197999Y-42976000D01*
X91197999Y-42976000D02*
X91140856Y-42861714D01*
X91140856Y-42861714D02*
X91140856Y-42404571D01*
X91140856Y-42404571D02*
X91197999Y-42290285D01*
X91197999Y-42290285D02*
X91312285Y-42233142D01*
X91312285Y-42233142D02*
X91540856Y-42233142D01*
X91540856Y-42233142D02*
X91655142Y-42290285D01*
X91655142Y-42290285D02*
X91712285Y-42404571D01*
X91712285Y-42404571D02*
X91712285Y-42518857D01*
X91712285Y-42518857D02*
X91140856Y-42633142D01*
X92226570Y-43033142D02*
X92226570Y-42233142D01*
X92226570Y-42461714D02*
X92283713Y-42347428D01*
X92283713Y-42347428D02*
X92340856Y-42290285D01*
X92340856Y-42290285D02*
X92455141Y-42233142D01*
X92455141Y-42233142D02*
X92569427Y-42233142D01*
X93883713Y-43033142D02*
X93883713Y-41833142D01*
X94455142Y-43033142D02*
X94455142Y-42233142D01*
X94455142Y-42347428D02*
X94512285Y-42290285D01*
X94512285Y-42290285D02*
X94626570Y-42233142D01*
X94626570Y-42233142D02*
X94797999Y-42233142D01*
X94797999Y-42233142D02*
X94912285Y-42290285D01*
X94912285Y-42290285D02*
X94969428Y-42404571D01*
X94969428Y-42404571D02*
X94969428Y-43033142D01*
X94969428Y-42404571D02*
X95026570Y-42290285D01*
X95026570Y-42290285D02*
X95140856Y-42233142D01*
X95140856Y-42233142D02*
X95312285Y-42233142D01*
X95312285Y-42233142D02*
X95426570Y-42290285D01*
X95426570Y-42290285D02*
X95483713Y-42404571D01*
X95483713Y-42404571D02*
X95483713Y-43033142D01*
X96055142Y-42233142D02*
X96055142Y-43433142D01*
X96055142Y-42290285D02*
X96169428Y-42233142D01*
X96169428Y-42233142D02*
X96397999Y-42233142D01*
X96397999Y-42233142D02*
X96512285Y-42290285D01*
X96512285Y-42290285D02*
X96569428Y-42347428D01*
X96569428Y-42347428D02*
X96626570Y-42461714D01*
X96626570Y-42461714D02*
X96626570Y-42804571D01*
X96626570Y-42804571D02*
X96569428Y-42918857D01*
X96569428Y-42918857D02*
X96512285Y-42976000D01*
X96512285Y-42976000D02*
X96397999Y-43033142D01*
X96397999Y-43033142D02*
X96169428Y-43033142D01*
X96169428Y-43033142D02*
X96055142Y-42976000D01*
X97597999Y-42976000D02*
X97483713Y-43033142D01*
X97483713Y-43033142D02*
X97255142Y-43033142D01*
X97255142Y-43033142D02*
X97140856Y-42976000D01*
X97140856Y-42976000D02*
X97083713Y-42861714D01*
X97083713Y-42861714D02*
X97083713Y-42404571D01*
X97083713Y-42404571D02*
X97140856Y-42290285D01*
X97140856Y-42290285D02*
X97255142Y-42233142D01*
X97255142Y-42233142D02*
X97483713Y-42233142D01*
X97483713Y-42233142D02*
X97597999Y-42290285D01*
X97597999Y-42290285D02*
X97655142Y-42404571D01*
X97655142Y-42404571D02*
X97655142Y-42518857D01*
X97655142Y-42518857D02*
X97083713Y-42633142D01*
X98683713Y-43033142D02*
X98683713Y-41833142D01*
X98683713Y-42976000D02*
X98569427Y-43033142D01*
X98569427Y-43033142D02*
X98340855Y-43033142D01*
X98340855Y-43033142D02*
X98226570Y-42976000D01*
X98226570Y-42976000D02*
X98169427Y-42918857D01*
X98169427Y-42918857D02*
X98112284Y-42804571D01*
X98112284Y-42804571D02*
X98112284Y-42461714D01*
X98112284Y-42461714D02*
X98169427Y-42347428D01*
X98169427Y-42347428D02*
X98226570Y-42290285D01*
X98226570Y-42290285D02*
X98340855Y-42233142D01*
X98340855Y-42233142D02*
X98569427Y-42233142D01*
X98569427Y-42233142D02*
X98683713Y-42290285D01*
X99769427Y-43033142D02*
X99769427Y-42404571D01*
X99769427Y-42404571D02*
X99712284Y-42290285D01*
X99712284Y-42290285D02*
X99597998Y-42233142D01*
X99597998Y-42233142D02*
X99369427Y-42233142D01*
X99369427Y-42233142D02*
X99255141Y-42290285D01*
X99769427Y-42976000D02*
X99655141Y-43033142D01*
X99655141Y-43033142D02*
X99369427Y-43033142D01*
X99369427Y-43033142D02*
X99255141Y-42976000D01*
X99255141Y-42976000D02*
X99197998Y-42861714D01*
X99197998Y-42861714D02*
X99197998Y-42747428D01*
X99197998Y-42747428D02*
X99255141Y-42633142D01*
X99255141Y-42633142D02*
X99369427Y-42576000D01*
X99369427Y-42576000D02*
X99655141Y-42576000D01*
X99655141Y-42576000D02*
X99769427Y-42518857D01*
X100340855Y-42233142D02*
X100340855Y-43033142D01*
X100340855Y-42347428D02*
X100397998Y-42290285D01*
X100397998Y-42290285D02*
X100512283Y-42233142D01*
X100512283Y-42233142D02*
X100683712Y-42233142D01*
X100683712Y-42233142D02*
X100797998Y-42290285D01*
X100797998Y-42290285D02*
X100855141Y-42404571D01*
X100855141Y-42404571D02*
X100855141Y-43033142D01*
X101940855Y-42976000D02*
X101826569Y-43033142D01*
X101826569Y-43033142D02*
X101597997Y-43033142D01*
X101597997Y-43033142D02*
X101483712Y-42976000D01*
X101483712Y-42976000D02*
X101426569Y-42918857D01*
X101426569Y-42918857D02*
X101369426Y-42804571D01*
X101369426Y-42804571D02*
X101369426Y-42461714D01*
X101369426Y-42461714D02*
X101426569Y-42347428D01*
X101426569Y-42347428D02*
X101483712Y-42290285D01*
X101483712Y-42290285D02*
X101597997Y-42233142D01*
X101597997Y-42233142D02*
X101826569Y-42233142D01*
X101826569Y-42233142D02*
X101940855Y-42290285D01*
X102912283Y-42976000D02*
X102797997Y-43033142D01*
X102797997Y-43033142D02*
X102569426Y-43033142D01*
X102569426Y-43033142D02*
X102455140Y-42976000D01*
X102455140Y-42976000D02*
X102397997Y-42861714D01*
X102397997Y-42861714D02*
X102397997Y-42404571D01*
X102397997Y-42404571D02*
X102455140Y-42290285D01*
X102455140Y-42290285D02*
X102569426Y-42233142D01*
X102569426Y-42233142D02*
X102797997Y-42233142D01*
X102797997Y-42233142D02*
X102912283Y-42290285D01*
X102912283Y-42290285D02*
X102969426Y-42404571D01*
X102969426Y-42404571D02*
X102969426Y-42518857D01*
X102969426Y-42518857D02*
X102397997Y-42633142D01*
X104797997Y-42404571D02*
X104397997Y-42404571D01*
X104397997Y-43033142D02*
X104397997Y-41833142D01*
X104397997Y-41833142D02*
X104969425Y-41833142D01*
X105426568Y-43033142D02*
X105426568Y-42233142D01*
X105426568Y-41833142D02*
X105369425Y-41890285D01*
X105369425Y-41890285D02*
X105426568Y-41947428D01*
X105426568Y-41947428D02*
X105483711Y-41890285D01*
X105483711Y-41890285D02*
X105426568Y-41833142D01*
X105426568Y-41833142D02*
X105426568Y-41947428D01*
X105883711Y-43033142D02*
X106512283Y-42233142D01*
X105883711Y-42233142D02*
X106512283Y-43033142D01*
X106797997Y-42233142D02*
X107255140Y-42233142D01*
X106969426Y-41833142D02*
X106969426Y-42861714D01*
X106969426Y-42861714D02*
X107026569Y-42976000D01*
X107026569Y-42976000D02*
X107140854Y-43033142D01*
X107140854Y-43033142D02*
X107255140Y-43033142D01*
X108169426Y-42233142D02*
X108169426Y-43033142D01*
X107655140Y-42233142D02*
X107655140Y-42861714D01*
X107655140Y-42861714D02*
X107712283Y-42976000D01*
X107712283Y-42976000D02*
X107826568Y-43033142D01*
X107826568Y-43033142D02*
X107997997Y-43033142D01*
X107997997Y-43033142D02*
X108112283Y-42976000D01*
X108112283Y-42976000D02*
X108169426Y-42918857D01*
X108740854Y-43033142D02*
X108740854Y-42233142D01*
X108740854Y-42461714D02*
X108797997Y-42347428D01*
X108797997Y-42347428D02*
X108855140Y-42290285D01*
X108855140Y-42290285D02*
X108969425Y-42233142D01*
X108969425Y-42233142D02*
X109083711Y-42233142D01*
X109940854Y-42976000D02*
X109826568Y-43033142D01*
X109826568Y-43033142D02*
X109597997Y-43033142D01*
X109597997Y-43033142D02*
X109483711Y-42976000D01*
X109483711Y-42976000D02*
X109426568Y-42861714D01*
X109426568Y-42861714D02*
X109426568Y-42404571D01*
X109426568Y-42404571D02*
X109483711Y-42290285D01*
X109483711Y-42290285D02*
X109597997Y-42233142D01*
X109597997Y-42233142D02*
X109826568Y-42233142D01*
X109826568Y-42233142D02*
X109940854Y-42290285D01*
X109940854Y-42290285D02*
X109997997Y-42404571D01*
X109997997Y-42404571D02*
X109997997Y-42518857D01*
X109997997Y-42518857D02*
X109426568Y-42633142D01*
X111255139Y-42233142D02*
X111712282Y-42233142D01*
X111426568Y-43033142D02*
X111426568Y-42004571D01*
X111426568Y-42004571D02*
X111483711Y-41890285D01*
X111483711Y-41890285D02*
X111597996Y-41833142D01*
X111597996Y-41833142D02*
X111712282Y-41833142D01*
X112283710Y-43033142D02*
X112169425Y-42976000D01*
X112169425Y-42976000D02*
X112112282Y-42918857D01*
X112112282Y-42918857D02*
X112055139Y-42804571D01*
X112055139Y-42804571D02*
X112055139Y-42461714D01*
X112055139Y-42461714D02*
X112112282Y-42347428D01*
X112112282Y-42347428D02*
X112169425Y-42290285D01*
X112169425Y-42290285D02*
X112283710Y-42233142D01*
X112283710Y-42233142D02*
X112455139Y-42233142D01*
X112455139Y-42233142D02*
X112569425Y-42290285D01*
X112569425Y-42290285D02*
X112626568Y-42347428D01*
X112626568Y-42347428D02*
X112683710Y-42461714D01*
X112683710Y-42461714D02*
X112683710Y-42804571D01*
X112683710Y-42804571D02*
X112626568Y-42918857D01*
X112626568Y-42918857D02*
X112569425Y-42976000D01*
X112569425Y-42976000D02*
X112455139Y-43033142D01*
X112455139Y-43033142D02*
X112283710Y-43033142D01*
X113197996Y-43033142D02*
X113197996Y-42233142D01*
X113197996Y-42461714D02*
X113255139Y-42347428D01*
X113255139Y-42347428D02*
X113312282Y-42290285D01*
X113312282Y-42290285D02*
X113426567Y-42233142D01*
X113426567Y-42233142D02*
X113540853Y-42233142D01*
X114683710Y-42233142D02*
X115140853Y-42233142D01*
X114855139Y-41833142D02*
X114855139Y-42861714D01*
X114855139Y-42861714D02*
X114912282Y-42976000D01*
X114912282Y-42976000D02*
X115026567Y-43033142D01*
X115026567Y-43033142D02*
X115140853Y-43033142D01*
X115540853Y-43033142D02*
X115540853Y-41833142D01*
X116055139Y-43033142D02*
X116055139Y-42404571D01*
X116055139Y-42404571D02*
X115997996Y-42290285D01*
X115997996Y-42290285D02*
X115883710Y-42233142D01*
X115883710Y-42233142D02*
X115712281Y-42233142D01*
X115712281Y-42233142D02*
X115597996Y-42290285D01*
X115597996Y-42290285D02*
X115540853Y-42347428D01*
X117083710Y-42976000D02*
X116969424Y-43033142D01*
X116969424Y-43033142D02*
X116740853Y-43033142D01*
X116740853Y-43033142D02*
X116626567Y-42976000D01*
X116626567Y-42976000D02*
X116569424Y-42861714D01*
X116569424Y-42861714D02*
X116569424Y-42404571D01*
X116569424Y-42404571D02*
X116626567Y-42290285D01*
X116626567Y-42290285D02*
X116740853Y-42233142D01*
X116740853Y-42233142D02*
X116969424Y-42233142D01*
X116969424Y-42233142D02*
X117083710Y-42290285D01*
X117083710Y-42290285D02*
X117140853Y-42404571D01*
X117140853Y-42404571D02*
X117140853Y-42518857D01*
X117140853Y-42518857D02*
X116569424Y-42633142D01*
X119369424Y-43147428D02*
X119255138Y-43090285D01*
X119255138Y-43090285D02*
X119140852Y-42976000D01*
X119140852Y-42976000D02*
X118969424Y-42804571D01*
X118969424Y-42804571D02*
X118855138Y-42747428D01*
X118855138Y-42747428D02*
X118740852Y-42747428D01*
X118797995Y-43033142D02*
X118683710Y-42976000D01*
X118683710Y-42976000D02*
X118569424Y-42861714D01*
X118569424Y-42861714D02*
X118512281Y-42633142D01*
X118512281Y-42633142D02*
X118512281Y-42233142D01*
X118512281Y-42233142D02*
X118569424Y-42004571D01*
X118569424Y-42004571D02*
X118683710Y-41890285D01*
X118683710Y-41890285D02*
X118797995Y-41833142D01*
X118797995Y-41833142D02*
X119026567Y-41833142D01*
X119026567Y-41833142D02*
X119140852Y-41890285D01*
X119140852Y-41890285D02*
X119255138Y-42004571D01*
X119255138Y-42004571D02*
X119312281Y-42233142D01*
X119312281Y-42233142D02*
X119312281Y-42633142D01*
X119312281Y-42633142D02*
X119255138Y-42861714D01*
X119255138Y-42861714D02*
X119140852Y-42976000D01*
X119140852Y-42976000D02*
X119026567Y-43033142D01*
X119026567Y-43033142D02*
X118797995Y-43033142D01*
X120340853Y-42233142D02*
X120340853Y-43033142D01*
X119826567Y-42233142D02*
X119826567Y-42861714D01*
X119826567Y-42861714D02*
X119883710Y-42976000D01*
X119883710Y-42976000D02*
X119997995Y-43033142D01*
X119997995Y-43033142D02*
X120169424Y-43033142D01*
X120169424Y-43033142D02*
X120283710Y-42976000D01*
X120283710Y-42976000D02*
X120340853Y-42918857D01*
X121426567Y-43033142D02*
X121426567Y-42404571D01*
X121426567Y-42404571D02*
X121369424Y-42290285D01*
X121369424Y-42290285D02*
X121255138Y-42233142D01*
X121255138Y-42233142D02*
X121026567Y-42233142D01*
X121026567Y-42233142D02*
X120912281Y-42290285D01*
X121426567Y-42976000D02*
X121312281Y-43033142D01*
X121312281Y-43033142D02*
X121026567Y-43033142D01*
X121026567Y-43033142D02*
X120912281Y-42976000D01*
X120912281Y-42976000D02*
X120855138Y-42861714D01*
X120855138Y-42861714D02*
X120855138Y-42747428D01*
X120855138Y-42747428D02*
X120912281Y-42633142D01*
X120912281Y-42633142D02*
X121026567Y-42576000D01*
X121026567Y-42576000D02*
X121312281Y-42576000D01*
X121312281Y-42576000D02*
X121426567Y-42518857D01*
X121997995Y-42233142D02*
X121997995Y-43033142D01*
X121997995Y-42347428D02*
X122055138Y-42290285D01*
X122055138Y-42290285D02*
X122169423Y-42233142D01*
X122169423Y-42233142D02*
X122340852Y-42233142D01*
X122340852Y-42233142D02*
X122455138Y-42290285D01*
X122455138Y-42290285D02*
X122512281Y-42404571D01*
X122512281Y-42404571D02*
X122512281Y-43033142D01*
X122912280Y-42233142D02*
X123369423Y-42233142D01*
X123083709Y-41833142D02*
X123083709Y-42861714D01*
X123083709Y-42861714D02*
X123140852Y-42976000D01*
X123140852Y-42976000D02*
X123255137Y-43033142D01*
X123255137Y-43033142D02*
X123369423Y-43033142D01*
X123712280Y-42690285D02*
X124283709Y-42690285D01*
X123597994Y-43033142D02*
X123997994Y-41833142D01*
X123997994Y-41833142D02*
X124397994Y-43033142D01*
X124740851Y-42976000D02*
X124855137Y-43033142D01*
X124855137Y-43033142D02*
X125083708Y-43033142D01*
X125083708Y-43033142D02*
X125197994Y-42976000D01*
X125197994Y-42976000D02*
X125255137Y-42861714D01*
X125255137Y-42861714D02*
X125255137Y-42804571D01*
X125255137Y-42804571D02*
X125197994Y-42690285D01*
X125197994Y-42690285D02*
X125083708Y-42633142D01*
X125083708Y-42633142D02*
X124912280Y-42633142D01*
X124912280Y-42633142D02*
X124797994Y-42576000D01*
X124797994Y-42576000D02*
X124740851Y-42461714D01*
X124740851Y-42461714D02*
X124740851Y-42404571D01*
X124740851Y-42404571D02*
X124797994Y-42290285D01*
X124797994Y-42290285D02*
X124912280Y-42233142D01*
X124912280Y-42233142D02*
X125083708Y-42233142D01*
X125083708Y-42233142D02*
X125197994Y-42290285D01*
X125655137Y-42233142D02*
X125940851Y-43033142D01*
X126226566Y-42233142D02*
X125940851Y-43033142D01*
X125940851Y-43033142D02*
X125826566Y-43318857D01*
X125826566Y-43318857D02*
X125769423Y-43376000D01*
X125769423Y-43376000D02*
X125655137Y-43433142D01*
X126855137Y-43033142D02*
X126740852Y-42976000D01*
X126740852Y-42976000D02*
X126683709Y-42861714D01*
X126683709Y-42861714D02*
X126683709Y-41833142D01*
X127826566Y-42233142D02*
X127826566Y-43033142D01*
X127312280Y-42233142D02*
X127312280Y-42861714D01*
X127312280Y-42861714D02*
X127369423Y-42976000D01*
X127369423Y-42976000D02*
X127483708Y-43033142D01*
X127483708Y-43033142D02*
X127655137Y-43033142D01*
X127655137Y-43033142D02*
X127769423Y-42976000D01*
X127769423Y-42976000D02*
X127826566Y-42918857D01*
X128397994Y-43033142D02*
X128397994Y-42233142D01*
X128397994Y-42347428D02*
X128455137Y-42290285D01*
X128455137Y-42290285D02*
X128569422Y-42233142D01*
X128569422Y-42233142D02*
X128740851Y-42233142D01*
X128740851Y-42233142D02*
X128855137Y-42290285D01*
X128855137Y-42290285D02*
X128912280Y-42404571D01*
X128912280Y-42404571D02*
X128912280Y-43033142D01*
X128912280Y-42404571D02*
X128969422Y-42290285D01*
X128969422Y-42290285D02*
X129083708Y-42233142D01*
X129083708Y-42233142D02*
X129255137Y-42233142D01*
X129255137Y-42233142D02*
X129369422Y-42290285D01*
X129369422Y-42290285D02*
X129426565Y-42404571D01*
X129426565Y-42404571D02*
X129426565Y-43033142D01*
X131712280Y-43147428D02*
X131597994Y-43090285D01*
X131597994Y-43090285D02*
X131483708Y-42976000D01*
X131483708Y-42976000D02*
X131312280Y-42804571D01*
X131312280Y-42804571D02*
X131197994Y-42747428D01*
X131197994Y-42747428D02*
X131083708Y-42747428D01*
X131140851Y-43033142D02*
X131026566Y-42976000D01*
X131026566Y-42976000D02*
X130912280Y-42861714D01*
X130912280Y-42861714D02*
X130855137Y-42633142D01*
X130855137Y-42633142D02*
X130855137Y-42233142D01*
X130855137Y-42233142D02*
X130912280Y-42004571D01*
X130912280Y-42004571D02*
X131026566Y-41890285D01*
X131026566Y-41890285D02*
X131140851Y-41833142D01*
X131140851Y-41833142D02*
X131369423Y-41833142D01*
X131369423Y-41833142D02*
X131483708Y-41890285D01*
X131483708Y-41890285D02*
X131597994Y-42004571D01*
X131597994Y-42004571D02*
X131655137Y-42233142D01*
X131655137Y-42233142D02*
X131655137Y-42633142D01*
X131655137Y-42633142D02*
X131597994Y-42861714D01*
X131597994Y-42861714D02*
X131483708Y-42976000D01*
X131483708Y-42976000D02*
X131369423Y-43033142D01*
X131369423Y-43033142D02*
X131140851Y-43033142D01*
X132112280Y-42690285D02*
X132683709Y-42690285D01*
X131997994Y-43033142D02*
X132397994Y-41833142D01*
X132397994Y-41833142D02*
X132797994Y-43033142D01*
X133712280Y-42233142D02*
X133712280Y-43033142D01*
X133426565Y-41776000D02*
X133140851Y-42633142D01*
X133140851Y-42633142D02*
X133883708Y-42633142D01*
X134569422Y-41833142D02*
X134683708Y-41833142D01*
X134683708Y-41833142D02*
X134797994Y-41890285D01*
X134797994Y-41890285D02*
X134855137Y-41947428D01*
X134855137Y-41947428D02*
X134912279Y-42061714D01*
X134912279Y-42061714D02*
X134969422Y-42290285D01*
X134969422Y-42290285D02*
X134969422Y-42576000D01*
X134969422Y-42576000D02*
X134912279Y-42804571D01*
X134912279Y-42804571D02*
X134855137Y-42918857D01*
X134855137Y-42918857D02*
X134797994Y-42976000D01*
X134797994Y-42976000D02*
X134683708Y-43033142D01*
X134683708Y-43033142D02*
X134569422Y-43033142D01*
X134569422Y-43033142D02*
X134455137Y-42976000D01*
X134455137Y-42976000D02*
X134397994Y-42918857D01*
X134397994Y-42918857D02*
X134340851Y-42804571D01*
X134340851Y-42804571D02*
X134283708Y-42576000D01*
X134283708Y-42576000D02*
X134283708Y-42290285D01*
X134283708Y-42290285D02*
X134340851Y-42061714D01*
X134340851Y-42061714D02*
X134397994Y-41947428D01*
X134397994Y-41947428D02*
X134455137Y-41890285D01*
X134455137Y-41890285D02*
X134569422Y-41833142D01*
X135369422Y-41833142D02*
X136112279Y-41833142D01*
X136112279Y-41833142D02*
X135712279Y-42290285D01*
X135712279Y-42290285D02*
X135883708Y-42290285D01*
X135883708Y-42290285D02*
X135997994Y-42347428D01*
X135997994Y-42347428D02*
X136055136Y-42404571D01*
X136055136Y-42404571D02*
X136112279Y-42518857D01*
X136112279Y-42518857D02*
X136112279Y-42804571D01*
X136112279Y-42804571D02*
X136055136Y-42918857D01*
X136055136Y-42918857D02*
X135997994Y-42976000D01*
X135997994Y-42976000D02*
X135883708Y-43033142D01*
X135883708Y-43033142D02*
X135540851Y-43033142D01*
X135540851Y-43033142D02*
X135426565Y-42976000D01*
X135426565Y-42976000D02*
X135369422Y-42918857D01*
D12*
X138642857Y-55755000D02*
X137500000Y-55755000D01*
X138071428Y-55183571D02*
X138071428Y-56326428D01*
D10*
G36*
X102333888Y-26797380D02*
G01*
X102045642Y-26797380D01*
X101977124Y-26763121D01*
X101946717Y-26732714D01*
X101912460Y-26664199D01*
X101912460Y-26556753D01*
X101946719Y-26488235D01*
X101977124Y-26457829D01*
X102045640Y-26423571D01*
X102333888Y-26423571D01*
X102333888Y-26797380D01*
G37*
G36*
X98613537Y-26425441D02*
G01*
X98617237Y-26423571D01*
X98762459Y-26423571D01*
X98762459Y-26797380D01*
X98474213Y-26797380D01*
X98405695Y-26763121D01*
X98375288Y-26732714D01*
X98341031Y-26664199D01*
X98341031Y-26556753D01*
X98375290Y-26488235D01*
X98405695Y-26457829D01*
X98474211Y-26423571D01*
X98595492Y-26423571D01*
X98613537Y-26425441D01*
G37*
G36*
X104538650Y-27492857D02*
G01*
X96294603Y-27492857D01*
X96294603Y-26264457D01*
X96998185Y-26264457D01*
X97016481Y-26304521D01*
X97053533Y-26328333D01*
X97381507Y-26328333D01*
X97381507Y-26645067D01*
X97390750Y-26676545D01*
X97424036Y-26705387D01*
X97467631Y-26711655D01*
X97507695Y-26693359D01*
X97531507Y-26656307D01*
X97531507Y-26547438D01*
X98188317Y-26547438D01*
X98191031Y-26553982D01*
X98191031Y-26677864D01*
X98189100Y-26695748D01*
X98195956Y-26709461D01*
X98200274Y-26724164D01*
X98205627Y-26728802D01*
X98242362Y-26802271D01*
X98245045Y-26814603D01*
X98259672Y-26829230D01*
X98273734Y-26844348D01*
X98275152Y-26844710D01*
X98301587Y-26871145D01*
X98308031Y-26881995D01*
X98326540Y-26891249D01*
X98344654Y-26901140D01*
X98346112Y-26901035D01*
X98419358Y-26937658D01*
X98434485Y-26947380D01*
X98449815Y-26947380D01*
X98464898Y-26950094D01*
X98471442Y-26947380D01*
X98832099Y-26947380D01*
X98848583Y-26949750D01*
X98863735Y-26942830D01*
X98879719Y-26938137D01*
X98883455Y-26933824D01*
X98888647Y-26931454D01*
X98897654Y-26917437D01*
X98908561Y-26904851D01*
X98909372Y-26899204D01*
X98912459Y-26894402D01*
X98912459Y-26883504D01*
X99855328Y-26883504D01*
X99873624Y-26923568D01*
X99910676Y-26947380D01*
X100213052Y-26947380D01*
X100229536Y-26949750D01*
X100234726Y-26947380D01*
X100514908Y-26947380D01*
X100546386Y-26938137D01*
X100575228Y-26904851D01*
X100581496Y-26861256D01*
X100563200Y-26821192D01*
X100526148Y-26797380D01*
X100293412Y-26797380D01*
X100293412Y-26071248D01*
X100759746Y-26071248D01*
X100762460Y-26077792D01*
X100762460Y-26883162D01*
X100771703Y-26914640D01*
X100804989Y-26943482D01*
X100848584Y-26949750D01*
X100888648Y-26931454D01*
X100912460Y-26894402D01*
X100912460Y-26080563D01*
X100946719Y-26012045D01*
X100977125Y-25981638D01*
X101045641Y-25947380D01*
X101200706Y-25947380D01*
X101269223Y-25981639D01*
X101299629Y-26012045D01*
X101333888Y-26080561D01*
X101333888Y-26883162D01*
X101343131Y-26914640D01*
X101376417Y-26943482D01*
X101420012Y-26949750D01*
X101460076Y-26931454D01*
X101483888Y-26894402D01*
X101483888Y-26547438D01*
X101759746Y-26547438D01*
X101762460Y-26553982D01*
X101762460Y-26677864D01*
X101760529Y-26695748D01*
X101767385Y-26709461D01*
X101771703Y-26724164D01*
X101777056Y-26728802D01*
X101813791Y-26802271D01*
X101816474Y-26814603D01*
X101831101Y-26829230D01*
X101845163Y-26844348D01*
X101846581Y-26844710D01*
X101873016Y-26871145D01*
X101879460Y-26881995D01*
X101897969Y-26891249D01*
X101916083Y-26901140D01*
X101917541Y-26901035D01*
X101990787Y-26937658D01*
X102005914Y-26947380D01*
X102021244Y-26947380D01*
X102036327Y-26950094D01*
X102042871Y-26947380D01*
X102403528Y-26947380D01*
X102420012Y-26949750D01*
X102435164Y-26942830D01*
X102451148Y-26938137D01*
X102454884Y-26933824D01*
X102460076Y-26931454D01*
X102469083Y-26917437D01*
X102479990Y-26904851D01*
X102480801Y-26899204D01*
X102483888Y-26894402D01*
X102483888Y-26877740D01*
X102486258Y-26861256D01*
X102483888Y-26856066D01*
X102483888Y-26353931D01*
X102486258Y-26337447D01*
X102483888Y-26332257D01*
X102483888Y-25890470D01*
X102809035Y-25890470D01*
X102810079Y-25892297D01*
X102810079Y-26883162D01*
X102819322Y-26914640D01*
X102852608Y-26943482D01*
X102896203Y-26949750D01*
X102936267Y-26931454D01*
X102960079Y-26894402D01*
X102960079Y-26154797D01*
X103387025Y-26901954D01*
X103390750Y-26914640D01*
X103405913Y-26927779D01*
X103420381Y-26941697D01*
X103422446Y-26942104D01*
X103424036Y-26943482D01*
X103443896Y-26946337D01*
X103463591Y-26950224D01*
X103465548Y-26949450D01*
X103467631Y-26949750D01*
X103485886Y-26941413D01*
X103504552Y-26934037D01*
X103505780Y-26932328D01*
X103507695Y-26931454D01*
X103518545Y-26914569D01*
X103530260Y-26898274D01*
X103530369Y-26896171D01*
X103531507Y-26894402D01*
X103531507Y-26883162D01*
X103857697Y-26883162D01*
X103866940Y-26914640D01*
X103900226Y-26943482D01*
X103943821Y-26949750D01*
X103983885Y-26931454D01*
X104007697Y-26894402D01*
X104007697Y-25861598D01*
X103998454Y-25830120D01*
X103965168Y-25801278D01*
X103921573Y-25795010D01*
X103881509Y-25813306D01*
X103857697Y-25850358D01*
X103857697Y-26883162D01*
X103531507Y-26883162D01*
X103531507Y-26874333D01*
X103532551Y-26854290D01*
X103531507Y-26852463D01*
X103531507Y-25861598D01*
X103522264Y-25830120D01*
X103488978Y-25801278D01*
X103445383Y-25795010D01*
X103405319Y-25813306D01*
X103381507Y-25850358D01*
X103381507Y-26589963D01*
X102954560Y-25842805D01*
X102950836Y-25830120D01*
X102935672Y-25816980D01*
X102921205Y-25803063D01*
X102919139Y-25802655D01*
X102917550Y-25801278D01*
X102897689Y-25798422D01*
X102877995Y-25794536D01*
X102876037Y-25795309D01*
X102873955Y-25795010D01*
X102855699Y-25803346D01*
X102837034Y-25810723D01*
X102835805Y-25812431D01*
X102833891Y-25813306D01*
X102823040Y-25830190D01*
X102811326Y-25846486D01*
X102811216Y-25848588D01*
X102810079Y-25850358D01*
X102810079Y-25870427D01*
X102809035Y-25890470D01*
X102483888Y-25890470D01*
X102483888Y-25861598D01*
X102474645Y-25830120D01*
X102441359Y-25801278D01*
X102397764Y-25795010D01*
X102357700Y-25813306D01*
X102333888Y-25850358D01*
X102333888Y-26273571D01*
X102031967Y-26273571D01*
X102014092Y-26271641D01*
X102000382Y-26278495D01*
X101985676Y-26282814D01*
X101981036Y-26288168D01*
X101907567Y-26324902D01*
X101895237Y-26327585D01*
X101880617Y-26342204D01*
X101865492Y-26356274D01*
X101865129Y-26357692D01*
X101838694Y-26384127D01*
X101827845Y-26390571D01*
X101818594Y-26409071D01*
X101808699Y-26427194D01*
X101808803Y-26428654D01*
X101772183Y-26501895D01*
X101762460Y-26517025D01*
X101762460Y-26532355D01*
X101759746Y-26547438D01*
X101483888Y-26547438D01*
X101483888Y-26066888D01*
X101485818Y-26049013D01*
X101478963Y-26035303D01*
X101474645Y-26020597D01*
X101469290Y-26015957D01*
X101432556Y-25942488D01*
X101429874Y-25930158D01*
X101415254Y-25915538D01*
X101401185Y-25900413D01*
X101399766Y-25900050D01*
X101373333Y-25873617D01*
X101366889Y-25862767D01*
X101348392Y-25853518D01*
X101330265Y-25843620D01*
X101328804Y-25843724D01*
X101255561Y-25807101D01*
X101240434Y-25797380D01*
X101225105Y-25797380D01*
X101210022Y-25794666D01*
X101203478Y-25797380D01*
X101031976Y-25797380D01*
X101014092Y-25795449D01*
X101000378Y-25802305D01*
X100985676Y-25806623D01*
X100981036Y-25811976D01*
X100907566Y-25848712D01*
X100895237Y-25851395D01*
X100880612Y-25866019D01*
X100865492Y-25880085D01*
X100865129Y-25881502D01*
X100838694Y-25907937D01*
X100827845Y-25914381D01*
X100818594Y-25932881D01*
X100808699Y-25951004D01*
X100808803Y-25952464D01*
X100772183Y-26025705D01*
X100762460Y-26040835D01*
X100762460Y-26056165D01*
X100759746Y-26071248D01*
X100293412Y-26071248D01*
X100293412Y-25861598D01*
X100284169Y-25830120D01*
X100250883Y-25801278D01*
X100207288Y-25795010D01*
X100167224Y-25813306D01*
X100143412Y-25850358D01*
X100143412Y-26797380D01*
X99921916Y-26797380D01*
X99890438Y-26806623D01*
X99861596Y-26839909D01*
X99855328Y-26883504D01*
X98912459Y-26883504D01*
X98912459Y-26877740D01*
X98914829Y-26861256D01*
X98912459Y-26856066D01*
X98912459Y-26353931D01*
X98914829Y-26337447D01*
X98912459Y-26332257D01*
X98912459Y-25861598D01*
X98903216Y-25830120D01*
X98869930Y-25801278D01*
X98826335Y-25795010D01*
X98786271Y-25813306D01*
X98762459Y-25850358D01*
X98762459Y-26273571D01*
X98638413Y-26273571D01*
X98321290Y-25820537D01*
X98295667Y-25800050D01*
X98251858Y-25795510D01*
X98212549Y-25815375D01*
X98190219Y-25853339D01*
X98191960Y-25897348D01*
X98454888Y-26272960D01*
X98442663Y-26271641D01*
X98428953Y-26278495D01*
X98414247Y-26282814D01*
X98409607Y-26288168D01*
X98336138Y-26324902D01*
X98323808Y-26327585D01*
X98309188Y-26342204D01*
X98294063Y-26356274D01*
X98293700Y-26357692D01*
X98267265Y-26384127D01*
X98256416Y-26390571D01*
X98247165Y-26409071D01*
X98237270Y-26427194D01*
X98237374Y-26428654D01*
X98200754Y-26501895D01*
X98191031Y-26517025D01*
X98191031Y-26532355D01*
X98188317Y-26547438D01*
X97531507Y-26547438D01*
X97531507Y-26328333D01*
X97848241Y-26328333D01*
X97879719Y-26319090D01*
X97908561Y-26285804D01*
X97914829Y-26242209D01*
X97896533Y-26202145D01*
X97859481Y-26178333D01*
X97531507Y-26178333D01*
X97531507Y-25861598D01*
X97522264Y-25830120D01*
X97488978Y-25801278D01*
X97445383Y-25795010D01*
X97405319Y-25813306D01*
X97381507Y-25850358D01*
X97381507Y-26178333D01*
X97064773Y-26178333D01*
X97033295Y-26187576D01*
X97004453Y-26220862D01*
X96998185Y-26264457D01*
X96294603Y-26264457D01*
X96294603Y-25382143D01*
X104538650Y-25382143D01*
X104538650Y-27492857D01*
G37*
G36*
X126876287Y-26812704D02*
G01*
X126588041Y-26812704D01*
X126519523Y-26778445D01*
X126489116Y-26748038D01*
X126454859Y-26679523D01*
X126454859Y-26572077D01*
X126489118Y-26503559D01*
X126519523Y-26473153D01*
X126588039Y-26438895D01*
X126876287Y-26438895D01*
X126876287Y-26812704D01*
G37*
G36*
X129081049Y-27508181D02*
G01*
X121027478Y-27508181D01*
X121027478Y-26279781D01*
X121731060Y-26279781D01*
X121749356Y-26319845D01*
X121786408Y-26343657D01*
X122114382Y-26343657D01*
X122114382Y-26660391D01*
X122123625Y-26691869D01*
X122156911Y-26720711D01*
X122200506Y-26726979D01*
X122240570Y-26708683D01*
X122264382Y-26671631D01*
X122264382Y-26343657D01*
X122581116Y-26343657D01*
X122612594Y-26334414D01*
X122641436Y-26301128D01*
X122647704Y-26257533D01*
X122629408Y-26217469D01*
X122592356Y-26193657D01*
X122264382Y-26193657D01*
X122264382Y-25898828D01*
X122826298Y-25898828D01*
X122844594Y-25938892D01*
X122881646Y-25962704D01*
X123304858Y-25962704D01*
X123304858Y-26898486D01*
X123314101Y-26929964D01*
X123347387Y-26958806D01*
X123390982Y-26965074D01*
X123431046Y-26946778D01*
X123454858Y-26909726D01*
X123454858Y-26898828D01*
X124397727Y-26898828D01*
X124416023Y-26938892D01*
X124453075Y-26962704D01*
X124755451Y-26962704D01*
X124771935Y-26965074D01*
X124777125Y-26962704D01*
X125057307Y-26962704D01*
X125088785Y-26953461D01*
X125117627Y-26920175D01*
X125123895Y-26876580D01*
X125105599Y-26836516D01*
X125068547Y-26812704D01*
X124835811Y-26812704D01*
X124835811Y-26086572D01*
X125302145Y-26086572D01*
X125304859Y-26093116D01*
X125304859Y-26898486D01*
X125314102Y-26929964D01*
X125347388Y-26958806D01*
X125390983Y-26965074D01*
X125431047Y-26946778D01*
X125454859Y-26909726D01*
X125454859Y-26095887D01*
X125489118Y-26027369D01*
X125519524Y-25996962D01*
X125588040Y-25962704D01*
X125743105Y-25962704D01*
X125811622Y-25996963D01*
X125842028Y-26027369D01*
X125876287Y-26095885D01*
X125876287Y-26898486D01*
X125885530Y-26929964D01*
X125918816Y-26958806D01*
X125962411Y-26965074D01*
X126002475Y-26946778D01*
X126026287Y-26909726D01*
X126026287Y-26562762D01*
X126302145Y-26562762D01*
X126304859Y-26569306D01*
X126304859Y-26693188D01*
X126302928Y-26711072D01*
X126309784Y-26724785D01*
X126314102Y-26739488D01*
X126319455Y-26744126D01*
X126356190Y-26817595D01*
X126358873Y-26829927D01*
X126373500Y-26844554D01*
X126387562Y-26859672D01*
X126388980Y-26860034D01*
X126415415Y-26886469D01*
X126421859Y-26897319D01*
X126440368Y-26906573D01*
X126458482Y-26916464D01*
X126459940Y-26916359D01*
X126533186Y-26952982D01*
X126548313Y-26962704D01*
X126563643Y-26962704D01*
X126578726Y-26965418D01*
X126585270Y-26962704D01*
X126945927Y-26962704D01*
X126962411Y-26965074D01*
X126977563Y-26958154D01*
X126993547Y-26953461D01*
X126997283Y-26949148D01*
X127002475Y-26946778D01*
X127011482Y-26932761D01*
X127022389Y-26920175D01*
X127023200Y-26914528D01*
X127026287Y-26909726D01*
X127026287Y-26893064D01*
X127028657Y-26876580D01*
X127026287Y-26871390D01*
X127026287Y-26369255D01*
X127028657Y-26352771D01*
X127026287Y-26347581D01*
X127026287Y-25905794D01*
X127351434Y-25905794D01*
X127352478Y-25907621D01*
X127352478Y-26898486D01*
X127361721Y-26929964D01*
X127395007Y-26958806D01*
X127438602Y-26965074D01*
X127478666Y-26946778D01*
X127502478Y-26909726D01*
X127502478Y-26170121D01*
X127929424Y-26917278D01*
X127933149Y-26929964D01*
X127948312Y-26943103D01*
X127962780Y-26957021D01*
X127964845Y-26957428D01*
X127966435Y-26958806D01*
X127986295Y-26961661D01*
X128005990Y-26965548D01*
X128007947Y-26964774D01*
X128010030Y-26965074D01*
X128028285Y-26956737D01*
X128046951Y-26949361D01*
X128048179Y-26947652D01*
X128050094Y-26946778D01*
X128060944Y-26929893D01*
X128072659Y-26913598D01*
X128072768Y-26911495D01*
X128073906Y-26909726D01*
X128073906Y-26898486D01*
X128400096Y-26898486D01*
X128409339Y-26929964D01*
X128442625Y-26958806D01*
X128486220Y-26965074D01*
X128526284Y-26946778D01*
X128550096Y-26909726D01*
X128550096Y-25876922D01*
X128540853Y-25845444D01*
X128507567Y-25816602D01*
X128463972Y-25810334D01*
X128423908Y-25828630D01*
X128400096Y-25865682D01*
X128400096Y-26898486D01*
X128073906Y-26898486D01*
X128073906Y-26889657D01*
X128074950Y-26869614D01*
X128073906Y-26867787D01*
X128073906Y-25876922D01*
X128064663Y-25845444D01*
X128031377Y-25816602D01*
X127987782Y-25810334D01*
X127947718Y-25828630D01*
X127923906Y-25865682D01*
X127923906Y-26605287D01*
X127496959Y-25858129D01*
X127493235Y-25845444D01*
X127478071Y-25832304D01*
X127463604Y-25818387D01*
X127461538Y-25817979D01*
X127459949Y-25816602D01*
X127440088Y-25813746D01*
X127420394Y-25809860D01*
X127418436Y-25810633D01*
X127416354Y-25810334D01*
X127398098Y-25818670D01*
X127379433Y-25826047D01*
X127378204Y-25827755D01*
X127376290Y-25828630D01*
X127365439Y-25845514D01*
X127353725Y-25861810D01*
X127353615Y-25863912D01*
X127352478Y-25865682D01*
X127352478Y-25885751D01*
X127351434Y-25905794D01*
X127026287Y-25905794D01*
X127026287Y-25876922D01*
X127017044Y-25845444D01*
X126983758Y-25816602D01*
X126940163Y-25810334D01*
X126900099Y-25828630D01*
X126876287Y-25865682D01*
X126876287Y-26288895D01*
X126574366Y-26288895D01*
X126556491Y-26286965D01*
X126542781Y-26293819D01*
X126528075Y-26298138D01*
X126523435Y-26303492D01*
X126449966Y-26340226D01*
X126437636Y-26342909D01*
X126423016Y-26357528D01*
X126407891Y-26371598D01*
X126407528Y-26373016D01*
X126381093Y-26399451D01*
X126370244Y-26405895D01*
X126360993Y-26424395D01*
X126351098Y-26442518D01*
X126351202Y-26443978D01*
X126314582Y-26517219D01*
X126304859Y-26532349D01*
X126304859Y-26547679D01*
X126302145Y-26562762D01*
X126026287Y-26562762D01*
X126026287Y-26082212D01*
X126028217Y-26064337D01*
X126021362Y-26050627D01*
X126017044Y-26035921D01*
X126011689Y-26031281D01*
X125974955Y-25957812D01*
X125972273Y-25945482D01*
X125957653Y-25930862D01*
X125943584Y-25915737D01*
X125942165Y-25915374D01*
X125915732Y-25888941D01*
X125909288Y-25878091D01*
X125890791Y-25868842D01*
X125872664Y-25858944D01*
X125871203Y-25859048D01*
X125797960Y-25822425D01*
X125782833Y-25812704D01*
X125767504Y-25812704D01*
X125752421Y-25809990D01*
X125745877Y-25812704D01*
X125574375Y-25812704D01*
X125556491Y-25810773D01*
X125542777Y-25817629D01*
X125528075Y-25821947D01*
X125523435Y-25827300D01*
X125449965Y-25864036D01*
X125437636Y-25866719D01*
X125423011Y-25881343D01*
X125407891Y-25895409D01*
X125407528Y-25896826D01*
X125381093Y-25923261D01*
X125370244Y-25929705D01*
X125360993Y-25948205D01*
X125351098Y-25966328D01*
X125351202Y-25967788D01*
X125314582Y-26041029D01*
X125304859Y-26056159D01*
X125304859Y-26071489D01*
X125302145Y-26086572D01*
X124835811Y-26086572D01*
X124835811Y-25876922D01*
X124826568Y-25845444D01*
X124793282Y-25816602D01*
X124749687Y-25810334D01*
X124709623Y-25828630D01*
X124685811Y-25865682D01*
X124685811Y-26812704D01*
X124464315Y-26812704D01*
X124432837Y-26821947D01*
X124403995Y-26855233D01*
X124397727Y-26898828D01*
X123454858Y-26898828D01*
X123454858Y-25893064D01*
X123457228Y-25876580D01*
X123450308Y-25861427D01*
X123445615Y-25845444D01*
X123441302Y-25841707D01*
X123438932Y-25836516D01*
X123424915Y-25827508D01*
X123412329Y-25816602D01*
X123406682Y-25815790D01*
X123401880Y-25812704D01*
X123385218Y-25812704D01*
X123368734Y-25810334D01*
X123363544Y-25812704D01*
X122892886Y-25812704D01*
X122861408Y-25821947D01*
X122832566Y-25855233D01*
X122826298Y-25898828D01*
X122264382Y-25898828D01*
X122264382Y-25876922D01*
X122255139Y-25845444D01*
X122221853Y-25816602D01*
X122178258Y-25810334D01*
X122138194Y-25828630D01*
X122114382Y-25865682D01*
X122114382Y-26193657D01*
X121797648Y-26193657D01*
X121766170Y-26202900D01*
X121737328Y-26236186D01*
X121731060Y-26279781D01*
X121027478Y-26279781D01*
X121027478Y-25397467D01*
X129081049Y-25397467D01*
X129081049Y-27508181D01*
G37*
D12*
X87357142Y-61245000D02*
X88500000Y-61245000D01*
X87928571Y-61816428D02*
X87928571Y-60673571D01*
D11*
X117195523Y-54258095D02*
X116738380Y-54258095D01*
X116966952Y-54258095D02*
X116966952Y-53458095D01*
X116966952Y-53458095D02*
X116890761Y-53572380D01*
X116890761Y-53572380D02*
X116814571Y-53648571D01*
X116814571Y-53648571D02*
X116738380Y-53686666D01*
X117500285Y-53534285D02*
X117538381Y-53496190D01*
X117538381Y-53496190D02*
X117614571Y-53458095D01*
X117614571Y-53458095D02*
X117805047Y-53458095D01*
X117805047Y-53458095D02*
X117881238Y-53496190D01*
X117881238Y-53496190D02*
X117919333Y-53534285D01*
X117919333Y-53534285D02*
X117957428Y-53610476D01*
X117957428Y-53610476D02*
X117957428Y-53686666D01*
X117957428Y-53686666D02*
X117919333Y-53800952D01*
X117919333Y-53800952D02*
X117462190Y-54258095D01*
X117462190Y-54258095D02*
X117957428Y-54258095D01*
X118452667Y-53458095D02*
X118528857Y-53458095D01*
X118528857Y-53458095D02*
X118605048Y-53496190D01*
X118605048Y-53496190D02*
X118643143Y-53534285D01*
X118643143Y-53534285D02*
X118681238Y-53610476D01*
X118681238Y-53610476D02*
X118719333Y-53762857D01*
X118719333Y-53762857D02*
X118719333Y-53953333D01*
X118719333Y-53953333D02*
X118681238Y-54105714D01*
X118681238Y-54105714D02*
X118643143Y-54181904D01*
X118643143Y-54181904D02*
X118605048Y-54220000D01*
X118605048Y-54220000D02*
X118528857Y-54258095D01*
X118528857Y-54258095D02*
X118452667Y-54258095D01*
X118452667Y-54258095D02*
X118376476Y-54220000D01*
X118376476Y-54220000D02*
X118338381Y-54181904D01*
X118338381Y-54181904D02*
X118300286Y-54105714D01*
X118300286Y-54105714D02*
X118262190Y-53953333D01*
X118262190Y-53953333D02*
X118262190Y-53762857D01*
X118262190Y-53762857D02*
X118300286Y-53610476D01*
X118300286Y-53610476D02*
X118338381Y-53534285D01*
X118338381Y-53534285D02*
X118376476Y-53496190D01*
X118376476Y-53496190D02*
X118452667Y-53458095D01*
X119405048Y-53458095D02*
X119252667Y-53458095D01*
X119252667Y-53458095D02*
X119176476Y-53496190D01*
X119176476Y-53496190D02*
X119138381Y-53534285D01*
X119138381Y-53534285D02*
X119062191Y-53648571D01*
X119062191Y-53648571D02*
X119024095Y-53800952D01*
X119024095Y-53800952D02*
X119024095Y-54105714D01*
X119024095Y-54105714D02*
X119062191Y-54181904D01*
X119062191Y-54181904D02*
X119100286Y-54220000D01*
X119100286Y-54220000D02*
X119176476Y-54258095D01*
X119176476Y-54258095D02*
X119328857Y-54258095D01*
X119328857Y-54258095D02*
X119405048Y-54220000D01*
X119405048Y-54220000D02*
X119443143Y-54181904D01*
X119443143Y-54181904D02*
X119481238Y-54105714D01*
X119481238Y-54105714D02*
X119481238Y-53915238D01*
X119481238Y-53915238D02*
X119443143Y-53839047D01*
X119443143Y-53839047D02*
X119405048Y-53800952D01*
X119405048Y-53800952D02*
X119328857Y-53762857D01*
X119328857Y-53762857D02*
X119176476Y-53762857D01*
X119176476Y-53762857D02*
X119100286Y-53800952D01*
X119100286Y-53800952D02*
X119062191Y-53839047D01*
X119062191Y-53839047D02*
X119024095Y-53915238D01*
X120662191Y-54562857D02*
X120624096Y-54524761D01*
X120624096Y-54524761D02*
X120547905Y-54410476D01*
X120547905Y-54410476D02*
X120509810Y-54334285D01*
X120509810Y-54334285D02*
X120471715Y-54220000D01*
X120471715Y-54220000D02*
X120433620Y-54029523D01*
X120433620Y-54029523D02*
X120433620Y-53877142D01*
X120433620Y-53877142D02*
X120471715Y-53686666D01*
X120471715Y-53686666D02*
X120509810Y-53572380D01*
X120509810Y-53572380D02*
X120547905Y-53496190D01*
X120547905Y-53496190D02*
X120624096Y-53381904D01*
X120624096Y-53381904D02*
X120662191Y-53343809D01*
X120890762Y-53458095D02*
X121386000Y-53458095D01*
X121386000Y-53458095D02*
X121119334Y-53762857D01*
X121119334Y-53762857D02*
X121233619Y-53762857D01*
X121233619Y-53762857D02*
X121309810Y-53800952D01*
X121309810Y-53800952D02*
X121347905Y-53839047D01*
X121347905Y-53839047D02*
X121386000Y-53915238D01*
X121386000Y-53915238D02*
X121386000Y-54105714D01*
X121386000Y-54105714D02*
X121347905Y-54181904D01*
X121347905Y-54181904D02*
X121309810Y-54220000D01*
X121309810Y-54220000D02*
X121233619Y-54258095D01*
X121233619Y-54258095D02*
X121005048Y-54258095D01*
X121005048Y-54258095D02*
X120928857Y-54220000D01*
X120928857Y-54220000D02*
X120890762Y-54181904D01*
X121690762Y-53534285D02*
X121728858Y-53496190D01*
X121728858Y-53496190D02*
X121805048Y-53458095D01*
X121805048Y-53458095D02*
X121995524Y-53458095D01*
X121995524Y-53458095D02*
X122071715Y-53496190D01*
X122071715Y-53496190D02*
X122109810Y-53534285D01*
X122109810Y-53534285D02*
X122147905Y-53610476D01*
X122147905Y-53610476D02*
X122147905Y-53686666D01*
X122147905Y-53686666D02*
X122109810Y-53800952D01*
X122109810Y-53800952D02*
X121652667Y-54258095D01*
X121652667Y-54258095D02*
X122147905Y-54258095D01*
X122909810Y-54258095D02*
X122452667Y-54258095D01*
X122681239Y-54258095D02*
X122681239Y-53458095D01*
X122681239Y-53458095D02*
X122605048Y-53572380D01*
X122605048Y-53572380D02*
X122528858Y-53648571D01*
X122528858Y-53648571D02*
X122452667Y-53686666D01*
X123595525Y-53458095D02*
X123443144Y-53458095D01*
X123443144Y-53458095D02*
X123366953Y-53496190D01*
X123366953Y-53496190D02*
X123328858Y-53534285D01*
X123328858Y-53534285D02*
X123252668Y-53648571D01*
X123252668Y-53648571D02*
X123214572Y-53800952D01*
X123214572Y-53800952D02*
X123214572Y-54105714D01*
X123214572Y-54105714D02*
X123252668Y-54181904D01*
X123252668Y-54181904D02*
X123290763Y-54220000D01*
X123290763Y-54220000D02*
X123366953Y-54258095D01*
X123366953Y-54258095D02*
X123519334Y-54258095D01*
X123519334Y-54258095D02*
X123595525Y-54220000D01*
X123595525Y-54220000D02*
X123633620Y-54181904D01*
X123633620Y-54181904D02*
X123671715Y-54105714D01*
X123671715Y-54105714D02*
X123671715Y-53915238D01*
X123671715Y-53915238D02*
X123633620Y-53839047D01*
X123633620Y-53839047D02*
X123595525Y-53800952D01*
X123595525Y-53800952D02*
X123519334Y-53762857D01*
X123519334Y-53762857D02*
X123366953Y-53762857D01*
X123366953Y-53762857D02*
X123290763Y-53800952D01*
X123290763Y-53800952D02*
X123252668Y-53839047D01*
X123252668Y-53839047D02*
X123214572Y-53915238D01*
X123938382Y-54562857D02*
X123976477Y-54524761D01*
X123976477Y-54524761D02*
X124052668Y-54410476D01*
X124052668Y-54410476D02*
X124090763Y-54334285D01*
X124090763Y-54334285D02*
X124128858Y-54220000D01*
X124128858Y-54220000D02*
X124166954Y-54029523D01*
X124166954Y-54029523D02*
X124166954Y-53877142D01*
X124166954Y-53877142D02*
X124128858Y-53686666D01*
X124128858Y-53686666D02*
X124090763Y-53572380D01*
X124090763Y-53572380D02*
X124052668Y-53496190D01*
X124052668Y-53496190D02*
X123976477Y-53381904D01*
X123976477Y-53381904D02*
X123938382Y-53343809D01*
D10*
G36*
X83759712Y-26782402D02*
G01*
X83471466Y-26782402D01*
X83402948Y-26748143D01*
X83372541Y-26717736D01*
X83338284Y-26649221D01*
X83338284Y-26541775D01*
X83372543Y-26473257D01*
X83402948Y-26442851D01*
X83471464Y-26408593D01*
X83759712Y-26408593D01*
X83759712Y-26782402D01*
G37*
G36*
X85964474Y-27477879D02*
G01*
X77910903Y-27477879D01*
X77910903Y-26249479D01*
X78614485Y-26249479D01*
X78632781Y-26289543D01*
X78669833Y-26313355D01*
X79464541Y-26313355D01*
X79496019Y-26304112D01*
X79524861Y-26270826D01*
X79531129Y-26227231D01*
X79512833Y-26187167D01*
X79475781Y-26163355D01*
X78681073Y-26163355D01*
X78649595Y-26172598D01*
X78620753Y-26205884D01*
X78614485Y-26249479D01*
X77910903Y-26249479D01*
X77910903Y-25868526D01*
X79709723Y-25868526D01*
X79728019Y-25908590D01*
X79765071Y-25932402D01*
X80188283Y-25932402D01*
X80188283Y-26868184D01*
X80197526Y-26899662D01*
X80230812Y-26928504D01*
X80274407Y-26934772D01*
X80314471Y-26916476D01*
X80338283Y-26879424D01*
X80338283Y-26868526D01*
X81281152Y-26868526D01*
X81299448Y-26908590D01*
X81336500Y-26932402D01*
X81638876Y-26932402D01*
X81655360Y-26934772D01*
X81660550Y-26932402D01*
X81940732Y-26932402D01*
X81972210Y-26923159D01*
X82001052Y-26889873D01*
X82007320Y-26846278D01*
X81989024Y-26806214D01*
X81951972Y-26782402D01*
X81719236Y-26782402D01*
X81719236Y-26056270D01*
X82185570Y-26056270D01*
X82188284Y-26062814D01*
X82188284Y-26868184D01*
X82197527Y-26899662D01*
X82230813Y-26928504D01*
X82274408Y-26934772D01*
X82314472Y-26916476D01*
X82338284Y-26879424D01*
X82338284Y-26065585D01*
X82372543Y-25997067D01*
X82402949Y-25966660D01*
X82471465Y-25932402D01*
X82626530Y-25932402D01*
X82695047Y-25966661D01*
X82725453Y-25997067D01*
X82759712Y-26065583D01*
X82759712Y-26868184D01*
X82768955Y-26899662D01*
X82802241Y-26928504D01*
X82845836Y-26934772D01*
X82885900Y-26916476D01*
X82909712Y-26879424D01*
X82909712Y-26532460D01*
X83185570Y-26532460D01*
X83188284Y-26539004D01*
X83188284Y-26662886D01*
X83186353Y-26680770D01*
X83193209Y-26694483D01*
X83197527Y-26709186D01*
X83202880Y-26713824D01*
X83239615Y-26787293D01*
X83242298Y-26799625D01*
X83256925Y-26814252D01*
X83270987Y-26829370D01*
X83272405Y-26829732D01*
X83298840Y-26856167D01*
X83305284Y-26867017D01*
X83323793Y-26876271D01*
X83341907Y-26886162D01*
X83343365Y-26886057D01*
X83416611Y-26922680D01*
X83431738Y-26932402D01*
X83447068Y-26932402D01*
X83462151Y-26935116D01*
X83468695Y-26932402D01*
X83829352Y-26932402D01*
X83845836Y-26934772D01*
X83860988Y-26927852D01*
X83876972Y-26923159D01*
X83880708Y-26918846D01*
X83885900Y-26916476D01*
X83894907Y-26902459D01*
X83905814Y-26889873D01*
X83906625Y-26884226D01*
X83909712Y-26879424D01*
X83909712Y-26862762D01*
X83912082Y-26846278D01*
X83909712Y-26841088D01*
X83909712Y-26338953D01*
X83912082Y-26322469D01*
X83909712Y-26317279D01*
X83909712Y-25875492D01*
X84234859Y-25875492D01*
X84235903Y-25877319D01*
X84235903Y-26868184D01*
X84245146Y-26899662D01*
X84278432Y-26928504D01*
X84322027Y-26934772D01*
X84362091Y-26916476D01*
X84385903Y-26879424D01*
X84385903Y-26139819D01*
X84812849Y-26886976D01*
X84816574Y-26899662D01*
X84831737Y-26912801D01*
X84846205Y-26926719D01*
X84848270Y-26927126D01*
X84849860Y-26928504D01*
X84869720Y-26931359D01*
X84889415Y-26935246D01*
X84891372Y-26934472D01*
X84893455Y-26934772D01*
X84911710Y-26926435D01*
X84930376Y-26919059D01*
X84931604Y-26917350D01*
X84933519Y-26916476D01*
X84944369Y-26899591D01*
X84956084Y-26883296D01*
X84956193Y-26881193D01*
X84957331Y-26879424D01*
X84957331Y-26868184D01*
X85283521Y-26868184D01*
X85292764Y-26899662D01*
X85326050Y-26928504D01*
X85369645Y-26934772D01*
X85409709Y-26916476D01*
X85433521Y-26879424D01*
X85433521Y-25846620D01*
X85424278Y-25815142D01*
X85390992Y-25786300D01*
X85347397Y-25780032D01*
X85307333Y-25798328D01*
X85283521Y-25835380D01*
X85283521Y-26868184D01*
X84957331Y-26868184D01*
X84957331Y-26859355D01*
X84958375Y-26839312D01*
X84957331Y-26837485D01*
X84957331Y-25846620D01*
X84948088Y-25815142D01*
X84914802Y-25786300D01*
X84871207Y-25780032D01*
X84831143Y-25798328D01*
X84807331Y-25835380D01*
X84807331Y-26574985D01*
X84380384Y-25827827D01*
X84376660Y-25815142D01*
X84361496Y-25802002D01*
X84347029Y-25788085D01*
X84344963Y-25787677D01*
X84343374Y-25786300D01*
X84323513Y-25783444D01*
X84303819Y-25779558D01*
X84301861Y-25780331D01*
X84299779Y-25780032D01*
X84281523Y-25788368D01*
X84262858Y-25795745D01*
X84261629Y-25797453D01*
X84259715Y-25798328D01*
X84248864Y-25815212D01*
X84237150Y-25831508D01*
X84237040Y-25833610D01*
X84235903Y-25835380D01*
X84235903Y-25855449D01*
X84234859Y-25875492D01*
X83909712Y-25875492D01*
X83909712Y-25846620D01*
X83900469Y-25815142D01*
X83867183Y-25786300D01*
X83823588Y-25780032D01*
X83783524Y-25798328D01*
X83759712Y-25835380D01*
X83759712Y-26258593D01*
X83457791Y-26258593D01*
X83439916Y-26256663D01*
X83426206Y-26263517D01*
X83411500Y-26267836D01*
X83406860Y-26273190D01*
X83333391Y-26309924D01*
X83321061Y-26312607D01*
X83306441Y-26327226D01*
X83291316Y-26341296D01*
X83290953Y-26342714D01*
X83264518Y-26369149D01*
X83253669Y-26375593D01*
X83244418Y-26394093D01*
X83234523Y-26412216D01*
X83234627Y-26413676D01*
X83198007Y-26486917D01*
X83188284Y-26502047D01*
X83188284Y-26517377D01*
X83185570Y-26532460D01*
X82909712Y-26532460D01*
X82909712Y-26051910D01*
X82911642Y-26034035D01*
X82904787Y-26020325D01*
X82900469Y-26005619D01*
X82895114Y-26000979D01*
X82858380Y-25927510D01*
X82855698Y-25915180D01*
X82841078Y-25900560D01*
X82827009Y-25885435D01*
X82825590Y-25885072D01*
X82799157Y-25858639D01*
X82792713Y-25847789D01*
X82774216Y-25838540D01*
X82756089Y-25828642D01*
X82754628Y-25828746D01*
X82681385Y-25792123D01*
X82666258Y-25782402D01*
X82650929Y-25782402D01*
X82635846Y-25779688D01*
X82629302Y-25782402D01*
X82457800Y-25782402D01*
X82439916Y-25780471D01*
X82426202Y-25787327D01*
X82411500Y-25791645D01*
X82406860Y-25796998D01*
X82333390Y-25833734D01*
X82321061Y-25836417D01*
X82306436Y-25851041D01*
X82291316Y-25865107D01*
X82290953Y-25866524D01*
X82264518Y-25892959D01*
X82253669Y-25899403D01*
X82244418Y-25917903D01*
X82234523Y-25936026D01*
X82234627Y-25937486D01*
X82198007Y-26010727D01*
X82188284Y-26025857D01*
X82188284Y-26041187D01*
X82185570Y-26056270D01*
X81719236Y-26056270D01*
X81719236Y-25846620D01*
X81709993Y-25815142D01*
X81676707Y-25786300D01*
X81633112Y-25780032D01*
X81593048Y-25798328D01*
X81569236Y-25835380D01*
X81569236Y-26782402D01*
X81347740Y-26782402D01*
X81316262Y-26791645D01*
X81287420Y-26824931D01*
X81281152Y-26868526D01*
X80338283Y-26868526D01*
X80338283Y-25862762D01*
X80340653Y-25846278D01*
X80333733Y-25831125D01*
X80329040Y-25815142D01*
X80324727Y-25811405D01*
X80322357Y-25806214D01*
X80308340Y-25797206D01*
X80295754Y-25786300D01*
X80290107Y-25785488D01*
X80285305Y-25782402D01*
X80268643Y-25782402D01*
X80252159Y-25780032D01*
X80246969Y-25782402D01*
X79776311Y-25782402D01*
X79744833Y-25791645D01*
X79715991Y-25824931D01*
X79709723Y-25868526D01*
X77910903Y-25868526D01*
X77910903Y-25367165D01*
X85964474Y-25367165D01*
X85964474Y-27477879D01*
G37*
D11*
X116738380Y-49724285D02*
X116776476Y-49686190D01*
X116776476Y-49686190D02*
X116852666Y-49648095D01*
X116852666Y-49648095D02*
X117043142Y-49648095D01*
X117043142Y-49648095D02*
X117119333Y-49686190D01*
X117119333Y-49686190D02*
X117157428Y-49724285D01*
X117157428Y-49724285D02*
X117195523Y-49800476D01*
X117195523Y-49800476D02*
X117195523Y-49876666D01*
X117195523Y-49876666D02*
X117157428Y-49990952D01*
X117157428Y-49990952D02*
X116700285Y-50448095D01*
X116700285Y-50448095D02*
X117195523Y-50448095D01*
X117690762Y-49648095D02*
X117766952Y-49648095D01*
X117766952Y-49648095D02*
X117843143Y-49686190D01*
X117843143Y-49686190D02*
X117881238Y-49724285D01*
X117881238Y-49724285D02*
X117919333Y-49800476D01*
X117919333Y-49800476D02*
X117957428Y-49952857D01*
X117957428Y-49952857D02*
X117957428Y-50143333D01*
X117957428Y-50143333D02*
X117919333Y-50295714D01*
X117919333Y-50295714D02*
X117881238Y-50371904D01*
X117881238Y-50371904D02*
X117843143Y-50410000D01*
X117843143Y-50410000D02*
X117766952Y-50448095D01*
X117766952Y-50448095D02*
X117690762Y-50448095D01*
X117690762Y-50448095D02*
X117614571Y-50410000D01*
X117614571Y-50410000D02*
X117576476Y-50371904D01*
X117576476Y-50371904D02*
X117538381Y-50295714D01*
X117538381Y-50295714D02*
X117500285Y-50143333D01*
X117500285Y-50143333D02*
X117500285Y-49952857D01*
X117500285Y-49952857D02*
X117538381Y-49800476D01*
X117538381Y-49800476D02*
X117576476Y-49724285D01*
X117576476Y-49724285D02*
X117614571Y-49686190D01*
X117614571Y-49686190D02*
X117690762Y-49648095D01*
X118719333Y-50448095D02*
X118262190Y-50448095D01*
X118490762Y-50448095D02*
X118490762Y-49648095D01*
X118490762Y-49648095D02*
X118414571Y-49762380D01*
X118414571Y-49762380D02*
X118338381Y-49838571D01*
X118338381Y-49838571D02*
X118262190Y-49876666D01*
X119214572Y-49648095D02*
X119290762Y-49648095D01*
X119290762Y-49648095D02*
X119366953Y-49686190D01*
X119366953Y-49686190D02*
X119405048Y-49724285D01*
X119405048Y-49724285D02*
X119443143Y-49800476D01*
X119443143Y-49800476D02*
X119481238Y-49952857D01*
X119481238Y-49952857D02*
X119481238Y-50143333D01*
X119481238Y-50143333D02*
X119443143Y-50295714D01*
X119443143Y-50295714D02*
X119405048Y-50371904D01*
X119405048Y-50371904D02*
X119366953Y-50410000D01*
X119366953Y-50410000D02*
X119290762Y-50448095D01*
X119290762Y-50448095D02*
X119214572Y-50448095D01*
X119214572Y-50448095D02*
X119138381Y-50410000D01*
X119138381Y-50410000D02*
X119100286Y-50371904D01*
X119100286Y-50371904D02*
X119062191Y-50295714D01*
X119062191Y-50295714D02*
X119024095Y-50143333D01*
X119024095Y-50143333D02*
X119024095Y-49952857D01*
X119024095Y-49952857D02*
X119062191Y-49800476D01*
X119062191Y-49800476D02*
X119100286Y-49724285D01*
X119100286Y-49724285D02*
X119138381Y-49686190D01*
X119138381Y-49686190D02*
X119214572Y-49648095D01*
X120662191Y-50752857D02*
X120624096Y-50714761D01*
X120624096Y-50714761D02*
X120547905Y-50600476D01*
X120547905Y-50600476D02*
X120509810Y-50524285D01*
X120509810Y-50524285D02*
X120471715Y-50410000D01*
X120471715Y-50410000D02*
X120433620Y-50219523D01*
X120433620Y-50219523D02*
X120433620Y-50067142D01*
X120433620Y-50067142D02*
X120471715Y-49876666D01*
X120471715Y-49876666D02*
X120509810Y-49762380D01*
X120509810Y-49762380D02*
X120547905Y-49686190D01*
X120547905Y-49686190D02*
X120624096Y-49571904D01*
X120624096Y-49571904D02*
X120662191Y-49533809D01*
X121347905Y-49648095D02*
X120966953Y-49648095D01*
X120966953Y-49648095D02*
X120928857Y-50029047D01*
X120928857Y-50029047D02*
X120966953Y-49990952D01*
X120966953Y-49990952D02*
X121043143Y-49952857D01*
X121043143Y-49952857D02*
X121233619Y-49952857D01*
X121233619Y-49952857D02*
X121309810Y-49990952D01*
X121309810Y-49990952D02*
X121347905Y-50029047D01*
X121347905Y-50029047D02*
X121386000Y-50105238D01*
X121386000Y-50105238D02*
X121386000Y-50295714D01*
X121386000Y-50295714D02*
X121347905Y-50371904D01*
X121347905Y-50371904D02*
X121309810Y-50410000D01*
X121309810Y-50410000D02*
X121233619Y-50448095D01*
X121233619Y-50448095D02*
X121043143Y-50448095D01*
X121043143Y-50448095D02*
X120966953Y-50410000D01*
X120966953Y-50410000D02*
X120928857Y-50371904D01*
X121881239Y-49648095D02*
X121957429Y-49648095D01*
X121957429Y-49648095D02*
X122033620Y-49686190D01*
X122033620Y-49686190D02*
X122071715Y-49724285D01*
X122071715Y-49724285D02*
X122109810Y-49800476D01*
X122109810Y-49800476D02*
X122147905Y-49952857D01*
X122147905Y-49952857D02*
X122147905Y-50143333D01*
X122147905Y-50143333D02*
X122109810Y-50295714D01*
X122109810Y-50295714D02*
X122071715Y-50371904D01*
X122071715Y-50371904D02*
X122033620Y-50410000D01*
X122033620Y-50410000D02*
X121957429Y-50448095D01*
X121957429Y-50448095D02*
X121881239Y-50448095D01*
X121881239Y-50448095D02*
X121805048Y-50410000D01*
X121805048Y-50410000D02*
X121766953Y-50371904D01*
X121766953Y-50371904D02*
X121728858Y-50295714D01*
X121728858Y-50295714D02*
X121690762Y-50143333D01*
X121690762Y-50143333D02*
X121690762Y-49952857D01*
X121690762Y-49952857D02*
X121728858Y-49800476D01*
X121728858Y-49800476D02*
X121766953Y-49724285D01*
X121766953Y-49724285D02*
X121805048Y-49686190D01*
X121805048Y-49686190D02*
X121881239Y-49648095D01*
X122452667Y-49724285D02*
X122490763Y-49686190D01*
X122490763Y-49686190D02*
X122566953Y-49648095D01*
X122566953Y-49648095D02*
X122757429Y-49648095D01*
X122757429Y-49648095D02*
X122833620Y-49686190D01*
X122833620Y-49686190D02*
X122871715Y-49724285D01*
X122871715Y-49724285D02*
X122909810Y-49800476D01*
X122909810Y-49800476D02*
X122909810Y-49876666D01*
X122909810Y-49876666D02*
X122871715Y-49990952D01*
X122871715Y-49990952D02*
X122414572Y-50448095D01*
X122414572Y-50448095D02*
X122909810Y-50448095D01*
X123633620Y-49648095D02*
X123252668Y-49648095D01*
X123252668Y-49648095D02*
X123214572Y-50029047D01*
X123214572Y-50029047D02*
X123252668Y-49990952D01*
X123252668Y-49990952D02*
X123328858Y-49952857D01*
X123328858Y-49952857D02*
X123519334Y-49952857D01*
X123519334Y-49952857D02*
X123595525Y-49990952D01*
X123595525Y-49990952D02*
X123633620Y-50029047D01*
X123633620Y-50029047D02*
X123671715Y-50105238D01*
X123671715Y-50105238D02*
X123671715Y-50295714D01*
X123671715Y-50295714D02*
X123633620Y-50371904D01*
X123633620Y-50371904D02*
X123595525Y-50410000D01*
X123595525Y-50410000D02*
X123519334Y-50448095D01*
X123519334Y-50448095D02*
X123328858Y-50448095D01*
X123328858Y-50448095D02*
X123252668Y-50410000D01*
X123252668Y-50410000D02*
X123214572Y-50371904D01*
X123938382Y-50752857D02*
X123976477Y-50714761D01*
X123976477Y-50714761D02*
X124052668Y-50600476D01*
X124052668Y-50600476D02*
X124090763Y-50524285D01*
X124090763Y-50524285D02*
X124128858Y-50410000D01*
X124128858Y-50410000D02*
X124166954Y-50219523D01*
X124166954Y-50219523D02*
X124166954Y-50067142D01*
X124166954Y-50067142D02*
X124128858Y-49876666D01*
X124128858Y-49876666D02*
X124090763Y-49762380D01*
X124090763Y-49762380D02*
X124052668Y-49686190D01*
X124052668Y-49686190D02*
X123976477Y-49571904D01*
X123976477Y-49571904D02*
X123938382Y-49533809D01*
D10*
G36*
X145317064Y-26776055D02*
G01*
X145028818Y-26776055D01*
X144960300Y-26741796D01*
X144929893Y-26711389D01*
X144895636Y-26642874D01*
X144895636Y-26535428D01*
X144929895Y-26466910D01*
X144960300Y-26436504D01*
X145028816Y-26402246D01*
X145317064Y-26402246D01*
X145317064Y-26776055D01*
G37*
G36*
X141596713Y-26404116D02*
G01*
X141600413Y-26402246D01*
X141745635Y-26402246D01*
X141745635Y-26776055D01*
X141457389Y-26776055D01*
X141388871Y-26741796D01*
X141358464Y-26711389D01*
X141324207Y-26642874D01*
X141324207Y-26535428D01*
X141358466Y-26466910D01*
X141388871Y-26436504D01*
X141457387Y-26402246D01*
X141578668Y-26402246D01*
X141596713Y-26404116D01*
G37*
G36*
X147521826Y-27471532D02*
G01*
X139277779Y-27471532D01*
X139277779Y-26526113D01*
X141171493Y-26526113D01*
X141174207Y-26532657D01*
X141174207Y-26656539D01*
X141172276Y-26674423D01*
X141179132Y-26688136D01*
X141183450Y-26702839D01*
X141188803Y-26707477D01*
X141225538Y-26780946D01*
X141228221Y-26793278D01*
X141242848Y-26807905D01*
X141256910Y-26823023D01*
X141258328Y-26823385D01*
X141284763Y-26849820D01*
X141291207Y-26860670D01*
X141309716Y-26869924D01*
X141327830Y-26879815D01*
X141329288Y-26879710D01*
X141402534Y-26916333D01*
X141417661Y-26926055D01*
X141432991Y-26926055D01*
X141448074Y-26928769D01*
X141454618Y-26926055D01*
X141815275Y-26926055D01*
X141831759Y-26928425D01*
X141846911Y-26921505D01*
X141862895Y-26916812D01*
X141866631Y-26912499D01*
X141871823Y-26910129D01*
X141880830Y-26896112D01*
X141891737Y-26883526D01*
X141892548Y-26877879D01*
X141895635Y-26873077D01*
X141895635Y-26862179D01*
X142838504Y-26862179D01*
X142856800Y-26902243D01*
X142893852Y-26926055D01*
X143196228Y-26926055D01*
X143212712Y-26928425D01*
X143217902Y-26926055D01*
X143498084Y-26926055D01*
X143529562Y-26916812D01*
X143558404Y-26883526D01*
X143564672Y-26839931D01*
X143546376Y-26799867D01*
X143509324Y-26776055D01*
X143276588Y-26776055D01*
X143276588Y-26049923D01*
X143742922Y-26049923D01*
X143745636Y-26056467D01*
X143745636Y-26861837D01*
X143754879Y-26893315D01*
X143788165Y-26922157D01*
X143831760Y-26928425D01*
X143871824Y-26910129D01*
X143895636Y-26873077D01*
X143895636Y-26059238D01*
X143929895Y-25990720D01*
X143960301Y-25960313D01*
X144028817Y-25926055D01*
X144183882Y-25926055D01*
X144252399Y-25960314D01*
X144282805Y-25990720D01*
X144317064Y-26059236D01*
X144317064Y-26861837D01*
X144326307Y-26893315D01*
X144359593Y-26922157D01*
X144403188Y-26928425D01*
X144443252Y-26910129D01*
X144467064Y-26873077D01*
X144467064Y-26526113D01*
X144742922Y-26526113D01*
X144745636Y-26532657D01*
X144745636Y-26656539D01*
X144743705Y-26674423D01*
X144750561Y-26688136D01*
X144754879Y-26702839D01*
X144760232Y-26707477D01*
X144796967Y-26780946D01*
X144799650Y-26793278D01*
X144814277Y-26807905D01*
X144828339Y-26823023D01*
X144829757Y-26823385D01*
X144856192Y-26849820D01*
X144862636Y-26860670D01*
X144881145Y-26869924D01*
X144899259Y-26879815D01*
X144900717Y-26879710D01*
X144973963Y-26916333D01*
X144989090Y-26926055D01*
X145004420Y-26926055D01*
X145019503Y-26928769D01*
X145026047Y-26926055D01*
X145386704Y-26926055D01*
X145403188Y-26928425D01*
X145418340Y-26921505D01*
X145434324Y-26916812D01*
X145438060Y-26912499D01*
X145443252Y-26910129D01*
X145452259Y-26896112D01*
X145463166Y-26883526D01*
X145463977Y-26877879D01*
X145467064Y-26873077D01*
X145467064Y-26856415D01*
X145469434Y-26839931D01*
X145467064Y-26834741D01*
X145467064Y-26332606D01*
X145469434Y-26316122D01*
X145467064Y-26310932D01*
X145467064Y-25869145D01*
X145792211Y-25869145D01*
X145793255Y-25870972D01*
X145793255Y-26861837D01*
X145802498Y-26893315D01*
X145835784Y-26922157D01*
X145879379Y-26928425D01*
X145919443Y-26910129D01*
X145943255Y-26873077D01*
X145943255Y-26133472D01*
X146370201Y-26880629D01*
X146373926Y-26893315D01*
X146389089Y-26906454D01*
X146403557Y-26920372D01*
X146405622Y-26920779D01*
X146407212Y-26922157D01*
X146427072Y-26925012D01*
X146446767Y-26928899D01*
X146448724Y-26928125D01*
X146450807Y-26928425D01*
X146469062Y-26920088D01*
X146487728Y-26912712D01*
X146488956Y-26911003D01*
X146490871Y-26910129D01*
X146501721Y-26893244D01*
X146513436Y-26876949D01*
X146513545Y-26874846D01*
X146514683Y-26873077D01*
X146514683Y-26861837D01*
X146840873Y-26861837D01*
X146850116Y-26893315D01*
X146883402Y-26922157D01*
X146926997Y-26928425D01*
X146967061Y-26910129D01*
X146990873Y-26873077D01*
X146990873Y-25840273D01*
X146981630Y-25808795D01*
X146948344Y-25779953D01*
X146904749Y-25773685D01*
X146864685Y-25791981D01*
X146840873Y-25829033D01*
X146840873Y-26861837D01*
X146514683Y-26861837D01*
X146514683Y-26853008D01*
X146515727Y-26832965D01*
X146514683Y-26831138D01*
X146514683Y-25840273D01*
X146505440Y-25808795D01*
X146472154Y-25779953D01*
X146428559Y-25773685D01*
X146388495Y-25791981D01*
X146364683Y-25829033D01*
X146364683Y-26568638D01*
X145937736Y-25821480D01*
X145934012Y-25808795D01*
X145918848Y-25795655D01*
X145904381Y-25781738D01*
X145902315Y-25781330D01*
X145900726Y-25779953D01*
X145880865Y-25777097D01*
X145861171Y-25773211D01*
X145859213Y-25773984D01*
X145857131Y-25773685D01*
X145838875Y-25782021D01*
X145820210Y-25789398D01*
X145818981Y-25791106D01*
X145817067Y-25791981D01*
X145806216Y-25808865D01*
X145794502Y-25825161D01*
X145794392Y-25827263D01*
X145793255Y-25829033D01*
X145793255Y-25849102D01*
X145792211Y-25869145D01*
X145467064Y-25869145D01*
X145467064Y-25840273D01*
X145457821Y-25808795D01*
X145424535Y-25779953D01*
X145380940Y-25773685D01*
X145340876Y-25791981D01*
X145317064Y-25829033D01*
X145317064Y-26252246D01*
X145015143Y-26252246D01*
X144997268Y-26250316D01*
X144983558Y-26257170D01*
X144968852Y-26261489D01*
X144964212Y-26266843D01*
X144890743Y-26303577D01*
X144878413Y-26306260D01*
X144863793Y-26320879D01*
X144848668Y-26334949D01*
X144848305Y-26336367D01*
X144821870Y-26362802D01*
X144811021Y-26369246D01*
X144801770Y-26387746D01*
X144791875Y-26405869D01*
X144791979Y-26407329D01*
X144755359Y-26480570D01*
X144745636Y-26495700D01*
X144745636Y-26511030D01*
X144742922Y-26526113D01*
X144467064Y-26526113D01*
X144467064Y-26045563D01*
X144468994Y-26027688D01*
X144462139Y-26013978D01*
X144457821Y-25999272D01*
X144452466Y-25994632D01*
X144415732Y-25921163D01*
X144413050Y-25908833D01*
X144398430Y-25894213D01*
X144384361Y-25879088D01*
X144382942Y-25878725D01*
X144356509Y-25852292D01*
X144350065Y-25841442D01*
X144331568Y-25832193D01*
X144313441Y-25822295D01*
X144311980Y-25822399D01*
X144238737Y-25785776D01*
X144223610Y-25776055D01*
X144208281Y-25776055D01*
X144193198Y-25773341D01*
X144186654Y-25776055D01*
X144015152Y-25776055D01*
X143997268Y-25774124D01*
X143983554Y-25780980D01*
X143968852Y-25785298D01*
X143964212Y-25790651D01*
X143890742Y-25827387D01*
X143878413Y-25830070D01*
X143863788Y-25844694D01*
X143848668Y-25858760D01*
X143848305Y-25860177D01*
X143821870Y-25886612D01*
X143811021Y-25893056D01*
X143801770Y-25911556D01*
X143791875Y-25929679D01*
X143791979Y-25931139D01*
X143755359Y-26004380D01*
X143745636Y-26019510D01*
X143745636Y-26034840D01*
X143742922Y-26049923D01*
X143276588Y-26049923D01*
X143276588Y-25840273D01*
X143267345Y-25808795D01*
X143234059Y-25779953D01*
X143190464Y-25773685D01*
X143150400Y-25791981D01*
X143126588Y-25829033D01*
X143126588Y-26776055D01*
X142905092Y-26776055D01*
X142873614Y-26785298D01*
X142844772Y-26818584D01*
X142838504Y-26862179D01*
X141895635Y-26862179D01*
X141895635Y-26856415D01*
X141898005Y-26839931D01*
X141895635Y-26834741D01*
X141895635Y-26332606D01*
X141898005Y-26316122D01*
X141895635Y-26310932D01*
X141895635Y-25840273D01*
X141886392Y-25808795D01*
X141853106Y-25779953D01*
X141809511Y-25773685D01*
X141769447Y-25791981D01*
X141745635Y-25829033D01*
X141745635Y-26252246D01*
X141621589Y-26252246D01*
X141304466Y-25799212D01*
X141278843Y-25778725D01*
X141235034Y-25774185D01*
X141195725Y-25794050D01*
X141173395Y-25832014D01*
X141175136Y-25876023D01*
X141438064Y-26251635D01*
X141425839Y-26250316D01*
X141412129Y-26257170D01*
X141397423Y-26261489D01*
X141392783Y-26266843D01*
X141319314Y-26303577D01*
X141306984Y-26306260D01*
X141292364Y-26320879D01*
X141277239Y-26334949D01*
X141276876Y-26336367D01*
X141250441Y-26362802D01*
X141239592Y-26369246D01*
X141230341Y-26387746D01*
X141220446Y-26405869D01*
X141220550Y-26407329D01*
X141183930Y-26480570D01*
X141174207Y-26495700D01*
X141174207Y-26511030D01*
X141171493Y-26526113D01*
X139277779Y-26526113D01*
X139277779Y-26243132D01*
X139981361Y-26243132D01*
X139999657Y-26283196D01*
X140036709Y-26307008D01*
X140831417Y-26307008D01*
X140862895Y-26297765D01*
X140891737Y-26264479D01*
X140898005Y-26220884D01*
X140879709Y-26180820D01*
X140842657Y-26157008D01*
X140047949Y-26157008D01*
X140016471Y-26166251D01*
X139987629Y-26199537D01*
X139981361Y-26243132D01*
X139277779Y-26243132D01*
X139277779Y-25360818D01*
X147521826Y-25360818D01*
X147521826Y-27471532D01*
G37*
D12*
X138642857Y-60755000D02*
X137500000Y-60755000D01*
D10*
X76946095Y-45231809D02*
X77279428Y-45231809D01*
X77422285Y-45755619D02*
X76946095Y-45755619D01*
X76946095Y-45755619D02*
X76946095Y-44755619D01*
X76946095Y-44755619D02*
X77422285Y-44755619D01*
X77755619Y-45755619D02*
X78279428Y-45088952D01*
X77755619Y-45088952D02*
X78279428Y-45755619D01*
X79088952Y-45708000D02*
X78993714Y-45755619D01*
X78993714Y-45755619D02*
X78803238Y-45755619D01*
X78803238Y-45755619D02*
X78708000Y-45708000D01*
X78708000Y-45708000D02*
X78660381Y-45660380D01*
X78660381Y-45660380D02*
X78612762Y-45565142D01*
X78612762Y-45565142D02*
X78612762Y-45279428D01*
X78612762Y-45279428D02*
X78660381Y-45184190D01*
X78660381Y-45184190D02*
X78708000Y-45136571D01*
X78708000Y-45136571D02*
X78803238Y-45088952D01*
X78803238Y-45088952D02*
X78993714Y-45088952D01*
X78993714Y-45088952D02*
X79088952Y-45136571D01*
X79517524Y-45755619D02*
X79517524Y-45088952D01*
X79517524Y-44755619D02*
X79469905Y-44803238D01*
X79469905Y-44803238D02*
X79517524Y-44850857D01*
X79517524Y-44850857D02*
X79565143Y-44803238D01*
X79565143Y-44803238D02*
X79517524Y-44755619D01*
X79517524Y-44755619D02*
X79517524Y-44850857D01*
X79850857Y-45088952D02*
X80231809Y-45088952D01*
X79993714Y-44755619D02*
X79993714Y-45612761D01*
X79993714Y-45612761D02*
X80041333Y-45708000D01*
X80041333Y-45708000D02*
X80136571Y-45755619D01*
X80136571Y-45755619D02*
X80231809Y-45755619D01*
X80708000Y-45755619D02*
X80612762Y-45708000D01*
X80612762Y-45708000D02*
X80565143Y-45660380D01*
X80565143Y-45660380D02*
X80517524Y-45565142D01*
X80517524Y-45565142D02*
X80517524Y-45279428D01*
X80517524Y-45279428D02*
X80565143Y-45184190D01*
X80565143Y-45184190D02*
X80612762Y-45136571D01*
X80612762Y-45136571D02*
X80708000Y-45088952D01*
X80708000Y-45088952D02*
X80850857Y-45088952D01*
X80850857Y-45088952D02*
X80946095Y-45136571D01*
X80946095Y-45136571D02*
X80993714Y-45184190D01*
X80993714Y-45184190D02*
X81041333Y-45279428D01*
X81041333Y-45279428D02*
X81041333Y-45565142D01*
X81041333Y-45565142D02*
X80993714Y-45660380D01*
X80993714Y-45660380D02*
X80946095Y-45708000D01*
X80946095Y-45708000D02*
X80850857Y-45755619D01*
X80850857Y-45755619D02*
X80708000Y-45755619D01*
X81469905Y-45088952D02*
X81469905Y-45755619D01*
X81469905Y-45184190D02*
X81517524Y-45136571D01*
X81517524Y-45136571D02*
X81612762Y-45088952D01*
X81612762Y-45088952D02*
X81755619Y-45088952D01*
X81755619Y-45088952D02*
X81850857Y-45136571D01*
X81850857Y-45136571D02*
X81898476Y-45231809D01*
X81898476Y-45231809D02*
X81898476Y-45755619D01*
X83612762Y-45755619D02*
X83136572Y-45755619D01*
X83136572Y-45755619D02*
X83136572Y-44755619D01*
X84374667Y-45755619D02*
X84374667Y-45231809D01*
X84374667Y-45231809D02*
X84327048Y-45136571D01*
X84327048Y-45136571D02*
X84231810Y-45088952D01*
X84231810Y-45088952D02*
X84041334Y-45088952D01*
X84041334Y-45088952D02*
X83946096Y-45136571D01*
X84374667Y-45708000D02*
X84279429Y-45755619D01*
X84279429Y-45755619D02*
X84041334Y-45755619D01*
X84041334Y-45755619D02*
X83946096Y-45708000D01*
X83946096Y-45708000D02*
X83898477Y-45612761D01*
X83898477Y-45612761D02*
X83898477Y-45517523D01*
X83898477Y-45517523D02*
X83946096Y-45422285D01*
X83946096Y-45422285D02*
X84041334Y-45374666D01*
X84041334Y-45374666D02*
X84279429Y-45374666D01*
X84279429Y-45374666D02*
X84374667Y-45327047D01*
X84850858Y-45755619D02*
X84850858Y-44755619D01*
X84850858Y-45136571D02*
X84946096Y-45088952D01*
X84946096Y-45088952D02*
X85136572Y-45088952D01*
X85136572Y-45088952D02*
X85231810Y-45136571D01*
X85231810Y-45136571D02*
X85279429Y-45184190D01*
X85279429Y-45184190D02*
X85327048Y-45279428D01*
X85327048Y-45279428D02*
X85327048Y-45565142D01*
X85327048Y-45565142D02*
X85279429Y-45660380D01*
X85279429Y-45660380D02*
X85231810Y-45708000D01*
X85231810Y-45708000D02*
X85136572Y-45755619D01*
X85136572Y-45755619D02*
X84946096Y-45755619D01*
X84946096Y-45755619D02*
X84850858Y-45708000D01*
X85708001Y-45708000D02*
X85803239Y-45755619D01*
X85803239Y-45755619D02*
X85993715Y-45755619D01*
X85993715Y-45755619D02*
X86088953Y-45708000D01*
X86088953Y-45708000D02*
X86136572Y-45612761D01*
X86136572Y-45612761D02*
X86136572Y-45565142D01*
X86136572Y-45565142D02*
X86088953Y-45469904D01*
X86088953Y-45469904D02*
X85993715Y-45422285D01*
X85993715Y-45422285D02*
X85850858Y-45422285D01*
X85850858Y-45422285D02*
X85755620Y-45374666D01*
X85755620Y-45374666D02*
X85708001Y-45279428D01*
X85708001Y-45279428D02*
X85708001Y-45231809D01*
X85708001Y-45231809D02*
X85755620Y-45136571D01*
X85755620Y-45136571D02*
X85850858Y-45088952D01*
X85850858Y-45088952D02*
X85993715Y-45088952D01*
X85993715Y-45088952D02*
X86088953Y-45136571D01*
X87803239Y-45755619D02*
X87327049Y-45755619D01*
X87327049Y-45755619D02*
X87327049Y-44755619D01*
X87993716Y-45088952D02*
X88374668Y-45088952D01*
X88136573Y-44755619D02*
X88136573Y-45612761D01*
X88136573Y-45612761D02*
X88184192Y-45708000D01*
X88184192Y-45708000D02*
X88279430Y-45755619D01*
X88279430Y-45755619D02*
X88374668Y-45755619D01*
X89136573Y-45755619D02*
X89136573Y-44755619D01*
X89136573Y-45708000D02*
X89041335Y-45755619D01*
X89041335Y-45755619D02*
X88850859Y-45755619D01*
X88850859Y-45755619D02*
X88755621Y-45708000D01*
X88755621Y-45708000D02*
X88708002Y-45660380D01*
X88708002Y-45660380D02*
X88660383Y-45565142D01*
X88660383Y-45565142D02*
X88660383Y-45279428D01*
X88660383Y-45279428D02*
X88708002Y-45184190D01*
X88708002Y-45184190D02*
X88755621Y-45136571D01*
X88755621Y-45136571D02*
X88850859Y-45088952D01*
X88850859Y-45088952D02*
X89041335Y-45088952D01*
X89041335Y-45088952D02*
X89136573Y-45136571D01*
X89612764Y-45660380D02*
X89660383Y-45708000D01*
X89660383Y-45708000D02*
X89612764Y-45755619D01*
X89612764Y-45755619D02*
X89565145Y-45708000D01*
X89565145Y-45708000D02*
X89612764Y-45660380D01*
X89612764Y-45660380D02*
X89612764Y-45755619D01*
X90136573Y-45708000D02*
X90136573Y-45755619D01*
X90136573Y-45755619D02*
X90088954Y-45850857D01*
X90088954Y-45850857D02*
X90041335Y-45898476D01*
X91327049Y-44755619D02*
X91327049Y-45565142D01*
X91327049Y-45565142D02*
X91374668Y-45660380D01*
X91374668Y-45660380D02*
X91422287Y-45708000D01*
X91422287Y-45708000D02*
X91517525Y-45755619D01*
X91517525Y-45755619D02*
X91708001Y-45755619D01*
X91708001Y-45755619D02*
X91803239Y-45708000D01*
X91803239Y-45708000D02*
X91850858Y-45660380D01*
X91850858Y-45660380D02*
X91898477Y-45565142D01*
X91898477Y-45565142D02*
X91898477Y-44755619D01*
X92374668Y-45755619D02*
X92374668Y-44755619D01*
X92946096Y-45755619D02*
X92517525Y-45184190D01*
X92946096Y-44755619D02*
X92374668Y-45327047D01*
X77374666Y-47375619D02*
X77374666Y-46375619D01*
X77374666Y-47328000D02*
X77279428Y-47375619D01*
X77279428Y-47375619D02*
X77088952Y-47375619D01*
X77088952Y-47375619D02*
X76993714Y-47328000D01*
X76993714Y-47328000D02*
X76946095Y-47280380D01*
X76946095Y-47280380D02*
X76898476Y-47185142D01*
X76898476Y-47185142D02*
X76898476Y-46899428D01*
X76898476Y-46899428D02*
X76946095Y-46804190D01*
X76946095Y-46804190D02*
X76993714Y-46756571D01*
X76993714Y-46756571D02*
X77088952Y-46708952D01*
X77088952Y-46708952D02*
X77279428Y-46708952D01*
X77279428Y-46708952D02*
X77374666Y-46756571D01*
X78279428Y-47375619D02*
X78279428Y-46851809D01*
X78279428Y-46851809D02*
X78231809Y-46756571D01*
X78231809Y-46756571D02*
X78136571Y-46708952D01*
X78136571Y-46708952D02*
X77946095Y-46708952D01*
X77946095Y-46708952D02*
X77850857Y-46756571D01*
X78279428Y-47328000D02*
X78184190Y-47375619D01*
X78184190Y-47375619D02*
X77946095Y-47375619D01*
X77946095Y-47375619D02*
X77850857Y-47328000D01*
X77850857Y-47328000D02*
X77803238Y-47232761D01*
X77803238Y-47232761D02*
X77803238Y-47137523D01*
X77803238Y-47137523D02*
X77850857Y-47042285D01*
X77850857Y-47042285D02*
X77946095Y-46994666D01*
X77946095Y-46994666D02*
X78184190Y-46994666D01*
X78184190Y-46994666D02*
X78279428Y-46947047D01*
X78755619Y-46708952D02*
X78755619Y-47375619D01*
X78755619Y-46804190D02*
X78803238Y-46756571D01*
X78803238Y-46756571D02*
X78898476Y-46708952D01*
X78898476Y-46708952D02*
X79041333Y-46708952D01*
X79041333Y-46708952D02*
X79136571Y-46756571D01*
X79136571Y-46756571D02*
X79184190Y-46851809D01*
X79184190Y-46851809D02*
X79184190Y-47375619D01*
X80279428Y-46899428D02*
X80231809Y-46851809D01*
X80231809Y-46851809D02*
X80136571Y-46804190D01*
X80136571Y-46804190D02*
X80041333Y-46804190D01*
X80041333Y-46804190D02*
X79946095Y-46851809D01*
X79946095Y-46851809D02*
X79898476Y-46899428D01*
X79898476Y-46899428D02*
X79850857Y-46994666D01*
X79850857Y-46994666D02*
X79850857Y-47089904D01*
X79850857Y-47089904D02*
X79898476Y-47185142D01*
X79898476Y-47185142D02*
X79946095Y-47232761D01*
X79946095Y-47232761D02*
X80041333Y-47280380D01*
X80041333Y-47280380D02*
X80136571Y-47280380D01*
X80136571Y-47280380D02*
X80231809Y-47232761D01*
X80231809Y-47232761D02*
X80279428Y-47185142D01*
X80279428Y-46804190D02*
X80279428Y-47185142D01*
X80279428Y-47185142D02*
X80327047Y-47232761D01*
X80327047Y-47232761D02*
X80374666Y-47232761D01*
X80374666Y-47232761D02*
X80469905Y-47185142D01*
X80469905Y-47185142D02*
X80517524Y-47089904D01*
X80517524Y-47089904D02*
X80517524Y-46851809D01*
X80517524Y-46851809D02*
X80422286Y-46708952D01*
X80422286Y-46708952D02*
X80279428Y-46613714D01*
X80279428Y-46613714D02*
X80088952Y-46566095D01*
X80088952Y-46566095D02*
X79898476Y-46613714D01*
X79898476Y-46613714D02*
X79755619Y-46708952D01*
X79755619Y-46708952D02*
X79660381Y-46851809D01*
X79660381Y-46851809D02*
X79612762Y-47042285D01*
X79612762Y-47042285D02*
X79660381Y-47232761D01*
X79660381Y-47232761D02*
X79755619Y-47375619D01*
X79755619Y-47375619D02*
X79898476Y-47470857D01*
X79898476Y-47470857D02*
X80088952Y-47518476D01*
X80088952Y-47518476D02*
X80279428Y-47470857D01*
X80279428Y-47470857D02*
X80422286Y-47375619D01*
X81327047Y-47328000D02*
X81231809Y-47375619D01*
X81231809Y-47375619D02*
X81041333Y-47375619D01*
X81041333Y-47375619D02*
X80946095Y-47328000D01*
X80946095Y-47328000D02*
X80898476Y-47232761D01*
X80898476Y-47232761D02*
X80898476Y-46851809D01*
X80898476Y-46851809D02*
X80946095Y-46756571D01*
X80946095Y-46756571D02*
X81041333Y-46708952D01*
X81041333Y-46708952D02*
X81231809Y-46708952D01*
X81231809Y-46708952D02*
X81327047Y-46756571D01*
X81327047Y-46756571D02*
X81374666Y-46851809D01*
X81374666Y-46851809D02*
X81374666Y-46947047D01*
X81374666Y-46947047D02*
X80898476Y-47042285D01*
X81708000Y-47375619D02*
X82231809Y-46708952D01*
X81708000Y-46708952D02*
X82231809Y-47375619D01*
X83041333Y-47328000D02*
X82946095Y-47375619D01*
X82946095Y-47375619D02*
X82755619Y-47375619D01*
X82755619Y-47375619D02*
X82660381Y-47328000D01*
X82660381Y-47328000D02*
X82612762Y-47280380D01*
X82612762Y-47280380D02*
X82565143Y-47185142D01*
X82565143Y-47185142D02*
X82565143Y-46899428D01*
X82565143Y-46899428D02*
X82612762Y-46804190D01*
X82612762Y-46804190D02*
X82660381Y-46756571D01*
X82660381Y-46756571D02*
X82755619Y-46708952D01*
X82755619Y-46708952D02*
X82946095Y-46708952D01*
X82946095Y-46708952D02*
X83041333Y-46756571D01*
X83469905Y-47375619D02*
X83469905Y-46708952D01*
X83469905Y-46375619D02*
X83422286Y-46423238D01*
X83422286Y-46423238D02*
X83469905Y-46470857D01*
X83469905Y-46470857D02*
X83517524Y-46423238D01*
X83517524Y-46423238D02*
X83469905Y-46375619D01*
X83469905Y-46375619D02*
X83469905Y-46470857D01*
X83803238Y-46708952D02*
X84184190Y-46708952D01*
X83946095Y-46375619D02*
X83946095Y-47232761D01*
X83946095Y-47232761D02*
X83993714Y-47328000D01*
X83993714Y-47328000D02*
X84088952Y-47375619D01*
X84088952Y-47375619D02*
X84184190Y-47375619D01*
X84660381Y-47375619D02*
X84565143Y-47328000D01*
X84565143Y-47328000D02*
X84517524Y-47280380D01*
X84517524Y-47280380D02*
X84469905Y-47185142D01*
X84469905Y-47185142D02*
X84469905Y-46899428D01*
X84469905Y-46899428D02*
X84517524Y-46804190D01*
X84517524Y-46804190D02*
X84565143Y-46756571D01*
X84565143Y-46756571D02*
X84660381Y-46708952D01*
X84660381Y-46708952D02*
X84803238Y-46708952D01*
X84803238Y-46708952D02*
X84898476Y-46756571D01*
X84898476Y-46756571D02*
X84946095Y-46804190D01*
X84946095Y-46804190D02*
X84993714Y-46899428D01*
X84993714Y-46899428D02*
X84993714Y-47185142D01*
X84993714Y-47185142D02*
X84946095Y-47280380D01*
X84946095Y-47280380D02*
X84898476Y-47328000D01*
X84898476Y-47328000D02*
X84803238Y-47375619D01*
X84803238Y-47375619D02*
X84660381Y-47375619D01*
X85422286Y-46708952D02*
X85422286Y-47375619D01*
X85422286Y-46804190D02*
X85469905Y-46756571D01*
X85469905Y-46756571D02*
X85565143Y-46708952D01*
X85565143Y-46708952D02*
X85708000Y-46708952D01*
X85708000Y-46708952D02*
X85803238Y-46756571D01*
X85803238Y-46756571D02*
X85850857Y-46851809D01*
X85850857Y-46851809D02*
X85850857Y-47375619D01*
X86469905Y-47375619D02*
X86374667Y-47328000D01*
X86374667Y-47328000D02*
X86327048Y-47232761D01*
X86327048Y-47232761D02*
X86327048Y-46375619D01*
X87279429Y-47375619D02*
X87279429Y-46851809D01*
X87279429Y-46851809D02*
X87231810Y-46756571D01*
X87231810Y-46756571D02*
X87136572Y-46708952D01*
X87136572Y-46708952D02*
X86946096Y-46708952D01*
X86946096Y-46708952D02*
X86850858Y-46756571D01*
X87279429Y-47328000D02*
X87184191Y-47375619D01*
X87184191Y-47375619D02*
X86946096Y-47375619D01*
X86946096Y-47375619D02*
X86850858Y-47328000D01*
X86850858Y-47328000D02*
X86803239Y-47232761D01*
X86803239Y-47232761D02*
X86803239Y-47137523D01*
X86803239Y-47137523D02*
X86850858Y-47042285D01*
X86850858Y-47042285D02*
X86946096Y-46994666D01*
X86946096Y-46994666D02*
X87184191Y-46994666D01*
X87184191Y-46994666D02*
X87279429Y-46947047D01*
X87755620Y-47375619D02*
X87755620Y-46375619D01*
X87755620Y-46756571D02*
X87850858Y-46708952D01*
X87850858Y-46708952D02*
X88041334Y-46708952D01*
X88041334Y-46708952D02*
X88136572Y-46756571D01*
X88136572Y-46756571D02*
X88184191Y-46804190D01*
X88184191Y-46804190D02*
X88231810Y-46899428D01*
X88231810Y-46899428D02*
X88231810Y-47185142D01*
X88231810Y-47185142D02*
X88184191Y-47280380D01*
X88184191Y-47280380D02*
X88136572Y-47328000D01*
X88136572Y-47328000D02*
X88041334Y-47375619D01*
X88041334Y-47375619D02*
X87850858Y-47375619D01*
X87850858Y-47375619D02*
X87755620Y-47328000D01*
X88612763Y-47328000D02*
X88708001Y-47375619D01*
X88708001Y-47375619D02*
X88898477Y-47375619D01*
X88898477Y-47375619D02*
X88993715Y-47328000D01*
X88993715Y-47328000D02*
X89041334Y-47232761D01*
X89041334Y-47232761D02*
X89041334Y-47185142D01*
X89041334Y-47185142D02*
X88993715Y-47089904D01*
X88993715Y-47089904D02*
X88898477Y-47042285D01*
X88898477Y-47042285D02*
X88755620Y-47042285D01*
X88755620Y-47042285D02*
X88660382Y-46994666D01*
X88660382Y-46994666D02*
X88612763Y-46899428D01*
X88612763Y-46899428D02*
X88612763Y-46851809D01*
X88612763Y-46851809D02*
X88660382Y-46756571D01*
X88660382Y-46756571D02*
X88755620Y-46708952D01*
X88755620Y-46708952D02*
X88898477Y-46708952D01*
X88898477Y-46708952D02*
X88993715Y-46756571D01*
X89469906Y-47280380D02*
X89517525Y-47328000D01*
X89517525Y-47328000D02*
X89469906Y-47375619D01*
X89469906Y-47375619D02*
X89422287Y-47328000D01*
X89422287Y-47328000D02*
X89469906Y-47280380D01*
X89469906Y-47280380D02*
X89469906Y-47375619D01*
X90374667Y-47328000D02*
X90279429Y-47375619D01*
X90279429Y-47375619D02*
X90088953Y-47375619D01*
X90088953Y-47375619D02*
X89993715Y-47328000D01*
X89993715Y-47328000D02*
X89946096Y-47280380D01*
X89946096Y-47280380D02*
X89898477Y-47185142D01*
X89898477Y-47185142D02*
X89898477Y-46899428D01*
X89898477Y-46899428D02*
X89946096Y-46804190D01*
X89946096Y-46804190D02*
X89993715Y-46756571D01*
X89993715Y-46756571D02*
X90088953Y-46708952D01*
X90088953Y-46708952D02*
X90279429Y-46708952D01*
X90279429Y-46708952D02*
X90374667Y-46756571D01*
X90946096Y-47375619D02*
X90850858Y-47328000D01*
X90850858Y-47328000D02*
X90803239Y-47280380D01*
X90803239Y-47280380D02*
X90755620Y-47185142D01*
X90755620Y-47185142D02*
X90755620Y-46899428D01*
X90755620Y-46899428D02*
X90803239Y-46804190D01*
X90803239Y-46804190D02*
X90850858Y-46756571D01*
X90850858Y-46756571D02*
X90946096Y-46708952D01*
X90946096Y-46708952D02*
X91088953Y-46708952D01*
X91088953Y-46708952D02*
X91184191Y-46756571D01*
X91184191Y-46756571D02*
X91231810Y-46804190D01*
X91231810Y-46804190D02*
X91279429Y-46899428D01*
X91279429Y-46899428D02*
X91279429Y-47185142D01*
X91279429Y-47185142D02*
X91231810Y-47280380D01*
X91231810Y-47280380D02*
X91184191Y-47328000D01*
X91184191Y-47328000D02*
X91088953Y-47375619D01*
X91088953Y-47375619D02*
X90946096Y-47375619D01*
X91708001Y-47375619D02*
X91708001Y-46708952D01*
X91708001Y-46804190D02*
X91755620Y-46756571D01*
X91755620Y-46756571D02*
X91850858Y-46708952D01*
X91850858Y-46708952D02*
X91993715Y-46708952D01*
X91993715Y-46708952D02*
X92088953Y-46756571D01*
X92088953Y-46756571D02*
X92136572Y-46851809D01*
X92136572Y-46851809D02*
X92136572Y-47375619D01*
X92136572Y-46851809D02*
X92184191Y-46756571D01*
X92184191Y-46756571D02*
X92279429Y-46708952D01*
X92279429Y-46708952D02*
X92422286Y-46708952D01*
X92422286Y-46708952D02*
X92517525Y-46756571D01*
X92517525Y-46756571D02*
X92565144Y-46851809D01*
X92565144Y-46851809D02*
X92565144Y-47375619D01*
D12*
X87357142Y-56245000D02*
X88500000Y-56245000D01*
D13*
%TO.C,J6*%
X136736667Y-32212526D02*
X136736667Y-33119669D01*
X136736667Y-33119669D02*
X136676190Y-33301097D01*
X136676190Y-33301097D02*
X136555238Y-33422050D01*
X136555238Y-33422050D02*
X136373809Y-33482526D01*
X136373809Y-33482526D02*
X136252857Y-33482526D01*
X137885714Y-32212526D02*
X137643809Y-32212526D01*
X137643809Y-32212526D02*
X137522857Y-32273002D01*
X137522857Y-32273002D02*
X137462381Y-32333478D01*
X137462381Y-32333478D02*
X137341428Y-32514907D01*
X137341428Y-32514907D02*
X137280952Y-32756811D01*
X137280952Y-32756811D02*
X137280952Y-33240621D01*
X137280952Y-33240621D02*
X137341428Y-33361573D01*
X137341428Y-33361573D02*
X137401905Y-33422050D01*
X137401905Y-33422050D02*
X137522857Y-33482526D01*
X137522857Y-33482526D02*
X137764762Y-33482526D01*
X137764762Y-33482526D02*
X137885714Y-33422050D01*
X137885714Y-33422050D02*
X137946190Y-33361573D01*
X137946190Y-33361573D02*
X138006667Y-33240621D01*
X138006667Y-33240621D02*
X138006667Y-32938240D01*
X138006667Y-32938240D02*
X137946190Y-32817288D01*
X137946190Y-32817288D02*
X137885714Y-32756811D01*
X137885714Y-32756811D02*
X137764762Y-32696335D01*
X137764762Y-32696335D02*
X137522857Y-32696335D01*
X137522857Y-32696335D02*
X137401905Y-32756811D01*
X137401905Y-32756811D02*
X137341428Y-32817288D01*
X137341428Y-32817288D02*
X137280952Y-32938240D01*
%TO.C,J3*%
X118337063Y-32257526D02*
X118337063Y-33164669D01*
X118337063Y-33164669D02*
X118276586Y-33346097D01*
X118276586Y-33346097D02*
X118155634Y-33467050D01*
X118155634Y-33467050D02*
X117974205Y-33527526D01*
X117974205Y-33527526D02*
X117853253Y-33527526D01*
X118820872Y-32257526D02*
X119607063Y-32257526D01*
X119607063Y-32257526D02*
X119183729Y-32741335D01*
X119183729Y-32741335D02*
X119365158Y-32741335D01*
X119365158Y-32741335D02*
X119486110Y-32801811D01*
X119486110Y-32801811D02*
X119546586Y-32862288D01*
X119546586Y-32862288D02*
X119607063Y-32983240D01*
X119607063Y-32983240D02*
X119607063Y-33285621D01*
X119607063Y-33285621D02*
X119546586Y-33406573D01*
X119546586Y-33406573D02*
X119486110Y-33467050D01*
X119486110Y-33467050D02*
X119365158Y-33527526D01*
X119365158Y-33527526D02*
X119002301Y-33527526D01*
X119002301Y-33527526D02*
X118881348Y-33467050D01*
X118881348Y-33467050D02*
X118820872Y-33406573D01*
%TO.C,J5*%
X99937460Y-32212526D02*
X99937460Y-33119669D01*
X99937460Y-33119669D02*
X99876983Y-33301097D01*
X99876983Y-33301097D02*
X99756031Y-33422050D01*
X99756031Y-33422050D02*
X99574602Y-33482526D01*
X99574602Y-33482526D02*
X99453650Y-33482526D01*
X101146983Y-32212526D02*
X100542221Y-32212526D01*
X100542221Y-32212526D02*
X100481745Y-32817288D01*
X100481745Y-32817288D02*
X100542221Y-32756811D01*
X100542221Y-32756811D02*
X100663174Y-32696335D01*
X100663174Y-32696335D02*
X100965555Y-32696335D01*
X100965555Y-32696335D02*
X101086507Y-32756811D01*
X101086507Y-32756811D02*
X101146983Y-32817288D01*
X101146983Y-32817288D02*
X101207460Y-32938240D01*
X101207460Y-32938240D02*
X101207460Y-33240621D01*
X101207460Y-33240621D02*
X101146983Y-33361573D01*
X101146983Y-33361573D02*
X101086507Y-33422050D01*
X101086507Y-33422050D02*
X100965555Y-33482526D01*
X100965555Y-33482526D02*
X100663174Y-33482526D01*
X100663174Y-33482526D02*
X100542221Y-33422050D01*
X100542221Y-33422050D02*
X100481745Y-33361573D01*
D10*
%TO.C,R3*%
X109053333Y-57358619D02*
X108720000Y-56882428D01*
X108481905Y-57358619D02*
X108481905Y-56358619D01*
X108481905Y-56358619D02*
X108862857Y-56358619D01*
X108862857Y-56358619D02*
X108958095Y-56406238D01*
X108958095Y-56406238D02*
X109005714Y-56453857D01*
X109005714Y-56453857D02*
X109053333Y-56549095D01*
X109053333Y-56549095D02*
X109053333Y-56691952D01*
X109053333Y-56691952D02*
X109005714Y-56787190D01*
X109005714Y-56787190D02*
X108958095Y-56834809D01*
X108958095Y-56834809D02*
X108862857Y-56882428D01*
X108862857Y-56882428D02*
X108481905Y-56882428D01*
X109386667Y-56358619D02*
X110005714Y-56358619D01*
X110005714Y-56358619D02*
X109672381Y-56739571D01*
X109672381Y-56739571D02*
X109815238Y-56739571D01*
X109815238Y-56739571D02*
X109910476Y-56787190D01*
X109910476Y-56787190D02*
X109958095Y-56834809D01*
X109958095Y-56834809D02*
X110005714Y-56930047D01*
X110005714Y-56930047D02*
X110005714Y-57168142D01*
X110005714Y-57168142D02*
X109958095Y-57263380D01*
X109958095Y-57263380D02*
X109910476Y-57311000D01*
X109910476Y-57311000D02*
X109815238Y-57358619D01*
X109815238Y-57358619D02*
X109529524Y-57358619D01*
X109529524Y-57358619D02*
X109434286Y-57311000D01*
X109434286Y-57311000D02*
X109386667Y-57263380D01*
%TO.C,R1*%
X112085333Y-48078619D02*
X111752000Y-47602428D01*
X111513905Y-48078619D02*
X111513905Y-47078619D01*
X111513905Y-47078619D02*
X111894857Y-47078619D01*
X111894857Y-47078619D02*
X111990095Y-47126238D01*
X111990095Y-47126238D02*
X112037714Y-47173857D01*
X112037714Y-47173857D02*
X112085333Y-47269095D01*
X112085333Y-47269095D02*
X112085333Y-47411952D01*
X112085333Y-47411952D02*
X112037714Y-47507190D01*
X112037714Y-47507190D02*
X111990095Y-47554809D01*
X111990095Y-47554809D02*
X111894857Y-47602428D01*
X111894857Y-47602428D02*
X111513905Y-47602428D01*
X113037714Y-48078619D02*
X112466286Y-48078619D01*
X112752000Y-48078619D02*
X112752000Y-47078619D01*
X112752000Y-47078619D02*
X112656762Y-47221476D01*
X112656762Y-47221476D02*
X112561524Y-47316714D01*
X112561524Y-47316714D02*
X112466286Y-47364333D01*
%TO.C,J1*%
X86501666Y-69192619D02*
X86501666Y-69906904D01*
X86501666Y-69906904D02*
X86454047Y-70049761D01*
X86454047Y-70049761D02*
X86358809Y-70145000D01*
X86358809Y-70145000D02*
X86215952Y-70192619D01*
X86215952Y-70192619D02*
X86120714Y-70192619D01*
X87501666Y-70192619D02*
X86930238Y-70192619D01*
X87215952Y-70192619D02*
X87215952Y-69192619D01*
X87215952Y-69192619D02*
X87120714Y-69335476D01*
X87120714Y-69335476D02*
X87025476Y-69430714D01*
X87025476Y-69430714D02*
X86930238Y-69478333D01*
%TO.C,R4*%
X112183333Y-59742619D02*
X111850000Y-59266428D01*
X111611905Y-59742619D02*
X111611905Y-58742619D01*
X111611905Y-58742619D02*
X111992857Y-58742619D01*
X111992857Y-58742619D02*
X112088095Y-58790238D01*
X112088095Y-58790238D02*
X112135714Y-58837857D01*
X112135714Y-58837857D02*
X112183333Y-58933095D01*
X112183333Y-58933095D02*
X112183333Y-59075952D01*
X112183333Y-59075952D02*
X112135714Y-59171190D01*
X112135714Y-59171190D02*
X112088095Y-59218809D01*
X112088095Y-59218809D02*
X111992857Y-59266428D01*
X111992857Y-59266428D02*
X111611905Y-59266428D01*
X113040476Y-59075952D02*
X113040476Y-59742619D01*
X112802381Y-58695000D02*
X112564286Y-59409285D01*
X112564286Y-59409285D02*
X113183333Y-59409285D01*
%TO.C,J2*%
X138350666Y-46900619D02*
X138350666Y-47614904D01*
X138350666Y-47614904D02*
X138303047Y-47757761D01*
X138303047Y-47757761D02*
X138207809Y-47853000D01*
X138207809Y-47853000D02*
X138064952Y-47900619D01*
X138064952Y-47900619D02*
X137969714Y-47900619D01*
X138779238Y-46995857D02*
X138826857Y-46948238D01*
X138826857Y-46948238D02*
X138922095Y-46900619D01*
X138922095Y-46900619D02*
X139160190Y-46900619D01*
X139160190Y-46900619D02*
X139255428Y-46948238D01*
X139255428Y-46948238D02*
X139303047Y-46995857D01*
X139303047Y-46995857D02*
X139350666Y-47091095D01*
X139350666Y-47091095D02*
X139350666Y-47186333D01*
X139350666Y-47186333D02*
X139303047Y-47329190D01*
X139303047Y-47329190D02*
X138731619Y-47900619D01*
X138731619Y-47900619D02*
X139350666Y-47900619D01*
D13*
%TO.C,J4*%
X81491667Y-32212526D02*
X81491667Y-33119669D01*
X81491667Y-33119669D02*
X81431190Y-33301097D01*
X81431190Y-33301097D02*
X81310238Y-33422050D01*
X81310238Y-33422050D02*
X81128809Y-33482526D01*
X81128809Y-33482526D02*
X81007857Y-33482526D01*
X82640714Y-32635859D02*
X82640714Y-33482526D01*
X82338333Y-32152050D02*
X82035952Y-33059192D01*
X82035952Y-33059192D02*
X82822143Y-33059192D01*
D10*
%TO.C,R2*%
X112085333Y-52538619D02*
X111752000Y-52062428D01*
X111513905Y-52538619D02*
X111513905Y-51538619D01*
X111513905Y-51538619D02*
X111894857Y-51538619D01*
X111894857Y-51538619D02*
X111990095Y-51586238D01*
X111990095Y-51586238D02*
X112037714Y-51633857D01*
X112037714Y-51633857D02*
X112085333Y-51729095D01*
X112085333Y-51729095D02*
X112085333Y-51871952D01*
X112085333Y-51871952D02*
X112037714Y-51967190D01*
X112037714Y-51967190D02*
X111990095Y-52014809D01*
X111990095Y-52014809D02*
X111894857Y-52062428D01*
X111894857Y-52062428D02*
X111513905Y-52062428D01*
X112466286Y-51633857D02*
X112513905Y-51586238D01*
X112513905Y-51586238D02*
X112609143Y-51538619D01*
X112609143Y-51538619D02*
X112847238Y-51538619D01*
X112847238Y-51538619D02*
X112942476Y-51586238D01*
X112942476Y-51586238D02*
X112990095Y-51633857D01*
X112990095Y-51633857D02*
X113037714Y-51729095D01*
X113037714Y-51729095D02*
X113037714Y-51824333D01*
X113037714Y-51824333D02*
X112990095Y-51967190D01*
X112990095Y-51967190D02*
X112418667Y-52538619D01*
X112418667Y-52538619D02*
X113037714Y-52538619D01*
D11*
%TO.C,J6*%
X146400000Y-34165000D02*
X146400000Y-34165000D01*
X146400000Y-34165000D02*
X146400000Y-34165000D01*
X146500000Y-34165000D02*
X146500000Y-34165000D01*
X146500000Y-34165000D02*
G75*
G03*
X146400000Y-34165000I-50000J0D01*
G01*
X146400000Y-34165000D02*
G75*
G03*
X146500000Y-34165000I50000J0D01*
G01*
X146400000Y-34165000D02*
G75*
G03*
X146500000Y-34165000I50000J0D01*
G01*
%TO.C,J3*%
X128000396Y-34210000D02*
X128000396Y-34210000D01*
X128000396Y-34210000D02*
X128000396Y-34210000D01*
X128100396Y-34210000D02*
X128100396Y-34210000D01*
X128100396Y-34210000D02*
G75*
G03*
X128000396Y-34210000I-50000J0D01*
G01*
X128000396Y-34210000D02*
G75*
G03*
X128100396Y-34210000I50000J0D01*
G01*
X128000396Y-34210000D02*
G75*
G03*
X128100396Y-34210000I50000J0D01*
G01*
%TO.C,J5*%
X109600793Y-34165000D02*
X109600793Y-34165000D01*
X109600793Y-34165000D02*
X109600793Y-34165000D01*
X109700793Y-34165000D02*
X109700793Y-34165000D01*
X109700793Y-34165000D02*
G75*
G03*
X109600793Y-34165000I-50000J0D01*
G01*
X109600793Y-34165000D02*
G75*
G03*
X109700793Y-34165000I50000J0D01*
G01*
X109600793Y-34165000D02*
G75*
G03*
X109700793Y-34165000I50000J0D01*
G01*
D14*
%TO.C,R3*%
X112024936Y-56161000D02*
X112479064Y-56161000D01*
X112024936Y-57631000D02*
X112479064Y-57631000D01*
%TO.C,R1*%
X110724936Y-48536000D02*
X113779064Y-48536000D01*
X110724936Y-51256000D02*
X113779064Y-51256000D01*
%TO.C,J1*%
X100135000Y-63085000D02*
X97215000Y-63085000D01*
X100135000Y-54185000D02*
X100135000Y-63085000D01*
X100135000Y-54145000D02*
X97215000Y-54145000D01*
X97215000Y-67835000D02*
X94585000Y-67835000D01*
X97215000Y-63085000D02*
X97215000Y-67835000D01*
X97215000Y-49395000D02*
X97215000Y-54145000D01*
X94585000Y-49395000D02*
X97215000Y-49395000D01*
X91785000Y-67835000D02*
X88185000Y-67835000D01*
X88185000Y-49395000D02*
X91785000Y-49395000D01*
X85780000Y-63848000D02*
X75859000Y-63848000D01*
X85780000Y-53568000D02*
X85780000Y-63848000D01*
X85780000Y-53568000D02*
X75859000Y-53568000D01*
X85485000Y-67835000D02*
X81885000Y-67835000D01*
X82820000Y-53568000D02*
X82820000Y-63848000D01*
X81885000Y-49395000D02*
X85485000Y-49395000D01*
X81794000Y-62318000D02*
X81758000Y-62283000D01*
X81588000Y-62523000D02*
X81542000Y-62476000D01*
X79496000Y-60021000D02*
X79450000Y-59974000D01*
X79280000Y-60214000D02*
X79245000Y-60179000D01*
X77919000Y-53568000D02*
X77919000Y-63848000D01*
X76419000Y-53568000D02*
X76419000Y-63848000D01*
X76365000Y-67835000D02*
X79085000Y-67835000D01*
X76365000Y-64435000D02*
X76365000Y-67835000D01*
X76365000Y-64435000D02*
X73365000Y-64435000D01*
X76365000Y-52795000D02*
X73365000Y-52795000D01*
X76365000Y-49395000D02*
X79085000Y-49395000D01*
X76365000Y-49395000D02*
X76365000Y-52795000D01*
X76359000Y-53328000D02*
X75619000Y-53328000D01*
X75859000Y-53568000D02*
X75859000Y-63848000D01*
X75619000Y-53328000D02*
X75619000Y-53828000D01*
X73365000Y-52795000D02*
X73365000Y-64435000D01*
X82054000Y-56852000D02*
G75*
G03*
X82054426Y-55484958I-1535000J684000D01*
G01*
X79835000Y-57703000D02*
G75*
G03*
X81202042Y-57703426I684000J1535000D01*
G01*
X81203000Y-54633000D02*
G75*
G03*
X79835958Y-54632574I-684000J-1535000D01*
G01*
X78839001Y-56168000D02*
G75*
G03*
X78984245Y-56851318I1679999J0D01*
G01*
X78984001Y-55484000D02*
G75*
G03*
X78838748Y-56196805I1534999J-684000D01*
G01*
X82199000Y-61248000D02*
G75*
G03*
X82199000Y-61248000I-1680000J0D01*
G01*
%TO.C,R4*%
X107040000Y-62000000D02*
X107730000Y-62000000D01*
X107730000Y-60280000D02*
X107730000Y-63720000D01*
X107730000Y-63720000D02*
X116970000Y-63720000D01*
X116970000Y-60280000D02*
X107730000Y-60280000D01*
X116970000Y-63720000D02*
X116970000Y-60280000D01*
X117660000Y-62000000D02*
X116970000Y-62000000D01*
%TO.C,J2*%
X125384000Y-54083000D02*
X128304000Y-54083000D01*
X125384000Y-62983000D02*
X125384000Y-54083000D01*
X125384000Y-63023000D02*
X128304000Y-63023000D01*
X128304000Y-49333000D02*
X130934000Y-49333000D01*
X128304000Y-54083000D02*
X128304000Y-49333000D01*
X128304000Y-67773000D02*
X128304000Y-63023000D01*
X130934000Y-67773000D02*
X128304000Y-67773000D01*
X133734000Y-49333000D02*
X137334000Y-49333000D01*
X137334000Y-67773000D02*
X133734000Y-67773000D01*
X139739000Y-53320000D02*
X149660000Y-53320000D01*
X139739000Y-63600000D02*
X139739000Y-53320000D01*
X139739000Y-63600000D02*
X149660000Y-63600000D01*
X140034000Y-49333000D02*
X143634000Y-49333000D01*
X142699000Y-63600000D02*
X142699000Y-53320000D01*
X143634000Y-67773000D02*
X140034000Y-67773000D01*
X143725000Y-54850000D02*
X143761000Y-54885000D01*
X143931000Y-54645000D02*
X143977000Y-54692000D01*
X146023000Y-57147000D02*
X146069000Y-57194000D01*
X146239000Y-56954000D02*
X146274000Y-56989000D01*
X147600000Y-63600000D02*
X147600000Y-53320000D01*
X149100000Y-63600000D02*
X149100000Y-53320000D01*
X149154000Y-49333000D02*
X146434000Y-49333000D01*
X149154000Y-52733000D02*
X149154000Y-49333000D01*
X149154000Y-52733000D02*
X152154000Y-52733000D01*
X149154000Y-64373000D02*
X152154000Y-64373000D01*
X149154000Y-67773000D02*
X146434000Y-67773000D01*
X149154000Y-67773000D02*
X149154000Y-64373000D01*
X149160000Y-63840000D02*
X149900000Y-63840000D01*
X149660000Y-63600000D02*
X149660000Y-53320000D01*
X149900000Y-63840000D02*
X149900000Y-63340000D01*
X152154000Y-64373000D02*
X152154000Y-52733000D01*
X143465000Y-60316000D02*
G75*
G03*
X143464574Y-61683042I1535000J-684000D01*
G01*
X145684000Y-59465000D02*
G75*
G03*
X144316958Y-59464574I-684000J-1535000D01*
G01*
X144316000Y-62535000D02*
G75*
G03*
X145683042Y-62535426I684000J1535000D01*
G01*
X146679999Y-61000000D02*
G75*
G03*
X146534755Y-60316682I-1679999J0D01*
G01*
X146534999Y-61684000D02*
G75*
G03*
X146680252Y-60971195I-1534999J684000D01*
G01*
X146680000Y-55920000D02*
G75*
G03*
X146680000Y-55920000I-1680000J0D01*
G01*
D11*
%TO.C,J4*%
X91155000Y-34165000D02*
X91155000Y-34165000D01*
X91155000Y-34165000D02*
X91155000Y-34165000D01*
X91255000Y-34165000D02*
X91255000Y-34165000D01*
X91255000Y-34165000D02*
G75*
G03*
X91155000Y-34165000I-50000J0D01*
G01*
X91155000Y-34165000D02*
G75*
G03*
X91255000Y-34165000I50000J0D01*
G01*
X91155000Y-34165000D02*
G75*
G03*
X91255000Y-34165000I50000J0D01*
G01*
D14*
%TO.C,R2*%
X111524936Y-52986000D02*
X112979064Y-52986000D01*
X111524936Y-54806000D02*
X112979064Y-54806000D01*
%TD*%
%LPC*%
D15*
%TO.C,J6*%
X139700000Y-34165000D03*
D16*
X139700000Y-29845000D03*
X143430000Y-36325000D03*
X135970000Y-36325000D03*
%TD*%
D15*
%TO.C,J3*%
X121300396Y-34210000D03*
D16*
X121300396Y-29890000D03*
X125030396Y-36370000D03*
X117570396Y-36370000D03*
%TD*%
D15*
%TO.C,J5*%
X102900793Y-34165000D03*
D16*
X102900793Y-29845000D03*
X106630793Y-36325000D03*
X99170793Y-36325000D03*
%TD*%
D17*
%TO.C,R3*%
X111252000Y-56896000D03*
X113252000Y-56896000D03*
%TD*%
D18*
%TO.C,R1*%
X109852000Y-49896000D03*
X114652000Y-49896000D03*
%TD*%
D19*
%TO.C,J1*%
X86835000Y-66730000D03*
X86835000Y-50500000D03*
X80485000Y-66730000D03*
D20*
X80519000Y-56168000D03*
D19*
X80485000Y-50500000D03*
X93185000Y-66730000D03*
D21*
X80519000Y-61248000D03*
D19*
X93185000Y-50500000D03*
%TD*%
D22*
%TO.C,R4*%
X106000000Y-62000000D03*
D23*
X118700000Y-62000000D03*
%TD*%
D19*
%TO.C,J2*%
X138684000Y-50438000D03*
X138684000Y-66668000D03*
X145034000Y-50438000D03*
D20*
X145000000Y-61000000D03*
D19*
X145034000Y-66668000D03*
X132334000Y-50438000D03*
D21*
X145000000Y-55920000D03*
D19*
X132334000Y-66668000D03*
%TD*%
D15*
%TO.C,J4*%
X84455000Y-34165000D03*
D16*
X84455000Y-29845000D03*
X88185000Y-36325000D03*
X80725000Y-36325000D03*
%TD*%
D24*
%TO.C,R2*%
X110702000Y-53896000D03*
X113802000Y-53896000D03*
%TD*%
M02*
