%TF.GenerationSoftware,KiCad,Pcbnew,7.0.1*%
%TF.CreationDate,2023-08-03T02:37:16+01:00*%
%TF.ProjectId,QA403 Impedance Fixture,51413430-3320-4496-9d70-6564616e6365,rev?*%
%TF.SameCoordinates,Original*%
%TF.FileFunction,Legend,Bot*%
%TF.FilePolarity,Positive*%
%FSLAX46Y46*%
G04 Gerber Fmt 4.6, Leading zero omitted, Abs format (unit mm)*
G04 Created by KiCad (PCBNEW 7.0.1) date 2023-08-03 02:37:16*
%MOMM*%
%LPD*%
G01*
G04 APERTURE LIST*
%ADD10C,0.150000*%
%ADD11C,0.250000*%
%ADD12C,3.000000*%
%ADD13R,2.600000X2.600000*%
%ADD14C,2.600000*%
%ADD15C,1.605000*%
%ADD16C,2.595000*%
%ADD17C,1.600000*%
%ADD18O,1.600000X1.600000*%
G04 APERTURE END LIST*
D10*
X119903904Y-65043809D02*
X119570571Y-65043809D01*
X119427714Y-65567619D02*
X119903904Y-65567619D01*
X119903904Y-65567619D02*
X119903904Y-64567619D01*
X119903904Y-64567619D02*
X119427714Y-64567619D01*
X119094380Y-65567619D02*
X118570571Y-64900952D01*
X119094380Y-64900952D02*
X118570571Y-65567619D01*
X117761047Y-65520000D02*
X117856285Y-65567619D01*
X117856285Y-65567619D02*
X118046761Y-65567619D01*
X118046761Y-65567619D02*
X118141999Y-65520000D01*
X118141999Y-65520000D02*
X118189618Y-65472380D01*
X118189618Y-65472380D02*
X118237237Y-65377142D01*
X118237237Y-65377142D02*
X118237237Y-65091428D01*
X118237237Y-65091428D02*
X118189618Y-64996190D01*
X118189618Y-64996190D02*
X118141999Y-64948571D01*
X118141999Y-64948571D02*
X118046761Y-64900952D01*
X118046761Y-64900952D02*
X117856285Y-64900952D01*
X117856285Y-64900952D02*
X117761047Y-64948571D01*
X117332475Y-65567619D02*
X117332475Y-64900952D01*
X117332475Y-64567619D02*
X117380094Y-64615238D01*
X117380094Y-64615238D02*
X117332475Y-64662857D01*
X117332475Y-64662857D02*
X117284856Y-64615238D01*
X117284856Y-64615238D02*
X117332475Y-64567619D01*
X117332475Y-64567619D02*
X117332475Y-64662857D01*
X116999142Y-64900952D02*
X116618190Y-64900952D01*
X116856285Y-64567619D02*
X116856285Y-65424761D01*
X116856285Y-65424761D02*
X116808666Y-65520000D01*
X116808666Y-65520000D02*
X116713428Y-65567619D01*
X116713428Y-65567619D02*
X116618190Y-65567619D01*
X116141999Y-65567619D02*
X116237237Y-65520000D01*
X116237237Y-65520000D02*
X116284856Y-65472380D01*
X116284856Y-65472380D02*
X116332475Y-65377142D01*
X116332475Y-65377142D02*
X116332475Y-65091428D01*
X116332475Y-65091428D02*
X116284856Y-64996190D01*
X116284856Y-64996190D02*
X116237237Y-64948571D01*
X116237237Y-64948571D02*
X116141999Y-64900952D01*
X116141999Y-64900952D02*
X115999142Y-64900952D01*
X115999142Y-64900952D02*
X115903904Y-64948571D01*
X115903904Y-64948571D02*
X115856285Y-64996190D01*
X115856285Y-64996190D02*
X115808666Y-65091428D01*
X115808666Y-65091428D02*
X115808666Y-65377142D01*
X115808666Y-65377142D02*
X115856285Y-65472380D01*
X115856285Y-65472380D02*
X115903904Y-65520000D01*
X115903904Y-65520000D02*
X115999142Y-65567619D01*
X115999142Y-65567619D02*
X116141999Y-65567619D01*
X115380094Y-64900952D02*
X115380094Y-65567619D01*
X115380094Y-64996190D02*
X115332475Y-64948571D01*
X115332475Y-64948571D02*
X115237237Y-64900952D01*
X115237237Y-64900952D02*
X115094380Y-64900952D01*
X115094380Y-64900952D02*
X114999142Y-64948571D01*
X114999142Y-64948571D02*
X114951523Y-65043809D01*
X114951523Y-65043809D02*
X114951523Y-65567619D01*
X113237237Y-65567619D02*
X113713427Y-65567619D01*
X113713427Y-65567619D02*
X113713427Y-64567619D01*
X112475332Y-65567619D02*
X112475332Y-65043809D01*
X112475332Y-65043809D02*
X112522951Y-64948571D01*
X112522951Y-64948571D02*
X112618189Y-64900952D01*
X112618189Y-64900952D02*
X112808665Y-64900952D01*
X112808665Y-64900952D02*
X112903903Y-64948571D01*
X112475332Y-65520000D02*
X112570570Y-65567619D01*
X112570570Y-65567619D02*
X112808665Y-65567619D01*
X112808665Y-65567619D02*
X112903903Y-65520000D01*
X112903903Y-65520000D02*
X112951522Y-65424761D01*
X112951522Y-65424761D02*
X112951522Y-65329523D01*
X112951522Y-65329523D02*
X112903903Y-65234285D01*
X112903903Y-65234285D02*
X112808665Y-65186666D01*
X112808665Y-65186666D02*
X112570570Y-65186666D01*
X112570570Y-65186666D02*
X112475332Y-65139047D01*
X111999141Y-65567619D02*
X111999141Y-64567619D01*
X111999141Y-64948571D02*
X111903903Y-64900952D01*
X111903903Y-64900952D02*
X111713427Y-64900952D01*
X111713427Y-64900952D02*
X111618189Y-64948571D01*
X111618189Y-64948571D02*
X111570570Y-64996190D01*
X111570570Y-64996190D02*
X111522951Y-65091428D01*
X111522951Y-65091428D02*
X111522951Y-65377142D01*
X111522951Y-65377142D02*
X111570570Y-65472380D01*
X111570570Y-65472380D02*
X111618189Y-65520000D01*
X111618189Y-65520000D02*
X111713427Y-65567619D01*
X111713427Y-65567619D02*
X111903903Y-65567619D01*
X111903903Y-65567619D02*
X111999141Y-65520000D01*
X111141998Y-65520000D02*
X111046760Y-65567619D01*
X111046760Y-65567619D02*
X110856284Y-65567619D01*
X110856284Y-65567619D02*
X110761046Y-65520000D01*
X110761046Y-65520000D02*
X110713427Y-65424761D01*
X110713427Y-65424761D02*
X110713427Y-65377142D01*
X110713427Y-65377142D02*
X110761046Y-65281904D01*
X110761046Y-65281904D02*
X110856284Y-65234285D01*
X110856284Y-65234285D02*
X110999141Y-65234285D01*
X110999141Y-65234285D02*
X111094379Y-65186666D01*
X111094379Y-65186666D02*
X111141998Y-65091428D01*
X111141998Y-65091428D02*
X111141998Y-65043809D01*
X111141998Y-65043809D02*
X111094379Y-64948571D01*
X111094379Y-64948571D02*
X110999141Y-64900952D01*
X110999141Y-64900952D02*
X110856284Y-64900952D01*
X110856284Y-64900952D02*
X110761046Y-64948571D01*
X109046760Y-65567619D02*
X109522950Y-65567619D01*
X109522950Y-65567619D02*
X109522950Y-64567619D01*
X108856283Y-64900952D02*
X108475331Y-64900952D01*
X108713426Y-64567619D02*
X108713426Y-65424761D01*
X108713426Y-65424761D02*
X108665807Y-65520000D01*
X108665807Y-65520000D02*
X108570569Y-65567619D01*
X108570569Y-65567619D02*
X108475331Y-65567619D01*
X107713426Y-65567619D02*
X107713426Y-64567619D01*
X107713426Y-65520000D02*
X107808664Y-65567619D01*
X107808664Y-65567619D02*
X107999140Y-65567619D01*
X107999140Y-65567619D02*
X108094378Y-65520000D01*
X108094378Y-65520000D02*
X108141997Y-65472380D01*
X108141997Y-65472380D02*
X108189616Y-65377142D01*
X108189616Y-65377142D02*
X108189616Y-65091428D01*
X108189616Y-65091428D02*
X108141997Y-64996190D01*
X108141997Y-64996190D02*
X108094378Y-64948571D01*
X108094378Y-64948571D02*
X107999140Y-64900952D01*
X107999140Y-64900952D02*
X107808664Y-64900952D01*
X107808664Y-64900952D02*
X107713426Y-64948571D01*
X107189616Y-65520000D02*
X107189616Y-65567619D01*
X107189616Y-65567619D02*
X107237235Y-65662857D01*
X107237235Y-65662857D02*
X107284854Y-65710476D01*
X105999140Y-64567619D02*
X105999140Y-65377142D01*
X105999140Y-65377142D02*
X105951521Y-65472380D01*
X105951521Y-65472380D02*
X105903902Y-65520000D01*
X105903902Y-65520000D02*
X105808664Y-65567619D01*
X105808664Y-65567619D02*
X105618188Y-65567619D01*
X105618188Y-65567619D02*
X105522950Y-65520000D01*
X105522950Y-65520000D02*
X105475331Y-65472380D01*
X105475331Y-65472380D02*
X105427712Y-65377142D01*
X105427712Y-65377142D02*
X105427712Y-64567619D01*
X104951521Y-65567619D02*
X104951521Y-64567619D01*
X104380093Y-65567619D02*
X104808664Y-64996190D01*
X104380093Y-64567619D02*
X104951521Y-65139047D01*
X119475333Y-67187619D02*
X119475333Y-66187619D01*
X119475333Y-67140000D02*
X119570571Y-67187619D01*
X119570571Y-67187619D02*
X119761047Y-67187619D01*
X119761047Y-67187619D02*
X119856285Y-67140000D01*
X119856285Y-67140000D02*
X119903904Y-67092380D01*
X119903904Y-67092380D02*
X119951523Y-66997142D01*
X119951523Y-66997142D02*
X119951523Y-66711428D01*
X119951523Y-66711428D02*
X119903904Y-66616190D01*
X119903904Y-66616190D02*
X119856285Y-66568571D01*
X119856285Y-66568571D02*
X119761047Y-66520952D01*
X119761047Y-66520952D02*
X119570571Y-66520952D01*
X119570571Y-66520952D02*
X119475333Y-66568571D01*
X118570571Y-67187619D02*
X118570571Y-66663809D01*
X118570571Y-66663809D02*
X118618190Y-66568571D01*
X118618190Y-66568571D02*
X118713428Y-66520952D01*
X118713428Y-66520952D02*
X118903904Y-66520952D01*
X118903904Y-66520952D02*
X118999142Y-66568571D01*
X118570571Y-67140000D02*
X118665809Y-67187619D01*
X118665809Y-67187619D02*
X118903904Y-67187619D01*
X118903904Y-67187619D02*
X118999142Y-67140000D01*
X118999142Y-67140000D02*
X119046761Y-67044761D01*
X119046761Y-67044761D02*
X119046761Y-66949523D01*
X119046761Y-66949523D02*
X118999142Y-66854285D01*
X118999142Y-66854285D02*
X118903904Y-66806666D01*
X118903904Y-66806666D02*
X118665809Y-66806666D01*
X118665809Y-66806666D02*
X118570571Y-66759047D01*
X118094380Y-66520952D02*
X118094380Y-67187619D01*
X118094380Y-66616190D02*
X118046761Y-66568571D01*
X118046761Y-66568571D02*
X117951523Y-66520952D01*
X117951523Y-66520952D02*
X117808666Y-66520952D01*
X117808666Y-66520952D02*
X117713428Y-66568571D01*
X117713428Y-66568571D02*
X117665809Y-66663809D01*
X117665809Y-66663809D02*
X117665809Y-67187619D01*
X116570571Y-66711428D02*
X116618190Y-66663809D01*
X116618190Y-66663809D02*
X116713428Y-66616190D01*
X116713428Y-66616190D02*
X116808666Y-66616190D01*
X116808666Y-66616190D02*
X116903904Y-66663809D01*
X116903904Y-66663809D02*
X116951523Y-66711428D01*
X116951523Y-66711428D02*
X116999142Y-66806666D01*
X116999142Y-66806666D02*
X116999142Y-66901904D01*
X116999142Y-66901904D02*
X116951523Y-66997142D01*
X116951523Y-66997142D02*
X116903904Y-67044761D01*
X116903904Y-67044761D02*
X116808666Y-67092380D01*
X116808666Y-67092380D02*
X116713428Y-67092380D01*
X116713428Y-67092380D02*
X116618190Y-67044761D01*
X116618190Y-67044761D02*
X116570571Y-66997142D01*
X116570571Y-66616190D02*
X116570571Y-66997142D01*
X116570571Y-66997142D02*
X116522952Y-67044761D01*
X116522952Y-67044761D02*
X116475333Y-67044761D01*
X116475333Y-67044761D02*
X116380094Y-66997142D01*
X116380094Y-66997142D02*
X116332475Y-66901904D01*
X116332475Y-66901904D02*
X116332475Y-66663809D01*
X116332475Y-66663809D02*
X116427714Y-66520952D01*
X116427714Y-66520952D02*
X116570571Y-66425714D01*
X116570571Y-66425714D02*
X116761047Y-66378095D01*
X116761047Y-66378095D02*
X116951523Y-66425714D01*
X116951523Y-66425714D02*
X117094380Y-66520952D01*
X117094380Y-66520952D02*
X117189618Y-66663809D01*
X117189618Y-66663809D02*
X117237237Y-66854285D01*
X117237237Y-66854285D02*
X117189618Y-67044761D01*
X117189618Y-67044761D02*
X117094380Y-67187619D01*
X117094380Y-67187619D02*
X116951523Y-67282857D01*
X116951523Y-67282857D02*
X116761047Y-67330476D01*
X116761047Y-67330476D02*
X116570571Y-67282857D01*
X116570571Y-67282857D02*
X116427714Y-67187619D01*
X115522952Y-67140000D02*
X115618190Y-67187619D01*
X115618190Y-67187619D02*
X115808666Y-67187619D01*
X115808666Y-67187619D02*
X115903904Y-67140000D01*
X115903904Y-67140000D02*
X115951523Y-67044761D01*
X115951523Y-67044761D02*
X115951523Y-66663809D01*
X115951523Y-66663809D02*
X115903904Y-66568571D01*
X115903904Y-66568571D02*
X115808666Y-66520952D01*
X115808666Y-66520952D02*
X115618190Y-66520952D01*
X115618190Y-66520952D02*
X115522952Y-66568571D01*
X115522952Y-66568571D02*
X115475333Y-66663809D01*
X115475333Y-66663809D02*
X115475333Y-66759047D01*
X115475333Y-66759047D02*
X115951523Y-66854285D01*
X115141999Y-67187619D02*
X114618190Y-66520952D01*
X115141999Y-66520952D02*
X114618190Y-67187619D01*
X113808666Y-67140000D02*
X113903904Y-67187619D01*
X113903904Y-67187619D02*
X114094380Y-67187619D01*
X114094380Y-67187619D02*
X114189618Y-67140000D01*
X114189618Y-67140000D02*
X114237237Y-67092380D01*
X114237237Y-67092380D02*
X114284856Y-66997142D01*
X114284856Y-66997142D02*
X114284856Y-66711428D01*
X114284856Y-66711428D02*
X114237237Y-66616190D01*
X114237237Y-66616190D02*
X114189618Y-66568571D01*
X114189618Y-66568571D02*
X114094380Y-66520952D01*
X114094380Y-66520952D02*
X113903904Y-66520952D01*
X113903904Y-66520952D02*
X113808666Y-66568571D01*
X113380094Y-67187619D02*
X113380094Y-66520952D01*
X113380094Y-66187619D02*
X113427713Y-66235238D01*
X113427713Y-66235238D02*
X113380094Y-66282857D01*
X113380094Y-66282857D02*
X113332475Y-66235238D01*
X113332475Y-66235238D02*
X113380094Y-66187619D01*
X113380094Y-66187619D02*
X113380094Y-66282857D01*
X113046761Y-66520952D02*
X112665809Y-66520952D01*
X112903904Y-66187619D02*
X112903904Y-67044761D01*
X112903904Y-67044761D02*
X112856285Y-67140000D01*
X112856285Y-67140000D02*
X112761047Y-67187619D01*
X112761047Y-67187619D02*
X112665809Y-67187619D01*
X112189618Y-67187619D02*
X112284856Y-67140000D01*
X112284856Y-67140000D02*
X112332475Y-67092380D01*
X112332475Y-67092380D02*
X112380094Y-66997142D01*
X112380094Y-66997142D02*
X112380094Y-66711428D01*
X112380094Y-66711428D02*
X112332475Y-66616190D01*
X112332475Y-66616190D02*
X112284856Y-66568571D01*
X112284856Y-66568571D02*
X112189618Y-66520952D01*
X112189618Y-66520952D02*
X112046761Y-66520952D01*
X112046761Y-66520952D02*
X111951523Y-66568571D01*
X111951523Y-66568571D02*
X111903904Y-66616190D01*
X111903904Y-66616190D02*
X111856285Y-66711428D01*
X111856285Y-66711428D02*
X111856285Y-66997142D01*
X111856285Y-66997142D02*
X111903904Y-67092380D01*
X111903904Y-67092380D02*
X111951523Y-67140000D01*
X111951523Y-67140000D02*
X112046761Y-67187619D01*
X112046761Y-67187619D02*
X112189618Y-67187619D01*
X111427713Y-66520952D02*
X111427713Y-67187619D01*
X111427713Y-66616190D02*
X111380094Y-66568571D01*
X111380094Y-66568571D02*
X111284856Y-66520952D01*
X111284856Y-66520952D02*
X111141999Y-66520952D01*
X111141999Y-66520952D02*
X111046761Y-66568571D01*
X111046761Y-66568571D02*
X110999142Y-66663809D01*
X110999142Y-66663809D02*
X110999142Y-67187619D01*
X110380094Y-67187619D02*
X110475332Y-67140000D01*
X110475332Y-67140000D02*
X110522951Y-67044761D01*
X110522951Y-67044761D02*
X110522951Y-66187619D01*
X109570570Y-67187619D02*
X109570570Y-66663809D01*
X109570570Y-66663809D02*
X109618189Y-66568571D01*
X109618189Y-66568571D02*
X109713427Y-66520952D01*
X109713427Y-66520952D02*
X109903903Y-66520952D01*
X109903903Y-66520952D02*
X109999141Y-66568571D01*
X109570570Y-67140000D02*
X109665808Y-67187619D01*
X109665808Y-67187619D02*
X109903903Y-67187619D01*
X109903903Y-67187619D02*
X109999141Y-67140000D01*
X109999141Y-67140000D02*
X110046760Y-67044761D01*
X110046760Y-67044761D02*
X110046760Y-66949523D01*
X110046760Y-66949523D02*
X109999141Y-66854285D01*
X109999141Y-66854285D02*
X109903903Y-66806666D01*
X109903903Y-66806666D02*
X109665808Y-66806666D01*
X109665808Y-66806666D02*
X109570570Y-66759047D01*
X109094379Y-67187619D02*
X109094379Y-66187619D01*
X109094379Y-66568571D02*
X108999141Y-66520952D01*
X108999141Y-66520952D02*
X108808665Y-66520952D01*
X108808665Y-66520952D02*
X108713427Y-66568571D01*
X108713427Y-66568571D02*
X108665808Y-66616190D01*
X108665808Y-66616190D02*
X108618189Y-66711428D01*
X108618189Y-66711428D02*
X108618189Y-66997142D01*
X108618189Y-66997142D02*
X108665808Y-67092380D01*
X108665808Y-67092380D02*
X108713427Y-67140000D01*
X108713427Y-67140000D02*
X108808665Y-67187619D01*
X108808665Y-67187619D02*
X108999141Y-67187619D01*
X108999141Y-67187619D02*
X109094379Y-67140000D01*
X108237236Y-67140000D02*
X108141998Y-67187619D01*
X108141998Y-67187619D02*
X107951522Y-67187619D01*
X107951522Y-67187619D02*
X107856284Y-67140000D01*
X107856284Y-67140000D02*
X107808665Y-67044761D01*
X107808665Y-67044761D02*
X107808665Y-66997142D01*
X107808665Y-66997142D02*
X107856284Y-66901904D01*
X107856284Y-66901904D02*
X107951522Y-66854285D01*
X107951522Y-66854285D02*
X108094379Y-66854285D01*
X108094379Y-66854285D02*
X108189617Y-66806666D01*
X108189617Y-66806666D02*
X108237236Y-66711428D01*
X108237236Y-66711428D02*
X108237236Y-66663809D01*
X108237236Y-66663809D02*
X108189617Y-66568571D01*
X108189617Y-66568571D02*
X108094379Y-66520952D01*
X108094379Y-66520952D02*
X107951522Y-66520952D01*
X107951522Y-66520952D02*
X107856284Y-66568571D01*
X107380093Y-67092380D02*
X107332474Y-67140000D01*
X107332474Y-67140000D02*
X107380093Y-67187619D01*
X107380093Y-67187619D02*
X107427712Y-67140000D01*
X107427712Y-67140000D02*
X107380093Y-67092380D01*
X107380093Y-67092380D02*
X107380093Y-67187619D01*
X106475332Y-67140000D02*
X106570570Y-67187619D01*
X106570570Y-67187619D02*
X106761046Y-67187619D01*
X106761046Y-67187619D02*
X106856284Y-67140000D01*
X106856284Y-67140000D02*
X106903903Y-67092380D01*
X106903903Y-67092380D02*
X106951522Y-66997142D01*
X106951522Y-66997142D02*
X106951522Y-66711428D01*
X106951522Y-66711428D02*
X106903903Y-66616190D01*
X106903903Y-66616190D02*
X106856284Y-66568571D01*
X106856284Y-66568571D02*
X106761046Y-66520952D01*
X106761046Y-66520952D02*
X106570570Y-66520952D01*
X106570570Y-66520952D02*
X106475332Y-66568571D01*
X105903903Y-67187619D02*
X105999141Y-67140000D01*
X105999141Y-67140000D02*
X106046760Y-67092380D01*
X106046760Y-67092380D02*
X106094379Y-66997142D01*
X106094379Y-66997142D02*
X106094379Y-66711428D01*
X106094379Y-66711428D02*
X106046760Y-66616190D01*
X106046760Y-66616190D02*
X105999141Y-66568571D01*
X105999141Y-66568571D02*
X105903903Y-66520952D01*
X105903903Y-66520952D02*
X105761046Y-66520952D01*
X105761046Y-66520952D02*
X105665808Y-66568571D01*
X105665808Y-66568571D02*
X105618189Y-66616190D01*
X105618189Y-66616190D02*
X105570570Y-66711428D01*
X105570570Y-66711428D02*
X105570570Y-66997142D01*
X105570570Y-66997142D02*
X105618189Y-67092380D01*
X105618189Y-67092380D02*
X105665808Y-67140000D01*
X105665808Y-67140000D02*
X105761046Y-67187619D01*
X105761046Y-67187619D02*
X105903903Y-67187619D01*
X105141998Y-67187619D02*
X105141998Y-66520952D01*
X105141998Y-66616190D02*
X105094379Y-66568571D01*
X105094379Y-66568571D02*
X104999141Y-66520952D01*
X104999141Y-66520952D02*
X104856284Y-66520952D01*
X104856284Y-66520952D02*
X104761046Y-66568571D01*
X104761046Y-66568571D02*
X104713427Y-66663809D01*
X104713427Y-66663809D02*
X104713427Y-67187619D01*
X104713427Y-66663809D02*
X104665808Y-66568571D01*
X104665808Y-66568571D02*
X104570570Y-66520952D01*
X104570570Y-66520952D02*
X104427713Y-66520952D01*
X104427713Y-66520952D02*
X104332474Y-66568571D01*
X104332474Y-66568571D02*
X104284855Y-66663809D01*
X104284855Y-66663809D02*
X104284855Y-67187619D01*
D11*
X129617525Y-43470380D02*
X129665144Y-43518000D01*
X129665144Y-43518000D02*
X129808001Y-43565619D01*
X129808001Y-43565619D02*
X129903239Y-43565619D01*
X129903239Y-43565619D02*
X130046096Y-43518000D01*
X130046096Y-43518000D02*
X130141334Y-43422761D01*
X130141334Y-43422761D02*
X130188953Y-43327523D01*
X130188953Y-43327523D02*
X130236572Y-43137047D01*
X130236572Y-43137047D02*
X130236572Y-42994190D01*
X130236572Y-42994190D02*
X130188953Y-42803714D01*
X130188953Y-42803714D02*
X130141334Y-42708476D01*
X130141334Y-42708476D02*
X130046096Y-42613238D01*
X130046096Y-42613238D02*
X129903239Y-42565619D01*
X129903239Y-42565619D02*
X129808001Y-42565619D01*
X129808001Y-42565619D02*
X129665144Y-42613238D01*
X129665144Y-42613238D02*
X129617525Y-42660857D01*
X129046096Y-43565619D02*
X129141334Y-43518000D01*
X129141334Y-43518000D02*
X129188953Y-43470380D01*
X129188953Y-43470380D02*
X129236572Y-43375142D01*
X129236572Y-43375142D02*
X129236572Y-43089428D01*
X129236572Y-43089428D02*
X129188953Y-42994190D01*
X129188953Y-42994190D02*
X129141334Y-42946571D01*
X129141334Y-42946571D02*
X129046096Y-42898952D01*
X129046096Y-42898952D02*
X128903239Y-42898952D01*
X128903239Y-42898952D02*
X128808001Y-42946571D01*
X128808001Y-42946571D02*
X128760382Y-42994190D01*
X128760382Y-42994190D02*
X128712763Y-43089428D01*
X128712763Y-43089428D02*
X128712763Y-43375142D01*
X128712763Y-43375142D02*
X128760382Y-43470380D01*
X128760382Y-43470380D02*
X128808001Y-43518000D01*
X128808001Y-43518000D02*
X128903239Y-43565619D01*
X128903239Y-43565619D02*
X129046096Y-43565619D01*
X128284191Y-42898952D02*
X128284191Y-43565619D01*
X128284191Y-42994190D02*
X128236572Y-42946571D01*
X128236572Y-42946571D02*
X128141334Y-42898952D01*
X128141334Y-42898952D02*
X127998477Y-42898952D01*
X127998477Y-42898952D02*
X127903239Y-42946571D01*
X127903239Y-42946571D02*
X127855620Y-43041809D01*
X127855620Y-43041809D02*
X127855620Y-43565619D01*
X127379429Y-42898952D02*
X127379429Y-43565619D01*
X127379429Y-42994190D02*
X127331810Y-42946571D01*
X127331810Y-42946571D02*
X127236572Y-42898952D01*
X127236572Y-42898952D02*
X127093715Y-42898952D01*
X127093715Y-42898952D02*
X126998477Y-42946571D01*
X126998477Y-42946571D02*
X126950858Y-43041809D01*
X126950858Y-43041809D02*
X126950858Y-43565619D01*
X126093715Y-43518000D02*
X126188953Y-43565619D01*
X126188953Y-43565619D02*
X126379429Y-43565619D01*
X126379429Y-43565619D02*
X126474667Y-43518000D01*
X126474667Y-43518000D02*
X126522286Y-43422761D01*
X126522286Y-43422761D02*
X126522286Y-43041809D01*
X126522286Y-43041809D02*
X126474667Y-42946571D01*
X126474667Y-42946571D02*
X126379429Y-42898952D01*
X126379429Y-42898952D02*
X126188953Y-42898952D01*
X126188953Y-42898952D02*
X126093715Y-42946571D01*
X126093715Y-42946571D02*
X126046096Y-43041809D01*
X126046096Y-43041809D02*
X126046096Y-43137047D01*
X126046096Y-43137047D02*
X126522286Y-43232285D01*
X125188953Y-43518000D02*
X125284191Y-43565619D01*
X125284191Y-43565619D02*
X125474667Y-43565619D01*
X125474667Y-43565619D02*
X125569905Y-43518000D01*
X125569905Y-43518000D02*
X125617524Y-43470380D01*
X125617524Y-43470380D02*
X125665143Y-43375142D01*
X125665143Y-43375142D02*
X125665143Y-43089428D01*
X125665143Y-43089428D02*
X125617524Y-42994190D01*
X125617524Y-42994190D02*
X125569905Y-42946571D01*
X125569905Y-42946571D02*
X125474667Y-42898952D01*
X125474667Y-42898952D02*
X125284191Y-42898952D01*
X125284191Y-42898952D02*
X125188953Y-42946571D01*
X124903238Y-42898952D02*
X124522286Y-42898952D01*
X124760381Y-42565619D02*
X124760381Y-43422761D01*
X124760381Y-43422761D02*
X124712762Y-43518000D01*
X124712762Y-43518000D02*
X124617524Y-43565619D01*
X124617524Y-43565619D02*
X124522286Y-43565619D01*
X124188952Y-43565619D02*
X124188952Y-42898952D01*
X124188952Y-42565619D02*
X124236571Y-42613238D01*
X124236571Y-42613238D02*
X124188952Y-42660857D01*
X124188952Y-42660857D02*
X124141333Y-42613238D01*
X124141333Y-42613238D02*
X124188952Y-42565619D01*
X124188952Y-42565619D02*
X124188952Y-42660857D01*
X123569905Y-43565619D02*
X123665143Y-43518000D01*
X123665143Y-43518000D02*
X123712762Y-43470380D01*
X123712762Y-43470380D02*
X123760381Y-43375142D01*
X123760381Y-43375142D02*
X123760381Y-43089428D01*
X123760381Y-43089428D02*
X123712762Y-42994190D01*
X123712762Y-42994190D02*
X123665143Y-42946571D01*
X123665143Y-42946571D02*
X123569905Y-42898952D01*
X123569905Y-42898952D02*
X123427048Y-42898952D01*
X123427048Y-42898952D02*
X123331810Y-42946571D01*
X123331810Y-42946571D02*
X123284191Y-42994190D01*
X123284191Y-42994190D02*
X123236572Y-43089428D01*
X123236572Y-43089428D02*
X123236572Y-43375142D01*
X123236572Y-43375142D02*
X123284191Y-43470380D01*
X123284191Y-43470380D02*
X123331810Y-43518000D01*
X123331810Y-43518000D02*
X123427048Y-43565619D01*
X123427048Y-43565619D02*
X123569905Y-43565619D01*
X122808000Y-42898952D02*
X122808000Y-43565619D01*
X122808000Y-42994190D02*
X122760381Y-42946571D01*
X122760381Y-42946571D02*
X122665143Y-42898952D01*
X122665143Y-42898952D02*
X122522286Y-42898952D01*
X122522286Y-42898952D02*
X122427048Y-42946571D01*
X122427048Y-42946571D02*
X122379429Y-43041809D01*
X122379429Y-43041809D02*
X122379429Y-43565619D01*
X121950857Y-43518000D02*
X121855619Y-43565619D01*
X121855619Y-43565619D02*
X121665143Y-43565619D01*
X121665143Y-43565619D02*
X121569905Y-43518000D01*
X121569905Y-43518000D02*
X121522286Y-43422761D01*
X121522286Y-43422761D02*
X121522286Y-43375142D01*
X121522286Y-43375142D02*
X121569905Y-43279904D01*
X121569905Y-43279904D02*
X121665143Y-43232285D01*
X121665143Y-43232285D02*
X121808000Y-43232285D01*
X121808000Y-43232285D02*
X121903238Y-43184666D01*
X121903238Y-43184666D02*
X121950857Y-43089428D01*
X121950857Y-43089428D02*
X121950857Y-43041809D01*
X121950857Y-43041809D02*
X121903238Y-42946571D01*
X121903238Y-42946571D02*
X121808000Y-42898952D01*
X121808000Y-42898952D02*
X121665143Y-42898952D01*
X121665143Y-42898952D02*
X121569905Y-42946571D01*
X120474666Y-42898952D02*
X120093714Y-42898952D01*
X120331809Y-43565619D02*
X120331809Y-42708476D01*
X120331809Y-42708476D02*
X120284190Y-42613238D01*
X120284190Y-42613238D02*
X120188952Y-42565619D01*
X120188952Y-42565619D02*
X120093714Y-42565619D01*
X119617523Y-43565619D02*
X119712761Y-43518000D01*
X119712761Y-43518000D02*
X119760380Y-43470380D01*
X119760380Y-43470380D02*
X119807999Y-43375142D01*
X119807999Y-43375142D02*
X119807999Y-43089428D01*
X119807999Y-43089428D02*
X119760380Y-42994190D01*
X119760380Y-42994190D02*
X119712761Y-42946571D01*
X119712761Y-42946571D02*
X119617523Y-42898952D01*
X119617523Y-42898952D02*
X119474666Y-42898952D01*
X119474666Y-42898952D02*
X119379428Y-42946571D01*
X119379428Y-42946571D02*
X119331809Y-42994190D01*
X119331809Y-42994190D02*
X119284190Y-43089428D01*
X119284190Y-43089428D02*
X119284190Y-43375142D01*
X119284190Y-43375142D02*
X119331809Y-43470380D01*
X119331809Y-43470380D02*
X119379428Y-43518000D01*
X119379428Y-43518000D02*
X119474666Y-43565619D01*
X119474666Y-43565619D02*
X119617523Y-43565619D01*
X118855618Y-43565619D02*
X118855618Y-42898952D01*
X118855618Y-43089428D02*
X118807999Y-42994190D01*
X118807999Y-42994190D02*
X118760380Y-42946571D01*
X118760380Y-42946571D02*
X118665142Y-42898952D01*
X118665142Y-42898952D02*
X118569904Y-42898952D01*
X117474665Y-43565619D02*
X117474665Y-42565619D01*
X116998475Y-43565619D02*
X116998475Y-42898952D01*
X116998475Y-42994190D02*
X116950856Y-42946571D01*
X116950856Y-42946571D02*
X116855618Y-42898952D01*
X116855618Y-42898952D02*
X116712761Y-42898952D01*
X116712761Y-42898952D02*
X116617523Y-42946571D01*
X116617523Y-42946571D02*
X116569904Y-43041809D01*
X116569904Y-43041809D02*
X116569904Y-43565619D01*
X116569904Y-43041809D02*
X116522285Y-42946571D01*
X116522285Y-42946571D02*
X116427047Y-42898952D01*
X116427047Y-42898952D02*
X116284190Y-42898952D01*
X116284190Y-42898952D02*
X116188951Y-42946571D01*
X116188951Y-42946571D02*
X116141332Y-43041809D01*
X116141332Y-43041809D02*
X116141332Y-43565619D01*
X115665142Y-42898952D02*
X115665142Y-43898952D01*
X115665142Y-42946571D02*
X115569904Y-42898952D01*
X115569904Y-42898952D02*
X115379428Y-42898952D01*
X115379428Y-42898952D02*
X115284190Y-42946571D01*
X115284190Y-42946571D02*
X115236571Y-42994190D01*
X115236571Y-42994190D02*
X115188952Y-43089428D01*
X115188952Y-43089428D02*
X115188952Y-43375142D01*
X115188952Y-43375142D02*
X115236571Y-43470380D01*
X115236571Y-43470380D02*
X115284190Y-43518000D01*
X115284190Y-43518000D02*
X115379428Y-43565619D01*
X115379428Y-43565619D02*
X115569904Y-43565619D01*
X115569904Y-43565619D02*
X115665142Y-43518000D01*
X114379428Y-43518000D02*
X114474666Y-43565619D01*
X114474666Y-43565619D02*
X114665142Y-43565619D01*
X114665142Y-43565619D02*
X114760380Y-43518000D01*
X114760380Y-43518000D02*
X114807999Y-43422761D01*
X114807999Y-43422761D02*
X114807999Y-43041809D01*
X114807999Y-43041809D02*
X114760380Y-42946571D01*
X114760380Y-42946571D02*
X114665142Y-42898952D01*
X114665142Y-42898952D02*
X114474666Y-42898952D01*
X114474666Y-42898952D02*
X114379428Y-42946571D01*
X114379428Y-42946571D02*
X114331809Y-43041809D01*
X114331809Y-43041809D02*
X114331809Y-43137047D01*
X114331809Y-43137047D02*
X114807999Y-43232285D01*
X113474666Y-43565619D02*
X113474666Y-42565619D01*
X113474666Y-43518000D02*
X113569904Y-43565619D01*
X113569904Y-43565619D02*
X113760380Y-43565619D01*
X113760380Y-43565619D02*
X113855618Y-43518000D01*
X113855618Y-43518000D02*
X113903237Y-43470380D01*
X113903237Y-43470380D02*
X113950856Y-43375142D01*
X113950856Y-43375142D02*
X113950856Y-43089428D01*
X113950856Y-43089428D02*
X113903237Y-42994190D01*
X113903237Y-42994190D02*
X113855618Y-42946571D01*
X113855618Y-42946571D02*
X113760380Y-42898952D01*
X113760380Y-42898952D02*
X113569904Y-42898952D01*
X113569904Y-42898952D02*
X113474666Y-42946571D01*
X112569904Y-43565619D02*
X112569904Y-43041809D01*
X112569904Y-43041809D02*
X112617523Y-42946571D01*
X112617523Y-42946571D02*
X112712761Y-42898952D01*
X112712761Y-42898952D02*
X112903237Y-42898952D01*
X112903237Y-42898952D02*
X112998475Y-42946571D01*
X112569904Y-43518000D02*
X112665142Y-43565619D01*
X112665142Y-43565619D02*
X112903237Y-43565619D01*
X112903237Y-43565619D02*
X112998475Y-43518000D01*
X112998475Y-43518000D02*
X113046094Y-43422761D01*
X113046094Y-43422761D02*
X113046094Y-43327523D01*
X113046094Y-43327523D02*
X112998475Y-43232285D01*
X112998475Y-43232285D02*
X112903237Y-43184666D01*
X112903237Y-43184666D02*
X112665142Y-43184666D01*
X112665142Y-43184666D02*
X112569904Y-43137047D01*
X112093713Y-42898952D02*
X112093713Y-43565619D01*
X112093713Y-42994190D02*
X112046094Y-42946571D01*
X112046094Y-42946571D02*
X111950856Y-42898952D01*
X111950856Y-42898952D02*
X111807999Y-42898952D01*
X111807999Y-42898952D02*
X111712761Y-42946571D01*
X111712761Y-42946571D02*
X111665142Y-43041809D01*
X111665142Y-43041809D02*
X111665142Y-43565619D01*
X110760380Y-43518000D02*
X110855618Y-43565619D01*
X110855618Y-43565619D02*
X111046094Y-43565619D01*
X111046094Y-43565619D02*
X111141332Y-43518000D01*
X111141332Y-43518000D02*
X111188951Y-43470380D01*
X111188951Y-43470380D02*
X111236570Y-43375142D01*
X111236570Y-43375142D02*
X111236570Y-43089428D01*
X111236570Y-43089428D02*
X111188951Y-42994190D01*
X111188951Y-42994190D02*
X111141332Y-42946571D01*
X111141332Y-42946571D02*
X111046094Y-42898952D01*
X111046094Y-42898952D02*
X110855618Y-42898952D01*
X110855618Y-42898952D02*
X110760380Y-42946571D01*
X109950856Y-43518000D02*
X110046094Y-43565619D01*
X110046094Y-43565619D02*
X110236570Y-43565619D01*
X110236570Y-43565619D02*
X110331808Y-43518000D01*
X110331808Y-43518000D02*
X110379427Y-43422761D01*
X110379427Y-43422761D02*
X110379427Y-43041809D01*
X110379427Y-43041809D02*
X110331808Y-42946571D01*
X110331808Y-42946571D02*
X110236570Y-42898952D01*
X110236570Y-42898952D02*
X110046094Y-42898952D01*
X110046094Y-42898952D02*
X109950856Y-42946571D01*
X109950856Y-42946571D02*
X109903237Y-43041809D01*
X109903237Y-43041809D02*
X109903237Y-43137047D01*
X109903237Y-43137047D02*
X110379427Y-43232285D01*
X108712760Y-43565619D02*
X108712760Y-42565619D01*
X108712760Y-42565619D02*
X108379427Y-43279904D01*
X108379427Y-43279904D02*
X108046094Y-42565619D01*
X108046094Y-42565619D02*
X108046094Y-43565619D01*
X107188951Y-43518000D02*
X107284189Y-43565619D01*
X107284189Y-43565619D02*
X107474665Y-43565619D01*
X107474665Y-43565619D02*
X107569903Y-43518000D01*
X107569903Y-43518000D02*
X107617522Y-43422761D01*
X107617522Y-43422761D02*
X107617522Y-43041809D01*
X107617522Y-43041809D02*
X107569903Y-42946571D01*
X107569903Y-42946571D02*
X107474665Y-42898952D01*
X107474665Y-42898952D02*
X107284189Y-42898952D01*
X107284189Y-42898952D02*
X107188951Y-42946571D01*
X107188951Y-42946571D02*
X107141332Y-43041809D01*
X107141332Y-43041809D02*
X107141332Y-43137047D01*
X107141332Y-43137047D02*
X107617522Y-43232285D01*
X106284189Y-43565619D02*
X106284189Y-43041809D01*
X106284189Y-43041809D02*
X106331808Y-42946571D01*
X106331808Y-42946571D02*
X106427046Y-42898952D01*
X106427046Y-42898952D02*
X106617522Y-42898952D01*
X106617522Y-42898952D02*
X106712760Y-42946571D01*
X106284189Y-43518000D02*
X106379427Y-43565619D01*
X106379427Y-43565619D02*
X106617522Y-43565619D01*
X106617522Y-43565619D02*
X106712760Y-43518000D01*
X106712760Y-43518000D02*
X106760379Y-43422761D01*
X106760379Y-43422761D02*
X106760379Y-43327523D01*
X106760379Y-43327523D02*
X106712760Y-43232285D01*
X106712760Y-43232285D02*
X106617522Y-43184666D01*
X106617522Y-43184666D02*
X106379427Y-43184666D01*
X106379427Y-43184666D02*
X106284189Y-43137047D01*
X105855617Y-43518000D02*
X105760379Y-43565619D01*
X105760379Y-43565619D02*
X105569903Y-43565619D01*
X105569903Y-43565619D02*
X105474665Y-43518000D01*
X105474665Y-43518000D02*
X105427046Y-43422761D01*
X105427046Y-43422761D02*
X105427046Y-43375142D01*
X105427046Y-43375142D02*
X105474665Y-43279904D01*
X105474665Y-43279904D02*
X105569903Y-43232285D01*
X105569903Y-43232285D02*
X105712760Y-43232285D01*
X105712760Y-43232285D02*
X105807998Y-43184666D01*
X105807998Y-43184666D02*
X105855617Y-43089428D01*
X105855617Y-43089428D02*
X105855617Y-43041809D01*
X105855617Y-43041809D02*
X105807998Y-42946571D01*
X105807998Y-42946571D02*
X105712760Y-42898952D01*
X105712760Y-42898952D02*
X105569903Y-42898952D01*
X105569903Y-42898952D02*
X105474665Y-42946571D01*
X104569903Y-42898952D02*
X104569903Y-43565619D01*
X104998474Y-42898952D02*
X104998474Y-43422761D01*
X104998474Y-43422761D02*
X104950855Y-43518000D01*
X104950855Y-43518000D02*
X104855617Y-43565619D01*
X104855617Y-43565619D02*
X104712760Y-43565619D01*
X104712760Y-43565619D02*
X104617522Y-43518000D01*
X104617522Y-43518000D02*
X104569903Y-43470380D01*
X104093712Y-43565619D02*
X104093712Y-42898952D01*
X104093712Y-43089428D02*
X104046093Y-42994190D01*
X104046093Y-42994190D02*
X103998474Y-42946571D01*
X103998474Y-42946571D02*
X103903236Y-42898952D01*
X103903236Y-42898952D02*
X103807998Y-42898952D01*
X103093712Y-43518000D02*
X103188950Y-43565619D01*
X103188950Y-43565619D02*
X103379426Y-43565619D01*
X103379426Y-43565619D02*
X103474664Y-43518000D01*
X103474664Y-43518000D02*
X103522283Y-43422761D01*
X103522283Y-43422761D02*
X103522283Y-43041809D01*
X103522283Y-43041809D02*
X103474664Y-42946571D01*
X103474664Y-42946571D02*
X103379426Y-42898952D01*
X103379426Y-42898952D02*
X103188950Y-42898952D01*
X103188950Y-42898952D02*
X103093712Y-42946571D01*
X103093712Y-42946571D02*
X103046093Y-43041809D01*
X103046093Y-43041809D02*
X103046093Y-43137047D01*
X103046093Y-43137047D02*
X103522283Y-43232285D01*
X102617521Y-43565619D02*
X102617521Y-42898952D01*
X102617521Y-42994190D02*
X102569902Y-42946571D01*
X102569902Y-42946571D02*
X102474664Y-42898952D01*
X102474664Y-42898952D02*
X102331807Y-42898952D01*
X102331807Y-42898952D02*
X102236569Y-42946571D01*
X102236569Y-42946571D02*
X102188950Y-43041809D01*
X102188950Y-43041809D02*
X102188950Y-43565619D01*
X102188950Y-43041809D02*
X102141331Y-42946571D01*
X102141331Y-42946571D02*
X102046093Y-42898952D01*
X102046093Y-42898952D02*
X101903236Y-42898952D01*
X101903236Y-42898952D02*
X101807997Y-42946571D01*
X101807997Y-42946571D02*
X101760378Y-43041809D01*
X101760378Y-43041809D02*
X101760378Y-43565619D01*
X100903236Y-43518000D02*
X100998474Y-43565619D01*
X100998474Y-43565619D02*
X101188950Y-43565619D01*
X101188950Y-43565619D02*
X101284188Y-43518000D01*
X101284188Y-43518000D02*
X101331807Y-43422761D01*
X101331807Y-43422761D02*
X101331807Y-43041809D01*
X101331807Y-43041809D02*
X101284188Y-42946571D01*
X101284188Y-42946571D02*
X101188950Y-42898952D01*
X101188950Y-42898952D02*
X100998474Y-42898952D01*
X100998474Y-42898952D02*
X100903236Y-42946571D01*
X100903236Y-42946571D02*
X100855617Y-43041809D01*
X100855617Y-43041809D02*
X100855617Y-43137047D01*
X100855617Y-43137047D02*
X101331807Y-43232285D01*
X100427045Y-42898952D02*
X100427045Y-43565619D01*
X100427045Y-42994190D02*
X100379426Y-42946571D01*
X100379426Y-42946571D02*
X100284188Y-42898952D01*
X100284188Y-42898952D02*
X100141331Y-42898952D01*
X100141331Y-42898952D02*
X100046093Y-42946571D01*
X100046093Y-42946571D02*
X99998474Y-43041809D01*
X99998474Y-43041809D02*
X99998474Y-43565619D01*
X99665140Y-42898952D02*
X99284188Y-42898952D01*
X99522283Y-42565619D02*
X99522283Y-43422761D01*
X99522283Y-43422761D02*
X99474664Y-43518000D01*
X99474664Y-43518000D02*
X99379426Y-43565619D01*
X99379426Y-43565619D02*
X99284188Y-43565619D01*
D10*
X124206000Y-56642000D02*
X123190000Y-55880000D01*
X124206000Y-55118000D01*
X124206000Y-56642000D01*
G36*
X124206000Y-56642000D02*
G01*
X123190000Y-55880000D01*
X124206000Y-55118000D01*
X124206000Y-56642000D01*
G37*
X124206000Y-53340000D02*
X123190000Y-52578000D01*
X124206000Y-51816000D01*
X124206000Y-53340000D01*
G36*
X124206000Y-53340000D02*
G01*
X123190000Y-52578000D01*
X124206000Y-51816000D01*
X124206000Y-53340000D01*
G37*
X108458000Y-56642000D02*
X107442000Y-55880000D01*
X108458000Y-55118000D01*
X108458000Y-56642000D01*
G36*
X108458000Y-56642000D02*
G01*
X107442000Y-55880000D01*
X108458000Y-55118000D01*
X108458000Y-56642000D01*
G37*
X108458000Y-53340000D02*
X107442000Y-52578000D01*
X108458000Y-51816000D01*
X108458000Y-53340000D01*
G36*
X108458000Y-53340000D02*
G01*
X107442000Y-52578000D01*
X108458000Y-51816000D01*
X108458000Y-53340000D01*
G37*
X123967904Y-46105619D02*
X123967904Y-45105619D01*
X123491714Y-46105619D02*
X123491714Y-45105619D01*
X123491714Y-45105619D02*
X122920286Y-46105619D01*
X122920286Y-46105619D02*
X122920286Y-45105619D01*
X122444095Y-46105619D02*
X122444095Y-45105619D01*
X122444095Y-45105619D02*
X122063143Y-45105619D01*
X122063143Y-45105619D02*
X121967905Y-45153238D01*
X121967905Y-45153238D02*
X121920286Y-45200857D01*
X121920286Y-45200857D02*
X121872667Y-45296095D01*
X121872667Y-45296095D02*
X121872667Y-45438952D01*
X121872667Y-45438952D02*
X121920286Y-45534190D01*
X121920286Y-45534190D02*
X121967905Y-45581809D01*
X121967905Y-45581809D02*
X122063143Y-45629428D01*
X122063143Y-45629428D02*
X122444095Y-45629428D01*
X121444095Y-45105619D02*
X121444095Y-45915142D01*
X121444095Y-45915142D02*
X121396476Y-46010380D01*
X121396476Y-46010380D02*
X121348857Y-46058000D01*
X121348857Y-46058000D02*
X121253619Y-46105619D01*
X121253619Y-46105619D02*
X121063143Y-46105619D01*
X121063143Y-46105619D02*
X120967905Y-46058000D01*
X120967905Y-46058000D02*
X120920286Y-46010380D01*
X120920286Y-46010380D02*
X120872667Y-45915142D01*
X120872667Y-45915142D02*
X120872667Y-45105619D01*
X120539333Y-45105619D02*
X119967905Y-45105619D01*
X120253619Y-46105619D02*
X120253619Y-45105619D01*
X118301238Y-46105619D02*
X118634571Y-45629428D01*
X118872666Y-46105619D02*
X118872666Y-45105619D01*
X118872666Y-45105619D02*
X118491714Y-45105619D01*
X118491714Y-45105619D02*
X118396476Y-45153238D01*
X118396476Y-45153238D02*
X118348857Y-45200857D01*
X118348857Y-45200857D02*
X118301238Y-45296095D01*
X118301238Y-45296095D02*
X118301238Y-45438952D01*
X118301238Y-45438952D02*
X118348857Y-45534190D01*
X118348857Y-45534190D02*
X118396476Y-45581809D01*
X118396476Y-45581809D02*
X118491714Y-45629428D01*
X118491714Y-45629428D02*
X118872666Y-45629428D01*
X117872666Y-45724666D02*
X117110762Y-45724666D01*
X117491714Y-46105619D02*
X117491714Y-45343714D01*
X111775904Y-46359619D02*
X111775904Y-45359619D01*
X111299714Y-46359619D02*
X111299714Y-45359619D01*
X111299714Y-45359619D02*
X110728286Y-46359619D01*
X110728286Y-46359619D02*
X110728286Y-45359619D01*
X110252095Y-46359619D02*
X110252095Y-45359619D01*
X110252095Y-45359619D02*
X109871143Y-45359619D01*
X109871143Y-45359619D02*
X109775905Y-45407238D01*
X109775905Y-45407238D02*
X109728286Y-45454857D01*
X109728286Y-45454857D02*
X109680667Y-45550095D01*
X109680667Y-45550095D02*
X109680667Y-45692952D01*
X109680667Y-45692952D02*
X109728286Y-45788190D01*
X109728286Y-45788190D02*
X109775905Y-45835809D01*
X109775905Y-45835809D02*
X109871143Y-45883428D01*
X109871143Y-45883428D02*
X110252095Y-45883428D01*
X109252095Y-45359619D02*
X109252095Y-46169142D01*
X109252095Y-46169142D02*
X109204476Y-46264380D01*
X109204476Y-46264380D02*
X109156857Y-46312000D01*
X109156857Y-46312000D02*
X109061619Y-46359619D01*
X109061619Y-46359619D02*
X108871143Y-46359619D01*
X108871143Y-46359619D02*
X108775905Y-46312000D01*
X108775905Y-46312000D02*
X108728286Y-46264380D01*
X108728286Y-46264380D02*
X108680667Y-46169142D01*
X108680667Y-46169142D02*
X108680667Y-45359619D01*
X108347333Y-45359619D02*
X107775905Y-45359619D01*
X108061619Y-46359619D02*
X108061619Y-45359619D01*
X106109238Y-46359619D02*
X106442571Y-45883428D01*
X106680666Y-46359619D02*
X106680666Y-45359619D01*
X106680666Y-45359619D02*
X106299714Y-45359619D01*
X106299714Y-45359619D02*
X106204476Y-45407238D01*
X106204476Y-45407238D02*
X106156857Y-45454857D01*
X106156857Y-45454857D02*
X106109238Y-45550095D01*
X106109238Y-45550095D02*
X106109238Y-45692952D01*
X106109238Y-45692952D02*
X106156857Y-45788190D01*
X106156857Y-45788190D02*
X106204476Y-45835809D01*
X106204476Y-45835809D02*
X106299714Y-45883428D01*
X106299714Y-45883428D02*
X106680666Y-45883428D01*
X105680666Y-45978666D02*
X104918762Y-45978666D01*
X122174000Y-48768000D02*
X122174000Y-48768000D01*
X122174000Y-48168000D02*
X122174000Y-48168000D01*
X122174000Y-47568000D02*
X122174000Y-47568000D01*
X122174000Y-46968000D02*
X122174000Y-46968000D01*
X109474000Y-48768000D02*
X109474000Y-48768000D01*
X109474000Y-48168000D02*
X109474000Y-48168000D01*
X109474000Y-47568000D02*
X109474000Y-47568000D01*
X109474000Y-46968000D02*
X109474000Y-46968000D01*
X102885904Y-58805619D02*
X102885904Y-57805619D01*
X102409714Y-58805619D02*
X102409714Y-57805619D01*
X102409714Y-57805619D02*
X101838286Y-58805619D01*
X101838286Y-58805619D02*
X101838286Y-57805619D01*
X101362095Y-58805619D02*
X101362095Y-57805619D01*
X101362095Y-57805619D02*
X100981143Y-57805619D01*
X100981143Y-57805619D02*
X100885905Y-57853238D01*
X100885905Y-57853238D02*
X100838286Y-57900857D01*
X100838286Y-57900857D02*
X100790667Y-57996095D01*
X100790667Y-57996095D02*
X100790667Y-58138952D01*
X100790667Y-58138952D02*
X100838286Y-58234190D01*
X100838286Y-58234190D02*
X100885905Y-58281809D01*
X100885905Y-58281809D02*
X100981143Y-58329428D01*
X100981143Y-58329428D02*
X101362095Y-58329428D01*
X100362095Y-57805619D02*
X100362095Y-58615142D01*
X100362095Y-58615142D02*
X100314476Y-58710380D01*
X100314476Y-58710380D02*
X100266857Y-58758000D01*
X100266857Y-58758000D02*
X100171619Y-58805619D01*
X100171619Y-58805619D02*
X99981143Y-58805619D01*
X99981143Y-58805619D02*
X99885905Y-58758000D01*
X99885905Y-58758000D02*
X99838286Y-58710380D01*
X99838286Y-58710380D02*
X99790667Y-58615142D01*
X99790667Y-58615142D02*
X99790667Y-57805619D01*
X99457333Y-57805619D02*
X98885905Y-57805619D01*
X99171619Y-58805619D02*
X99171619Y-57805619D01*
X97314476Y-58805619D02*
X97790666Y-58805619D01*
X97790666Y-58805619D02*
X97790666Y-57805619D01*
X96981142Y-58424666D02*
X96219238Y-58424666D01*
X102631904Y-50169619D02*
X102631904Y-49169619D01*
X102155714Y-50169619D02*
X102155714Y-49169619D01*
X102155714Y-49169619D02*
X101584286Y-50169619D01*
X101584286Y-50169619D02*
X101584286Y-49169619D01*
X101108095Y-50169619D02*
X101108095Y-49169619D01*
X101108095Y-49169619D02*
X100727143Y-49169619D01*
X100727143Y-49169619D02*
X100631905Y-49217238D01*
X100631905Y-49217238D02*
X100584286Y-49264857D01*
X100584286Y-49264857D02*
X100536667Y-49360095D01*
X100536667Y-49360095D02*
X100536667Y-49502952D01*
X100536667Y-49502952D02*
X100584286Y-49598190D01*
X100584286Y-49598190D02*
X100631905Y-49645809D01*
X100631905Y-49645809D02*
X100727143Y-49693428D01*
X100727143Y-49693428D02*
X101108095Y-49693428D01*
X100108095Y-49169619D02*
X100108095Y-49979142D01*
X100108095Y-49979142D02*
X100060476Y-50074380D01*
X100060476Y-50074380D02*
X100012857Y-50122000D01*
X100012857Y-50122000D02*
X99917619Y-50169619D01*
X99917619Y-50169619D02*
X99727143Y-50169619D01*
X99727143Y-50169619D02*
X99631905Y-50122000D01*
X99631905Y-50122000D02*
X99584286Y-50074380D01*
X99584286Y-50074380D02*
X99536667Y-49979142D01*
X99536667Y-49979142D02*
X99536667Y-49169619D01*
X99203333Y-49169619D02*
X98631905Y-49169619D01*
X98917619Y-50169619D02*
X98917619Y-49169619D01*
X97060476Y-50169619D02*
X97536666Y-50169619D01*
X97536666Y-50169619D02*
X97536666Y-49169619D01*
X96727142Y-49788666D02*
X95965238Y-49788666D01*
X96346190Y-50169619D02*
X96346190Y-49407714D01*
X113792000Y-58420000D02*
X113792000Y-58420000D01*
X113192000Y-58420000D02*
X113192000Y-58420000D01*
X112592000Y-58420000D02*
X112592000Y-58420000D01*
X111992000Y-58420000D02*
X111992000Y-58420000D01*
X111392000Y-58420000D02*
X111392000Y-58420000D01*
X110792000Y-58420000D02*
X110792000Y-58420000D01*
X110192000Y-58420000D02*
X110192000Y-58420000D01*
X109592000Y-58420000D02*
X109592000Y-58420000D01*
X108992000Y-58420000D02*
X108992000Y-58420000D01*
X108392000Y-58420000D02*
X108392000Y-58420000D01*
X107792000Y-58420000D02*
X107792000Y-58420000D01*
X107192000Y-58420000D02*
X107192000Y-58420000D01*
X106592000Y-58420000D02*
X106592000Y-58420000D01*
X105992000Y-58420000D02*
X105992000Y-58420000D01*
X105392000Y-58420000D02*
X105392000Y-58420000D01*
X104792000Y-58420000D02*
X104792000Y-58420000D01*
X104192000Y-58420000D02*
X104192000Y-58420000D01*
X103592000Y-58420000D02*
X103592000Y-58420000D01*
X108712000Y-49784000D02*
X108712000Y-49784000D01*
X108112000Y-49784000D02*
X108112000Y-49784000D01*
X107512000Y-49784000D02*
X107512000Y-49784000D01*
X106912000Y-49784000D02*
X106912000Y-49784000D01*
X106312000Y-49784000D02*
X106312000Y-49784000D01*
X105712000Y-49784000D02*
X105712000Y-49784000D01*
X105112000Y-49784000D02*
X105112000Y-49784000D01*
X104512000Y-49784000D02*
X104512000Y-49784000D01*
X103912000Y-49784000D02*
X103912000Y-49784000D01*
X103312000Y-49784000D02*
X103312000Y-49784000D01*
X115951000Y-57404000D02*
X115951000Y-55880000D01*
X122174000Y-52578000D02*
X122174000Y-51054000D01*
X109474000Y-52578000D02*
X109474000Y-51308000D01*
X116792476Y-58710380D02*
X116840095Y-58758000D01*
X116840095Y-58758000D02*
X116982952Y-58805619D01*
X116982952Y-58805619D02*
X117078190Y-58805619D01*
X117078190Y-58805619D02*
X117221047Y-58758000D01*
X117221047Y-58758000D02*
X117316285Y-58662761D01*
X117316285Y-58662761D02*
X117363904Y-58567523D01*
X117363904Y-58567523D02*
X117411523Y-58377047D01*
X117411523Y-58377047D02*
X117411523Y-58234190D01*
X117411523Y-58234190D02*
X117363904Y-58043714D01*
X117363904Y-58043714D02*
X117316285Y-57948476D01*
X117316285Y-57948476D02*
X117221047Y-57853238D01*
X117221047Y-57853238D02*
X117078190Y-57805619D01*
X117078190Y-57805619D02*
X116982952Y-57805619D01*
X116982952Y-57805619D02*
X116840095Y-57853238D01*
X116840095Y-57853238D02*
X116792476Y-57900857D01*
X116173428Y-57805619D02*
X115982952Y-57805619D01*
X115982952Y-57805619D02*
X115887714Y-57853238D01*
X115887714Y-57853238D02*
X115792476Y-57948476D01*
X115792476Y-57948476D02*
X115744857Y-58138952D01*
X115744857Y-58138952D02*
X115744857Y-58472285D01*
X115744857Y-58472285D02*
X115792476Y-58662761D01*
X115792476Y-58662761D02*
X115887714Y-58758000D01*
X115887714Y-58758000D02*
X115982952Y-58805619D01*
X115982952Y-58805619D02*
X116173428Y-58805619D01*
X116173428Y-58805619D02*
X116268666Y-58758000D01*
X116268666Y-58758000D02*
X116363904Y-58662761D01*
X116363904Y-58662761D02*
X116411523Y-58472285D01*
X116411523Y-58472285D02*
X116411523Y-58138952D01*
X116411523Y-58138952D02*
X116363904Y-57948476D01*
X116363904Y-57948476D02*
X116268666Y-57853238D01*
X116268666Y-57853238D02*
X116173428Y-57805619D01*
X115316285Y-58805619D02*
X115316285Y-57805619D01*
X115316285Y-57805619D02*
X114982952Y-58519904D01*
X114982952Y-58519904D02*
X114649619Y-57805619D01*
X114649619Y-57805619D02*
X114649619Y-58805619D01*
X109410571Y-49899809D02*
X109267714Y-49947428D01*
X109267714Y-49947428D02*
X109220095Y-49995047D01*
X109220095Y-49995047D02*
X109172476Y-50090285D01*
X109172476Y-50090285D02*
X109172476Y-50233142D01*
X109172476Y-50233142D02*
X109220095Y-50328380D01*
X109220095Y-50328380D02*
X109267714Y-50376000D01*
X109267714Y-50376000D02*
X109362952Y-50423619D01*
X109362952Y-50423619D02*
X109743904Y-50423619D01*
X109743904Y-50423619D02*
X109743904Y-49423619D01*
X109743904Y-49423619D02*
X109410571Y-49423619D01*
X109410571Y-49423619D02*
X109315333Y-49471238D01*
X109315333Y-49471238D02*
X109267714Y-49518857D01*
X109267714Y-49518857D02*
X109220095Y-49614095D01*
X109220095Y-49614095D02*
X109220095Y-49709333D01*
X109220095Y-49709333D02*
X109267714Y-49804571D01*
X109267714Y-49804571D02*
X109315333Y-49852190D01*
X109315333Y-49852190D02*
X109410571Y-49899809D01*
X109410571Y-49899809D02*
X109743904Y-49899809D01*
X122491523Y-50137904D02*
X122015333Y-50137904D01*
X122586761Y-50423619D02*
X122253428Y-49423619D01*
X122253428Y-49423619D02*
X121920095Y-50423619D01*
X115776476Y-50677619D02*
X116109809Y-50201428D01*
X116347904Y-50677619D02*
X116347904Y-49677619D01*
X116347904Y-49677619D02*
X115966952Y-49677619D01*
X115966952Y-49677619D02*
X115871714Y-49725238D01*
X115871714Y-49725238D02*
X115824095Y-49772857D01*
X115824095Y-49772857D02*
X115776476Y-49868095D01*
X115776476Y-49868095D02*
X115776476Y-50010952D01*
X115776476Y-50010952D02*
X115824095Y-50106190D01*
X115824095Y-50106190D02*
X115871714Y-50153809D01*
X115871714Y-50153809D02*
X115966952Y-50201428D01*
X115966952Y-50201428D02*
X116347904Y-50201428D01*
X114046000Y-52070000D02*
X117602000Y-52070000D01*
X117602000Y-53086000D01*
X114046000Y-53086000D01*
X114046000Y-52070000D01*
G36*
X114046000Y-52070000D02*
G01*
X117602000Y-52070000D01*
X117602000Y-53086000D01*
X114046000Y-53086000D01*
X114046000Y-52070000D01*
G37*
X124968000Y-52578000D02*
X106680000Y-52578000D01*
X124968000Y-55880000D02*
X106934000Y-55880000D01*
X105219523Y-52978000D02*
X105076666Y-53025619D01*
X105076666Y-53025619D02*
X104838571Y-53025619D01*
X104838571Y-53025619D02*
X104743333Y-52978000D01*
X104743333Y-52978000D02*
X104695714Y-52930380D01*
X104695714Y-52930380D02*
X104648095Y-52835142D01*
X104648095Y-52835142D02*
X104648095Y-52739904D01*
X104648095Y-52739904D02*
X104695714Y-52644666D01*
X104695714Y-52644666D02*
X104743333Y-52597047D01*
X104743333Y-52597047D02*
X104838571Y-52549428D01*
X104838571Y-52549428D02*
X105029047Y-52501809D01*
X105029047Y-52501809D02*
X105124285Y-52454190D01*
X105124285Y-52454190D02*
X105171904Y-52406571D01*
X105171904Y-52406571D02*
X105219523Y-52311333D01*
X105219523Y-52311333D02*
X105219523Y-52216095D01*
X105219523Y-52216095D02*
X105171904Y-52120857D01*
X105171904Y-52120857D02*
X105124285Y-52073238D01*
X105124285Y-52073238D02*
X105029047Y-52025619D01*
X105029047Y-52025619D02*
X104790952Y-52025619D01*
X104790952Y-52025619D02*
X104648095Y-52073238D01*
X104219523Y-53025619D02*
X104219523Y-52025619D01*
X104219523Y-52025619D02*
X103838571Y-52025619D01*
X103838571Y-52025619D02*
X103743333Y-52073238D01*
X103743333Y-52073238D02*
X103695714Y-52120857D01*
X103695714Y-52120857D02*
X103648095Y-52216095D01*
X103648095Y-52216095D02*
X103648095Y-52358952D01*
X103648095Y-52358952D02*
X103695714Y-52454190D01*
X103695714Y-52454190D02*
X103743333Y-52501809D01*
X103743333Y-52501809D02*
X103838571Y-52549428D01*
X103838571Y-52549428D02*
X104219523Y-52549428D01*
X103219523Y-53025619D02*
X103219523Y-52025619D01*
X102648095Y-53025619D02*
X103076666Y-52454190D01*
X102648095Y-52025619D02*
X103219523Y-52597047D01*
X102219523Y-52644666D02*
X101457619Y-52644666D01*
X101838571Y-53025619D02*
X101838571Y-52263714D01*
X105219523Y-56218000D02*
X105076666Y-56265619D01*
X105076666Y-56265619D02*
X104838571Y-56265619D01*
X104838571Y-56265619D02*
X104743333Y-56218000D01*
X104743333Y-56218000D02*
X104695714Y-56170380D01*
X104695714Y-56170380D02*
X104648095Y-56075142D01*
X104648095Y-56075142D02*
X104648095Y-55979904D01*
X104648095Y-55979904D02*
X104695714Y-55884666D01*
X104695714Y-55884666D02*
X104743333Y-55837047D01*
X104743333Y-55837047D02*
X104838571Y-55789428D01*
X104838571Y-55789428D02*
X105029047Y-55741809D01*
X105029047Y-55741809D02*
X105124285Y-55694190D01*
X105124285Y-55694190D02*
X105171904Y-55646571D01*
X105171904Y-55646571D02*
X105219523Y-55551333D01*
X105219523Y-55551333D02*
X105219523Y-55456095D01*
X105219523Y-55456095D02*
X105171904Y-55360857D01*
X105171904Y-55360857D02*
X105124285Y-55313238D01*
X105124285Y-55313238D02*
X105029047Y-55265619D01*
X105029047Y-55265619D02*
X104790952Y-55265619D01*
X104790952Y-55265619D02*
X104648095Y-55313238D01*
X104219523Y-56265619D02*
X104219523Y-55265619D01*
X104219523Y-55265619D02*
X103838571Y-55265619D01*
X103838571Y-55265619D02*
X103743333Y-55313238D01*
X103743333Y-55313238D02*
X103695714Y-55360857D01*
X103695714Y-55360857D02*
X103648095Y-55456095D01*
X103648095Y-55456095D02*
X103648095Y-55598952D01*
X103648095Y-55598952D02*
X103695714Y-55694190D01*
X103695714Y-55694190D02*
X103743333Y-55741809D01*
X103743333Y-55741809D02*
X103838571Y-55789428D01*
X103838571Y-55789428D02*
X104219523Y-55789428D01*
X103219523Y-56265619D02*
X103219523Y-55265619D01*
X102648095Y-56265619D02*
X103076666Y-55694190D01*
X102648095Y-55265619D02*
X103219523Y-55837047D01*
X102219523Y-55884666D02*
X101457619Y-55884666D01*
X130111523Y-52739904D02*
X129635333Y-52739904D01*
X130206761Y-53025619D02*
X129873428Y-52025619D01*
X129873428Y-52025619D02*
X129540095Y-53025619D01*
X129206761Y-53025619D02*
X129206761Y-52025619D01*
X129206761Y-52025619D02*
X128873428Y-52739904D01*
X128873428Y-52739904D02*
X128540095Y-52025619D01*
X128540095Y-52025619D02*
X128540095Y-53025619D01*
X128063904Y-53025619D02*
X128063904Y-52025619D01*
X128063904Y-52025619D02*
X127682952Y-52025619D01*
X127682952Y-52025619D02*
X127587714Y-52073238D01*
X127587714Y-52073238D02*
X127540095Y-52120857D01*
X127540095Y-52120857D02*
X127492476Y-52216095D01*
X127492476Y-52216095D02*
X127492476Y-52358952D01*
X127492476Y-52358952D02*
X127540095Y-52454190D01*
X127540095Y-52454190D02*
X127587714Y-52501809D01*
X127587714Y-52501809D02*
X127682952Y-52549428D01*
X127682952Y-52549428D02*
X128063904Y-52549428D01*
X127063904Y-52644666D02*
X126302000Y-52644666D01*
X126682952Y-53025619D02*
X126682952Y-52263714D01*
X130111523Y-55979904D02*
X129635333Y-55979904D01*
X130206761Y-56265619D02*
X129873428Y-55265619D01*
X129873428Y-55265619D02*
X129540095Y-56265619D01*
X129206761Y-56265619D02*
X129206761Y-55265619D01*
X129206761Y-55265619D02*
X128873428Y-55979904D01*
X128873428Y-55979904D02*
X128540095Y-55265619D01*
X128540095Y-55265619D02*
X128540095Y-56265619D01*
X128063904Y-56265619D02*
X128063904Y-55265619D01*
X128063904Y-55265619D02*
X127682952Y-55265619D01*
X127682952Y-55265619D02*
X127587714Y-55313238D01*
X127587714Y-55313238D02*
X127540095Y-55360857D01*
X127540095Y-55360857D02*
X127492476Y-55456095D01*
X127492476Y-55456095D02*
X127492476Y-55598952D01*
X127492476Y-55598952D02*
X127540095Y-55694190D01*
X127540095Y-55694190D02*
X127587714Y-55741809D01*
X127587714Y-55741809D02*
X127682952Y-55789428D01*
X127682952Y-55789428D02*
X128063904Y-55789428D01*
X127063904Y-55884666D02*
X126302000Y-55884666D01*
D11*
X130498191Y-27467619D02*
X130498191Y-26467619D01*
X130498191Y-26467619D02*
X130260096Y-26467619D01*
X130260096Y-26467619D02*
X130117239Y-26515238D01*
X130117239Y-26515238D02*
X130022001Y-26610476D01*
X130022001Y-26610476D02*
X129974382Y-26705714D01*
X129974382Y-26705714D02*
X129926763Y-26896190D01*
X129926763Y-26896190D02*
X129926763Y-27039047D01*
X129926763Y-27039047D02*
X129974382Y-27229523D01*
X129974382Y-27229523D02*
X130022001Y-27324761D01*
X130022001Y-27324761D02*
X130117239Y-27420000D01*
X130117239Y-27420000D02*
X130260096Y-27467619D01*
X130260096Y-27467619D02*
X130498191Y-27467619D01*
X129117239Y-27420000D02*
X129212477Y-27467619D01*
X129212477Y-27467619D02*
X129402953Y-27467619D01*
X129402953Y-27467619D02*
X129498191Y-27420000D01*
X129498191Y-27420000D02*
X129545810Y-27324761D01*
X129545810Y-27324761D02*
X129545810Y-26943809D01*
X129545810Y-26943809D02*
X129498191Y-26848571D01*
X129498191Y-26848571D02*
X129402953Y-26800952D01*
X129402953Y-26800952D02*
X129212477Y-26800952D01*
X129212477Y-26800952D02*
X129117239Y-26848571D01*
X129117239Y-26848571D02*
X129069620Y-26943809D01*
X129069620Y-26943809D02*
X129069620Y-27039047D01*
X129069620Y-27039047D02*
X129545810Y-27134285D01*
X128688667Y-27420000D02*
X128593429Y-27467619D01*
X128593429Y-27467619D02*
X128402953Y-27467619D01*
X128402953Y-27467619D02*
X128307715Y-27420000D01*
X128307715Y-27420000D02*
X128260096Y-27324761D01*
X128260096Y-27324761D02*
X128260096Y-27277142D01*
X128260096Y-27277142D02*
X128307715Y-27181904D01*
X128307715Y-27181904D02*
X128402953Y-27134285D01*
X128402953Y-27134285D02*
X128545810Y-27134285D01*
X128545810Y-27134285D02*
X128641048Y-27086666D01*
X128641048Y-27086666D02*
X128688667Y-26991428D01*
X128688667Y-26991428D02*
X128688667Y-26943809D01*
X128688667Y-26943809D02*
X128641048Y-26848571D01*
X128641048Y-26848571D02*
X128545810Y-26800952D01*
X128545810Y-26800952D02*
X128402953Y-26800952D01*
X128402953Y-26800952D02*
X128307715Y-26848571D01*
X127831524Y-27467619D02*
X127831524Y-26800952D01*
X127831524Y-26467619D02*
X127879143Y-26515238D01*
X127879143Y-26515238D02*
X127831524Y-26562857D01*
X127831524Y-26562857D02*
X127783905Y-26515238D01*
X127783905Y-26515238D02*
X127831524Y-26467619D01*
X127831524Y-26467619D02*
X127831524Y-26562857D01*
X126926763Y-26800952D02*
X126926763Y-27610476D01*
X126926763Y-27610476D02*
X126974382Y-27705714D01*
X126974382Y-27705714D02*
X127022001Y-27753333D01*
X127022001Y-27753333D02*
X127117239Y-27800952D01*
X127117239Y-27800952D02*
X127260096Y-27800952D01*
X127260096Y-27800952D02*
X127355334Y-27753333D01*
X126926763Y-27420000D02*
X127022001Y-27467619D01*
X127022001Y-27467619D02*
X127212477Y-27467619D01*
X127212477Y-27467619D02*
X127307715Y-27420000D01*
X127307715Y-27420000D02*
X127355334Y-27372380D01*
X127355334Y-27372380D02*
X127402953Y-27277142D01*
X127402953Y-27277142D02*
X127402953Y-26991428D01*
X127402953Y-26991428D02*
X127355334Y-26896190D01*
X127355334Y-26896190D02*
X127307715Y-26848571D01*
X127307715Y-26848571D02*
X127212477Y-26800952D01*
X127212477Y-26800952D02*
X127022001Y-26800952D01*
X127022001Y-26800952D02*
X126926763Y-26848571D01*
X126450572Y-26800952D02*
X126450572Y-27467619D01*
X126450572Y-26896190D02*
X126402953Y-26848571D01*
X126402953Y-26848571D02*
X126307715Y-26800952D01*
X126307715Y-26800952D02*
X126164858Y-26800952D01*
X126164858Y-26800952D02*
X126069620Y-26848571D01*
X126069620Y-26848571D02*
X126022001Y-26943809D01*
X126022001Y-26943809D02*
X126022001Y-27467619D01*
X125164858Y-27420000D02*
X125260096Y-27467619D01*
X125260096Y-27467619D02*
X125450572Y-27467619D01*
X125450572Y-27467619D02*
X125545810Y-27420000D01*
X125545810Y-27420000D02*
X125593429Y-27324761D01*
X125593429Y-27324761D02*
X125593429Y-26943809D01*
X125593429Y-26943809D02*
X125545810Y-26848571D01*
X125545810Y-26848571D02*
X125450572Y-26800952D01*
X125450572Y-26800952D02*
X125260096Y-26800952D01*
X125260096Y-26800952D02*
X125164858Y-26848571D01*
X125164858Y-26848571D02*
X125117239Y-26943809D01*
X125117239Y-26943809D02*
X125117239Y-27039047D01*
X125117239Y-27039047D02*
X125593429Y-27134285D01*
X124260096Y-27467619D02*
X124260096Y-26467619D01*
X124260096Y-27420000D02*
X124355334Y-27467619D01*
X124355334Y-27467619D02*
X124545810Y-27467619D01*
X124545810Y-27467619D02*
X124641048Y-27420000D01*
X124641048Y-27420000D02*
X124688667Y-27372380D01*
X124688667Y-27372380D02*
X124736286Y-27277142D01*
X124736286Y-27277142D02*
X124736286Y-26991428D01*
X124736286Y-26991428D02*
X124688667Y-26896190D01*
X124688667Y-26896190D02*
X124641048Y-26848571D01*
X124641048Y-26848571D02*
X124545810Y-26800952D01*
X124545810Y-26800952D02*
X124355334Y-26800952D01*
X124355334Y-26800952D02*
X124260096Y-26848571D01*
X123022000Y-27467619D02*
X123022000Y-26800952D01*
X123022000Y-26467619D02*
X123069619Y-26515238D01*
X123069619Y-26515238D02*
X123022000Y-26562857D01*
X123022000Y-26562857D02*
X122974381Y-26515238D01*
X122974381Y-26515238D02*
X123022000Y-26467619D01*
X123022000Y-26467619D02*
X123022000Y-26562857D01*
X122545810Y-26800952D02*
X122545810Y-27467619D01*
X122545810Y-26896190D02*
X122498191Y-26848571D01*
X122498191Y-26848571D02*
X122402953Y-26800952D01*
X122402953Y-26800952D02*
X122260096Y-26800952D01*
X122260096Y-26800952D02*
X122164858Y-26848571D01*
X122164858Y-26848571D02*
X122117239Y-26943809D01*
X122117239Y-26943809D02*
X122117239Y-27467619D01*
X120307715Y-27372380D02*
X120355334Y-27420000D01*
X120355334Y-27420000D02*
X120498191Y-27467619D01*
X120498191Y-27467619D02*
X120593429Y-27467619D01*
X120593429Y-27467619D02*
X120736286Y-27420000D01*
X120736286Y-27420000D02*
X120831524Y-27324761D01*
X120831524Y-27324761D02*
X120879143Y-27229523D01*
X120879143Y-27229523D02*
X120926762Y-27039047D01*
X120926762Y-27039047D02*
X120926762Y-26896190D01*
X120926762Y-26896190D02*
X120879143Y-26705714D01*
X120879143Y-26705714D02*
X120831524Y-26610476D01*
X120831524Y-26610476D02*
X120736286Y-26515238D01*
X120736286Y-26515238D02*
X120593429Y-26467619D01*
X120593429Y-26467619D02*
X120498191Y-26467619D01*
X120498191Y-26467619D02*
X120355334Y-26515238D01*
X120355334Y-26515238D02*
X120307715Y-26562857D01*
X119450572Y-27467619D02*
X119450572Y-26943809D01*
X119450572Y-26943809D02*
X119498191Y-26848571D01*
X119498191Y-26848571D02*
X119593429Y-26800952D01*
X119593429Y-26800952D02*
X119783905Y-26800952D01*
X119783905Y-26800952D02*
X119879143Y-26848571D01*
X119450572Y-27420000D02*
X119545810Y-27467619D01*
X119545810Y-27467619D02*
X119783905Y-27467619D01*
X119783905Y-27467619D02*
X119879143Y-27420000D01*
X119879143Y-27420000D02*
X119926762Y-27324761D01*
X119926762Y-27324761D02*
X119926762Y-27229523D01*
X119926762Y-27229523D02*
X119879143Y-27134285D01*
X119879143Y-27134285D02*
X119783905Y-27086666D01*
X119783905Y-27086666D02*
X119545810Y-27086666D01*
X119545810Y-27086666D02*
X119450572Y-27039047D01*
X118974381Y-27467619D02*
X118974381Y-26800952D01*
X118974381Y-26896190D02*
X118926762Y-26848571D01*
X118926762Y-26848571D02*
X118831524Y-26800952D01*
X118831524Y-26800952D02*
X118688667Y-26800952D01*
X118688667Y-26800952D02*
X118593429Y-26848571D01*
X118593429Y-26848571D02*
X118545810Y-26943809D01*
X118545810Y-26943809D02*
X118545810Y-27467619D01*
X118545810Y-26943809D02*
X118498191Y-26848571D01*
X118498191Y-26848571D02*
X118402953Y-26800952D01*
X118402953Y-26800952D02*
X118260096Y-26800952D01*
X118260096Y-26800952D02*
X118164857Y-26848571D01*
X118164857Y-26848571D02*
X118117238Y-26943809D01*
X118117238Y-26943809D02*
X118117238Y-27467619D01*
X117641048Y-27467619D02*
X117641048Y-26467619D01*
X117641048Y-26848571D02*
X117545810Y-26800952D01*
X117545810Y-26800952D02*
X117355334Y-26800952D01*
X117355334Y-26800952D02*
X117260096Y-26848571D01*
X117260096Y-26848571D02*
X117212477Y-26896190D01*
X117212477Y-26896190D02*
X117164858Y-26991428D01*
X117164858Y-26991428D02*
X117164858Y-27277142D01*
X117164858Y-27277142D02*
X117212477Y-27372380D01*
X117212477Y-27372380D02*
X117260096Y-27420000D01*
X117260096Y-27420000D02*
X117355334Y-27467619D01*
X117355334Y-27467619D02*
X117545810Y-27467619D01*
X117545810Y-27467619D02*
X117641048Y-27420000D01*
X116736286Y-27467619D02*
X116736286Y-26800952D01*
X116736286Y-26991428D02*
X116688667Y-26896190D01*
X116688667Y-26896190D02*
X116641048Y-26848571D01*
X116641048Y-26848571D02*
X116545810Y-26800952D01*
X116545810Y-26800952D02*
X116450572Y-26800952D01*
X116117238Y-27467619D02*
X116117238Y-26800952D01*
X116117238Y-26467619D02*
X116164857Y-26515238D01*
X116164857Y-26515238D02*
X116117238Y-26562857D01*
X116117238Y-26562857D02*
X116069619Y-26515238D01*
X116069619Y-26515238D02*
X116117238Y-26467619D01*
X116117238Y-26467619D02*
X116117238Y-26562857D01*
X115212477Y-27467619D02*
X115212477Y-26467619D01*
X115212477Y-27420000D02*
X115307715Y-27467619D01*
X115307715Y-27467619D02*
X115498191Y-27467619D01*
X115498191Y-27467619D02*
X115593429Y-27420000D01*
X115593429Y-27420000D02*
X115641048Y-27372380D01*
X115641048Y-27372380D02*
X115688667Y-27277142D01*
X115688667Y-27277142D02*
X115688667Y-26991428D01*
X115688667Y-26991428D02*
X115641048Y-26896190D01*
X115641048Y-26896190D02*
X115593429Y-26848571D01*
X115593429Y-26848571D02*
X115498191Y-26800952D01*
X115498191Y-26800952D02*
X115307715Y-26800952D01*
X115307715Y-26800952D02*
X115212477Y-26848571D01*
X114307715Y-26800952D02*
X114307715Y-27610476D01*
X114307715Y-27610476D02*
X114355334Y-27705714D01*
X114355334Y-27705714D02*
X114402953Y-27753333D01*
X114402953Y-27753333D02*
X114498191Y-27800952D01*
X114498191Y-27800952D02*
X114641048Y-27800952D01*
X114641048Y-27800952D02*
X114736286Y-27753333D01*
X114307715Y-27420000D02*
X114402953Y-27467619D01*
X114402953Y-27467619D02*
X114593429Y-27467619D01*
X114593429Y-27467619D02*
X114688667Y-27420000D01*
X114688667Y-27420000D02*
X114736286Y-27372380D01*
X114736286Y-27372380D02*
X114783905Y-27277142D01*
X114783905Y-27277142D02*
X114783905Y-26991428D01*
X114783905Y-26991428D02*
X114736286Y-26896190D01*
X114736286Y-26896190D02*
X114688667Y-26848571D01*
X114688667Y-26848571D02*
X114593429Y-26800952D01*
X114593429Y-26800952D02*
X114402953Y-26800952D01*
X114402953Y-26800952D02*
X114307715Y-26848571D01*
X113450572Y-27420000D02*
X113545810Y-27467619D01*
X113545810Y-27467619D02*
X113736286Y-27467619D01*
X113736286Y-27467619D02*
X113831524Y-27420000D01*
X113831524Y-27420000D02*
X113879143Y-27324761D01*
X113879143Y-27324761D02*
X113879143Y-26943809D01*
X113879143Y-26943809D02*
X113831524Y-26848571D01*
X113831524Y-26848571D02*
X113736286Y-26800952D01*
X113736286Y-26800952D02*
X113545810Y-26800952D01*
X113545810Y-26800952D02*
X113450572Y-26848571D01*
X113450572Y-26848571D02*
X113402953Y-26943809D01*
X113402953Y-26943809D02*
X113402953Y-27039047D01*
X113402953Y-27039047D02*
X113879143Y-27134285D01*
X112926762Y-27420000D02*
X112926762Y-27467619D01*
X112926762Y-27467619D02*
X112974381Y-27562857D01*
X112974381Y-27562857D02*
X113022000Y-27610476D01*
X112974381Y-26848571D02*
X112926762Y-26896190D01*
X112926762Y-26896190D02*
X112974381Y-26943809D01*
X112974381Y-26943809D02*
X113022000Y-26896190D01*
X113022000Y-26896190D02*
X112974381Y-26848571D01*
X112974381Y-26848571D02*
X112974381Y-26943809D01*
X111307715Y-27467619D02*
X111307715Y-26943809D01*
X111307715Y-26943809D02*
X111355334Y-26848571D01*
X111355334Y-26848571D02*
X111450572Y-26800952D01*
X111450572Y-26800952D02*
X111641048Y-26800952D01*
X111641048Y-26800952D02*
X111736286Y-26848571D01*
X111307715Y-27420000D02*
X111402953Y-27467619D01*
X111402953Y-27467619D02*
X111641048Y-27467619D01*
X111641048Y-27467619D02*
X111736286Y-27420000D01*
X111736286Y-27420000D02*
X111783905Y-27324761D01*
X111783905Y-27324761D02*
X111783905Y-27229523D01*
X111783905Y-27229523D02*
X111736286Y-27134285D01*
X111736286Y-27134285D02*
X111641048Y-27086666D01*
X111641048Y-27086666D02*
X111402953Y-27086666D01*
X111402953Y-27086666D02*
X111307715Y-27039047D01*
X110879143Y-27420000D02*
X110783905Y-27467619D01*
X110783905Y-27467619D02*
X110593429Y-27467619D01*
X110593429Y-27467619D02*
X110498191Y-27420000D01*
X110498191Y-27420000D02*
X110450572Y-27324761D01*
X110450572Y-27324761D02*
X110450572Y-27277142D01*
X110450572Y-27277142D02*
X110498191Y-27181904D01*
X110498191Y-27181904D02*
X110593429Y-27134285D01*
X110593429Y-27134285D02*
X110736286Y-27134285D01*
X110736286Y-27134285D02*
X110831524Y-27086666D01*
X110831524Y-27086666D02*
X110879143Y-26991428D01*
X110879143Y-26991428D02*
X110879143Y-26943809D01*
X110879143Y-26943809D02*
X110831524Y-26848571D01*
X110831524Y-26848571D02*
X110736286Y-26800952D01*
X110736286Y-26800952D02*
X110593429Y-26800952D01*
X110593429Y-26800952D02*
X110498191Y-26848571D01*
X110069619Y-27420000D02*
X109974381Y-27467619D01*
X109974381Y-27467619D02*
X109783905Y-27467619D01*
X109783905Y-27467619D02*
X109688667Y-27420000D01*
X109688667Y-27420000D02*
X109641048Y-27324761D01*
X109641048Y-27324761D02*
X109641048Y-27277142D01*
X109641048Y-27277142D02*
X109688667Y-27181904D01*
X109688667Y-27181904D02*
X109783905Y-27134285D01*
X109783905Y-27134285D02*
X109926762Y-27134285D01*
X109926762Y-27134285D02*
X110022000Y-27086666D01*
X110022000Y-27086666D02*
X110069619Y-26991428D01*
X110069619Y-26991428D02*
X110069619Y-26943809D01*
X110069619Y-26943809D02*
X110022000Y-26848571D01*
X110022000Y-26848571D02*
X109926762Y-26800952D01*
X109926762Y-26800952D02*
X109783905Y-26800952D01*
X109783905Y-26800952D02*
X109688667Y-26848571D01*
X108831524Y-27420000D02*
X108926762Y-27467619D01*
X108926762Y-27467619D02*
X109117238Y-27467619D01*
X109117238Y-27467619D02*
X109212476Y-27420000D01*
X109212476Y-27420000D02*
X109260095Y-27324761D01*
X109260095Y-27324761D02*
X109260095Y-26943809D01*
X109260095Y-26943809D02*
X109212476Y-26848571D01*
X109212476Y-26848571D02*
X109117238Y-26800952D01*
X109117238Y-26800952D02*
X108926762Y-26800952D01*
X108926762Y-26800952D02*
X108831524Y-26848571D01*
X108831524Y-26848571D02*
X108783905Y-26943809D01*
X108783905Y-26943809D02*
X108783905Y-27039047D01*
X108783905Y-27039047D02*
X109260095Y-27134285D01*
X108355333Y-27467619D02*
X108355333Y-26800952D01*
X108355333Y-26896190D02*
X108307714Y-26848571D01*
X108307714Y-26848571D02*
X108212476Y-26800952D01*
X108212476Y-26800952D02*
X108069619Y-26800952D01*
X108069619Y-26800952D02*
X107974381Y-26848571D01*
X107974381Y-26848571D02*
X107926762Y-26943809D01*
X107926762Y-26943809D02*
X107926762Y-27467619D01*
X107926762Y-26943809D02*
X107879143Y-26848571D01*
X107879143Y-26848571D02*
X107783905Y-26800952D01*
X107783905Y-26800952D02*
X107641048Y-26800952D01*
X107641048Y-26800952D02*
X107545809Y-26848571D01*
X107545809Y-26848571D02*
X107498190Y-26943809D01*
X107498190Y-26943809D02*
X107498190Y-27467619D01*
X107022000Y-27467619D02*
X107022000Y-26467619D01*
X107022000Y-26848571D02*
X106926762Y-26800952D01*
X106926762Y-26800952D02*
X106736286Y-26800952D01*
X106736286Y-26800952D02*
X106641048Y-26848571D01*
X106641048Y-26848571D02*
X106593429Y-26896190D01*
X106593429Y-26896190D02*
X106545810Y-26991428D01*
X106545810Y-26991428D02*
X106545810Y-27277142D01*
X106545810Y-27277142D02*
X106593429Y-27372380D01*
X106593429Y-27372380D02*
X106641048Y-27420000D01*
X106641048Y-27420000D02*
X106736286Y-27467619D01*
X106736286Y-27467619D02*
X106926762Y-27467619D01*
X106926762Y-27467619D02*
X107022000Y-27420000D01*
X105974381Y-27467619D02*
X106069619Y-27420000D01*
X106069619Y-27420000D02*
X106117238Y-27324761D01*
X106117238Y-27324761D02*
X106117238Y-26467619D01*
X105212476Y-27420000D02*
X105307714Y-27467619D01*
X105307714Y-27467619D02*
X105498190Y-27467619D01*
X105498190Y-27467619D02*
X105593428Y-27420000D01*
X105593428Y-27420000D02*
X105641047Y-27324761D01*
X105641047Y-27324761D02*
X105641047Y-26943809D01*
X105641047Y-26943809D02*
X105593428Y-26848571D01*
X105593428Y-26848571D02*
X105498190Y-26800952D01*
X105498190Y-26800952D02*
X105307714Y-26800952D01*
X105307714Y-26800952D02*
X105212476Y-26848571D01*
X105212476Y-26848571D02*
X105164857Y-26943809D01*
X105164857Y-26943809D02*
X105164857Y-27039047D01*
X105164857Y-27039047D02*
X105641047Y-27134285D01*
X104307714Y-27467619D02*
X104307714Y-26467619D01*
X104307714Y-27420000D02*
X104402952Y-27467619D01*
X104402952Y-27467619D02*
X104593428Y-27467619D01*
X104593428Y-27467619D02*
X104688666Y-27420000D01*
X104688666Y-27420000D02*
X104736285Y-27372380D01*
X104736285Y-27372380D02*
X104783904Y-27277142D01*
X104783904Y-27277142D02*
X104783904Y-26991428D01*
X104783904Y-26991428D02*
X104736285Y-26896190D01*
X104736285Y-26896190D02*
X104688666Y-26848571D01*
X104688666Y-26848571D02*
X104593428Y-26800952D01*
X104593428Y-26800952D02*
X104402952Y-26800952D01*
X104402952Y-26800952D02*
X104307714Y-26848571D01*
X103069618Y-27467619D02*
X103069618Y-26800952D01*
X103069618Y-26467619D02*
X103117237Y-26515238D01*
X103117237Y-26515238D02*
X103069618Y-26562857D01*
X103069618Y-26562857D02*
X103021999Y-26515238D01*
X103021999Y-26515238D02*
X103069618Y-26467619D01*
X103069618Y-26467619D02*
X103069618Y-26562857D01*
X102593428Y-26800952D02*
X102593428Y-27467619D01*
X102593428Y-26896190D02*
X102545809Y-26848571D01*
X102545809Y-26848571D02*
X102450571Y-26800952D01*
X102450571Y-26800952D02*
X102307714Y-26800952D01*
X102307714Y-26800952D02*
X102212476Y-26848571D01*
X102212476Y-26848571D02*
X102164857Y-26943809D01*
X102164857Y-26943809D02*
X102164857Y-27467619D01*
X100498190Y-27467619D02*
X100498190Y-26943809D01*
X100498190Y-26943809D02*
X100545809Y-26848571D01*
X100545809Y-26848571D02*
X100641047Y-26800952D01*
X100641047Y-26800952D02*
X100831523Y-26800952D01*
X100831523Y-26800952D02*
X100926761Y-26848571D01*
X100498190Y-27420000D02*
X100593428Y-27467619D01*
X100593428Y-27467619D02*
X100831523Y-27467619D01*
X100831523Y-27467619D02*
X100926761Y-27420000D01*
X100926761Y-27420000D02*
X100974380Y-27324761D01*
X100974380Y-27324761D02*
X100974380Y-27229523D01*
X100974380Y-27229523D02*
X100926761Y-27134285D01*
X100926761Y-27134285D02*
X100831523Y-27086666D01*
X100831523Y-27086666D02*
X100593428Y-27086666D01*
X100593428Y-27086666D02*
X100498190Y-27039047D01*
X98736285Y-26515238D02*
X98831523Y-26467619D01*
X98831523Y-26467619D02*
X98974380Y-26467619D01*
X98974380Y-26467619D02*
X99117237Y-26515238D01*
X99117237Y-26515238D02*
X99212475Y-26610476D01*
X99212475Y-26610476D02*
X99260094Y-26705714D01*
X99260094Y-26705714D02*
X99307713Y-26896190D01*
X99307713Y-26896190D02*
X99307713Y-27039047D01*
X99307713Y-27039047D02*
X99260094Y-27229523D01*
X99260094Y-27229523D02*
X99212475Y-27324761D01*
X99212475Y-27324761D02*
X99117237Y-27420000D01*
X99117237Y-27420000D02*
X98974380Y-27467619D01*
X98974380Y-27467619D02*
X98879142Y-27467619D01*
X98879142Y-27467619D02*
X98736285Y-27420000D01*
X98736285Y-27420000D02*
X98688666Y-27372380D01*
X98688666Y-27372380D02*
X98688666Y-27039047D01*
X98688666Y-27039047D02*
X98879142Y-27039047D01*
X97831523Y-27467619D02*
X97831523Y-26943809D01*
X97831523Y-26943809D02*
X97879142Y-26848571D01*
X97879142Y-26848571D02*
X97974380Y-26800952D01*
X97974380Y-26800952D02*
X98164856Y-26800952D01*
X98164856Y-26800952D02*
X98260094Y-26848571D01*
X97831523Y-27420000D02*
X97926761Y-27467619D01*
X97926761Y-27467619D02*
X98164856Y-27467619D01*
X98164856Y-27467619D02*
X98260094Y-27420000D01*
X98260094Y-27420000D02*
X98307713Y-27324761D01*
X98307713Y-27324761D02*
X98307713Y-27229523D01*
X98307713Y-27229523D02*
X98260094Y-27134285D01*
X98260094Y-27134285D02*
X98164856Y-27086666D01*
X98164856Y-27086666D02*
X97926761Y-27086666D01*
X97926761Y-27086666D02*
X97831523Y-27039047D01*
X97355332Y-27467619D02*
X97355332Y-26800952D01*
X97355332Y-26991428D02*
X97307713Y-26896190D01*
X97307713Y-26896190D02*
X97260094Y-26848571D01*
X97260094Y-26848571D02*
X97164856Y-26800952D01*
X97164856Y-26800952D02*
X97069618Y-26800952D01*
X96307713Y-27467619D02*
X96307713Y-26943809D01*
X96307713Y-26943809D02*
X96355332Y-26848571D01*
X96355332Y-26848571D02*
X96450570Y-26800952D01*
X96450570Y-26800952D02*
X96641046Y-26800952D01*
X96641046Y-26800952D02*
X96736284Y-26848571D01*
X96307713Y-27420000D02*
X96402951Y-27467619D01*
X96402951Y-27467619D02*
X96641046Y-27467619D01*
X96641046Y-27467619D02*
X96736284Y-27420000D01*
X96736284Y-27420000D02*
X96783903Y-27324761D01*
X96783903Y-27324761D02*
X96783903Y-27229523D01*
X96783903Y-27229523D02*
X96736284Y-27134285D01*
X96736284Y-27134285D02*
X96641046Y-27086666D01*
X96641046Y-27086666D02*
X96402951Y-27086666D01*
X96402951Y-27086666D02*
X96307713Y-27039047D01*
X95402951Y-26800952D02*
X95402951Y-27610476D01*
X95402951Y-27610476D02*
X95450570Y-27705714D01*
X95450570Y-27705714D02*
X95498189Y-27753333D01*
X95498189Y-27753333D02*
X95593427Y-27800952D01*
X95593427Y-27800952D02*
X95736284Y-27800952D01*
X95736284Y-27800952D02*
X95831522Y-27753333D01*
X95402951Y-27420000D02*
X95498189Y-27467619D01*
X95498189Y-27467619D02*
X95688665Y-27467619D01*
X95688665Y-27467619D02*
X95783903Y-27420000D01*
X95783903Y-27420000D02*
X95831522Y-27372380D01*
X95831522Y-27372380D02*
X95879141Y-27277142D01*
X95879141Y-27277142D02*
X95879141Y-26991428D01*
X95879141Y-26991428D02*
X95831522Y-26896190D01*
X95831522Y-26896190D02*
X95783903Y-26848571D01*
X95783903Y-26848571D02*
X95688665Y-26800952D01*
X95688665Y-26800952D02*
X95498189Y-26800952D01*
X95498189Y-26800952D02*
X95402951Y-26848571D01*
X94545808Y-27420000D02*
X94641046Y-27467619D01*
X94641046Y-27467619D02*
X94831522Y-27467619D01*
X94831522Y-27467619D02*
X94926760Y-27420000D01*
X94926760Y-27420000D02*
X94974379Y-27324761D01*
X94974379Y-27324761D02*
X94974379Y-26943809D01*
X94974379Y-26943809D02*
X94926760Y-26848571D01*
X94926760Y-26848571D02*
X94831522Y-26800952D01*
X94831522Y-26800952D02*
X94641046Y-26800952D01*
X94641046Y-26800952D02*
X94545808Y-26848571D01*
X94545808Y-26848571D02*
X94498189Y-26943809D01*
X94498189Y-26943809D02*
X94498189Y-27039047D01*
X94498189Y-27039047D02*
X94974379Y-27134285D01*
X113879143Y-29087619D02*
X114212476Y-28611428D01*
X114450571Y-29087619D02*
X114450571Y-28087619D01*
X114450571Y-28087619D02*
X114069619Y-28087619D01*
X114069619Y-28087619D02*
X113974381Y-28135238D01*
X113974381Y-28135238D02*
X113926762Y-28182857D01*
X113926762Y-28182857D02*
X113879143Y-28278095D01*
X113879143Y-28278095D02*
X113879143Y-28420952D01*
X113879143Y-28420952D02*
X113926762Y-28516190D01*
X113926762Y-28516190D02*
X113974381Y-28563809D01*
X113974381Y-28563809D02*
X114069619Y-28611428D01*
X114069619Y-28611428D02*
X114450571Y-28611428D01*
X113069619Y-29040000D02*
X113164857Y-29087619D01*
X113164857Y-29087619D02*
X113355333Y-29087619D01*
X113355333Y-29087619D02*
X113450571Y-29040000D01*
X113450571Y-29040000D02*
X113498190Y-28944761D01*
X113498190Y-28944761D02*
X113498190Y-28563809D01*
X113498190Y-28563809D02*
X113450571Y-28468571D01*
X113450571Y-28468571D02*
X113355333Y-28420952D01*
X113355333Y-28420952D02*
X113164857Y-28420952D01*
X113164857Y-28420952D02*
X113069619Y-28468571D01*
X113069619Y-28468571D02*
X113022000Y-28563809D01*
X113022000Y-28563809D02*
X113022000Y-28659047D01*
X113022000Y-28659047D02*
X113498190Y-28754285D01*
X112688666Y-28420952D02*
X112450571Y-29087619D01*
X112450571Y-29087619D02*
X112212476Y-28420952D01*
X111117237Y-28182857D02*
X111069618Y-28135238D01*
X111069618Y-28135238D02*
X110974380Y-28087619D01*
X110974380Y-28087619D02*
X110736285Y-28087619D01*
X110736285Y-28087619D02*
X110641047Y-28135238D01*
X110641047Y-28135238D02*
X110593428Y-28182857D01*
X110593428Y-28182857D02*
X110545809Y-28278095D01*
X110545809Y-28278095D02*
X110545809Y-28373333D01*
X110545809Y-28373333D02*
X110593428Y-28516190D01*
X110593428Y-28516190D02*
X111164856Y-29087619D01*
X111164856Y-29087619D02*
X110545809Y-29087619D01*
%LPC*%
D12*
%TO.C,J2*%
X138684000Y-50438000D03*
X138684000Y-66668000D03*
X145034000Y-50438000D03*
D13*
X145000000Y-61000000D03*
D12*
X145034000Y-66668000D03*
X132334000Y-50438000D03*
D14*
X145000000Y-55920000D03*
D12*
X132334000Y-66668000D03*
%TD*%
%TO.C,J1*%
X86835000Y-66730000D03*
X86835000Y-50500000D03*
X80485000Y-66730000D03*
D13*
X80519000Y-56168000D03*
D12*
X80485000Y-50500000D03*
X93185000Y-66730000D03*
D14*
X80519000Y-61248000D03*
D12*
X93185000Y-50500000D03*
%TD*%
D15*
%TO.C,J6*%
X139700000Y-34165000D03*
D16*
X139700000Y-29845000D03*
X143430000Y-36325000D03*
X135970000Y-36325000D03*
%TD*%
D15*
%TO.C,J3*%
X121300396Y-34210000D03*
D16*
X121300396Y-29890000D03*
X125030396Y-36370000D03*
X117570396Y-36370000D03*
%TD*%
D15*
%TO.C,J5*%
X102900793Y-34165000D03*
D16*
X102900793Y-29845000D03*
X106630793Y-36325000D03*
X99170793Y-36325000D03*
%TD*%
D17*
%TO.C,R4*%
X106000000Y-62000000D03*
D18*
X118700000Y-62000000D03*
%TD*%
D15*
%TO.C,J4*%
X84455000Y-34165000D03*
D16*
X84455000Y-29845000D03*
X88185000Y-36325000D03*
X80725000Y-36325000D03*
%TD*%
M02*
