%TF.GenerationSoftware,KiCad,Pcbnew,7.0.1*%
%TF.CreationDate,2023-08-03T02:37:16+01:00*%
%TF.ProjectId,QA403 Impedance Fixture,51413430-3320-4496-9d70-6564616e6365,rev?*%
%TF.SameCoordinates,Original*%
%TF.FileFunction,Copper,L1,Top*%
%TF.FilePolarity,Positive*%
%FSLAX46Y46*%
G04 Gerber Fmt 4.6, Leading zero omitted, Abs format (unit mm)*
G04 Created by KiCad (PCBNEW 7.0.1) date 2023-08-03 02:37:16*
%MOMM*%
%LPD*%
G01*
G04 APERTURE LIST*
G04 Aperture macros list*
%AMRoundRect*
0 Rectangle with rounded corners*
0 $1 Rounding radius*
0 $2 $3 $4 $5 $6 $7 $8 $9 X,Y pos of 4 corners*
0 Add a 4 corners polygon primitive as box body*
4,1,4,$2,$3,$4,$5,$6,$7,$8,$9,$2,$3,0*
0 Add four circle primitives for the rounded corners*
1,1,$1+$1,$2,$3*
1,1,$1+$1,$4,$5*
1,1,$1+$1,$6,$7*
1,1,$1+$1,$8,$9*
0 Add four rect primitives between the rounded corners*
20,1,$1+$1,$2,$3,$4,$5,0*
20,1,$1+$1,$4,$5,$6,$7,0*
20,1,$1+$1,$6,$7,$8,$9,0*
20,1,$1+$1,$8,$9,$2,$3,0*%
G04 Aperture macros list end*
%TA.AperFunction,ComponentPad*%
%ADD10C,3.000000*%
%TD*%
%TA.AperFunction,ComponentPad*%
%ADD11R,2.600000X2.600000*%
%TD*%
%TA.AperFunction,ComponentPad*%
%ADD12C,2.600000*%
%TD*%
%TA.AperFunction,ComponentPad*%
%ADD13C,1.605000*%
%TD*%
%TA.AperFunction,ComponentPad*%
%ADD14C,2.595000*%
%TD*%
%TA.AperFunction,SMDPad,CuDef*%
%ADD15RoundRect,0.250000X-0.350000X-0.450000X0.350000X-0.450000X0.350000X0.450000X-0.350000X0.450000X0*%
%TD*%
%TA.AperFunction,SMDPad,CuDef*%
%ADD16RoundRect,0.249999X-0.450001X-1.075001X0.450001X-1.075001X0.450001X1.075001X-0.450001X1.075001X0*%
%TD*%
%TA.AperFunction,ComponentPad*%
%ADD17C,1.600000*%
%TD*%
%TA.AperFunction,ComponentPad*%
%ADD18O,1.600000X1.600000*%
%TD*%
%TA.AperFunction,SMDPad,CuDef*%
%ADD19RoundRect,0.250000X-0.400000X-0.625000X0.400000X-0.625000X0.400000X0.625000X-0.400000X0.625000X0*%
%TD*%
%TA.AperFunction,Conductor*%
%ADD20C,1.600000*%
%TD*%
%TA.AperFunction,Conductor*%
%ADD21C,0.500000*%
%TD*%
%TA.AperFunction,Conductor*%
%ADD22C,1.800000*%
%TD*%
G04 APERTURE END LIST*
D10*
%TO.P,J2,R*%
%TO.N,/COM*%
X138684000Y-50438000D03*
%TO.P,J2,RN*%
X138684000Y-66668000D03*
%TO.P,J2,S*%
X145034000Y-50438000D03*
D11*
%TO.P,J2,S2*%
X145000000Y-61000000D03*
D10*
%TO.P,J2,SN*%
X145034000Y-66668000D03*
%TO.P,J2,T*%
%TO.N,/B*%
X132334000Y-50438000D03*
D12*
%TO.P,J2,T2*%
X145000000Y-55920000D03*
D10*
%TO.P,J2,TN*%
X132334000Y-66668000D03*
%TD*%
%TO.P,J1,R*%
%TO.N,/COM*%
X86835000Y-66730000D03*
%TO.P,J1,RN*%
X86835000Y-50500000D03*
%TO.P,J1,S*%
X80485000Y-66730000D03*
D11*
%TO.P,J1,S2*%
X80519000Y-56168000D03*
D10*
%TO.P,J1,SN*%
X80485000Y-50500000D03*
%TO.P,J1,T*%
%TO.N,/A*%
X93185000Y-66730000D03*
D12*
%TO.P,J1,T2*%
X80519000Y-61248000D03*
D10*
%TO.P,J1,TN*%
X93185000Y-50500000D03*
%TD*%
D13*
%TO.P,J6,1,In*%
%TO.N,/B*%
X139700000Y-34165000D03*
D14*
%TO.P,J6,2,Ext*%
%TO.N,GNDA*%
X139700000Y-29845000D03*
%TO.P,J6,3,Ext*%
X143430000Y-36325000D03*
%TO.P,J6,4,Ext*%
X135970000Y-36325000D03*
%TD*%
D13*
%TO.P,J3,1,In*%
%TO.N,/B*%
X121300396Y-34210000D03*
D14*
%TO.P,J3,2,Ext*%
%TO.N,GNDA*%
X121300396Y-29890000D03*
%TO.P,J3,3,Ext*%
X125030396Y-36370000D03*
%TO.P,J3,4,Ext*%
X117570396Y-36370000D03*
%TD*%
D13*
%TO.P,J5,1,In*%
%TO.N,/A*%
X102900793Y-34165000D03*
D14*
%TO.P,J5,2,Ext*%
%TO.N,GNDA*%
X102900793Y-29845000D03*
%TO.P,J5,3,Ext*%
X106630793Y-36325000D03*
%TO.P,J5,4,Ext*%
X99170793Y-36325000D03*
%TD*%
D15*
%TO.P,R3,1*%
%TO.N,/A*%
X111252000Y-57912000D03*
%TO.P,R3,2*%
%TO.N,/B*%
X113252000Y-57912000D03*
%TD*%
D16*
%TO.P,R1,1*%
%TO.N,/A*%
X109852000Y-49896000D03*
%TO.P,R1,2*%
%TO.N,/B*%
X114652000Y-49896000D03*
%TD*%
D17*
%TO.P,R4,1*%
%TO.N,/A*%
X106000000Y-62000000D03*
D18*
%TO.P,R4,2*%
%TO.N,/B*%
X118700000Y-62000000D03*
%TD*%
D13*
%TO.P,J4,1,In*%
%TO.N,/COM*%
X84455000Y-34165000D03*
D14*
%TO.P,J4,2,Ext*%
%TO.N,GNDA*%
X84455000Y-29845000D03*
%TO.P,J4,3,Ext*%
X88185000Y-36325000D03*
%TO.P,J4,4,Ext*%
X80725000Y-36325000D03*
%TD*%
D19*
%TO.P,R2,1*%
%TO.N,/A*%
X110702000Y-54356000D03*
%TO.P,R2,2*%
%TO.N,/B*%
X113802000Y-54356000D03*
%TD*%
D20*
%TO.N,/A*%
X102900829Y-41702152D02*
G75*
G03*
X103779473Y-43823473I2999971J-48D01*
G01*
X92750000Y-66730000D02*
X92750000Y-66750000D01*
X92750000Y-66750000D02*
X93000000Y-67000000D01*
X103779473Y-43823473D02*
X109852000Y-49896000D01*
D21*
%TO.N,/COM*%
X86400000Y-50500000D02*
X86835000Y-50500000D01*
D22*
X86400000Y-66730000D02*
X85566000Y-66730000D01*
D20*
%TO.N,/A*%
X102900793Y-34165000D02*
X102900793Y-41702152D01*
%TD*%
%TA.AperFunction,Conductor*%
%TO.N,/COM*%
G36*
X147633533Y-25500382D02*
G01*
X147671948Y-25503405D01*
X147853606Y-25517701D01*
X147872816Y-25520744D01*
X148082722Y-25571138D01*
X148101214Y-25577146D01*
X148260399Y-25643083D01*
X148300650Y-25659756D01*
X148317987Y-25668590D01*
X148502035Y-25781375D01*
X148517776Y-25792811D01*
X148685638Y-25936178D01*
X148692788Y-25942788D01*
X149057211Y-26307211D01*
X149063821Y-26314361D01*
X149207188Y-26482223D01*
X149218624Y-26497964D01*
X149331409Y-26682012D01*
X149340243Y-26699349D01*
X149422850Y-26898778D01*
X149428863Y-26917284D01*
X149479254Y-27127178D01*
X149482298Y-27146396D01*
X149499618Y-27366466D01*
X149500000Y-27376195D01*
X149500000Y-66373805D01*
X149499618Y-66383534D01*
X149482298Y-66603603D01*
X149479254Y-66622821D01*
X149428863Y-66832715D01*
X149422850Y-66851221D01*
X149340243Y-67050650D01*
X149331409Y-67067987D01*
X149218624Y-67252035D01*
X149207188Y-67267776D01*
X149063821Y-67435638D01*
X149057211Y-67442788D01*
X148442788Y-68057211D01*
X148435638Y-68063821D01*
X148267776Y-68207188D01*
X148252035Y-68218624D01*
X148067987Y-68331409D01*
X148050650Y-68340243D01*
X147851221Y-68422850D01*
X147832715Y-68428863D01*
X147622821Y-68479254D01*
X147603603Y-68482298D01*
X147383534Y-68499618D01*
X147373805Y-68500000D01*
X146296645Y-68500000D01*
X146237218Y-68484832D01*
X146192330Y-68443040D01*
X146172961Y-68384847D01*
X146183850Y-68324489D01*
X146222334Y-68276733D01*
X146260562Y-68248115D01*
X145034001Y-67021553D01*
X145034000Y-67021553D01*
X143807436Y-68248115D01*
X143845665Y-68276733D01*
X143884149Y-68324489D01*
X143895038Y-68384847D01*
X143875669Y-68443040D01*
X143830781Y-68484832D01*
X143771354Y-68500000D01*
X139946645Y-68500000D01*
X139887218Y-68484832D01*
X139842330Y-68443040D01*
X139822961Y-68384847D01*
X139833850Y-68324489D01*
X139872334Y-68276733D01*
X139910562Y-68248115D01*
X138684001Y-67021553D01*
X138684000Y-67021553D01*
X137457436Y-68248115D01*
X137495665Y-68276733D01*
X137534149Y-68324489D01*
X137545038Y-68384847D01*
X137525669Y-68443040D01*
X137480781Y-68484832D01*
X137421354Y-68500000D01*
X135640032Y-68500000D01*
X135576440Y-68482452D01*
X135530846Y-68434775D01*
X135516156Y-68370463D01*
X135536526Y-68307718D01*
X135577675Y-68245340D01*
X135614731Y-68189170D01*
X135636432Y-68153089D01*
X135646323Y-68134977D01*
X135664944Y-68097222D01*
X135757570Y-67887866D01*
X135772987Y-67848687D01*
X135779737Y-67829186D01*
X135791838Y-67788867D01*
X135798035Y-67764593D01*
X135848455Y-67567071D01*
X135848459Y-67567056D01*
X135857163Y-67525874D01*
X135859002Y-67514939D01*
X135860585Y-67505530D01*
X135861311Y-67499750D01*
X135865835Y-67463742D01*
X135885317Y-67230436D01*
X135886632Y-67209417D01*
X135887062Y-67199098D01*
X135887500Y-67178052D01*
X135887500Y-66667999D01*
X136678890Y-66667999D01*
X136699300Y-66953357D01*
X136760111Y-67232902D01*
X136860088Y-67500952D01*
X136997193Y-67752042D01*
X137103883Y-67894562D01*
X138330446Y-66668001D01*
X138330446Y-66668000D01*
X139037553Y-66668000D01*
X140264115Y-67894562D01*
X140370806Y-67752041D01*
X140507911Y-67500952D01*
X140607888Y-67232902D01*
X140668699Y-66953357D01*
X140689109Y-66667999D01*
X143028890Y-66667999D01*
X143049300Y-66953357D01*
X143110111Y-67232902D01*
X143210088Y-67500952D01*
X143347193Y-67752042D01*
X143453883Y-67894562D01*
X144680446Y-66668001D01*
X144680446Y-66668000D01*
X145387553Y-66668000D01*
X146614115Y-67894562D01*
X146720806Y-67752041D01*
X146857911Y-67500952D01*
X146957888Y-67232902D01*
X147018699Y-66953357D01*
X147039109Y-66667999D01*
X147018699Y-66382642D01*
X146957888Y-66103097D01*
X146857911Y-65835047D01*
X146720806Y-65583958D01*
X146614115Y-65441436D01*
X145387553Y-66668000D01*
X144680446Y-66668000D01*
X143453883Y-65441436D01*
X143453882Y-65441437D01*
X143347195Y-65583954D01*
X143210088Y-65835047D01*
X143110111Y-66103097D01*
X143049300Y-66382642D01*
X143028890Y-66667999D01*
X140689109Y-66667999D01*
X140668699Y-66382642D01*
X140607888Y-66103097D01*
X140507911Y-65835047D01*
X140370806Y-65583958D01*
X140264115Y-65441436D01*
X139037553Y-66668000D01*
X138330446Y-66668000D01*
X137103883Y-65441436D01*
X137103882Y-65441437D01*
X136997195Y-65583954D01*
X136860088Y-65835047D01*
X136760111Y-66103097D01*
X136699300Y-66382642D01*
X136678890Y-66667999D01*
X135887500Y-66667999D01*
X135887500Y-65087883D01*
X137457436Y-65087883D01*
X138684000Y-66314446D01*
X138684001Y-66314446D01*
X139910562Y-65087883D01*
X143807436Y-65087883D01*
X145034000Y-66314446D01*
X145034001Y-66314446D01*
X146260562Y-65087883D01*
X146118042Y-64981193D01*
X145866952Y-64844088D01*
X145598902Y-64744111D01*
X145319357Y-64683300D01*
X145034000Y-64662890D01*
X144748642Y-64683300D01*
X144469097Y-64744111D01*
X144201047Y-64844088D01*
X143949954Y-64981195D01*
X143807437Y-65087882D01*
X143807436Y-65087883D01*
X139910562Y-65087883D01*
X139768042Y-64981193D01*
X139516952Y-64844088D01*
X139248902Y-64744111D01*
X138969357Y-64683300D01*
X138684000Y-64662890D01*
X138398642Y-64683300D01*
X138119097Y-64744111D01*
X137851047Y-64844088D01*
X137599954Y-64981195D01*
X137457437Y-65087882D01*
X137457436Y-65087883D01*
X135887500Y-65087883D01*
X135887500Y-61250000D01*
X143200000Y-61250000D01*
X143200000Y-62347824D01*
X143206402Y-62407375D01*
X143256647Y-62542089D01*
X143342811Y-62657188D01*
X143457910Y-62743352D01*
X143592624Y-62793597D01*
X143652176Y-62800000D01*
X144750000Y-62800000D01*
X144750000Y-61250000D01*
X145250000Y-61250000D01*
X145250000Y-62800000D01*
X146347824Y-62800000D01*
X146407375Y-62793597D01*
X146542089Y-62743352D01*
X146657188Y-62657188D01*
X146743352Y-62542089D01*
X146793597Y-62407375D01*
X146800000Y-62347824D01*
X146800000Y-61250000D01*
X145250000Y-61250000D01*
X144750000Y-61250000D01*
X143200000Y-61250000D01*
X135887500Y-61250000D01*
X135887500Y-60750000D01*
X143200000Y-60750000D01*
X144750000Y-60750000D01*
X144750000Y-59200000D01*
X145250000Y-59200000D01*
X145250000Y-60750000D01*
X146800000Y-60750000D01*
X146800000Y-59652176D01*
X146793597Y-59592624D01*
X146743352Y-59457910D01*
X146657188Y-59342811D01*
X146542089Y-59256647D01*
X146407375Y-59206402D01*
X146347824Y-59200000D01*
X145250000Y-59200000D01*
X144750000Y-59200000D01*
X143652176Y-59200000D01*
X143592624Y-59206402D01*
X143457910Y-59256647D01*
X143342811Y-59342811D01*
X143256647Y-59457910D01*
X143206402Y-59592624D01*
X143200000Y-59652176D01*
X143200000Y-60750000D01*
X135887500Y-60750000D01*
X135887500Y-59049500D01*
X135904113Y-58987500D01*
X135949500Y-58942113D01*
X136011500Y-58925500D01*
X145995131Y-58925500D01*
X145999884Y-58925406D01*
X146014958Y-58925111D01*
X146024687Y-58924729D01*
X146044515Y-58923560D01*
X146264585Y-58906240D01*
X146264588Y-58906239D01*
X146264596Y-58906239D01*
X146276352Y-58904847D01*
X146304006Y-58901574D01*
X146323224Y-58898530D01*
X146362149Y-58890787D01*
X146572042Y-58840396D01*
X146610244Y-58829622D01*
X146628750Y-58823609D01*
X146665988Y-58809871D01*
X146865418Y-58727264D01*
X146901471Y-58710643D01*
X146918808Y-58701809D01*
X146953432Y-58682418D01*
X147137479Y-58569633D01*
X147170489Y-58547576D01*
X147186230Y-58536139D01*
X147217391Y-58511573D01*
X147381533Y-58371383D01*
X147410680Y-58344439D01*
X147424439Y-58330680D01*
X147451383Y-58301533D01*
X147591573Y-58137391D01*
X147616139Y-58106230D01*
X147627576Y-58090489D01*
X147649633Y-58057479D01*
X147762418Y-57873432D01*
X147781809Y-57838808D01*
X147790643Y-57821471D01*
X147807264Y-57785418D01*
X147889871Y-57585988D01*
X147903609Y-57548750D01*
X147909622Y-57530244D01*
X147920396Y-57492042D01*
X147970787Y-57282149D01*
X147978530Y-57243224D01*
X147981574Y-57224006D01*
X147986240Y-57184585D01*
X148003560Y-56964515D01*
X148004729Y-56944687D01*
X148005111Y-56934958D01*
X148005500Y-56915125D01*
X148005500Y-55254875D01*
X148005111Y-55235042D01*
X148004729Y-55225313D01*
X148003560Y-55205485D01*
X147986240Y-54985414D01*
X147981574Y-54945993D01*
X147978530Y-54926775D01*
X147970787Y-54887850D01*
X147920396Y-54677957D01*
X147909622Y-54639755D01*
X147903609Y-54621249D01*
X147889871Y-54584011D01*
X147807264Y-54384581D01*
X147807262Y-54384576D01*
X147790648Y-54348538D01*
X147790643Y-54348528D01*
X147781809Y-54331191D01*
X147762418Y-54296567D01*
X147649640Y-54112530D01*
X147627567Y-54079497D01*
X147616148Y-54063780D01*
X147591571Y-54032606D01*
X147451375Y-53868457D01*
X147424438Y-53839318D01*
X147410680Y-53825560D01*
X147381541Y-53798623D01*
X147217392Y-53658427D01*
X147186218Y-53633850D01*
X147170501Y-53622431D01*
X147137468Y-53600358D01*
X146953428Y-53487578D01*
X146918823Y-53468198D01*
X146918815Y-53468193D01*
X146918808Y-53468190D01*
X146901471Y-53459356D01*
X146901469Y-53459355D01*
X146865410Y-53442731D01*
X146665982Y-53360125D01*
X146628759Y-53346392D01*
X146610267Y-53340384D01*
X146610264Y-53340383D01*
X146572049Y-53329605D01*
X146362144Y-53279211D01*
X146362145Y-53279211D01*
X146362136Y-53279209D01*
X146335967Y-53274003D01*
X146323226Y-53271469D01*
X146319070Y-53270810D01*
X146304007Y-53268424D01*
X146264597Y-53263759D01*
X146044512Y-53246440D01*
X146024690Y-53245271D01*
X146014941Y-53244888D01*
X145995131Y-53244500D01*
X145995125Y-53244500D01*
X136011500Y-53244500D01*
X135949500Y-53227887D01*
X135904113Y-53182500D01*
X135887500Y-53120500D01*
X135887500Y-52018115D01*
X137457436Y-52018115D01*
X137599958Y-52124806D01*
X137851047Y-52261911D01*
X138119097Y-52361888D01*
X138398642Y-52422699D01*
X138684000Y-52443109D01*
X138969357Y-52422699D01*
X139248902Y-52361888D01*
X139516952Y-52261911D01*
X139768041Y-52124806D01*
X139910562Y-52018115D01*
X143807436Y-52018115D01*
X143949958Y-52124806D01*
X144201047Y-52261911D01*
X144469097Y-52361888D01*
X144748642Y-52422699D01*
X145034000Y-52443109D01*
X145319357Y-52422699D01*
X145598902Y-52361888D01*
X145866952Y-52261911D01*
X146118041Y-52124806D01*
X146260562Y-52018115D01*
X145034001Y-50791553D01*
X145034000Y-50791553D01*
X143807436Y-52018115D01*
X139910562Y-52018115D01*
X138684001Y-50791553D01*
X138684000Y-50791553D01*
X137457436Y-52018115D01*
X135887500Y-52018115D01*
X135887500Y-50438000D01*
X136678890Y-50438000D01*
X136699300Y-50723357D01*
X136760111Y-51002902D01*
X136860088Y-51270952D01*
X136997193Y-51522042D01*
X137103883Y-51664562D01*
X138330446Y-50438001D01*
X138330446Y-50438000D01*
X139037553Y-50438000D01*
X140264115Y-51664562D01*
X140370806Y-51522041D01*
X140507911Y-51270952D01*
X140607888Y-51002902D01*
X140668699Y-50723357D01*
X140689109Y-50438000D01*
X143028890Y-50438000D01*
X143049300Y-50723357D01*
X143110111Y-51002902D01*
X143210088Y-51270952D01*
X143347193Y-51522042D01*
X143453883Y-51664562D01*
X144680446Y-50438001D01*
X144680446Y-50438000D01*
X145387553Y-50438000D01*
X146614115Y-51664562D01*
X146720806Y-51522041D01*
X146857911Y-51270952D01*
X146957888Y-51002902D01*
X147018699Y-50723357D01*
X147039109Y-50438000D01*
X147018699Y-50152642D01*
X146957888Y-49873097D01*
X146857911Y-49605047D01*
X146720806Y-49353958D01*
X146614115Y-49211436D01*
X145387553Y-50437998D01*
X145387553Y-50438000D01*
X144680446Y-50438000D01*
X143453883Y-49211436D01*
X143453882Y-49211437D01*
X143347195Y-49353954D01*
X143210088Y-49605047D01*
X143110111Y-49873097D01*
X143049300Y-50152642D01*
X143028890Y-50438000D01*
X140689109Y-50438000D01*
X140668699Y-50152642D01*
X140607888Y-49873097D01*
X140507911Y-49605047D01*
X140370806Y-49353958D01*
X140264115Y-49211436D01*
X139037553Y-50437998D01*
X139037553Y-50438000D01*
X138330446Y-50438000D01*
X137103883Y-49211436D01*
X137103882Y-49211437D01*
X136997195Y-49353954D01*
X136860088Y-49605047D01*
X136760111Y-49873097D01*
X136699300Y-50152642D01*
X136678890Y-50438000D01*
X135887500Y-50438000D01*
X135887500Y-49500869D01*
X135887111Y-49481060D01*
X135887111Y-49481058D01*
X135887111Y-49481042D01*
X135886729Y-49471313D01*
X135885560Y-49451485D01*
X135868240Y-49231414D01*
X135863574Y-49191993D01*
X135860530Y-49172775D01*
X135852787Y-49133850D01*
X135802396Y-48923957D01*
X135791622Y-48885755D01*
X135785609Y-48867249D01*
X135782154Y-48857883D01*
X137457436Y-48857883D01*
X138684000Y-50084446D01*
X138684001Y-50084446D01*
X139910562Y-48857883D01*
X143807436Y-48857883D01*
X145034000Y-50084446D01*
X145034001Y-50084446D01*
X146260562Y-48857883D01*
X146118042Y-48751193D01*
X145866952Y-48614088D01*
X145598902Y-48514111D01*
X145319357Y-48453300D01*
X145034000Y-48432890D01*
X144748642Y-48453300D01*
X144469097Y-48514111D01*
X144201047Y-48614088D01*
X143949954Y-48751195D01*
X143807437Y-48857882D01*
X143807436Y-48857883D01*
X139910562Y-48857883D01*
X139768042Y-48751193D01*
X139516952Y-48614088D01*
X139248902Y-48514111D01*
X138969357Y-48453300D01*
X138684000Y-48432890D01*
X138398642Y-48453300D01*
X138119097Y-48514111D01*
X137851047Y-48614088D01*
X137599954Y-48751195D01*
X137457437Y-48857882D01*
X137457436Y-48857883D01*
X135782154Y-48857883D01*
X135771871Y-48830011D01*
X135689264Y-48630581D01*
X135689262Y-48630576D01*
X135672648Y-48594538D01*
X135669395Y-48588154D01*
X135663809Y-48577191D01*
X135661138Y-48572421D01*
X135644420Y-48542570D01*
X135531640Y-48358530D01*
X135509567Y-48325497D01*
X135498148Y-48309780D01*
X135473571Y-48278606D01*
X135378369Y-48167138D01*
X135333383Y-48114466D01*
X135306439Y-48085319D01*
X135292680Y-48071560D01*
X135263533Y-48044616D01*
X135099391Y-47904426D01*
X135090610Y-47897504D01*
X135068218Y-47879850D01*
X135052501Y-47868431D01*
X135019468Y-47846358D01*
X134835428Y-47733578D01*
X134800823Y-47714198D01*
X134800815Y-47714193D01*
X134800808Y-47714190D01*
X134783471Y-47705356D01*
X134747425Y-47688738D01*
X134747410Y-47688731D01*
X134547982Y-47606125D01*
X134510759Y-47592392D01*
X134492267Y-47586384D01*
X134492264Y-47586383D01*
X134454049Y-47575605D01*
X134244144Y-47525211D01*
X134244145Y-47525211D01*
X134244136Y-47525209D01*
X134217967Y-47520003D01*
X134205226Y-47517469D01*
X134201070Y-47516810D01*
X134186007Y-47514424D01*
X134146597Y-47509759D01*
X133926512Y-47492440D01*
X133906690Y-47491271D01*
X133896941Y-47490888D01*
X133877131Y-47490500D01*
X133877125Y-47490500D01*
X131000875Y-47490500D01*
X131000869Y-47490500D01*
X130981058Y-47490888D01*
X130971309Y-47491271D01*
X130951486Y-47492440D01*
X130731403Y-47509759D01*
X130691997Y-47514424D01*
X130691984Y-47514426D01*
X130672785Y-47517467D01*
X130633856Y-47525210D01*
X130549891Y-47545368D01*
X130423942Y-47575606D01*
X130395297Y-47583685D01*
X130385748Y-47586379D01*
X130378869Y-47588614D01*
X130367249Y-47592389D01*
X130330027Y-47606121D01*
X130130572Y-47688738D01*
X130094524Y-47705357D01*
X130077189Y-47714190D01*
X130042553Y-47733588D01*
X129858522Y-47846363D01*
X129825523Y-47868413D01*
X129809762Y-47879865D01*
X129778606Y-47904427D01*
X129614457Y-48044623D01*
X129585318Y-48071560D01*
X129571560Y-48085318D01*
X129544621Y-48114459D01*
X129404432Y-48278600D01*
X129379868Y-48309757D01*
X129368430Y-48325498D01*
X129346370Y-48358510D01*
X129233578Y-48542570D01*
X129214208Y-48577155D01*
X129205366Y-48594506D01*
X129188733Y-48630583D01*
X129179359Y-48653214D01*
X129179352Y-48653227D01*
X129106126Y-48830013D01*
X129092381Y-48867271D01*
X129086381Y-48885740D01*
X129075608Y-48923936D01*
X129075603Y-48923957D01*
X129059528Y-48990915D01*
X129025210Y-49133856D01*
X129023666Y-49141619D01*
X129017466Y-49172791D01*
X129014424Y-49191997D01*
X129009759Y-49231403D01*
X128992440Y-49451486D01*
X128991271Y-49471309D01*
X128990888Y-49481058D01*
X128990500Y-49500869D01*
X128990500Y-67384060D01*
X128990925Y-67404779D01*
X128991342Y-67414958D01*
X128992619Y-67435692D01*
X129011541Y-67665639D01*
X129016635Y-67706792D01*
X129019958Y-67726852D01*
X129028416Y-67767483D01*
X129083437Y-67986333D01*
X129095194Y-68026115D01*
X129101749Y-68045348D01*
X129116732Y-68084038D01*
X129206769Y-68290910D01*
X129221795Y-68321895D01*
X129234040Y-68382701D01*
X129215304Y-68441829D01*
X129170276Y-68484487D01*
X129110221Y-68500000D01*
X96449098Y-68500000D01*
X96390645Y-68485358D01*
X96345996Y-68444891D01*
X96325695Y-68388154D01*
X96334537Y-68328547D01*
X96384805Y-68207188D01*
X96401871Y-68165988D01*
X96415609Y-68128750D01*
X96421622Y-68110244D01*
X96432396Y-68072042D01*
X96482787Y-67862149D01*
X96490530Y-67823224D01*
X96493574Y-67804006D01*
X96498240Y-67764585D01*
X96515560Y-67544515D01*
X96516729Y-67524687D01*
X96517111Y-67514958D01*
X96517500Y-67495125D01*
X96517500Y-49757341D01*
X96517110Y-49737477D01*
X96516727Y-49727738D01*
X96515555Y-49707899D01*
X96503021Y-49548812D01*
X96498200Y-49487615D01*
X96498199Y-49487605D01*
X96493525Y-49448154D01*
X96490475Y-49428916D01*
X96482715Y-49389942D01*
X96432218Y-49179835D01*
X96421423Y-49141602D01*
X96415398Y-49123079D01*
X96401629Y-49085799D01*
X96362280Y-48990915D01*
X96318853Y-48886195D01*
X96302199Y-48850111D01*
X96302194Y-48850101D01*
X96293353Y-48832772D01*
X96273928Y-48798131D01*
X96160915Y-48613947D01*
X96138820Y-48580924D01*
X96127362Y-48565175D01*
X96102741Y-48533988D01*
X95962278Y-48369772D01*
X95951859Y-48358518D01*
X95935293Y-48340624D01*
X95921491Y-48326845D01*
X95892305Y-48299913D01*
X95727865Y-48159725D01*
X95696636Y-48135154D01*
X95680874Y-48123727D01*
X95666983Y-48114466D01*
X95647810Y-48101683D01*
X95647809Y-48101682D01*
X95647798Y-48101675D01*
X95463456Y-47988980D01*
X95428760Y-47969600D01*
X95411409Y-47960784D01*
X95375285Y-47944182D01*
X95175559Y-47861741D01*
X95175560Y-47861741D01*
X95175547Y-47861736D01*
X95151507Y-47852901D01*
X95138257Y-47848032D01*
X95119753Y-47842046D01*
X95081476Y-47831306D01*
X94871282Y-47781153D01*
X94832313Y-47773460D01*
X94832307Y-47773459D01*
X94813083Y-47770443D01*
X94813076Y-47770442D01*
X94813075Y-47770442D01*
X94773618Y-47765832D01*
X94773613Y-47765831D01*
X94773608Y-47765831D01*
X94553249Y-47748835D01*
X94546651Y-47748455D01*
X94533458Y-47747698D01*
X94523757Y-47747331D01*
X94503858Y-47746972D01*
X93294182Y-47748957D01*
X93197156Y-47761592D01*
X93165520Y-47761642D01*
X93111778Y-47754815D01*
X93068577Y-47749328D01*
X93068575Y-47749328D01*
X91417562Y-47752036D01*
X91397712Y-47752458D01*
X91388011Y-47752855D01*
X91368195Y-47754056D01*
X91148431Y-47771697D01*
X91109083Y-47776414D01*
X91089881Y-47779484D01*
X91050982Y-47787278D01*
X90841387Y-47837907D01*
X90803301Y-47848704D01*
X90803293Y-47848706D01*
X90803281Y-47848710D01*
X90794901Y-47851443D01*
X90784810Y-47854736D01*
X90761679Y-47863302D01*
X90747592Y-47868519D01*
X90680402Y-47896446D01*
X90548449Y-47951293D01*
X90512424Y-47967955D01*
X90495104Y-47976807D01*
X90460591Y-47996187D01*
X90276848Y-48109054D01*
X90243900Y-48131118D01*
X90228228Y-48142527D01*
X90197071Y-48167138D01*
X90033216Y-48307340D01*
X90004146Y-48334256D01*
X89990431Y-48347994D01*
X89963530Y-48377140D01*
X89823584Y-48541241D01*
X89822538Y-48542570D01*
X89799036Y-48572427D01*
X89796364Y-48576111D01*
X89787626Y-48588154D01*
X89765640Y-48621107D01*
X89759841Y-48630583D01*
X89744283Y-48656006D01*
X89741606Y-48660380D01*
X89734083Y-48672671D01*
X89653087Y-48805012D01*
X89633732Y-48839616D01*
X89624919Y-48856933D01*
X89608330Y-48892956D01*
X89542151Y-49052910D01*
X89542151Y-49052915D01*
X89525881Y-49092240D01*
X89512178Y-49129428D01*
X89506179Y-49147913D01*
X89495428Y-49186070D01*
X89445142Y-49395754D01*
X89437417Y-49434630D01*
X89434380Y-49453815D01*
X89429720Y-49493215D01*
X89412436Y-49713075D01*
X89411268Y-49732909D01*
X89410888Y-49742624D01*
X89410500Y-49762407D01*
X89410500Y-58370500D01*
X89393887Y-58432500D01*
X89348500Y-58477887D01*
X89286500Y-58494500D01*
X79004869Y-58494500D01*
X78985058Y-58494888D01*
X78975309Y-58495271D01*
X78955486Y-58496440D01*
X78735403Y-58513759D01*
X78695997Y-58518424D01*
X78695989Y-58518425D01*
X78695991Y-58518425D01*
X78676785Y-58521467D01*
X78637856Y-58529210D01*
X78553891Y-58549368D01*
X78427942Y-58579606D01*
X78399297Y-58587685D01*
X78389748Y-58590379D01*
X78382869Y-58592614D01*
X78371249Y-58596389D01*
X78334027Y-58610121D01*
X78134572Y-58692738D01*
X78098524Y-58709357D01*
X78081189Y-58718190D01*
X78046553Y-58737588D01*
X77862522Y-58850363D01*
X77829523Y-58872413D01*
X77813762Y-58883865D01*
X77782606Y-58908427D01*
X77618457Y-59048623D01*
X77589318Y-59075560D01*
X77575560Y-59089318D01*
X77548623Y-59118457D01*
X77408427Y-59282606D01*
X77383850Y-59313780D01*
X77372431Y-59329497D01*
X77350358Y-59362530D01*
X77238436Y-59545172D01*
X77238433Y-59545174D01*
X77237611Y-59546515D01*
X77218203Y-59581164D01*
X77209367Y-59598505D01*
X77192730Y-59634590D01*
X77110125Y-59834018D01*
X77096389Y-59871249D01*
X77090377Y-59889755D01*
X77079608Y-59927936D01*
X77069413Y-59970404D01*
X77029205Y-60137872D01*
X77021465Y-60176795D01*
X77018420Y-60196021D01*
X77013758Y-60235417D01*
X76996440Y-60455485D01*
X76995271Y-60475309D01*
X76994888Y-60485058D01*
X76994500Y-60504869D01*
X76994500Y-61995131D01*
X76994888Y-62014941D01*
X76995271Y-62024690D01*
X76996440Y-62044514D01*
X77013759Y-62264593D01*
X77018423Y-62303991D01*
X77021467Y-62323213D01*
X77029209Y-62362136D01*
X77029211Y-62362144D01*
X77068453Y-62525596D01*
X77079605Y-62572049D01*
X77090383Y-62610264D01*
X77090384Y-62610267D01*
X77096392Y-62628759D01*
X77110125Y-62665982D01*
X77192735Y-62865419D01*
X77209356Y-62901472D01*
X77218164Y-62918761D01*
X77218196Y-62918818D01*
X77218199Y-62918824D01*
X77237581Y-62953432D01*
X77237591Y-62953448D01*
X77350358Y-63137468D01*
X77372431Y-63170501D01*
X77383850Y-63186218D01*
X77401504Y-63208610D01*
X77408426Y-63217391D01*
X77548616Y-63381533D01*
X77575560Y-63410680D01*
X77589319Y-63424439D01*
X77618466Y-63451383D01*
X77782608Y-63591573D01*
X77800168Y-63605416D01*
X77813780Y-63616148D01*
X77829497Y-63627567D01*
X77862530Y-63649640D01*
X78046570Y-63762420D01*
X78077390Y-63779680D01*
X78081191Y-63781809D01*
X78098528Y-63790643D01*
X78098538Y-63790648D01*
X78134576Y-63807262D01*
X78134582Y-63807264D01*
X78134581Y-63807264D01*
X78334011Y-63889871D01*
X78371249Y-63903609D01*
X78389755Y-63909622D01*
X78427957Y-63920396D01*
X78637850Y-63970787D01*
X78676775Y-63978530D01*
X78695993Y-63981574D01*
X78719037Y-63984301D01*
X78735402Y-63986239D01*
X78735412Y-63986239D01*
X78735414Y-63986240D01*
X78955485Y-64003560D01*
X78975313Y-64004729D01*
X78985042Y-64005111D01*
X78999916Y-64005402D01*
X79004869Y-64005500D01*
X79004875Y-64005500D01*
X89286500Y-64005500D01*
X89348500Y-64022113D01*
X89393887Y-64067500D01*
X89410500Y-64129500D01*
X89410500Y-67495131D01*
X89410888Y-67514941D01*
X89411271Y-67524690D01*
X89412440Y-67544514D01*
X89429759Y-67764593D01*
X89434423Y-67803991D01*
X89437467Y-67823213D01*
X89445209Y-67862135D01*
X89489196Y-68045356D01*
X89495605Y-68072049D01*
X89506383Y-68110264D01*
X89506384Y-68110267D01*
X89512397Y-68128772D01*
X89526119Y-68165963D01*
X89526125Y-68165979D01*
X89526126Y-68165981D01*
X89530724Y-68177084D01*
X89593462Y-68328548D01*
X89602304Y-68388154D01*
X89582003Y-68444891D01*
X89537354Y-68485358D01*
X89478901Y-68500000D01*
X88180466Y-68500000D01*
X88121040Y-68484833D01*
X88076152Y-68443041D01*
X88056782Y-68384849D01*
X88060041Y-68366780D01*
X88057522Y-68366600D01*
X88061562Y-68310115D01*
X86835001Y-67083553D01*
X86835000Y-67083553D01*
X85608436Y-68310115D01*
X85612477Y-68366600D01*
X85609957Y-68366780D01*
X85613217Y-68384849D01*
X85593847Y-68443041D01*
X85548959Y-68484833D01*
X85489533Y-68500000D01*
X81830466Y-68500000D01*
X81771040Y-68484833D01*
X81726152Y-68443041D01*
X81706782Y-68384849D01*
X81710041Y-68366780D01*
X81707522Y-68366600D01*
X81711562Y-68310115D01*
X80485001Y-67083553D01*
X80485000Y-67083553D01*
X79258436Y-68310115D01*
X79262477Y-68366600D01*
X79259957Y-68366780D01*
X79263217Y-68384849D01*
X79243847Y-68443041D01*
X79198959Y-68484833D01*
X79139533Y-68500000D01*
X78048466Y-68500000D01*
X78037711Y-68499533D01*
X77794611Y-68478368D01*
X77773425Y-68474651D01*
X77542865Y-68413187D01*
X77522640Y-68405864D01*
X77306180Y-68305486D01*
X77287524Y-68294778D01*
X77087212Y-68155402D01*
X77078651Y-68148876D01*
X76718435Y-67848696D01*
X76543889Y-67703241D01*
X76535872Y-67695943D01*
X76361275Y-67522408D01*
X76347288Y-67505830D01*
X76208759Y-67308986D01*
X76197872Y-67290218D01*
X76187361Y-67267776D01*
X76095774Y-67072234D01*
X76088331Y-67051872D01*
X76025791Y-66819418D01*
X76022013Y-66798079D01*
X76016034Y-66730000D01*
X78479890Y-66730000D01*
X78500300Y-67015357D01*
X78561111Y-67294902D01*
X78661088Y-67562952D01*
X78798193Y-67814042D01*
X78904883Y-67956562D01*
X80131445Y-66730001D01*
X80838553Y-66730001D01*
X82065115Y-67956562D01*
X82171806Y-67814041D01*
X82308911Y-67562952D01*
X82408888Y-67294902D01*
X82469699Y-67015357D01*
X82490109Y-66730000D01*
X84829890Y-66730000D01*
X84850300Y-67015357D01*
X84911111Y-67294902D01*
X85011088Y-67562952D01*
X85148193Y-67814042D01*
X85254883Y-67956562D01*
X86481446Y-66730001D01*
X87188553Y-66730001D01*
X88415115Y-67956562D01*
X88521806Y-67814041D01*
X88658911Y-67562952D01*
X88758888Y-67294902D01*
X88819699Y-67015357D01*
X88840109Y-66730000D01*
X88819699Y-66444642D01*
X88758888Y-66165097D01*
X88658911Y-65897047D01*
X88521806Y-65645958D01*
X88415115Y-65503436D01*
X87188553Y-66730000D01*
X87188553Y-66730001D01*
X86481446Y-66730001D01*
X86481446Y-66730000D01*
X85254883Y-65503436D01*
X85254882Y-65503437D01*
X85148195Y-65645954D01*
X85011088Y-65897047D01*
X84911111Y-66165097D01*
X84850300Y-66444642D01*
X84829890Y-66730000D01*
X82490109Y-66730000D01*
X82469699Y-66444642D01*
X82408888Y-66165097D01*
X82308911Y-65897047D01*
X82171806Y-65645958D01*
X82065115Y-65503436D01*
X80838553Y-66730000D01*
X80838553Y-66730001D01*
X80131445Y-66730001D01*
X80131446Y-66730000D01*
X78904883Y-65503436D01*
X78904882Y-65503437D01*
X78798195Y-65645954D01*
X78661088Y-65897047D01*
X78561111Y-66165097D01*
X78500300Y-66444642D01*
X78479890Y-66730000D01*
X76016034Y-66730000D01*
X76000473Y-66552834D01*
X76000000Y-66542009D01*
X76000000Y-65149883D01*
X79258436Y-65149883D01*
X80485000Y-66376446D01*
X80485001Y-66376446D01*
X81711562Y-65149883D01*
X85608436Y-65149883D01*
X86835000Y-66376446D01*
X86835001Y-66376446D01*
X88061562Y-65149883D01*
X87919042Y-65043193D01*
X87667952Y-64906088D01*
X87399902Y-64806111D01*
X87120357Y-64745300D01*
X86835000Y-64724890D01*
X86549642Y-64745300D01*
X86270097Y-64806111D01*
X86002047Y-64906088D01*
X85750954Y-65043195D01*
X85608437Y-65149882D01*
X85608436Y-65149883D01*
X81711562Y-65149883D01*
X81569042Y-65043193D01*
X81317952Y-64906088D01*
X81049902Y-64806111D01*
X80770357Y-64745300D01*
X80485000Y-64724890D01*
X80199642Y-64745300D01*
X79920097Y-64806111D01*
X79652047Y-64906088D01*
X79400954Y-65043195D01*
X79258437Y-65149882D01*
X79258436Y-65149883D01*
X76000000Y-65149883D01*
X76000000Y-56418000D01*
X78719000Y-56418000D01*
X78719000Y-57515824D01*
X78725402Y-57575375D01*
X78775647Y-57710089D01*
X78861811Y-57825188D01*
X78976910Y-57911352D01*
X79111624Y-57961597D01*
X79171176Y-57968000D01*
X80269000Y-57968000D01*
X80269000Y-56418000D01*
X80769000Y-56418000D01*
X80769000Y-57968000D01*
X81866824Y-57968000D01*
X81926375Y-57961597D01*
X82061089Y-57911352D01*
X82176188Y-57825188D01*
X82262352Y-57710089D01*
X82312597Y-57575375D01*
X82319000Y-57515824D01*
X82319000Y-56418000D01*
X80769000Y-56418000D01*
X80269000Y-56418000D01*
X78719000Y-56418000D01*
X76000000Y-56418000D01*
X76000000Y-55918000D01*
X78719000Y-55918000D01*
X80269000Y-55918000D01*
X80269000Y-54368000D01*
X80769000Y-54368000D01*
X80769000Y-55918000D01*
X82319000Y-55918000D01*
X82319000Y-54820176D01*
X82312597Y-54760624D01*
X82262352Y-54625910D01*
X82176188Y-54510811D01*
X82061089Y-54424647D01*
X81926375Y-54374402D01*
X81866824Y-54368000D01*
X80769000Y-54368000D01*
X80269000Y-54368000D01*
X79171176Y-54368000D01*
X79111624Y-54374402D01*
X78976910Y-54424647D01*
X78861811Y-54510811D01*
X78775647Y-54625910D01*
X78725402Y-54760624D01*
X78719000Y-54820176D01*
X78719000Y-55918000D01*
X76000000Y-55918000D01*
X76000000Y-52080115D01*
X79258436Y-52080115D01*
X79400958Y-52186806D01*
X79652047Y-52323911D01*
X79920097Y-52423888D01*
X80199642Y-52484699D01*
X80485000Y-52505109D01*
X80770357Y-52484699D01*
X81049902Y-52423888D01*
X81317952Y-52323911D01*
X81569041Y-52186806D01*
X81711562Y-52080115D01*
X85608436Y-52080115D01*
X85750958Y-52186806D01*
X86002047Y-52323911D01*
X86270097Y-52423888D01*
X86549642Y-52484699D01*
X86835000Y-52505109D01*
X87120357Y-52484699D01*
X87399902Y-52423888D01*
X87667952Y-52323911D01*
X87919041Y-52186806D01*
X88061562Y-52080115D01*
X86835001Y-50853553D01*
X86835000Y-50853553D01*
X85608436Y-52080115D01*
X81711562Y-52080115D01*
X80485001Y-50853553D01*
X80485000Y-50853553D01*
X79258436Y-52080115D01*
X76000000Y-52080115D01*
X76000000Y-50500000D01*
X78479890Y-50500000D01*
X78500300Y-50785357D01*
X78561111Y-51064902D01*
X78661088Y-51332952D01*
X78798193Y-51584042D01*
X78904883Y-51726562D01*
X80131445Y-50500001D01*
X80838553Y-50500001D01*
X82065115Y-51726562D01*
X82171806Y-51584041D01*
X82308911Y-51332952D01*
X82408888Y-51064902D01*
X82469699Y-50785357D01*
X82490109Y-50500000D01*
X84829890Y-50500000D01*
X84850300Y-50785357D01*
X84911111Y-51064902D01*
X85011088Y-51332952D01*
X85148193Y-51584042D01*
X85254883Y-51726562D01*
X86481446Y-50500001D01*
X87188553Y-50500001D01*
X88415115Y-51726562D01*
X88521806Y-51584041D01*
X88658911Y-51332952D01*
X88758888Y-51064902D01*
X88819699Y-50785357D01*
X88840109Y-50500000D01*
X88819699Y-50214642D01*
X88758888Y-49935097D01*
X88658911Y-49667047D01*
X88521806Y-49415958D01*
X88415115Y-49273436D01*
X87188553Y-50500000D01*
X87188553Y-50500001D01*
X86481446Y-50500001D01*
X86481446Y-50500000D01*
X85254883Y-49273436D01*
X85254882Y-49273437D01*
X85148195Y-49415954D01*
X85011088Y-49667047D01*
X84911111Y-49935097D01*
X84850300Y-50214642D01*
X84829890Y-50500000D01*
X82490109Y-50500000D01*
X82469699Y-50214642D01*
X82408888Y-49935097D01*
X82308911Y-49667047D01*
X82171806Y-49415958D01*
X82065115Y-49273436D01*
X80838553Y-50500000D01*
X80838553Y-50500001D01*
X80131445Y-50500001D01*
X80131446Y-50500000D01*
X78904883Y-49273436D01*
X78904882Y-49273437D01*
X78798195Y-49415954D01*
X78661088Y-49667047D01*
X78561111Y-49935097D01*
X78500300Y-50214642D01*
X78479890Y-50500000D01*
X76000000Y-50500000D01*
X76000000Y-48919883D01*
X79258436Y-48919883D01*
X80485000Y-50146446D01*
X80485001Y-50146446D01*
X81711562Y-48919883D01*
X85608436Y-48919883D01*
X86835000Y-50146446D01*
X86835001Y-50146446D01*
X88061562Y-48919883D01*
X87919042Y-48813193D01*
X87667952Y-48676088D01*
X87399902Y-48576111D01*
X87120357Y-48515300D01*
X86835000Y-48494890D01*
X86549642Y-48515300D01*
X86270097Y-48576111D01*
X86002047Y-48676088D01*
X85750954Y-48813195D01*
X85608437Y-48919882D01*
X85608436Y-48919883D01*
X81711562Y-48919883D01*
X81569042Y-48813193D01*
X81317952Y-48676088D01*
X81049902Y-48576111D01*
X80770357Y-48515300D01*
X80485000Y-48494890D01*
X80199642Y-48515300D01*
X79920097Y-48576111D01*
X79652047Y-48676088D01*
X79400954Y-48813195D01*
X79258437Y-48919882D01*
X79258436Y-48919883D01*
X76000000Y-48919883D01*
X76000000Y-36324999D01*
X78921957Y-36324999D01*
X78942095Y-36593726D01*
X79002062Y-36856458D01*
X79082364Y-37061063D01*
X79100515Y-37107311D01*
X79126496Y-37152311D01*
X79235256Y-37340689D01*
X79403277Y-37551380D01*
X79600819Y-37734673D01*
X79600822Y-37734675D01*
X79823479Y-37886480D01*
X79823482Y-37886481D01*
X79823483Y-37886482D01*
X80066272Y-38003403D01*
X80066274Y-38003403D01*
X80066275Y-38003404D01*
X80323785Y-38082836D01*
X80590259Y-38123000D01*
X80859741Y-38123000D01*
X81126215Y-38082836D01*
X81383725Y-38003404D01*
X81626521Y-37886480D01*
X81849178Y-37734675D01*
X82046723Y-37551380D01*
X82214743Y-37340690D01*
X82349485Y-37107311D01*
X82447938Y-36856456D01*
X82507904Y-36593729D01*
X82528042Y-36325000D01*
X82528042Y-36324999D01*
X86381957Y-36324999D01*
X86402095Y-36593726D01*
X86462062Y-36856458D01*
X86542364Y-37061063D01*
X86560515Y-37107311D01*
X86586496Y-37152311D01*
X86695256Y-37340689D01*
X86863277Y-37551380D01*
X87060819Y-37734673D01*
X87060822Y-37734675D01*
X87283479Y-37886480D01*
X87283482Y-37886481D01*
X87283483Y-37886482D01*
X87526272Y-38003403D01*
X87526274Y-38003403D01*
X87526275Y-38003404D01*
X87783785Y-38082836D01*
X88050259Y-38123000D01*
X88319741Y-38123000D01*
X88586215Y-38082836D01*
X88843725Y-38003404D01*
X89086521Y-37886480D01*
X89309178Y-37734675D01*
X89506723Y-37551380D01*
X89674743Y-37340690D01*
X89809485Y-37107311D01*
X89907938Y-36856456D01*
X89967904Y-36593729D01*
X89988042Y-36325000D01*
X89988042Y-36324999D01*
X97367750Y-36324999D01*
X97387888Y-36593726D01*
X97447855Y-36856458D01*
X97528157Y-37061063D01*
X97546308Y-37107311D01*
X97572289Y-37152311D01*
X97681049Y-37340689D01*
X97849070Y-37551380D01*
X98046612Y-37734673D01*
X98046615Y-37734675D01*
X98269272Y-37886480D01*
X98269275Y-37886481D01*
X98269276Y-37886482D01*
X98512065Y-38003403D01*
X98512067Y-38003403D01*
X98512068Y-38003404D01*
X98769578Y-38082836D01*
X99036052Y-38123000D01*
X99305534Y-38123000D01*
X99572008Y-38082836D01*
X99829518Y-38003404D01*
X100072314Y-37886480D01*
X100294971Y-37734675D01*
X100492516Y-37551380D01*
X100660536Y-37340690D01*
X100795278Y-37107311D01*
X100893731Y-36856456D01*
X100953697Y-36593729D01*
X100973835Y-36325000D01*
X100953697Y-36056271D01*
X100893731Y-35793544D01*
X100795278Y-35542689D01*
X100660536Y-35309310D01*
X100492516Y-35098620D01*
X100492515Y-35098619D01*
X100294973Y-34915326D01*
X100153672Y-34818989D01*
X100072314Y-34763520D01*
X100072311Y-34763519D01*
X100072309Y-34763517D01*
X99829520Y-34646596D01*
X99572007Y-34567163D01*
X99305534Y-34527000D01*
X99036052Y-34527000D01*
X98769578Y-34567163D01*
X98512065Y-34646596D01*
X98269276Y-34763517D01*
X98046612Y-34915326D01*
X97849070Y-35098619D01*
X97681049Y-35309310D01*
X97546307Y-35542691D01*
X97447855Y-35793541D01*
X97387888Y-36056273D01*
X97367750Y-36324999D01*
X89988042Y-36324999D01*
X89967904Y-36056271D01*
X89907938Y-35793544D01*
X89809485Y-35542689D01*
X89674743Y-35309310D01*
X89506723Y-35098620D01*
X89506722Y-35098619D01*
X89309180Y-34915326D01*
X89167879Y-34818989D01*
X89086521Y-34763520D01*
X89086518Y-34763519D01*
X89086516Y-34763517D01*
X88843727Y-34646596D01*
X88586214Y-34567163D01*
X88319741Y-34527000D01*
X88050259Y-34527000D01*
X87783785Y-34567163D01*
X87526272Y-34646596D01*
X87283483Y-34763517D01*
X87060819Y-34915326D01*
X86863277Y-35098619D01*
X86695256Y-35309310D01*
X86560514Y-35542691D01*
X86462062Y-35793541D01*
X86402095Y-36056273D01*
X86381957Y-36324999D01*
X82528042Y-36324999D01*
X82507904Y-36056271D01*
X82447938Y-35793544D01*
X82349485Y-35542689D01*
X82214743Y-35309310D01*
X82164112Y-35245821D01*
X83727731Y-35245821D01*
X83801260Y-35297306D01*
X84007815Y-35393624D01*
X84227961Y-35452612D01*
X84455000Y-35472475D01*
X84682038Y-35452612D01*
X84902184Y-35393624D01*
X85108735Y-35297307D01*
X85182267Y-35245820D01*
X84455001Y-34518553D01*
X84455000Y-34518553D01*
X83727731Y-35245820D01*
X83727731Y-35245821D01*
X82164112Y-35245821D01*
X82046723Y-35098620D01*
X82046722Y-35098619D01*
X81849180Y-34915326D01*
X81707879Y-34818989D01*
X81626521Y-34763520D01*
X81626518Y-34763519D01*
X81626516Y-34763517D01*
X81383727Y-34646596D01*
X81126214Y-34567163D01*
X80859741Y-34527000D01*
X80590259Y-34527000D01*
X80323785Y-34567163D01*
X80066272Y-34646596D01*
X79823483Y-34763517D01*
X79600819Y-34915326D01*
X79403277Y-35098619D01*
X79235256Y-35309310D01*
X79100514Y-35542691D01*
X79002062Y-35793541D01*
X78942095Y-36056273D01*
X78921957Y-36324999D01*
X76000000Y-36324999D01*
X76000000Y-34164999D01*
X83147524Y-34164999D01*
X83167387Y-34392038D01*
X83226376Y-34612186D01*
X83322690Y-34818734D01*
X83374178Y-34892266D01*
X83374179Y-34892267D01*
X84101446Y-34165001D01*
X84808553Y-34165001D01*
X85535820Y-34892267D01*
X85587307Y-34818735D01*
X85683624Y-34612184D01*
X85742612Y-34392038D01*
X85762475Y-34164999D01*
X101592815Y-34164999D01*
X101599821Y-34245067D01*
X101600293Y-34255875D01*
X101600293Y-41763938D01*
X101600327Y-41764737D01*
X101600326Y-41889898D01*
X101633048Y-42263993D01*
X101698252Y-42633813D01*
X101795441Y-42996549D01*
X101923871Y-43349424D01*
X102082573Y-43689773D01*
X102270334Y-44014994D01*
X102485721Y-44322610D01*
X102727099Y-44610280D01*
X102816802Y-44699986D01*
X102816834Y-44700020D01*
X102859867Y-44743052D01*
X102859869Y-44743054D01*
X102859870Y-44743056D01*
X102944747Y-44827933D01*
X102944753Y-44827938D01*
X107916181Y-49799366D01*
X107943061Y-49839594D01*
X107952500Y-49887047D01*
X107952500Y-59568500D01*
X107935887Y-59630500D01*
X107890500Y-59675887D01*
X107828500Y-59692500D01*
X104263999Y-59692500D01*
X104133169Y-59709724D01*
X104071161Y-59726339D01*
X103949250Y-59776836D01*
X103844557Y-59857170D01*
X103799170Y-59902557D01*
X103718836Y-60007250D01*
X103668339Y-60129161D01*
X103651724Y-60191169D01*
X103634500Y-60321999D01*
X103634500Y-63376001D01*
X103651724Y-63506830D01*
X103668339Y-63568838D01*
X103718836Y-63690749D01*
X103799170Y-63795442D01*
X103844557Y-63840829D01*
X103949250Y-63921163D01*
X104069053Y-63970787D01*
X104071166Y-63971662D01*
X104133166Y-63988275D01*
X104231291Y-64001193D01*
X104263999Y-64005500D01*
X104264000Y-64005500D01*
X111636000Y-64005500D01*
X111636001Y-64005500D01*
X111662166Y-64002054D01*
X111766834Y-63988275D01*
X111828834Y-63971662D01*
X111950750Y-63921163D01*
X112005645Y-63879040D01*
X112061890Y-63835882D01*
X112063020Y-63837354D01*
X112108901Y-63810860D01*
X112173099Y-63810860D01*
X112218979Y-63837354D01*
X112220110Y-63835882D01*
X112331250Y-63921163D01*
X112451053Y-63970787D01*
X112453166Y-63971662D01*
X112515166Y-63988275D01*
X112613291Y-64001193D01*
X112645999Y-64005500D01*
X112646000Y-64005500D01*
X119764000Y-64005500D01*
X119764001Y-64005500D01*
X119790166Y-64002054D01*
X119894834Y-63988275D01*
X119956834Y-63971662D01*
X120078750Y-63921163D01*
X120183442Y-63840829D01*
X120228829Y-63795442D01*
X120309163Y-63690750D01*
X120359662Y-63568834D01*
X120376275Y-63506834D01*
X120390055Y-63402166D01*
X120393500Y-63376001D01*
X120393500Y-60321999D01*
X120376275Y-60191169D01*
X120376275Y-60191166D01*
X120359662Y-60129166D01*
X120309163Y-60007250D01*
X120280889Y-59970403D01*
X120228829Y-59902557D01*
X120183442Y-59857170D01*
X120078749Y-59776836D01*
X119956838Y-59726339D01*
X119894830Y-59709724D01*
X119764001Y-59692500D01*
X119764000Y-59692500D01*
X116453500Y-59692500D01*
X116391500Y-59675887D01*
X116346113Y-59630500D01*
X116329500Y-59568500D01*
X116329500Y-47875999D01*
X116315603Y-47770443D01*
X116312275Y-47745166D01*
X116295662Y-47683166D01*
X116245163Y-47561250D01*
X116217508Y-47525210D01*
X116164829Y-47456557D01*
X116119442Y-47411170D01*
X116014749Y-47330836D01*
X115892838Y-47280339D01*
X115830830Y-47263724D01*
X115700001Y-47246500D01*
X115700000Y-47246500D01*
X112646000Y-47246500D01*
X112645999Y-47246500D01*
X112515169Y-47263724D01*
X112453161Y-47280339D01*
X112331250Y-47330836D01*
X112220110Y-47416118D01*
X112218981Y-47414647D01*
X112173094Y-47441141D01*
X112108906Y-47441141D01*
X112063018Y-47414647D01*
X112061890Y-47416118D01*
X111950749Y-47330836D01*
X111828838Y-47280339D01*
X111766830Y-47263724D01*
X111636001Y-47246500D01*
X111636000Y-47246500D01*
X109093047Y-47246500D01*
X109045594Y-47237061D01*
X109005366Y-47210181D01*
X104701951Y-42906766D01*
X104696403Y-42900842D01*
X104557862Y-42742861D01*
X104547988Y-42729993D01*
X104433519Y-42558673D01*
X104425409Y-42544626D01*
X104334278Y-42359825D01*
X104328071Y-42344839D01*
X104261844Y-42149729D01*
X104257646Y-42134063D01*
X104217448Y-41931961D01*
X104215334Y-41915897D01*
X104201557Y-41705656D01*
X104201293Y-41697569D01*
X104201295Y-41594410D01*
X104201293Y-41594403D01*
X104201294Y-41584161D01*
X104201293Y-41584137D01*
X104201293Y-36324999D01*
X104827750Y-36324999D01*
X104847888Y-36593726D01*
X104907855Y-36856458D01*
X104988157Y-37061063D01*
X105006308Y-37107311D01*
X105032289Y-37152311D01*
X105141049Y-37340689D01*
X105309070Y-37551380D01*
X105506612Y-37734673D01*
X105506615Y-37734675D01*
X105729272Y-37886480D01*
X105729275Y-37886481D01*
X105729276Y-37886482D01*
X105972065Y-38003403D01*
X105972067Y-38003403D01*
X105972068Y-38003404D01*
X106229578Y-38082836D01*
X106496052Y-38123000D01*
X106765534Y-38123000D01*
X107032008Y-38082836D01*
X107289518Y-38003404D01*
X107532314Y-37886480D01*
X107754971Y-37734675D01*
X107952516Y-37551380D01*
X108120536Y-37340690D01*
X108255278Y-37107311D01*
X108353731Y-36856456D01*
X108413697Y-36593729D01*
X108430463Y-36369999D01*
X115767353Y-36369999D01*
X115787491Y-36638726D01*
X115847458Y-36901458D01*
X115927760Y-37106063D01*
X115945911Y-37152311D01*
X116031333Y-37300266D01*
X116080652Y-37385689D01*
X116248673Y-37596380D01*
X116446215Y-37779673D01*
X116446218Y-37779675D01*
X116668875Y-37931480D01*
X116668878Y-37931481D01*
X116668879Y-37931482D01*
X116911668Y-38048403D01*
X116911670Y-38048403D01*
X116911671Y-38048404D01*
X117169181Y-38127836D01*
X117435655Y-38168000D01*
X117705137Y-38168000D01*
X117971611Y-38127836D01*
X118229121Y-38048404D01*
X118471917Y-37931480D01*
X118694574Y-37779675D01*
X118892119Y-37596380D01*
X119060139Y-37385690D01*
X119194881Y-37152311D01*
X119293334Y-36901456D01*
X119353300Y-36638729D01*
X119373438Y-36370000D01*
X119373438Y-36369999D01*
X123227353Y-36369999D01*
X123247491Y-36638726D01*
X123307458Y-36901458D01*
X123387760Y-37106063D01*
X123405911Y-37152311D01*
X123491333Y-37300266D01*
X123540652Y-37385689D01*
X123708673Y-37596380D01*
X123906215Y-37779673D01*
X123906218Y-37779675D01*
X124128875Y-37931480D01*
X124128878Y-37931481D01*
X124128879Y-37931482D01*
X124371668Y-38048403D01*
X124371670Y-38048403D01*
X124371671Y-38048404D01*
X124629181Y-38127836D01*
X124895655Y-38168000D01*
X125165137Y-38168000D01*
X125431611Y-38127836D01*
X125689121Y-38048404D01*
X125931917Y-37931480D01*
X126154574Y-37779675D01*
X126352119Y-37596380D01*
X126520139Y-37385690D01*
X126654881Y-37152311D01*
X126753334Y-36901456D01*
X126813300Y-36638729D01*
X126833438Y-36370000D01*
X126830066Y-36324999D01*
X134166957Y-36324999D01*
X134187095Y-36593726D01*
X134247062Y-36856458D01*
X134327364Y-37061063D01*
X134345515Y-37107311D01*
X134371496Y-37152311D01*
X134480256Y-37340689D01*
X134648277Y-37551380D01*
X134845819Y-37734673D01*
X134845822Y-37734675D01*
X135068479Y-37886480D01*
X135068482Y-37886481D01*
X135068483Y-37886482D01*
X135311272Y-38003403D01*
X135311274Y-38003403D01*
X135311275Y-38003404D01*
X135568785Y-38082836D01*
X135835259Y-38123000D01*
X136104741Y-38123000D01*
X136371215Y-38082836D01*
X136628725Y-38003404D01*
X136871521Y-37886480D01*
X137094178Y-37734675D01*
X137291723Y-37551380D01*
X137459743Y-37340690D01*
X137594485Y-37107311D01*
X137692938Y-36856456D01*
X137752904Y-36593729D01*
X137773042Y-36325000D01*
X141626957Y-36325000D01*
X141647095Y-36593726D01*
X141707062Y-36856458D01*
X141787364Y-37061063D01*
X141805515Y-37107311D01*
X141831496Y-37152311D01*
X141940256Y-37340689D01*
X142108277Y-37551380D01*
X142305819Y-37734673D01*
X142305822Y-37734675D01*
X142528479Y-37886480D01*
X142528482Y-37886481D01*
X142528483Y-37886482D01*
X142771272Y-38003403D01*
X142771274Y-38003403D01*
X142771275Y-38003404D01*
X143028785Y-38082836D01*
X143295259Y-38123000D01*
X143564741Y-38123000D01*
X143831215Y-38082836D01*
X144088725Y-38003404D01*
X144331521Y-37886480D01*
X144554178Y-37734675D01*
X144751723Y-37551380D01*
X144919743Y-37340690D01*
X145054485Y-37107311D01*
X145152938Y-36856456D01*
X145212904Y-36593729D01*
X145233042Y-36325000D01*
X145212904Y-36056271D01*
X145152938Y-35793544D01*
X145054485Y-35542689D01*
X144919743Y-35309310D01*
X144751723Y-35098620D01*
X144751722Y-35098619D01*
X144554180Y-34915326D01*
X144412879Y-34818989D01*
X144331521Y-34763520D01*
X144331518Y-34763519D01*
X144331516Y-34763517D01*
X144088727Y-34646596D01*
X143831214Y-34567163D01*
X143564741Y-34527000D01*
X143295259Y-34527000D01*
X143028785Y-34567163D01*
X142771272Y-34646596D01*
X142528483Y-34763517D01*
X142305819Y-34915326D01*
X142108277Y-35098619D01*
X141940256Y-35309310D01*
X141805514Y-35542691D01*
X141707062Y-35793541D01*
X141647095Y-36056273D01*
X141626957Y-36325000D01*
X137773042Y-36325000D01*
X137752904Y-36056271D01*
X137692938Y-35793544D01*
X137594485Y-35542689D01*
X137459743Y-35309310D01*
X137291723Y-35098620D01*
X137291722Y-35098619D01*
X137094180Y-34915326D01*
X136952879Y-34818989D01*
X136871521Y-34763520D01*
X136871518Y-34763519D01*
X136871516Y-34763517D01*
X136628727Y-34646596D01*
X136371214Y-34567163D01*
X136104741Y-34527000D01*
X135835259Y-34527000D01*
X135568785Y-34567163D01*
X135311272Y-34646596D01*
X135068483Y-34763517D01*
X134845819Y-34915326D01*
X134648277Y-35098619D01*
X134480256Y-35309310D01*
X134345514Y-35542691D01*
X134247062Y-35793541D01*
X134187095Y-36056273D01*
X134166957Y-36324999D01*
X126830066Y-36324999D01*
X126813300Y-36101271D01*
X126753334Y-35838544D01*
X126654881Y-35587689D01*
X126520139Y-35354310D01*
X126352119Y-35143620D01*
X126303621Y-35098620D01*
X126154576Y-34960326D01*
X125947272Y-34818989D01*
X125931917Y-34808520D01*
X125931914Y-34808519D01*
X125931912Y-34808517D01*
X125689123Y-34691596D01*
X125431610Y-34612163D01*
X125165137Y-34572000D01*
X124895655Y-34572000D01*
X124629181Y-34612163D01*
X124371668Y-34691596D01*
X124128879Y-34808517D01*
X123906215Y-34960326D01*
X123708673Y-35143619D01*
X123540652Y-35354310D01*
X123405910Y-35587691D01*
X123307458Y-35838541D01*
X123247491Y-36101273D01*
X123227353Y-36369999D01*
X119373438Y-36369999D01*
X119353300Y-36101271D01*
X119293334Y-35838544D01*
X119194881Y-35587689D01*
X119060139Y-35354310D01*
X118892119Y-35143620D01*
X118843621Y-35098620D01*
X118694576Y-34960326D01*
X118487272Y-34818989D01*
X118471917Y-34808520D01*
X118471914Y-34808519D01*
X118471912Y-34808517D01*
X118229123Y-34691596D01*
X117971610Y-34612163D01*
X117705137Y-34572000D01*
X117435655Y-34572000D01*
X117169181Y-34612163D01*
X116911668Y-34691596D01*
X116668879Y-34808517D01*
X116446215Y-34960326D01*
X116248673Y-35143619D01*
X116080652Y-35354310D01*
X115945910Y-35587691D01*
X115847458Y-35838541D01*
X115787491Y-36101273D01*
X115767353Y-36369999D01*
X108430463Y-36369999D01*
X108433835Y-36325000D01*
X108413697Y-36056271D01*
X108353731Y-35793544D01*
X108255278Y-35542689D01*
X108120536Y-35309310D01*
X107952516Y-35098620D01*
X107952515Y-35098619D01*
X107754973Y-34915326D01*
X107613672Y-34818989D01*
X107532314Y-34763520D01*
X107532311Y-34763519D01*
X107532309Y-34763517D01*
X107289520Y-34646596D01*
X107032007Y-34567163D01*
X106765534Y-34527000D01*
X106496052Y-34527000D01*
X106229578Y-34567163D01*
X105972065Y-34646596D01*
X105729276Y-34763517D01*
X105506612Y-34915326D01*
X105309070Y-35098619D01*
X105141049Y-35309310D01*
X105006307Y-35542691D01*
X104907855Y-35793541D01*
X104847888Y-36056273D01*
X104827750Y-36324999D01*
X104201293Y-36324999D01*
X104201293Y-34255875D01*
X104201765Y-34245067D01*
X104204833Y-34209999D01*
X119992418Y-34209999D01*
X120012289Y-34437125D01*
X120071300Y-34657355D01*
X120146552Y-34818734D01*
X120167655Y-34863989D01*
X120298427Y-35050751D01*
X120459645Y-35211969D01*
X120646407Y-35342741D01*
X120853042Y-35439096D01*
X121073268Y-35498106D01*
X121300396Y-35517977D01*
X121527524Y-35498106D01*
X121747750Y-35439096D01*
X121954385Y-35342741D01*
X122141147Y-35211969D01*
X122302365Y-35050751D01*
X122433137Y-34863989D01*
X122529492Y-34657354D01*
X122588502Y-34437128D01*
X122608373Y-34210000D01*
X122604436Y-34164999D01*
X138392022Y-34164999D01*
X138411893Y-34392125D01*
X138470904Y-34612355D01*
X138562376Y-34808517D01*
X138567259Y-34818989D01*
X138698031Y-35005751D01*
X138859249Y-35166969D01*
X139046011Y-35297741D01*
X139252646Y-35394096D01*
X139472872Y-35453106D01*
X139700000Y-35472977D01*
X139927128Y-35453106D01*
X140147354Y-35394096D01*
X140353989Y-35297741D01*
X140540751Y-35166969D01*
X140701969Y-35005751D01*
X140832741Y-34818989D01*
X140929096Y-34612354D01*
X140988106Y-34392128D01*
X141007977Y-34165000D01*
X140988106Y-33937872D01*
X140929096Y-33717646D01*
X140832741Y-33511012D01*
X140701969Y-33324249D01*
X140540751Y-33163031D01*
X140353989Y-33032259D01*
X140353988Y-33032258D01*
X140147355Y-32935904D01*
X139927125Y-32876893D01*
X139700000Y-32857022D01*
X139472874Y-32876893D01*
X139252644Y-32935904D01*
X139046011Y-33032259D01*
X138859248Y-33163031D01*
X138698031Y-33324248D01*
X138567259Y-33511011D01*
X138470904Y-33717644D01*
X138411893Y-33937874D01*
X138392022Y-34164999D01*
X122604436Y-34164999D01*
X122588502Y-33982872D01*
X122529492Y-33762646D01*
X122433137Y-33556012D01*
X122302365Y-33369249D01*
X122141147Y-33208031D01*
X121954385Y-33077259D01*
X121954384Y-33077258D01*
X121747751Y-32980904D01*
X121527521Y-32921893D01*
X121300396Y-32902022D01*
X121073270Y-32921893D01*
X120853040Y-32980904D01*
X120646407Y-33077259D01*
X120459644Y-33208031D01*
X120298427Y-33369248D01*
X120167655Y-33556011D01*
X120071300Y-33762644D01*
X120012289Y-33982874D01*
X119992418Y-34209999D01*
X104204833Y-34209999D01*
X104208770Y-34164999D01*
X104188899Y-33937874D01*
X104188899Y-33937872D01*
X104129889Y-33717646D01*
X104033534Y-33511012D01*
X103902762Y-33324249D01*
X103741544Y-33163031D01*
X103554782Y-33032259D01*
X103554781Y-33032258D01*
X103348148Y-32935904D01*
X103127918Y-32876893D01*
X102900793Y-32857022D01*
X102673667Y-32876893D01*
X102453437Y-32935904D01*
X102246804Y-33032259D01*
X102060041Y-33163031D01*
X101898824Y-33324248D01*
X101768052Y-33511011D01*
X101671697Y-33717644D01*
X101612686Y-33937874D01*
X101592815Y-34164999D01*
X85762475Y-34164999D01*
X85742612Y-33937961D01*
X85683624Y-33717815D01*
X85587307Y-33511265D01*
X85535819Y-33437733D01*
X84808553Y-34165000D01*
X84808553Y-34165001D01*
X84101446Y-34165001D01*
X84101446Y-34165000D01*
X83374179Y-33437732D01*
X83374178Y-33437732D01*
X83322693Y-33511261D01*
X83226375Y-33717815D01*
X83167387Y-33937961D01*
X83147524Y-34164999D01*
X76000000Y-34164999D01*
X76000000Y-33084179D01*
X83727732Y-33084179D01*
X84455000Y-33811446D01*
X84455001Y-33811446D01*
X85182267Y-33084179D01*
X85182266Y-33084178D01*
X85108734Y-33032690D01*
X84902186Y-32936376D01*
X84682038Y-32877387D01*
X84455000Y-32857524D01*
X84227961Y-32877387D01*
X84007815Y-32936375D01*
X83801261Y-33032693D01*
X83727732Y-33084178D01*
X83727732Y-33084179D01*
X76000000Y-33084179D01*
X76000000Y-29844999D01*
X82651957Y-29844999D01*
X82672095Y-30113726D01*
X82732062Y-30376458D01*
X82812364Y-30581063D01*
X82830515Y-30627311D01*
X82856496Y-30672311D01*
X82965256Y-30860689D01*
X83133277Y-31071380D01*
X83330819Y-31254673D01*
X83330822Y-31254675D01*
X83553479Y-31406480D01*
X83553482Y-31406481D01*
X83553483Y-31406482D01*
X83796272Y-31523403D01*
X83796274Y-31523403D01*
X83796275Y-31523404D01*
X84053785Y-31602836D01*
X84320259Y-31643000D01*
X84589741Y-31643000D01*
X84856215Y-31602836D01*
X85113725Y-31523404D01*
X85356521Y-31406480D01*
X85579178Y-31254675D01*
X85776723Y-31071380D01*
X85944743Y-30860690D01*
X86079485Y-30627311D01*
X86177938Y-30376456D01*
X86237904Y-30113729D01*
X86258042Y-29845000D01*
X86258042Y-29844999D01*
X101097750Y-29844999D01*
X101117888Y-30113726D01*
X101177855Y-30376458D01*
X101258157Y-30581063D01*
X101276308Y-30627311D01*
X101302289Y-30672311D01*
X101411049Y-30860689D01*
X101579070Y-31071380D01*
X101776612Y-31254673D01*
X101776615Y-31254675D01*
X101999272Y-31406480D01*
X101999275Y-31406481D01*
X101999276Y-31406482D01*
X102242065Y-31523403D01*
X102242067Y-31523403D01*
X102242068Y-31523404D01*
X102499578Y-31602836D01*
X102766052Y-31643000D01*
X103035534Y-31643000D01*
X103302008Y-31602836D01*
X103559518Y-31523404D01*
X103802314Y-31406480D01*
X104024971Y-31254675D01*
X104222516Y-31071380D01*
X104390536Y-30860690D01*
X104525278Y-30627311D01*
X104623731Y-30376456D01*
X104683697Y-30113729D01*
X104700463Y-29890000D01*
X119497353Y-29890000D01*
X119517491Y-30158726D01*
X119577458Y-30421458D01*
X119657760Y-30626063D01*
X119675911Y-30672311D01*
X119761333Y-30820266D01*
X119810652Y-30905689D01*
X119978673Y-31116380D01*
X120176215Y-31299673D01*
X120176218Y-31299675D01*
X120398875Y-31451480D01*
X120398878Y-31451481D01*
X120398879Y-31451482D01*
X120641668Y-31568403D01*
X120641670Y-31568403D01*
X120641671Y-31568404D01*
X120899181Y-31647836D01*
X121165655Y-31688000D01*
X121435137Y-31688000D01*
X121701611Y-31647836D01*
X121959121Y-31568404D01*
X122201917Y-31451480D01*
X122424574Y-31299675D01*
X122622119Y-31116380D01*
X122790139Y-30905690D01*
X122924881Y-30672311D01*
X123023334Y-30421456D01*
X123083300Y-30158729D01*
X123103438Y-29890000D01*
X123100066Y-29845000D01*
X137896957Y-29845000D01*
X137917095Y-30113726D01*
X137977062Y-30376458D01*
X138057364Y-30581063D01*
X138075515Y-30627311D01*
X138101496Y-30672311D01*
X138210256Y-30860689D01*
X138378277Y-31071380D01*
X138575819Y-31254673D01*
X138575822Y-31254675D01*
X138798479Y-31406480D01*
X138798482Y-31406481D01*
X138798483Y-31406482D01*
X139041272Y-31523403D01*
X139041274Y-31523403D01*
X139041275Y-31523404D01*
X139298785Y-31602836D01*
X139565259Y-31643000D01*
X139834741Y-31643000D01*
X140101215Y-31602836D01*
X140358725Y-31523404D01*
X140601521Y-31406480D01*
X140824178Y-31254675D01*
X141021723Y-31071380D01*
X141189743Y-30860690D01*
X141324485Y-30627311D01*
X141422938Y-30376456D01*
X141482904Y-30113729D01*
X141503042Y-29845000D01*
X141482904Y-29576271D01*
X141422938Y-29313544D01*
X141324485Y-29062689D01*
X141189743Y-28829310D01*
X141021723Y-28618620D01*
X140872678Y-28480326D01*
X140824180Y-28435326D01*
X140667519Y-28328517D01*
X140601521Y-28283520D01*
X140601518Y-28283519D01*
X140601516Y-28283517D01*
X140358727Y-28166596D01*
X140101214Y-28087163D01*
X139834741Y-28047000D01*
X139565259Y-28047000D01*
X139298785Y-28087163D01*
X139041272Y-28166596D01*
X138798483Y-28283517D01*
X138575819Y-28435326D01*
X138378277Y-28618619D01*
X138210256Y-28829310D01*
X138075514Y-29062691D01*
X137977062Y-29313541D01*
X137917095Y-29576273D01*
X137896957Y-29845000D01*
X123100066Y-29845000D01*
X123083300Y-29621271D01*
X123023334Y-29358544D01*
X122924881Y-29107689D01*
X122790139Y-28874310D01*
X122622119Y-28663620D01*
X122573621Y-28618620D01*
X122424576Y-28480326D01*
X122319781Y-28408878D01*
X122201917Y-28328520D01*
X122201914Y-28328519D01*
X122201912Y-28328517D01*
X121959123Y-28211596D01*
X121701610Y-28132163D01*
X121435137Y-28092000D01*
X121165655Y-28092000D01*
X120899181Y-28132163D01*
X120641668Y-28211596D01*
X120398879Y-28328517D01*
X120176215Y-28480326D01*
X119978673Y-28663619D01*
X119810652Y-28874310D01*
X119675910Y-29107691D01*
X119577458Y-29358541D01*
X119517491Y-29621273D01*
X119497353Y-29890000D01*
X104700463Y-29890000D01*
X104703835Y-29845000D01*
X104683697Y-29576271D01*
X104623731Y-29313544D01*
X104525278Y-29062689D01*
X104390536Y-28829310D01*
X104222516Y-28618620D01*
X104073471Y-28480326D01*
X104024973Y-28435326D01*
X103868312Y-28328517D01*
X103802314Y-28283520D01*
X103802311Y-28283519D01*
X103802309Y-28283517D01*
X103559520Y-28166596D01*
X103302007Y-28087163D01*
X103035534Y-28047000D01*
X102766052Y-28047000D01*
X102499578Y-28087163D01*
X102242065Y-28166596D01*
X101999276Y-28283517D01*
X101776612Y-28435326D01*
X101579070Y-28618619D01*
X101411049Y-28829310D01*
X101276307Y-29062691D01*
X101177855Y-29313541D01*
X101117888Y-29576273D01*
X101097750Y-29844999D01*
X86258042Y-29844999D01*
X86237904Y-29576271D01*
X86177938Y-29313544D01*
X86079485Y-29062689D01*
X85944743Y-28829310D01*
X85776723Y-28618620D01*
X85627678Y-28480326D01*
X85579180Y-28435326D01*
X85422519Y-28328517D01*
X85356521Y-28283520D01*
X85356518Y-28283519D01*
X85356516Y-28283517D01*
X85113727Y-28166596D01*
X84856214Y-28087163D01*
X84589741Y-28047000D01*
X84320259Y-28047000D01*
X84053785Y-28087163D01*
X83796272Y-28166596D01*
X83553483Y-28283517D01*
X83330819Y-28435326D01*
X83133277Y-28618619D01*
X82965256Y-28829310D01*
X82830514Y-29062691D01*
X82732062Y-29313541D01*
X82672095Y-29576273D01*
X82651957Y-29844999D01*
X76000000Y-29844999D01*
X76000000Y-27376195D01*
X76000382Y-27366467D01*
X76017701Y-27146397D01*
X76020743Y-27127185D01*
X76071139Y-26917273D01*
X76077145Y-26898788D01*
X76159757Y-26699346D01*
X76168590Y-26682012D01*
X76281375Y-26497964D01*
X76292811Y-26482223D01*
X76436191Y-26314346D01*
X76442775Y-26307224D01*
X76807224Y-25942775D01*
X76814346Y-25936191D01*
X76982226Y-25792808D01*
X76997964Y-25781375D01*
X77182015Y-25668588D01*
X77199346Y-25659757D01*
X77398788Y-25577145D01*
X77417273Y-25571139D01*
X77627185Y-25520743D01*
X77646391Y-25517701D01*
X77834384Y-25502906D01*
X77866467Y-25500382D01*
X77876195Y-25500000D01*
X147623805Y-25500000D01*
X147633533Y-25500382D01*
G37*
%TD.AperFunction*%
%TD*%
%TA.AperFunction,Conductor*%
%TO.N,/B*%
G36*
X133886853Y-47996382D02*
G01*
X133925690Y-47999438D01*
X134106927Y-48013701D01*
X134126137Y-48016744D01*
X134336042Y-48067138D01*
X134354534Y-48073147D01*
X134516813Y-48140364D01*
X134553971Y-48155756D01*
X134571308Y-48164590D01*
X134755355Y-48277375D01*
X134771096Y-48288812D01*
X134935238Y-48429002D01*
X134948997Y-48442761D01*
X135089187Y-48606903D01*
X135100624Y-48622644D01*
X135213409Y-48806691D01*
X135222243Y-48824028D01*
X135304850Y-49023458D01*
X135310863Y-49041964D01*
X135361254Y-49251857D01*
X135364298Y-49271075D01*
X135381618Y-49491146D01*
X135382000Y-49500875D01*
X135382000Y-53750000D01*
X145995125Y-53750000D01*
X146004853Y-53750382D01*
X146043690Y-53753438D01*
X146224927Y-53767701D01*
X146244137Y-53770744D01*
X146454042Y-53821138D01*
X146472534Y-53827147D01*
X146634813Y-53894364D01*
X146671971Y-53909756D01*
X146689308Y-53918590D01*
X146873355Y-54031375D01*
X146889096Y-54042812D01*
X147053238Y-54183002D01*
X147066997Y-54196761D01*
X147207187Y-54360903D01*
X147218624Y-54376644D01*
X147331409Y-54560691D01*
X147340243Y-54578028D01*
X147422850Y-54777458D01*
X147428863Y-54795964D01*
X147479254Y-55005857D01*
X147482298Y-55025075D01*
X147499618Y-55245146D01*
X147500000Y-55254875D01*
X147500000Y-56915125D01*
X147499618Y-56924854D01*
X147482298Y-57144924D01*
X147479254Y-57164142D01*
X147428863Y-57374035D01*
X147422850Y-57392541D01*
X147340243Y-57591971D01*
X147331409Y-57609308D01*
X147218624Y-57793355D01*
X147207187Y-57809096D01*
X147066997Y-57973238D01*
X147053238Y-57986997D01*
X146889096Y-58127187D01*
X146873355Y-58138624D01*
X146689308Y-58251409D01*
X146671971Y-58260243D01*
X146472541Y-58342850D01*
X146454035Y-58348863D01*
X146244142Y-58399254D01*
X146224924Y-58402298D01*
X146004854Y-58419618D01*
X145995125Y-58420000D01*
X135382000Y-58420000D01*
X135382000Y-59920000D01*
X135382000Y-59920003D01*
X135382000Y-67178052D01*
X135381570Y-67188371D01*
X135362088Y-67421677D01*
X135358665Y-67442028D01*
X135302044Y-67663839D01*
X135295294Y-67683340D01*
X135202668Y-67892696D01*
X135192777Y-67910808D01*
X135066714Y-68101900D01*
X135053956Y-68118121D01*
X134897942Y-68285663D01*
X134882671Y-68299542D01*
X134701041Y-68438883D01*
X134683679Y-68450038D01*
X134481443Y-68557333D01*
X134462471Y-68565455D01*
X134245247Y-68637721D01*
X134225191Y-68642583D01*
X133993876Y-68678619D01*
X133983623Y-68679781D01*
X133210636Y-68734938D01*
X133142370Y-68720077D01*
X133092973Y-68670667D01*
X133078129Y-68602396D01*
X133102550Y-68536936D01*
X133158483Y-68495070D01*
X133166952Y-68491911D01*
X133418041Y-68354806D01*
X133560562Y-68248115D01*
X132334001Y-67021553D01*
X132334000Y-67021553D01*
X131107436Y-68248115D01*
X131249958Y-68354806D01*
X131501047Y-68491911D01*
X131769098Y-68591888D01*
X131777098Y-68593629D01*
X131829693Y-68619178D01*
X131864732Y-68665988D01*
X131874424Y-68723651D01*
X131856615Y-68779344D01*
X131815265Y-68820685D01*
X131759567Y-68838480D01*
X131601065Y-68849790D01*
X131107840Y-68884985D01*
X131097667Y-68885292D01*
X130866953Y-68882785D01*
X130846702Y-68880897D01*
X130624527Y-68841599D01*
X130604862Y-68836427D01*
X130443115Y-68779344D01*
X130392098Y-68761339D01*
X130373539Y-68753020D01*
X130175915Y-68644164D01*
X130158965Y-68632923D01*
X129981794Y-68493226D01*
X129966910Y-68479366D01*
X129814955Y-68312585D01*
X129802542Y-68296486D01*
X129679890Y-68107102D01*
X129670276Y-68089188D01*
X129592639Y-67910808D01*
X129580234Y-67882306D01*
X129573678Y-67863067D01*
X129518661Y-67644234D01*
X129515340Y-67624187D01*
X129496417Y-67394231D01*
X129496000Y-67384063D01*
X129496000Y-66667999D01*
X130328890Y-66667999D01*
X130349300Y-66953357D01*
X130410111Y-67232902D01*
X130510088Y-67500952D01*
X130647193Y-67752042D01*
X130753883Y-67894562D01*
X131980445Y-66668001D01*
X132687553Y-66668001D01*
X133914115Y-67894562D01*
X134020806Y-67752041D01*
X134157911Y-67500952D01*
X134257888Y-67232902D01*
X134318699Y-66953357D01*
X134339109Y-66667999D01*
X134318699Y-66382642D01*
X134257888Y-66103097D01*
X134157911Y-65835047D01*
X134020806Y-65583958D01*
X133914115Y-65441436D01*
X132687553Y-66668000D01*
X132687553Y-66668001D01*
X131980445Y-66668001D01*
X131980446Y-66668000D01*
X130753883Y-65441436D01*
X130753882Y-65441437D01*
X130647195Y-65583954D01*
X130510088Y-65835047D01*
X130410111Y-66103097D01*
X130349300Y-66382642D01*
X130328890Y-66667999D01*
X129496000Y-66667999D01*
X129496000Y-65087883D01*
X131107436Y-65087883D01*
X132334000Y-66314446D01*
X132334001Y-66314446D01*
X133560562Y-65087883D01*
X133418042Y-64981193D01*
X133166952Y-64844088D01*
X132898902Y-64744111D01*
X132619357Y-64683300D01*
X132334000Y-64662890D01*
X132048642Y-64683300D01*
X131769097Y-64744111D01*
X131501047Y-64844088D01*
X131249954Y-64981195D01*
X131107437Y-65087882D01*
X131107436Y-65087883D01*
X129496000Y-65087883D01*
X129496000Y-57358702D01*
X143914848Y-57358702D01*
X144097479Y-57483217D01*
X144340542Y-57600270D01*
X144598339Y-57679791D01*
X144865109Y-57720000D01*
X145134891Y-57720000D01*
X145401660Y-57679791D01*
X145659460Y-57600270D01*
X145902523Y-57483217D01*
X146085150Y-57358702D01*
X145000000Y-56273553D01*
X143914848Y-57358702D01*
X129496000Y-57358702D01*
X129496000Y-55920000D01*
X143194952Y-55920000D01*
X143215113Y-56189026D01*
X143275146Y-56452049D01*
X143373708Y-56703178D01*
X143508598Y-56936816D01*
X143562295Y-57004150D01*
X144646447Y-55920001D01*
X144646447Y-55920000D01*
X145353553Y-55920000D01*
X146437703Y-57004151D01*
X146437704Y-57004150D01*
X146491400Y-56936818D01*
X146626291Y-56703178D01*
X146724853Y-56452049D01*
X146784886Y-56189026D01*
X146805047Y-55920000D01*
X146784886Y-55650973D01*
X146724853Y-55387950D01*
X146626291Y-55136821D01*
X146491398Y-54903178D01*
X146437704Y-54835847D01*
X145353553Y-55920000D01*
X144646447Y-55920000D01*
X143562295Y-54835848D01*
X143508598Y-54903182D01*
X143373708Y-55136821D01*
X143275146Y-55387950D01*
X143215113Y-55650973D01*
X143194952Y-55920000D01*
X129496000Y-55920000D01*
X129496000Y-54481296D01*
X143914848Y-54481296D01*
X145000000Y-55566447D01*
X145000001Y-55566447D01*
X146085150Y-54481296D01*
X145902519Y-54356780D01*
X145659460Y-54239729D01*
X145401660Y-54160208D01*
X145134891Y-54120000D01*
X144865109Y-54120000D01*
X144598339Y-54160208D01*
X144340542Y-54239729D01*
X144097476Y-54356783D01*
X143914848Y-54481296D01*
X129496000Y-54481296D01*
X129496000Y-52018115D01*
X131107436Y-52018115D01*
X131249958Y-52124806D01*
X131501047Y-52261911D01*
X131769097Y-52361888D01*
X132048642Y-52422699D01*
X132334000Y-52443109D01*
X132619357Y-52422699D01*
X132898902Y-52361888D01*
X133166952Y-52261911D01*
X133418041Y-52124806D01*
X133560562Y-52018115D01*
X132334001Y-50791553D01*
X132334000Y-50791553D01*
X131107436Y-52018115D01*
X129496000Y-52018115D01*
X129496000Y-50437999D01*
X130328890Y-50437999D01*
X130349300Y-50723357D01*
X130410111Y-51002902D01*
X130510088Y-51270952D01*
X130647193Y-51522042D01*
X130753883Y-51664562D01*
X131980446Y-50438000D01*
X132687553Y-50438000D01*
X133914115Y-51664562D01*
X134020806Y-51522041D01*
X134157911Y-51270952D01*
X134257888Y-51002902D01*
X134318699Y-50723357D01*
X134339109Y-50438000D01*
X134318699Y-50152642D01*
X134257888Y-49873097D01*
X134157911Y-49605047D01*
X134020806Y-49353958D01*
X133914115Y-49211436D01*
X132687553Y-50437998D01*
X132687553Y-50438000D01*
X131980446Y-50438000D01*
X130753883Y-49211436D01*
X130753882Y-49211437D01*
X130647195Y-49353954D01*
X130510088Y-49605047D01*
X130410111Y-49873097D01*
X130349300Y-50152642D01*
X130328890Y-50437999D01*
X129496000Y-50437999D01*
X129496000Y-49500875D01*
X129496382Y-49491147D01*
X129498939Y-49458646D01*
X129513701Y-49271070D01*
X129516743Y-49251864D01*
X129567139Y-49041953D01*
X129573145Y-49023468D01*
X129641732Y-48857883D01*
X131107436Y-48857883D01*
X132334000Y-50084446D01*
X132334001Y-50084446D01*
X133560562Y-48857883D01*
X133418042Y-48751193D01*
X133166952Y-48614088D01*
X132898902Y-48514111D01*
X132619357Y-48453300D01*
X132334000Y-48432890D01*
X132048642Y-48453300D01*
X131769097Y-48514111D01*
X131501047Y-48614088D01*
X131249954Y-48751195D01*
X131107437Y-48857882D01*
X131107436Y-48857883D01*
X129641732Y-48857883D01*
X129655757Y-48824024D01*
X129664590Y-48806691D01*
X129698599Y-48751195D01*
X129777376Y-48622641D01*
X129788812Y-48606903D01*
X129929002Y-48442761D01*
X129942761Y-48429002D01*
X130106903Y-48288812D01*
X130122644Y-48277375D01*
X130306694Y-48164588D01*
X130324024Y-48155757D01*
X130523468Y-48073145D01*
X130541953Y-48067139D01*
X130751864Y-48016743D01*
X130771070Y-48013701D01*
X130958646Y-47998939D01*
X130991147Y-47996382D01*
X131000875Y-47996000D01*
X133877125Y-47996000D01*
X133886853Y-47996382D01*
G37*
%TD.AperFunction*%
%TD*%
%TA.AperFunction,Conductor*%
%TO.N,/A*%
G36*
X111698000Y-47768613D02*
G01*
X111743387Y-47814000D01*
X111760000Y-47876000D01*
X111760000Y-63376000D01*
X111743387Y-63438000D01*
X111698000Y-63483387D01*
X111636000Y-63500000D01*
X104264000Y-63500000D01*
X104202000Y-63483387D01*
X104156613Y-63438000D01*
X104140000Y-63376000D01*
X104140000Y-60322000D01*
X104156613Y-60260000D01*
X104202000Y-60214613D01*
X104264000Y-60198000D01*
X108458000Y-60198000D01*
X108458000Y-47876000D01*
X108474613Y-47814000D01*
X108520000Y-47768613D01*
X108582000Y-47752000D01*
X111636000Y-47752000D01*
X111698000Y-47768613D01*
G37*
%TD.AperFunction*%
%TD*%
%TA.AperFunction,Conductor*%
%TO.N,/A*%
G36*
X94514376Y-48252838D02*
G01*
X94734735Y-48269834D01*
X94753959Y-48272850D01*
X94964159Y-48323005D01*
X94982675Y-48328995D01*
X95120649Y-48385947D01*
X95182421Y-48411445D01*
X95199786Y-48420268D01*
X95384147Y-48532974D01*
X95399916Y-48544407D01*
X95564358Y-48684597D01*
X95578135Y-48698351D01*
X95648368Y-48780461D01*
X95718598Y-48862567D01*
X95730056Y-48878316D01*
X95843069Y-49062500D01*
X95851910Y-49079829D01*
X95934689Y-49279440D01*
X95940714Y-49297963D01*
X95991211Y-49508070D01*
X95994261Y-49527308D01*
X96011617Y-49747602D01*
X96012000Y-49757341D01*
X96012000Y-67495125D01*
X96011618Y-67504854D01*
X95994298Y-67724924D01*
X95991254Y-67744142D01*
X95940863Y-67954035D01*
X95934850Y-67972541D01*
X95852243Y-68171971D01*
X95843409Y-68189308D01*
X95730624Y-68373355D01*
X95719187Y-68389096D01*
X95578997Y-68553238D01*
X95565238Y-68566997D01*
X95401096Y-68707187D01*
X95385355Y-68718624D01*
X95201308Y-68831409D01*
X95183971Y-68840243D01*
X94984541Y-68922850D01*
X94966035Y-68928863D01*
X94756142Y-68979254D01*
X94736924Y-68982298D01*
X94523207Y-68999118D01*
X94513478Y-68999500D01*
X91414522Y-68999500D01*
X91404793Y-68999118D01*
X91191075Y-68982298D01*
X91171857Y-68979254D01*
X90961964Y-68928863D01*
X90943458Y-68922850D01*
X90744028Y-68840243D01*
X90726691Y-68831409D01*
X90542644Y-68718624D01*
X90526903Y-68707187D01*
X90362761Y-68566997D01*
X90349002Y-68553238D01*
X90208812Y-68389096D01*
X90197375Y-68373355D01*
X90158621Y-68310115D01*
X91958436Y-68310115D01*
X92100958Y-68416806D01*
X92352047Y-68553911D01*
X92620097Y-68653888D01*
X92899642Y-68714699D01*
X93185000Y-68735109D01*
X93470357Y-68714699D01*
X93749902Y-68653888D01*
X94017952Y-68553911D01*
X94269041Y-68416806D01*
X94411562Y-68310115D01*
X93185001Y-67083553D01*
X93185000Y-67083553D01*
X91958436Y-68310115D01*
X90158621Y-68310115D01*
X90084590Y-68189308D01*
X90075756Y-68171971D01*
X90060364Y-68134813D01*
X89993147Y-67972534D01*
X89987138Y-67954042D01*
X89936744Y-67744137D01*
X89933701Y-67724923D01*
X89916382Y-67504853D01*
X89916000Y-67495125D01*
X89916000Y-66730000D01*
X91179890Y-66730000D01*
X91200300Y-67015357D01*
X91261111Y-67294902D01*
X91361088Y-67562952D01*
X91498193Y-67814042D01*
X91604883Y-67956562D01*
X92831446Y-66730001D01*
X93538553Y-66730001D01*
X94765115Y-67956562D01*
X94871806Y-67814041D01*
X95008911Y-67562952D01*
X95108888Y-67294902D01*
X95169699Y-67015357D01*
X95190109Y-66730000D01*
X95169699Y-66444642D01*
X95108888Y-66165097D01*
X95008911Y-65897047D01*
X94871806Y-65645958D01*
X94765115Y-65503436D01*
X93538553Y-66730000D01*
X93538553Y-66730001D01*
X92831446Y-66730001D01*
X92831446Y-66730000D01*
X91604883Y-65503436D01*
X91604882Y-65503437D01*
X91498195Y-65645954D01*
X91361088Y-65897047D01*
X91261111Y-66165097D01*
X91200300Y-66444642D01*
X91179890Y-66730000D01*
X89916000Y-66730000D01*
X89916000Y-65149883D01*
X91958436Y-65149883D01*
X93185000Y-66376446D01*
X93185001Y-66376446D01*
X94411562Y-65149883D01*
X94269042Y-65043193D01*
X94017952Y-64906088D01*
X93749902Y-64806111D01*
X93470357Y-64745300D01*
X93185000Y-64724890D01*
X92899642Y-64745300D01*
X92620097Y-64806111D01*
X92352047Y-64906088D01*
X92100954Y-65043195D01*
X91958437Y-65149882D01*
X91958436Y-65149883D01*
X89916000Y-65149883D01*
X89916000Y-65000003D01*
X89916000Y-65000000D01*
X89916000Y-63500000D01*
X88416000Y-63500000D01*
X88415997Y-63500000D01*
X79004875Y-63500000D01*
X78995146Y-63499618D01*
X78775075Y-63482298D01*
X78755857Y-63479254D01*
X78545964Y-63428863D01*
X78527458Y-63422850D01*
X78328028Y-63340243D01*
X78310691Y-63331409D01*
X78126644Y-63218624D01*
X78110903Y-63207187D01*
X77946761Y-63066997D01*
X77933002Y-63053238D01*
X77792812Y-62889096D01*
X77781375Y-62873355D01*
X77668590Y-62689308D01*
X77667262Y-62686702D01*
X79433848Y-62686702D01*
X79616479Y-62811217D01*
X79859542Y-62928270D01*
X80117339Y-63007791D01*
X80384109Y-63048000D01*
X80653891Y-63048000D01*
X80920660Y-63007791D01*
X81178460Y-62928270D01*
X81421523Y-62811217D01*
X81604150Y-62686702D01*
X80519000Y-61601553D01*
X79433848Y-62686702D01*
X77667262Y-62686702D01*
X77659756Y-62671971D01*
X77644364Y-62634813D01*
X77577147Y-62472534D01*
X77571138Y-62454042D01*
X77520744Y-62244137D01*
X77517701Y-62224923D01*
X77500382Y-62004853D01*
X77500000Y-61995125D01*
X77500000Y-61248000D01*
X78713952Y-61248000D01*
X78734113Y-61517026D01*
X78794146Y-61780049D01*
X78892708Y-62031178D01*
X79027598Y-62264816D01*
X79081295Y-62332150D01*
X80165447Y-61248001D01*
X80165447Y-61248000D01*
X80872553Y-61248000D01*
X81956703Y-62332151D01*
X81956704Y-62332150D01*
X82010400Y-62264818D01*
X82145291Y-62031178D01*
X82243853Y-61780049D01*
X82303886Y-61517026D01*
X82324047Y-61248000D01*
X82303886Y-60978973D01*
X82243853Y-60715950D01*
X82145291Y-60464821D01*
X82010398Y-60231178D01*
X81956704Y-60163847D01*
X80872553Y-61248000D01*
X80165447Y-61248000D01*
X79081295Y-60163848D01*
X79027598Y-60231182D01*
X78892708Y-60464821D01*
X78794146Y-60715950D01*
X78734113Y-60978973D01*
X78713952Y-61248000D01*
X77500000Y-61248000D01*
X77500000Y-60504875D01*
X77500382Y-60495147D01*
X77517701Y-60275076D01*
X77520743Y-60255864D01*
X77571139Y-60045953D01*
X77577145Y-60027468D01*
X77659757Y-59828024D01*
X77668590Y-59810691D01*
X77669445Y-59809296D01*
X79433848Y-59809296D01*
X80519000Y-60894447D01*
X80519001Y-60894447D01*
X81604150Y-59809296D01*
X81421519Y-59684780D01*
X81178460Y-59567729D01*
X80920660Y-59488208D01*
X80653891Y-59448000D01*
X80384109Y-59448000D01*
X80117339Y-59488208D01*
X79859542Y-59567729D01*
X79616476Y-59684783D01*
X79433848Y-59809296D01*
X77669445Y-59809296D01*
X77781375Y-59626644D01*
X77792812Y-59610903D01*
X77933002Y-59446761D01*
X77946761Y-59433002D01*
X78110903Y-59292812D01*
X78126644Y-59281375D01*
X78310694Y-59168588D01*
X78328024Y-59159757D01*
X78527468Y-59077145D01*
X78545953Y-59071139D01*
X78755864Y-59020743D01*
X78775070Y-59017701D01*
X78962646Y-59002939D01*
X78995147Y-59000382D01*
X79004875Y-59000000D01*
X88415997Y-59000000D01*
X88416000Y-59000000D01*
X89916000Y-59000000D01*
X89916000Y-52080115D01*
X91958436Y-52080115D01*
X92100958Y-52186806D01*
X92352047Y-52323911D01*
X92620097Y-52423888D01*
X92899642Y-52484699D01*
X93185000Y-52505109D01*
X93470357Y-52484699D01*
X93749902Y-52423888D01*
X94017952Y-52323911D01*
X94269041Y-52186806D01*
X94411562Y-52080115D01*
X93185001Y-50853553D01*
X93185000Y-50853553D01*
X91958436Y-52080115D01*
X89916000Y-52080115D01*
X89916000Y-50500000D01*
X91179890Y-50500000D01*
X91200300Y-50785357D01*
X91261111Y-51064902D01*
X91361088Y-51332952D01*
X91498193Y-51584042D01*
X91604883Y-51726562D01*
X92831446Y-50500001D01*
X93538553Y-50500001D01*
X94765115Y-51726562D01*
X94871806Y-51584041D01*
X95008911Y-51332952D01*
X95108888Y-51064902D01*
X95169699Y-50785357D01*
X95190109Y-50500000D01*
X95169699Y-50214642D01*
X95108888Y-49935097D01*
X95008911Y-49667047D01*
X94871806Y-49415958D01*
X94765115Y-49273436D01*
X93538553Y-50500000D01*
X93538553Y-50500001D01*
X92831446Y-50500001D01*
X92831446Y-50500000D01*
X91604883Y-49273436D01*
X91604882Y-49273437D01*
X91498195Y-49415954D01*
X91361088Y-49667047D01*
X91261111Y-49935097D01*
X91200300Y-50214642D01*
X91179890Y-50500000D01*
X89916000Y-50500000D01*
X89916000Y-49762414D01*
X89916381Y-49752695D01*
X89916993Y-49744901D01*
X89933665Y-49532843D01*
X89936703Y-49513649D01*
X89960132Y-49415954D01*
X89986990Y-49303961D01*
X89992988Y-49285480D01*
X89997971Y-49273436D01*
X90075433Y-49086208D01*
X90084241Y-49068902D01*
X90175443Y-48919883D01*
X91958436Y-48919883D01*
X93185000Y-50146446D01*
X93185001Y-50146446D01*
X94411562Y-48919883D01*
X94269042Y-48813193D01*
X94017952Y-48676088D01*
X93749902Y-48576111D01*
X93470357Y-48515300D01*
X93286370Y-48502141D01*
X93226968Y-48481986D01*
X93185031Y-48435337D01*
X93182463Y-48423898D01*
X93179856Y-48435587D01*
X93137914Y-48482319D01*
X93078455Y-48502511D01*
X92899642Y-48515300D01*
X92620097Y-48576111D01*
X92352047Y-48676088D01*
X92100954Y-48813195D01*
X91958437Y-48919882D01*
X91958436Y-48919883D01*
X90175443Y-48919883D01*
X90196808Y-48884973D01*
X90208213Y-48869251D01*
X90348154Y-48705157D01*
X90361868Y-48691421D01*
X90525728Y-48551215D01*
X90541428Y-48539785D01*
X90660739Y-48466496D01*
X90725173Y-48426917D01*
X90742473Y-48418075D01*
X90941612Y-48335302D01*
X90960078Y-48329277D01*
X91169686Y-48278645D01*
X91188876Y-48275577D01*
X91222824Y-48272852D01*
X91408680Y-48257933D01*
X91418398Y-48257535D01*
X91467672Y-48257454D01*
X93069406Y-48254827D01*
X93130179Y-48270627D01*
X93175420Y-48314173D01*
X93182345Y-48337170D01*
X93189264Y-48314035D01*
X93234351Y-48270423D01*
X93295013Y-48254457D01*
X93711823Y-48253773D01*
X94504686Y-48252472D01*
X94514376Y-48252838D01*
G37*
%TD.AperFunction*%
%TD*%
%TA.AperFunction,Conductor*%
%TO.N,/B*%
G36*
X115762000Y-47768613D02*
G01*
X115807387Y-47814000D01*
X115824000Y-47876000D01*
X115824000Y-60198000D01*
X119764000Y-60198000D01*
X119826000Y-60214613D01*
X119871387Y-60260000D01*
X119888000Y-60322000D01*
X119888000Y-63376000D01*
X119871387Y-63438000D01*
X119826000Y-63483387D01*
X119764000Y-63500000D01*
X112646000Y-63500000D01*
X112584000Y-63483387D01*
X112538613Y-63438000D01*
X112522000Y-63376000D01*
X112522000Y-47876000D01*
X112538613Y-47814000D01*
X112584000Y-47768613D01*
X112646000Y-47752000D01*
X115700000Y-47752000D01*
X115762000Y-47768613D01*
G37*
%TD.AperFunction*%
%TD*%
M02*
