%TF.GenerationSoftware,KiCad,Pcbnew,7.0.1*%
%TF.CreationDate,2023-07-22T01:41:38+01:00*%
%TF.ProjectId,QA403 Impedance Fixture,51413430-3320-4496-9d70-6564616e6365,rev?*%
%TF.SameCoordinates,Original*%
%TF.FileFunction,Legend,Bot*%
%TF.FilePolarity,Positive*%
%FSLAX46Y46*%
G04 Gerber Fmt 4.6, Leading zero omitted, Abs format (unit mm)*
G04 Created by KiCad (PCBNEW 7.0.1) date 2023-07-22 01:41:38*
%MOMM*%
%LPD*%
G01*
G04 APERTURE LIST*
%ADD10C,0.250000*%
%ADD11C,1.605000*%
%ADD12C,2.595000*%
%ADD13C,3.000000*%
%ADD14R,2.600000X2.600000*%
%ADD15C,2.600000*%
%ADD16C,1.600000*%
%ADD17O,1.600000X1.600000*%
G04 APERTURE END LIST*
D10*
X130498191Y-27467619D02*
X130498191Y-26467619D01*
X130498191Y-26467619D02*
X130260096Y-26467619D01*
X130260096Y-26467619D02*
X130117239Y-26515238D01*
X130117239Y-26515238D02*
X130022001Y-26610476D01*
X130022001Y-26610476D02*
X129974382Y-26705714D01*
X129974382Y-26705714D02*
X129926763Y-26896190D01*
X129926763Y-26896190D02*
X129926763Y-27039047D01*
X129926763Y-27039047D02*
X129974382Y-27229523D01*
X129974382Y-27229523D02*
X130022001Y-27324761D01*
X130022001Y-27324761D02*
X130117239Y-27420000D01*
X130117239Y-27420000D02*
X130260096Y-27467619D01*
X130260096Y-27467619D02*
X130498191Y-27467619D01*
X129117239Y-27420000D02*
X129212477Y-27467619D01*
X129212477Y-27467619D02*
X129402953Y-27467619D01*
X129402953Y-27467619D02*
X129498191Y-27420000D01*
X129498191Y-27420000D02*
X129545810Y-27324761D01*
X129545810Y-27324761D02*
X129545810Y-26943809D01*
X129545810Y-26943809D02*
X129498191Y-26848571D01*
X129498191Y-26848571D02*
X129402953Y-26800952D01*
X129402953Y-26800952D02*
X129212477Y-26800952D01*
X129212477Y-26800952D02*
X129117239Y-26848571D01*
X129117239Y-26848571D02*
X129069620Y-26943809D01*
X129069620Y-26943809D02*
X129069620Y-27039047D01*
X129069620Y-27039047D02*
X129545810Y-27134285D01*
X128688667Y-27420000D02*
X128593429Y-27467619D01*
X128593429Y-27467619D02*
X128402953Y-27467619D01*
X128402953Y-27467619D02*
X128307715Y-27420000D01*
X128307715Y-27420000D02*
X128260096Y-27324761D01*
X128260096Y-27324761D02*
X128260096Y-27277142D01*
X128260096Y-27277142D02*
X128307715Y-27181904D01*
X128307715Y-27181904D02*
X128402953Y-27134285D01*
X128402953Y-27134285D02*
X128545810Y-27134285D01*
X128545810Y-27134285D02*
X128641048Y-27086666D01*
X128641048Y-27086666D02*
X128688667Y-26991428D01*
X128688667Y-26991428D02*
X128688667Y-26943809D01*
X128688667Y-26943809D02*
X128641048Y-26848571D01*
X128641048Y-26848571D02*
X128545810Y-26800952D01*
X128545810Y-26800952D02*
X128402953Y-26800952D01*
X128402953Y-26800952D02*
X128307715Y-26848571D01*
X127831524Y-27467619D02*
X127831524Y-26800952D01*
X127831524Y-26467619D02*
X127879143Y-26515238D01*
X127879143Y-26515238D02*
X127831524Y-26562857D01*
X127831524Y-26562857D02*
X127783905Y-26515238D01*
X127783905Y-26515238D02*
X127831524Y-26467619D01*
X127831524Y-26467619D02*
X127831524Y-26562857D01*
X126926763Y-26800952D02*
X126926763Y-27610476D01*
X126926763Y-27610476D02*
X126974382Y-27705714D01*
X126974382Y-27705714D02*
X127022001Y-27753333D01*
X127022001Y-27753333D02*
X127117239Y-27800952D01*
X127117239Y-27800952D02*
X127260096Y-27800952D01*
X127260096Y-27800952D02*
X127355334Y-27753333D01*
X126926763Y-27420000D02*
X127022001Y-27467619D01*
X127022001Y-27467619D02*
X127212477Y-27467619D01*
X127212477Y-27467619D02*
X127307715Y-27420000D01*
X127307715Y-27420000D02*
X127355334Y-27372380D01*
X127355334Y-27372380D02*
X127402953Y-27277142D01*
X127402953Y-27277142D02*
X127402953Y-26991428D01*
X127402953Y-26991428D02*
X127355334Y-26896190D01*
X127355334Y-26896190D02*
X127307715Y-26848571D01*
X127307715Y-26848571D02*
X127212477Y-26800952D01*
X127212477Y-26800952D02*
X127022001Y-26800952D01*
X127022001Y-26800952D02*
X126926763Y-26848571D01*
X126450572Y-26800952D02*
X126450572Y-27467619D01*
X126450572Y-26896190D02*
X126402953Y-26848571D01*
X126402953Y-26848571D02*
X126307715Y-26800952D01*
X126307715Y-26800952D02*
X126164858Y-26800952D01*
X126164858Y-26800952D02*
X126069620Y-26848571D01*
X126069620Y-26848571D02*
X126022001Y-26943809D01*
X126022001Y-26943809D02*
X126022001Y-27467619D01*
X125164858Y-27420000D02*
X125260096Y-27467619D01*
X125260096Y-27467619D02*
X125450572Y-27467619D01*
X125450572Y-27467619D02*
X125545810Y-27420000D01*
X125545810Y-27420000D02*
X125593429Y-27324761D01*
X125593429Y-27324761D02*
X125593429Y-26943809D01*
X125593429Y-26943809D02*
X125545810Y-26848571D01*
X125545810Y-26848571D02*
X125450572Y-26800952D01*
X125450572Y-26800952D02*
X125260096Y-26800952D01*
X125260096Y-26800952D02*
X125164858Y-26848571D01*
X125164858Y-26848571D02*
X125117239Y-26943809D01*
X125117239Y-26943809D02*
X125117239Y-27039047D01*
X125117239Y-27039047D02*
X125593429Y-27134285D01*
X124260096Y-27467619D02*
X124260096Y-26467619D01*
X124260096Y-27420000D02*
X124355334Y-27467619D01*
X124355334Y-27467619D02*
X124545810Y-27467619D01*
X124545810Y-27467619D02*
X124641048Y-27420000D01*
X124641048Y-27420000D02*
X124688667Y-27372380D01*
X124688667Y-27372380D02*
X124736286Y-27277142D01*
X124736286Y-27277142D02*
X124736286Y-26991428D01*
X124736286Y-26991428D02*
X124688667Y-26896190D01*
X124688667Y-26896190D02*
X124641048Y-26848571D01*
X124641048Y-26848571D02*
X124545810Y-26800952D01*
X124545810Y-26800952D02*
X124355334Y-26800952D01*
X124355334Y-26800952D02*
X124260096Y-26848571D01*
X123022000Y-27467619D02*
X123022000Y-26800952D01*
X123022000Y-26467619D02*
X123069619Y-26515238D01*
X123069619Y-26515238D02*
X123022000Y-26562857D01*
X123022000Y-26562857D02*
X122974381Y-26515238D01*
X122974381Y-26515238D02*
X123022000Y-26467619D01*
X123022000Y-26467619D02*
X123022000Y-26562857D01*
X122545810Y-26800952D02*
X122545810Y-27467619D01*
X122545810Y-26896190D02*
X122498191Y-26848571D01*
X122498191Y-26848571D02*
X122402953Y-26800952D01*
X122402953Y-26800952D02*
X122260096Y-26800952D01*
X122260096Y-26800952D02*
X122164858Y-26848571D01*
X122164858Y-26848571D02*
X122117239Y-26943809D01*
X122117239Y-26943809D02*
X122117239Y-27467619D01*
X120307715Y-27372380D02*
X120355334Y-27420000D01*
X120355334Y-27420000D02*
X120498191Y-27467619D01*
X120498191Y-27467619D02*
X120593429Y-27467619D01*
X120593429Y-27467619D02*
X120736286Y-27420000D01*
X120736286Y-27420000D02*
X120831524Y-27324761D01*
X120831524Y-27324761D02*
X120879143Y-27229523D01*
X120879143Y-27229523D02*
X120926762Y-27039047D01*
X120926762Y-27039047D02*
X120926762Y-26896190D01*
X120926762Y-26896190D02*
X120879143Y-26705714D01*
X120879143Y-26705714D02*
X120831524Y-26610476D01*
X120831524Y-26610476D02*
X120736286Y-26515238D01*
X120736286Y-26515238D02*
X120593429Y-26467619D01*
X120593429Y-26467619D02*
X120498191Y-26467619D01*
X120498191Y-26467619D02*
X120355334Y-26515238D01*
X120355334Y-26515238D02*
X120307715Y-26562857D01*
X119450572Y-27467619D02*
X119450572Y-26943809D01*
X119450572Y-26943809D02*
X119498191Y-26848571D01*
X119498191Y-26848571D02*
X119593429Y-26800952D01*
X119593429Y-26800952D02*
X119783905Y-26800952D01*
X119783905Y-26800952D02*
X119879143Y-26848571D01*
X119450572Y-27420000D02*
X119545810Y-27467619D01*
X119545810Y-27467619D02*
X119783905Y-27467619D01*
X119783905Y-27467619D02*
X119879143Y-27420000D01*
X119879143Y-27420000D02*
X119926762Y-27324761D01*
X119926762Y-27324761D02*
X119926762Y-27229523D01*
X119926762Y-27229523D02*
X119879143Y-27134285D01*
X119879143Y-27134285D02*
X119783905Y-27086666D01*
X119783905Y-27086666D02*
X119545810Y-27086666D01*
X119545810Y-27086666D02*
X119450572Y-27039047D01*
X118974381Y-27467619D02*
X118974381Y-26800952D01*
X118974381Y-26896190D02*
X118926762Y-26848571D01*
X118926762Y-26848571D02*
X118831524Y-26800952D01*
X118831524Y-26800952D02*
X118688667Y-26800952D01*
X118688667Y-26800952D02*
X118593429Y-26848571D01*
X118593429Y-26848571D02*
X118545810Y-26943809D01*
X118545810Y-26943809D02*
X118545810Y-27467619D01*
X118545810Y-26943809D02*
X118498191Y-26848571D01*
X118498191Y-26848571D02*
X118402953Y-26800952D01*
X118402953Y-26800952D02*
X118260096Y-26800952D01*
X118260096Y-26800952D02*
X118164857Y-26848571D01*
X118164857Y-26848571D02*
X118117238Y-26943809D01*
X118117238Y-26943809D02*
X118117238Y-27467619D01*
X117641048Y-27467619D02*
X117641048Y-26467619D01*
X117641048Y-26848571D02*
X117545810Y-26800952D01*
X117545810Y-26800952D02*
X117355334Y-26800952D01*
X117355334Y-26800952D02*
X117260096Y-26848571D01*
X117260096Y-26848571D02*
X117212477Y-26896190D01*
X117212477Y-26896190D02*
X117164858Y-26991428D01*
X117164858Y-26991428D02*
X117164858Y-27277142D01*
X117164858Y-27277142D02*
X117212477Y-27372380D01*
X117212477Y-27372380D02*
X117260096Y-27420000D01*
X117260096Y-27420000D02*
X117355334Y-27467619D01*
X117355334Y-27467619D02*
X117545810Y-27467619D01*
X117545810Y-27467619D02*
X117641048Y-27420000D01*
X116736286Y-27467619D02*
X116736286Y-26800952D01*
X116736286Y-26991428D02*
X116688667Y-26896190D01*
X116688667Y-26896190D02*
X116641048Y-26848571D01*
X116641048Y-26848571D02*
X116545810Y-26800952D01*
X116545810Y-26800952D02*
X116450572Y-26800952D01*
X116117238Y-27467619D02*
X116117238Y-26800952D01*
X116117238Y-26467619D02*
X116164857Y-26515238D01*
X116164857Y-26515238D02*
X116117238Y-26562857D01*
X116117238Y-26562857D02*
X116069619Y-26515238D01*
X116069619Y-26515238D02*
X116117238Y-26467619D01*
X116117238Y-26467619D02*
X116117238Y-26562857D01*
X115212477Y-27467619D02*
X115212477Y-26467619D01*
X115212477Y-27420000D02*
X115307715Y-27467619D01*
X115307715Y-27467619D02*
X115498191Y-27467619D01*
X115498191Y-27467619D02*
X115593429Y-27420000D01*
X115593429Y-27420000D02*
X115641048Y-27372380D01*
X115641048Y-27372380D02*
X115688667Y-27277142D01*
X115688667Y-27277142D02*
X115688667Y-26991428D01*
X115688667Y-26991428D02*
X115641048Y-26896190D01*
X115641048Y-26896190D02*
X115593429Y-26848571D01*
X115593429Y-26848571D02*
X115498191Y-26800952D01*
X115498191Y-26800952D02*
X115307715Y-26800952D01*
X115307715Y-26800952D02*
X115212477Y-26848571D01*
X114307715Y-26800952D02*
X114307715Y-27610476D01*
X114307715Y-27610476D02*
X114355334Y-27705714D01*
X114355334Y-27705714D02*
X114402953Y-27753333D01*
X114402953Y-27753333D02*
X114498191Y-27800952D01*
X114498191Y-27800952D02*
X114641048Y-27800952D01*
X114641048Y-27800952D02*
X114736286Y-27753333D01*
X114307715Y-27420000D02*
X114402953Y-27467619D01*
X114402953Y-27467619D02*
X114593429Y-27467619D01*
X114593429Y-27467619D02*
X114688667Y-27420000D01*
X114688667Y-27420000D02*
X114736286Y-27372380D01*
X114736286Y-27372380D02*
X114783905Y-27277142D01*
X114783905Y-27277142D02*
X114783905Y-26991428D01*
X114783905Y-26991428D02*
X114736286Y-26896190D01*
X114736286Y-26896190D02*
X114688667Y-26848571D01*
X114688667Y-26848571D02*
X114593429Y-26800952D01*
X114593429Y-26800952D02*
X114402953Y-26800952D01*
X114402953Y-26800952D02*
X114307715Y-26848571D01*
X113450572Y-27420000D02*
X113545810Y-27467619D01*
X113545810Y-27467619D02*
X113736286Y-27467619D01*
X113736286Y-27467619D02*
X113831524Y-27420000D01*
X113831524Y-27420000D02*
X113879143Y-27324761D01*
X113879143Y-27324761D02*
X113879143Y-26943809D01*
X113879143Y-26943809D02*
X113831524Y-26848571D01*
X113831524Y-26848571D02*
X113736286Y-26800952D01*
X113736286Y-26800952D02*
X113545810Y-26800952D01*
X113545810Y-26800952D02*
X113450572Y-26848571D01*
X113450572Y-26848571D02*
X113402953Y-26943809D01*
X113402953Y-26943809D02*
X113402953Y-27039047D01*
X113402953Y-27039047D02*
X113879143Y-27134285D01*
X112926762Y-27420000D02*
X112926762Y-27467619D01*
X112926762Y-27467619D02*
X112974381Y-27562857D01*
X112974381Y-27562857D02*
X113022000Y-27610476D01*
X112974381Y-26848571D02*
X112926762Y-26896190D01*
X112926762Y-26896190D02*
X112974381Y-26943809D01*
X112974381Y-26943809D02*
X113022000Y-26896190D01*
X113022000Y-26896190D02*
X112974381Y-26848571D01*
X112974381Y-26848571D02*
X112974381Y-26943809D01*
X111307715Y-27467619D02*
X111307715Y-26943809D01*
X111307715Y-26943809D02*
X111355334Y-26848571D01*
X111355334Y-26848571D02*
X111450572Y-26800952D01*
X111450572Y-26800952D02*
X111641048Y-26800952D01*
X111641048Y-26800952D02*
X111736286Y-26848571D01*
X111307715Y-27420000D02*
X111402953Y-27467619D01*
X111402953Y-27467619D02*
X111641048Y-27467619D01*
X111641048Y-27467619D02*
X111736286Y-27420000D01*
X111736286Y-27420000D02*
X111783905Y-27324761D01*
X111783905Y-27324761D02*
X111783905Y-27229523D01*
X111783905Y-27229523D02*
X111736286Y-27134285D01*
X111736286Y-27134285D02*
X111641048Y-27086666D01*
X111641048Y-27086666D02*
X111402953Y-27086666D01*
X111402953Y-27086666D02*
X111307715Y-27039047D01*
X110879143Y-27420000D02*
X110783905Y-27467619D01*
X110783905Y-27467619D02*
X110593429Y-27467619D01*
X110593429Y-27467619D02*
X110498191Y-27420000D01*
X110498191Y-27420000D02*
X110450572Y-27324761D01*
X110450572Y-27324761D02*
X110450572Y-27277142D01*
X110450572Y-27277142D02*
X110498191Y-27181904D01*
X110498191Y-27181904D02*
X110593429Y-27134285D01*
X110593429Y-27134285D02*
X110736286Y-27134285D01*
X110736286Y-27134285D02*
X110831524Y-27086666D01*
X110831524Y-27086666D02*
X110879143Y-26991428D01*
X110879143Y-26991428D02*
X110879143Y-26943809D01*
X110879143Y-26943809D02*
X110831524Y-26848571D01*
X110831524Y-26848571D02*
X110736286Y-26800952D01*
X110736286Y-26800952D02*
X110593429Y-26800952D01*
X110593429Y-26800952D02*
X110498191Y-26848571D01*
X110069619Y-27420000D02*
X109974381Y-27467619D01*
X109974381Y-27467619D02*
X109783905Y-27467619D01*
X109783905Y-27467619D02*
X109688667Y-27420000D01*
X109688667Y-27420000D02*
X109641048Y-27324761D01*
X109641048Y-27324761D02*
X109641048Y-27277142D01*
X109641048Y-27277142D02*
X109688667Y-27181904D01*
X109688667Y-27181904D02*
X109783905Y-27134285D01*
X109783905Y-27134285D02*
X109926762Y-27134285D01*
X109926762Y-27134285D02*
X110022000Y-27086666D01*
X110022000Y-27086666D02*
X110069619Y-26991428D01*
X110069619Y-26991428D02*
X110069619Y-26943809D01*
X110069619Y-26943809D02*
X110022000Y-26848571D01*
X110022000Y-26848571D02*
X109926762Y-26800952D01*
X109926762Y-26800952D02*
X109783905Y-26800952D01*
X109783905Y-26800952D02*
X109688667Y-26848571D01*
X108831524Y-27420000D02*
X108926762Y-27467619D01*
X108926762Y-27467619D02*
X109117238Y-27467619D01*
X109117238Y-27467619D02*
X109212476Y-27420000D01*
X109212476Y-27420000D02*
X109260095Y-27324761D01*
X109260095Y-27324761D02*
X109260095Y-26943809D01*
X109260095Y-26943809D02*
X109212476Y-26848571D01*
X109212476Y-26848571D02*
X109117238Y-26800952D01*
X109117238Y-26800952D02*
X108926762Y-26800952D01*
X108926762Y-26800952D02*
X108831524Y-26848571D01*
X108831524Y-26848571D02*
X108783905Y-26943809D01*
X108783905Y-26943809D02*
X108783905Y-27039047D01*
X108783905Y-27039047D02*
X109260095Y-27134285D01*
X108355333Y-27467619D02*
X108355333Y-26800952D01*
X108355333Y-26896190D02*
X108307714Y-26848571D01*
X108307714Y-26848571D02*
X108212476Y-26800952D01*
X108212476Y-26800952D02*
X108069619Y-26800952D01*
X108069619Y-26800952D02*
X107974381Y-26848571D01*
X107974381Y-26848571D02*
X107926762Y-26943809D01*
X107926762Y-26943809D02*
X107926762Y-27467619D01*
X107926762Y-26943809D02*
X107879143Y-26848571D01*
X107879143Y-26848571D02*
X107783905Y-26800952D01*
X107783905Y-26800952D02*
X107641048Y-26800952D01*
X107641048Y-26800952D02*
X107545809Y-26848571D01*
X107545809Y-26848571D02*
X107498190Y-26943809D01*
X107498190Y-26943809D02*
X107498190Y-27467619D01*
X107022000Y-27467619D02*
X107022000Y-26467619D01*
X107022000Y-26848571D02*
X106926762Y-26800952D01*
X106926762Y-26800952D02*
X106736286Y-26800952D01*
X106736286Y-26800952D02*
X106641048Y-26848571D01*
X106641048Y-26848571D02*
X106593429Y-26896190D01*
X106593429Y-26896190D02*
X106545810Y-26991428D01*
X106545810Y-26991428D02*
X106545810Y-27277142D01*
X106545810Y-27277142D02*
X106593429Y-27372380D01*
X106593429Y-27372380D02*
X106641048Y-27420000D01*
X106641048Y-27420000D02*
X106736286Y-27467619D01*
X106736286Y-27467619D02*
X106926762Y-27467619D01*
X106926762Y-27467619D02*
X107022000Y-27420000D01*
X105974381Y-27467619D02*
X106069619Y-27420000D01*
X106069619Y-27420000D02*
X106117238Y-27324761D01*
X106117238Y-27324761D02*
X106117238Y-26467619D01*
X105212476Y-27420000D02*
X105307714Y-27467619D01*
X105307714Y-27467619D02*
X105498190Y-27467619D01*
X105498190Y-27467619D02*
X105593428Y-27420000D01*
X105593428Y-27420000D02*
X105641047Y-27324761D01*
X105641047Y-27324761D02*
X105641047Y-26943809D01*
X105641047Y-26943809D02*
X105593428Y-26848571D01*
X105593428Y-26848571D02*
X105498190Y-26800952D01*
X105498190Y-26800952D02*
X105307714Y-26800952D01*
X105307714Y-26800952D02*
X105212476Y-26848571D01*
X105212476Y-26848571D02*
X105164857Y-26943809D01*
X105164857Y-26943809D02*
X105164857Y-27039047D01*
X105164857Y-27039047D02*
X105641047Y-27134285D01*
X104307714Y-27467619D02*
X104307714Y-26467619D01*
X104307714Y-27420000D02*
X104402952Y-27467619D01*
X104402952Y-27467619D02*
X104593428Y-27467619D01*
X104593428Y-27467619D02*
X104688666Y-27420000D01*
X104688666Y-27420000D02*
X104736285Y-27372380D01*
X104736285Y-27372380D02*
X104783904Y-27277142D01*
X104783904Y-27277142D02*
X104783904Y-26991428D01*
X104783904Y-26991428D02*
X104736285Y-26896190D01*
X104736285Y-26896190D02*
X104688666Y-26848571D01*
X104688666Y-26848571D02*
X104593428Y-26800952D01*
X104593428Y-26800952D02*
X104402952Y-26800952D01*
X104402952Y-26800952D02*
X104307714Y-26848571D01*
X103069618Y-27467619D02*
X103069618Y-26800952D01*
X103069618Y-26467619D02*
X103117237Y-26515238D01*
X103117237Y-26515238D02*
X103069618Y-26562857D01*
X103069618Y-26562857D02*
X103021999Y-26515238D01*
X103021999Y-26515238D02*
X103069618Y-26467619D01*
X103069618Y-26467619D02*
X103069618Y-26562857D01*
X102593428Y-26800952D02*
X102593428Y-27467619D01*
X102593428Y-26896190D02*
X102545809Y-26848571D01*
X102545809Y-26848571D02*
X102450571Y-26800952D01*
X102450571Y-26800952D02*
X102307714Y-26800952D01*
X102307714Y-26800952D02*
X102212476Y-26848571D01*
X102212476Y-26848571D02*
X102164857Y-26943809D01*
X102164857Y-26943809D02*
X102164857Y-27467619D01*
X100498190Y-27467619D02*
X100498190Y-26943809D01*
X100498190Y-26943809D02*
X100545809Y-26848571D01*
X100545809Y-26848571D02*
X100641047Y-26800952D01*
X100641047Y-26800952D02*
X100831523Y-26800952D01*
X100831523Y-26800952D02*
X100926761Y-26848571D01*
X100498190Y-27420000D02*
X100593428Y-27467619D01*
X100593428Y-27467619D02*
X100831523Y-27467619D01*
X100831523Y-27467619D02*
X100926761Y-27420000D01*
X100926761Y-27420000D02*
X100974380Y-27324761D01*
X100974380Y-27324761D02*
X100974380Y-27229523D01*
X100974380Y-27229523D02*
X100926761Y-27134285D01*
X100926761Y-27134285D02*
X100831523Y-27086666D01*
X100831523Y-27086666D02*
X100593428Y-27086666D01*
X100593428Y-27086666D02*
X100498190Y-27039047D01*
X98736285Y-26515238D02*
X98831523Y-26467619D01*
X98831523Y-26467619D02*
X98974380Y-26467619D01*
X98974380Y-26467619D02*
X99117237Y-26515238D01*
X99117237Y-26515238D02*
X99212475Y-26610476D01*
X99212475Y-26610476D02*
X99260094Y-26705714D01*
X99260094Y-26705714D02*
X99307713Y-26896190D01*
X99307713Y-26896190D02*
X99307713Y-27039047D01*
X99307713Y-27039047D02*
X99260094Y-27229523D01*
X99260094Y-27229523D02*
X99212475Y-27324761D01*
X99212475Y-27324761D02*
X99117237Y-27420000D01*
X99117237Y-27420000D02*
X98974380Y-27467619D01*
X98974380Y-27467619D02*
X98879142Y-27467619D01*
X98879142Y-27467619D02*
X98736285Y-27420000D01*
X98736285Y-27420000D02*
X98688666Y-27372380D01*
X98688666Y-27372380D02*
X98688666Y-27039047D01*
X98688666Y-27039047D02*
X98879142Y-27039047D01*
X97831523Y-27467619D02*
X97831523Y-26943809D01*
X97831523Y-26943809D02*
X97879142Y-26848571D01*
X97879142Y-26848571D02*
X97974380Y-26800952D01*
X97974380Y-26800952D02*
X98164856Y-26800952D01*
X98164856Y-26800952D02*
X98260094Y-26848571D01*
X97831523Y-27420000D02*
X97926761Y-27467619D01*
X97926761Y-27467619D02*
X98164856Y-27467619D01*
X98164856Y-27467619D02*
X98260094Y-27420000D01*
X98260094Y-27420000D02*
X98307713Y-27324761D01*
X98307713Y-27324761D02*
X98307713Y-27229523D01*
X98307713Y-27229523D02*
X98260094Y-27134285D01*
X98260094Y-27134285D02*
X98164856Y-27086666D01*
X98164856Y-27086666D02*
X97926761Y-27086666D01*
X97926761Y-27086666D02*
X97831523Y-27039047D01*
X97355332Y-27467619D02*
X97355332Y-26800952D01*
X97355332Y-26991428D02*
X97307713Y-26896190D01*
X97307713Y-26896190D02*
X97260094Y-26848571D01*
X97260094Y-26848571D02*
X97164856Y-26800952D01*
X97164856Y-26800952D02*
X97069618Y-26800952D01*
X96307713Y-27467619D02*
X96307713Y-26943809D01*
X96307713Y-26943809D02*
X96355332Y-26848571D01*
X96355332Y-26848571D02*
X96450570Y-26800952D01*
X96450570Y-26800952D02*
X96641046Y-26800952D01*
X96641046Y-26800952D02*
X96736284Y-26848571D01*
X96307713Y-27420000D02*
X96402951Y-27467619D01*
X96402951Y-27467619D02*
X96641046Y-27467619D01*
X96641046Y-27467619D02*
X96736284Y-27420000D01*
X96736284Y-27420000D02*
X96783903Y-27324761D01*
X96783903Y-27324761D02*
X96783903Y-27229523D01*
X96783903Y-27229523D02*
X96736284Y-27134285D01*
X96736284Y-27134285D02*
X96641046Y-27086666D01*
X96641046Y-27086666D02*
X96402951Y-27086666D01*
X96402951Y-27086666D02*
X96307713Y-27039047D01*
X95402951Y-26800952D02*
X95402951Y-27610476D01*
X95402951Y-27610476D02*
X95450570Y-27705714D01*
X95450570Y-27705714D02*
X95498189Y-27753333D01*
X95498189Y-27753333D02*
X95593427Y-27800952D01*
X95593427Y-27800952D02*
X95736284Y-27800952D01*
X95736284Y-27800952D02*
X95831522Y-27753333D01*
X95402951Y-27420000D02*
X95498189Y-27467619D01*
X95498189Y-27467619D02*
X95688665Y-27467619D01*
X95688665Y-27467619D02*
X95783903Y-27420000D01*
X95783903Y-27420000D02*
X95831522Y-27372380D01*
X95831522Y-27372380D02*
X95879141Y-27277142D01*
X95879141Y-27277142D02*
X95879141Y-26991428D01*
X95879141Y-26991428D02*
X95831522Y-26896190D01*
X95831522Y-26896190D02*
X95783903Y-26848571D01*
X95783903Y-26848571D02*
X95688665Y-26800952D01*
X95688665Y-26800952D02*
X95498189Y-26800952D01*
X95498189Y-26800952D02*
X95402951Y-26848571D01*
X94545808Y-27420000D02*
X94641046Y-27467619D01*
X94641046Y-27467619D02*
X94831522Y-27467619D01*
X94831522Y-27467619D02*
X94926760Y-27420000D01*
X94926760Y-27420000D02*
X94974379Y-27324761D01*
X94974379Y-27324761D02*
X94974379Y-26943809D01*
X94974379Y-26943809D02*
X94926760Y-26848571D01*
X94926760Y-26848571D02*
X94831522Y-26800952D01*
X94831522Y-26800952D02*
X94641046Y-26800952D01*
X94641046Y-26800952D02*
X94545808Y-26848571D01*
X94545808Y-26848571D02*
X94498189Y-26943809D01*
X94498189Y-26943809D02*
X94498189Y-27039047D01*
X94498189Y-27039047D02*
X94974379Y-27134285D01*
X113879143Y-29087619D02*
X114212476Y-28611428D01*
X114450571Y-29087619D02*
X114450571Y-28087619D01*
X114450571Y-28087619D02*
X114069619Y-28087619D01*
X114069619Y-28087619D02*
X113974381Y-28135238D01*
X113974381Y-28135238D02*
X113926762Y-28182857D01*
X113926762Y-28182857D02*
X113879143Y-28278095D01*
X113879143Y-28278095D02*
X113879143Y-28420952D01*
X113879143Y-28420952D02*
X113926762Y-28516190D01*
X113926762Y-28516190D02*
X113974381Y-28563809D01*
X113974381Y-28563809D02*
X114069619Y-28611428D01*
X114069619Y-28611428D02*
X114450571Y-28611428D01*
X113069619Y-29040000D02*
X113164857Y-29087619D01*
X113164857Y-29087619D02*
X113355333Y-29087619D01*
X113355333Y-29087619D02*
X113450571Y-29040000D01*
X113450571Y-29040000D02*
X113498190Y-28944761D01*
X113498190Y-28944761D02*
X113498190Y-28563809D01*
X113498190Y-28563809D02*
X113450571Y-28468571D01*
X113450571Y-28468571D02*
X113355333Y-28420952D01*
X113355333Y-28420952D02*
X113164857Y-28420952D01*
X113164857Y-28420952D02*
X113069619Y-28468571D01*
X113069619Y-28468571D02*
X113022000Y-28563809D01*
X113022000Y-28563809D02*
X113022000Y-28659047D01*
X113022000Y-28659047D02*
X113498190Y-28754285D01*
X112688666Y-28420952D02*
X112450571Y-29087619D01*
X112450571Y-29087619D02*
X112212476Y-28420952D01*
X110545809Y-29087619D02*
X111117237Y-29087619D01*
X110831523Y-29087619D02*
X110831523Y-28087619D01*
X110831523Y-28087619D02*
X110926761Y-28230476D01*
X110926761Y-28230476D02*
X111021999Y-28325714D01*
X111021999Y-28325714D02*
X111117237Y-28373333D01*
%LPC*%
D11*
%TO.C,J6*%
X139700000Y-34165000D03*
D12*
X139700000Y-29845000D03*
X143430000Y-36325000D03*
X135970000Y-36325000D03*
%TD*%
D11*
%TO.C,J3*%
X121300396Y-34210000D03*
D12*
X121300396Y-29890000D03*
X125030396Y-36370000D03*
X117570396Y-36370000D03*
%TD*%
D11*
%TO.C,J5*%
X102900793Y-34165000D03*
D12*
X102900793Y-29845000D03*
X106630793Y-36325000D03*
X99170793Y-36325000D03*
%TD*%
D13*
%TO.C,J1*%
X86835000Y-66730000D03*
X86835000Y-50500000D03*
X80485000Y-66730000D03*
D14*
X80519000Y-56168000D03*
D13*
X80485000Y-50500000D03*
X93185000Y-66730000D03*
D15*
X80519000Y-61248000D03*
D13*
X93185000Y-50500000D03*
%TD*%
D16*
%TO.C,R4*%
X106000000Y-62000000D03*
D17*
X118700000Y-62000000D03*
%TD*%
D13*
%TO.C,J2*%
X138684000Y-50438000D03*
X138684000Y-66668000D03*
X145034000Y-50438000D03*
D14*
X145000000Y-61000000D03*
D13*
X145034000Y-66668000D03*
X132334000Y-50438000D03*
D15*
X145000000Y-55920000D03*
D13*
X132334000Y-66668000D03*
%TD*%
D11*
%TO.C,J4*%
X84455000Y-34165000D03*
D12*
X84455000Y-29845000D03*
X88185000Y-36325000D03*
X80725000Y-36325000D03*
%TD*%
M02*
