%TF.GenerationSoftware,KiCad,Pcbnew,7.0.1*%
%TF.CreationDate,2023-07-22T01:41:38+01:00*%
%TF.ProjectId,QA403 Impedance Fixture,51413430-3320-4496-9d70-6564616e6365,rev?*%
%TF.SameCoordinates,Original*%
%TF.FileFunction,Copper,L1,Top*%
%TF.FilePolarity,Positive*%
%FSLAX46Y46*%
G04 Gerber Fmt 4.6, Leading zero omitted, Abs format (unit mm)*
G04 Created by KiCad (PCBNEW 7.0.1) date 2023-07-22 01:41:38*
%MOMM*%
%LPD*%
G01*
G04 APERTURE LIST*
G04 Aperture macros list*
%AMRoundRect*
0 Rectangle with rounded corners*
0 $1 Rounding radius*
0 $2 $3 $4 $5 $6 $7 $8 $9 X,Y pos of 4 corners*
0 Add a 4 corners polygon primitive as box body*
4,1,4,$2,$3,$4,$5,$6,$7,$8,$9,$2,$3,0*
0 Add four circle primitives for the rounded corners*
1,1,$1+$1,$2,$3*
1,1,$1+$1,$4,$5*
1,1,$1+$1,$6,$7*
1,1,$1+$1,$8,$9*
0 Add four rect primitives between the rounded corners*
20,1,$1+$1,$2,$3,$4,$5,0*
20,1,$1+$1,$4,$5,$6,$7,0*
20,1,$1+$1,$6,$7,$8,$9,0*
20,1,$1+$1,$8,$9,$2,$3,0*%
G04 Aperture macros list end*
%TA.AperFunction,ComponentPad*%
%ADD10C,1.605000*%
%TD*%
%TA.AperFunction,ComponentPad*%
%ADD11C,2.595000*%
%TD*%
%TA.AperFunction,SMDPad,CuDef*%
%ADD12RoundRect,0.250000X-0.350000X-0.450000X0.350000X-0.450000X0.350000X0.450000X-0.350000X0.450000X0*%
%TD*%
%TA.AperFunction,SMDPad,CuDef*%
%ADD13RoundRect,0.249999X-0.450001X-1.075001X0.450001X-1.075001X0.450001X1.075001X-0.450001X1.075001X0*%
%TD*%
%TA.AperFunction,ComponentPad*%
%ADD14C,3.000000*%
%TD*%
%TA.AperFunction,ComponentPad*%
%ADD15R,2.600000X2.600000*%
%TD*%
%TA.AperFunction,ComponentPad*%
%ADD16C,2.600000*%
%TD*%
%TA.AperFunction,ComponentPad*%
%ADD17C,1.600000*%
%TD*%
%TA.AperFunction,ComponentPad*%
%ADD18O,1.600000X1.600000*%
%TD*%
%TA.AperFunction,SMDPad,CuDef*%
%ADD19RoundRect,0.250000X-0.400000X-0.625000X0.400000X-0.625000X0.400000X0.625000X-0.400000X0.625000X0*%
%TD*%
%TA.AperFunction,Conductor*%
%ADD20C,1.600000*%
%TD*%
%TA.AperFunction,Conductor*%
%ADD21C,0.500000*%
%TD*%
%TA.AperFunction,Conductor*%
%ADD22C,1.800000*%
%TD*%
G04 APERTURE END LIST*
D10*
%TO.P,J6,1,In*%
%TO.N,/B*%
X139700000Y-34165000D03*
D11*
%TO.P,J6,2,Ext*%
%TO.N,GNDA*%
X139700000Y-29845000D03*
%TO.P,J6,3,Ext*%
X143430000Y-36325000D03*
%TO.P,J6,4,Ext*%
X135970000Y-36325000D03*
%TD*%
D10*
%TO.P,J3,1,In*%
%TO.N,/B*%
X121300396Y-34210000D03*
D11*
%TO.P,J3,2,Ext*%
%TO.N,GNDA*%
X121300396Y-29890000D03*
%TO.P,J3,3,Ext*%
X125030396Y-36370000D03*
%TO.P,J3,4,Ext*%
X117570396Y-36370000D03*
%TD*%
D10*
%TO.P,J5,1,In*%
%TO.N,/A*%
X102900793Y-34165000D03*
D11*
%TO.P,J5,2,Ext*%
%TO.N,GNDA*%
X102900793Y-29845000D03*
%TO.P,J5,3,Ext*%
X106630793Y-36325000D03*
%TO.P,J5,4,Ext*%
X99170793Y-36325000D03*
%TD*%
D12*
%TO.P,R3,1*%
%TO.N,/A*%
X111252000Y-56896000D03*
%TO.P,R3,2*%
%TO.N,/B*%
X113252000Y-56896000D03*
%TD*%
D13*
%TO.P,R1,1*%
%TO.N,/A*%
X109852000Y-49896000D03*
%TO.P,R1,2*%
%TO.N,/B*%
X114652000Y-49896000D03*
%TD*%
D14*
%TO.P,J1,R*%
%TO.N,/A*%
X86835000Y-66730000D03*
%TO.P,J1,RN*%
X86835000Y-50500000D03*
%TO.P,J1,S*%
%TO.N,/COM*%
X80485000Y-66730000D03*
D15*
%TO.P,J1,S2*%
X80519000Y-56168000D03*
D14*
%TO.P,J1,SN*%
X80485000Y-50500000D03*
%TO.P,J1,T*%
%TO.N,/A*%
X93185000Y-66730000D03*
D16*
%TO.P,J1,T2*%
X80519000Y-61248000D03*
D14*
%TO.P,J1,TN*%
X93185000Y-50500000D03*
%TD*%
D17*
%TO.P,R4,1*%
%TO.N,/A*%
X106000000Y-62000000D03*
D18*
%TO.P,R4,2*%
%TO.N,/B*%
X118700000Y-62000000D03*
%TD*%
D14*
%TO.P,J2,R*%
%TO.N,/B*%
X138684000Y-50438000D03*
%TO.P,J2,RN*%
X138684000Y-66668000D03*
%TO.P,J2,S*%
%TO.N,/COM*%
X145034000Y-50438000D03*
D15*
%TO.P,J2,S2*%
X145000000Y-61000000D03*
D14*
%TO.P,J2,SN*%
X145034000Y-66668000D03*
%TO.P,J2,T*%
%TO.N,/B*%
X132334000Y-50438000D03*
D16*
%TO.P,J2,T2*%
X145000000Y-55920000D03*
D14*
%TO.P,J2,TN*%
X132334000Y-66668000D03*
%TD*%
D10*
%TO.P,J4,1,In*%
%TO.N,/COM*%
X84455000Y-34165000D03*
D11*
%TO.P,J4,2,Ext*%
%TO.N,GNDA*%
X84455000Y-29845000D03*
%TO.P,J4,3,Ext*%
X88185000Y-36325000D03*
%TO.P,J4,4,Ext*%
X80725000Y-36325000D03*
%TD*%
D19*
%TO.P,R2,1*%
%TO.N,/A*%
X110702000Y-53896000D03*
%TO.P,R2,2*%
%TO.N,/B*%
X113802000Y-53896000D03*
%TD*%
D20*
%TO.N,/A*%
X92750000Y-66730000D02*
X92750000Y-66750000D01*
X92750000Y-66750000D02*
X93000000Y-67000000D01*
X102900793Y-42944793D02*
X109852000Y-49896000D01*
D21*
X86400000Y-50500000D02*
X86835000Y-50500000D01*
D22*
X86400000Y-66730000D02*
X85566000Y-66730000D01*
D20*
X102900793Y-34165000D02*
X102900793Y-42944793D01*
%TD*%
%TA.AperFunction,Conductor*%
%TO.N,/COM*%
G36*
X147633533Y-25500382D02*
G01*
X147671948Y-25503405D01*
X147853606Y-25517701D01*
X147872816Y-25520744D01*
X148082722Y-25571138D01*
X148101214Y-25577146D01*
X148260399Y-25643083D01*
X148300650Y-25659756D01*
X148317987Y-25668590D01*
X148502035Y-25781375D01*
X148517776Y-25792811D01*
X148685638Y-25936178D01*
X148692788Y-25942788D01*
X149057211Y-26307211D01*
X149063821Y-26314361D01*
X149207188Y-26482223D01*
X149218624Y-26497964D01*
X149331409Y-26682012D01*
X149340243Y-26699349D01*
X149422850Y-26898778D01*
X149428863Y-26917284D01*
X149479254Y-27127178D01*
X149482298Y-27146396D01*
X149499618Y-27366466D01*
X149500000Y-27376195D01*
X149500000Y-66373805D01*
X149499618Y-66383534D01*
X149482298Y-66603603D01*
X149479254Y-66622821D01*
X149428863Y-66832715D01*
X149422850Y-66851221D01*
X149340243Y-67050650D01*
X149331409Y-67067987D01*
X149218624Y-67252035D01*
X149207188Y-67267776D01*
X149063821Y-67435638D01*
X149057211Y-67442788D01*
X148442788Y-68057211D01*
X148435638Y-68063821D01*
X148267776Y-68207188D01*
X148252035Y-68218624D01*
X148067987Y-68331409D01*
X148050650Y-68340243D01*
X147851221Y-68422850D01*
X147832715Y-68428863D01*
X147622821Y-68479254D01*
X147603603Y-68482298D01*
X147383534Y-68499618D01*
X147373805Y-68500000D01*
X146296645Y-68500000D01*
X146237218Y-68484832D01*
X146192330Y-68443040D01*
X146172961Y-68384847D01*
X146183850Y-68324489D01*
X146222334Y-68276733D01*
X146260562Y-68248115D01*
X145034001Y-67021553D01*
X145034000Y-67021553D01*
X143807436Y-68248115D01*
X143845665Y-68276733D01*
X143884149Y-68324489D01*
X143895038Y-68384847D01*
X143875669Y-68443040D01*
X143830781Y-68484832D01*
X143771354Y-68500000D01*
X141437098Y-68500000D01*
X141378645Y-68485358D01*
X141333996Y-68444891D01*
X141313695Y-68388154D01*
X141322537Y-68328547D01*
X141372805Y-68207188D01*
X141389871Y-68165988D01*
X141403609Y-68128750D01*
X141409622Y-68110244D01*
X141420396Y-68072042D01*
X141470787Y-67862149D01*
X141478530Y-67823224D01*
X141481574Y-67804006D01*
X141486240Y-67764585D01*
X141503560Y-67544515D01*
X141504729Y-67524687D01*
X141505111Y-67514958D01*
X141505500Y-67495125D01*
X141505500Y-66667999D01*
X143028890Y-66667999D01*
X143049300Y-66953357D01*
X143110111Y-67232902D01*
X143210088Y-67500952D01*
X143347193Y-67752042D01*
X143453883Y-67894562D01*
X144680446Y-66668001D01*
X144680446Y-66668000D01*
X145387553Y-66668000D01*
X146614115Y-67894562D01*
X146720806Y-67752041D01*
X146857911Y-67500952D01*
X146957888Y-67232902D01*
X147018699Y-66953357D01*
X147039109Y-66667999D01*
X147018699Y-66382642D01*
X146957888Y-66103097D01*
X146857911Y-65835047D01*
X146720806Y-65583958D01*
X146614115Y-65441436D01*
X145387553Y-66668000D01*
X144680446Y-66668000D01*
X143453883Y-65441436D01*
X143453882Y-65441437D01*
X143347195Y-65583954D01*
X143210088Y-65835047D01*
X143110111Y-66103097D01*
X143049300Y-66382642D01*
X143028890Y-66667999D01*
X141505500Y-66667999D01*
X141505500Y-65087883D01*
X143807436Y-65087883D01*
X145034000Y-66314446D01*
X145034001Y-66314446D01*
X146260562Y-65087883D01*
X146118042Y-64981193D01*
X145866952Y-64844088D01*
X145598902Y-64744111D01*
X145319357Y-64683300D01*
X145034000Y-64662890D01*
X144748642Y-64683300D01*
X144469097Y-64744111D01*
X144201047Y-64844088D01*
X143949954Y-64981195D01*
X143807437Y-65087882D01*
X143807436Y-65087883D01*
X141505500Y-65087883D01*
X141505500Y-61250000D01*
X143200000Y-61250000D01*
X143200000Y-62347824D01*
X143206402Y-62407375D01*
X143256647Y-62542089D01*
X143342811Y-62657188D01*
X143457910Y-62743352D01*
X143592624Y-62793597D01*
X143652176Y-62800000D01*
X144750000Y-62800000D01*
X144750000Y-61250000D01*
X145250000Y-61250000D01*
X145250000Y-62800000D01*
X146347824Y-62800000D01*
X146407375Y-62793597D01*
X146542089Y-62743352D01*
X146657188Y-62657188D01*
X146743352Y-62542089D01*
X146793597Y-62407375D01*
X146800000Y-62347824D01*
X146800000Y-61250000D01*
X145250000Y-61250000D01*
X144750000Y-61250000D01*
X143200000Y-61250000D01*
X141505500Y-61250000D01*
X141505500Y-60750000D01*
X143200000Y-60750000D01*
X144750000Y-60750000D01*
X144750000Y-59200000D01*
X145250000Y-59200000D01*
X145250000Y-60750000D01*
X146800000Y-60750000D01*
X146800000Y-59652176D01*
X146793597Y-59592624D01*
X146743352Y-59457910D01*
X146657188Y-59342811D01*
X146542089Y-59256647D01*
X146407375Y-59206402D01*
X146347824Y-59200000D01*
X145250000Y-59200000D01*
X144750000Y-59200000D01*
X143652176Y-59200000D01*
X143592624Y-59206402D01*
X143457910Y-59256647D01*
X143342811Y-59342811D01*
X143256647Y-59457910D01*
X143206402Y-59592624D01*
X143200000Y-59652176D01*
X143200000Y-60750000D01*
X141505500Y-60750000D01*
X141505500Y-58879500D01*
X141522113Y-58817500D01*
X141567500Y-58772113D01*
X141629500Y-58755500D01*
X145995131Y-58755500D01*
X145999884Y-58755406D01*
X146014958Y-58755111D01*
X146024687Y-58754729D01*
X146044515Y-58753560D01*
X146264585Y-58736240D01*
X146264588Y-58736239D01*
X146264596Y-58736239D01*
X146276352Y-58734847D01*
X146304006Y-58731574D01*
X146323224Y-58728530D01*
X146362149Y-58720787D01*
X146572042Y-58670396D01*
X146610244Y-58659622D01*
X146628750Y-58653609D01*
X146665988Y-58639871D01*
X146865418Y-58557264D01*
X146901471Y-58540643D01*
X146918808Y-58531809D01*
X146953432Y-58512418D01*
X147137479Y-58399633D01*
X147170489Y-58377576D01*
X147186230Y-58366139D01*
X147217391Y-58341573D01*
X147381533Y-58201383D01*
X147410680Y-58174439D01*
X147424439Y-58160680D01*
X147451383Y-58131533D01*
X147591573Y-57967391D01*
X147616139Y-57936230D01*
X147627576Y-57920489D01*
X147649633Y-57887479D01*
X147762418Y-57703432D01*
X147781809Y-57668808D01*
X147790643Y-57651471D01*
X147807264Y-57615418D01*
X147889871Y-57415988D01*
X147903609Y-57378750D01*
X147909622Y-57360244D01*
X147920396Y-57322042D01*
X147970787Y-57112149D01*
X147978530Y-57073224D01*
X147981574Y-57054006D01*
X147986240Y-57014585D01*
X148003560Y-56794515D01*
X148004729Y-56774687D01*
X148005111Y-56764958D01*
X148005500Y-56745125D01*
X148005500Y-55254875D01*
X148005111Y-55235042D01*
X148004729Y-55225313D01*
X148003560Y-55205485D01*
X147986240Y-54985414D01*
X147981574Y-54945993D01*
X147978530Y-54926775D01*
X147970787Y-54887850D01*
X147920396Y-54677957D01*
X147909622Y-54639755D01*
X147903609Y-54621249D01*
X147889871Y-54584011D01*
X147807264Y-54384581D01*
X147807262Y-54384576D01*
X147790648Y-54348538D01*
X147790643Y-54348528D01*
X147781809Y-54331191D01*
X147762418Y-54296567D01*
X147649640Y-54112530D01*
X147627567Y-54079497D01*
X147616148Y-54063780D01*
X147591571Y-54032606D01*
X147451375Y-53868457D01*
X147424438Y-53839318D01*
X147410680Y-53825560D01*
X147381541Y-53798623D01*
X147217392Y-53658427D01*
X147186218Y-53633850D01*
X147170501Y-53622431D01*
X147137468Y-53600358D01*
X146953428Y-53487578D01*
X146918823Y-53468198D01*
X146918815Y-53468193D01*
X146918808Y-53468190D01*
X146901471Y-53459356D01*
X146901469Y-53459355D01*
X146865410Y-53442731D01*
X146665982Y-53360125D01*
X146628759Y-53346392D01*
X146610267Y-53340384D01*
X146610264Y-53340383D01*
X146572049Y-53329605D01*
X146362144Y-53279211D01*
X146362145Y-53279211D01*
X146362136Y-53279209D01*
X146335967Y-53274003D01*
X146323226Y-53271469D01*
X146319070Y-53270810D01*
X146304007Y-53268424D01*
X146264597Y-53263759D01*
X146044512Y-53246440D01*
X146024690Y-53245271D01*
X146014941Y-53244888D01*
X145995131Y-53244500D01*
X145995125Y-53244500D01*
X141629500Y-53244500D01*
X141567500Y-53227887D01*
X141522113Y-53182500D01*
X141505500Y-53120500D01*
X141505500Y-52018115D01*
X143807436Y-52018115D01*
X143949958Y-52124806D01*
X144201047Y-52261911D01*
X144469097Y-52361888D01*
X144748642Y-52422699D01*
X145034000Y-52443109D01*
X145319357Y-52422699D01*
X145598902Y-52361888D01*
X145866952Y-52261911D01*
X146118041Y-52124806D01*
X146260562Y-52018115D01*
X145034001Y-50791553D01*
X145034000Y-50791553D01*
X143807436Y-52018115D01*
X141505500Y-52018115D01*
X141505500Y-50438000D01*
X143028890Y-50438000D01*
X143049300Y-50723357D01*
X143110111Y-51002902D01*
X143210088Y-51270952D01*
X143347193Y-51522042D01*
X143453883Y-51664562D01*
X144680446Y-50438001D01*
X144680446Y-50438000D01*
X145387553Y-50438000D01*
X146614115Y-51664562D01*
X146720806Y-51522041D01*
X146857911Y-51270952D01*
X146957888Y-51002902D01*
X147018699Y-50723357D01*
X147039109Y-50438000D01*
X147018699Y-50152642D01*
X146957888Y-49873097D01*
X146857911Y-49605047D01*
X146720806Y-49353958D01*
X146614115Y-49211436D01*
X145387553Y-50437998D01*
X145387553Y-50438000D01*
X144680446Y-50438000D01*
X143453883Y-49211436D01*
X143453882Y-49211437D01*
X143347195Y-49353954D01*
X143210088Y-49605047D01*
X143110111Y-49873097D01*
X143049300Y-50152642D01*
X143028890Y-50438000D01*
X141505500Y-50438000D01*
X141505500Y-49754869D01*
X141505111Y-49735060D01*
X141505111Y-49735058D01*
X141505111Y-49735042D01*
X141504729Y-49725313D01*
X141503560Y-49705485D01*
X141486240Y-49485414D01*
X141486239Y-49485412D01*
X141486239Y-49485402D01*
X141484301Y-49469037D01*
X141481574Y-49445993D01*
X141478530Y-49426775D01*
X141470787Y-49387850D01*
X141420396Y-49177957D01*
X141409622Y-49139755D01*
X141403609Y-49121249D01*
X141389871Y-49084011D01*
X141307264Y-48884581D01*
X141294956Y-48857883D01*
X143807436Y-48857883D01*
X145034000Y-50084446D01*
X145034001Y-50084446D01*
X146260562Y-48857883D01*
X146118042Y-48751193D01*
X145866952Y-48614088D01*
X145598902Y-48514111D01*
X145319357Y-48453300D01*
X145034000Y-48432890D01*
X144748642Y-48453300D01*
X144469097Y-48514111D01*
X144201047Y-48614088D01*
X143949954Y-48751195D01*
X143807437Y-48857882D01*
X143807436Y-48857883D01*
X141294956Y-48857883D01*
X141290648Y-48848538D01*
X141290630Y-48848503D01*
X141281809Y-48831191D01*
X141279680Y-48827390D01*
X141262420Y-48796570D01*
X141149640Y-48612530D01*
X141127567Y-48579497D01*
X141116148Y-48563780D01*
X141091571Y-48532606D01*
X140951383Y-48368466D01*
X140924439Y-48339319D01*
X140910680Y-48325560D01*
X140881533Y-48298616D01*
X140717391Y-48158426D01*
X140708610Y-48151504D01*
X140686218Y-48133850D01*
X140670501Y-48122431D01*
X140637468Y-48100358D01*
X140453428Y-47987578D01*
X140418823Y-47968198D01*
X140418815Y-47968193D01*
X140418808Y-47968190D01*
X140401471Y-47959356D01*
X140365425Y-47942738D01*
X140365410Y-47942731D01*
X140165982Y-47860125D01*
X140128759Y-47846392D01*
X140110267Y-47840384D01*
X140110264Y-47840383D01*
X140072049Y-47829605D01*
X139862144Y-47779211D01*
X139862145Y-47779211D01*
X139862136Y-47779209D01*
X139835617Y-47773934D01*
X139823226Y-47771469D01*
X139819070Y-47770810D01*
X139804007Y-47768424D01*
X139764597Y-47763759D01*
X139544512Y-47746440D01*
X139524690Y-47745271D01*
X139514941Y-47744888D01*
X139495131Y-47744500D01*
X139495125Y-47744500D01*
X139188169Y-47744500D01*
X139174838Y-47746134D01*
X139066076Y-47759465D01*
X139007945Y-47773934D01*
X138893079Y-47817947D01*
X138792238Y-47888410D01*
X138766862Y-47911204D01*
X138713950Y-47939284D01*
X138654050Y-47939284D01*
X138601138Y-47911204D01*
X138575761Y-47888410D01*
X138575758Y-47888407D01*
X138507030Y-47840384D01*
X138474920Y-47817947D01*
X138360054Y-47773934D01*
X138301923Y-47759465D01*
X138194795Y-47746334D01*
X138179831Y-47744500D01*
X132838169Y-47744500D01*
X132824838Y-47746134D01*
X132716076Y-47759465D01*
X132657945Y-47773934D01*
X132543079Y-47817947D01*
X132442238Y-47888410D01*
X132416862Y-47911204D01*
X132363950Y-47939284D01*
X132304050Y-47939284D01*
X132251138Y-47911204D01*
X132225761Y-47888410D01*
X132225758Y-47888407D01*
X132157030Y-47840384D01*
X132124920Y-47817947D01*
X132010054Y-47773934D01*
X131951923Y-47759465D01*
X131844795Y-47746334D01*
X131829831Y-47744500D01*
X131254875Y-47744500D01*
X131254869Y-47744500D01*
X131235058Y-47744888D01*
X131225309Y-47745271D01*
X131205486Y-47746440D01*
X130985403Y-47763759D01*
X130945997Y-47768424D01*
X130945984Y-47768426D01*
X130926785Y-47771467D01*
X130887856Y-47779210D01*
X130803891Y-47799368D01*
X130677942Y-47829606D01*
X130649297Y-47837685D01*
X130639748Y-47840379D01*
X130632869Y-47842614D01*
X130621249Y-47846389D01*
X130584027Y-47860121D01*
X130384572Y-47942738D01*
X130348524Y-47959357D01*
X130331189Y-47968190D01*
X130296553Y-47987588D01*
X130112522Y-48100363D01*
X130079523Y-48122413D01*
X130063762Y-48133865D01*
X130032606Y-48158427D01*
X129868457Y-48298623D01*
X129839318Y-48325560D01*
X129825560Y-48339318D01*
X129798623Y-48368457D01*
X129658427Y-48532606D01*
X129633850Y-48563780D01*
X129622431Y-48579497D01*
X129600358Y-48612530D01*
X129487579Y-48796568D01*
X129468207Y-48831156D01*
X129459367Y-48848505D01*
X129442736Y-48884577D01*
X129442731Y-48884589D01*
X129398690Y-48990916D01*
X129398690Y-48990917D01*
X129360121Y-49084027D01*
X129346389Y-49121249D01*
X129340379Y-49139749D01*
X129329606Y-49177942D01*
X129321565Y-49211436D01*
X129279210Y-49387856D01*
X129271470Y-49426770D01*
X129271466Y-49426791D01*
X129268424Y-49445997D01*
X129263759Y-49485403D01*
X129246440Y-49705486D01*
X129245271Y-49725309D01*
X129244888Y-49735058D01*
X129244500Y-49754869D01*
X129244500Y-67495131D01*
X129244888Y-67514941D01*
X129245271Y-67524690D01*
X129246440Y-67544514D01*
X129263759Y-67764593D01*
X129268423Y-67803991D01*
X129271467Y-67823213D01*
X129279209Y-67862135D01*
X129279211Y-67862144D01*
X129329605Y-68072049D01*
X129340383Y-68110264D01*
X129341949Y-68115083D01*
X129341951Y-68115089D01*
X129346390Y-68128753D01*
X129360126Y-68165983D01*
X129427462Y-68328548D01*
X129436304Y-68388154D01*
X129416003Y-68444891D01*
X129371354Y-68485358D01*
X129312901Y-68500000D01*
X95687098Y-68500000D01*
X95628645Y-68485358D01*
X95583996Y-68444891D01*
X95563695Y-68388154D01*
X95572537Y-68328547D01*
X95622805Y-68207188D01*
X95639871Y-68165988D01*
X95653609Y-68128750D01*
X95659622Y-68110244D01*
X95670396Y-68072042D01*
X95720787Y-67862149D01*
X95728530Y-67823224D01*
X95731574Y-67804006D01*
X95736240Y-67764587D01*
X95743249Y-67675533D01*
X95735374Y-67538670D01*
X95722561Y-67473278D01*
X95678201Y-67343562D01*
X95600619Y-67230536D01*
X95555808Y-67181219D01*
X95555806Y-67181217D01*
X95450713Y-67093196D01*
X95325833Y-67036650D01*
X95267377Y-67019258D01*
X95219110Y-66991961D01*
X95187566Y-66946355D01*
X95179055Y-66891561D01*
X95190610Y-66730000D01*
X95180817Y-66593076D01*
X95188897Y-66539379D01*
X95219146Y-66494283D01*
X95265764Y-66466436D01*
X95270453Y-66464893D01*
X95270458Y-66464893D01*
X95403746Y-66421060D01*
X95519851Y-66342276D01*
X95570402Y-66296541D01*
X95660375Y-66188882D01*
X95717290Y-66060639D01*
X95736028Y-65995096D01*
X95755500Y-65856146D01*
X95755500Y-51373854D01*
X95736028Y-51234904D01*
X95717290Y-51169361D01*
X95670930Y-51064902D01*
X95660375Y-51041118D01*
X95570401Y-50933458D01*
X95519854Y-50887726D01*
X95403746Y-50808940D01*
X95265763Y-50763563D01*
X95219146Y-50735716D01*
X95188896Y-50690620D01*
X95180817Y-50636923D01*
X95190610Y-50500000D01*
X95186176Y-50438001D01*
X95178780Y-50334602D01*
X95187292Y-50279807D01*
X95218837Y-50234201D01*
X95267106Y-50206905D01*
X95323985Y-50189984D01*
X95448869Y-50133437D01*
X95553967Y-50045413D01*
X95598778Y-49996096D01*
X95676359Y-49883073D01*
X95720718Y-49753361D01*
X95733532Y-49687969D01*
X95741409Y-49551106D01*
X95736240Y-49485420D01*
X95731574Y-49445998D01*
X95728530Y-49426779D01*
X95720787Y-49387850D01*
X95670396Y-49177957D01*
X95659622Y-49139755D01*
X95653609Y-49121249D01*
X95639871Y-49084011D01*
X95557264Y-48884581D01*
X95544956Y-48857883D01*
X95540648Y-48848538D01*
X95540630Y-48848503D01*
X95531809Y-48831191D01*
X95529680Y-48827390D01*
X95512420Y-48796570D01*
X95399640Y-48612530D01*
X95377567Y-48579497D01*
X95366148Y-48563780D01*
X95341571Y-48532606D01*
X95201383Y-48368466D01*
X95174439Y-48339319D01*
X95160680Y-48325560D01*
X95131533Y-48298616D01*
X94967391Y-48158426D01*
X94958610Y-48151504D01*
X94936218Y-48133850D01*
X94920501Y-48122431D01*
X94887468Y-48100358D01*
X94703428Y-47987578D01*
X94668823Y-47968198D01*
X94668815Y-47968193D01*
X94668808Y-47968190D01*
X94651471Y-47959356D01*
X94615425Y-47942738D01*
X94615410Y-47942731D01*
X94415982Y-47860125D01*
X94378759Y-47846392D01*
X94360267Y-47840384D01*
X94360264Y-47840383D01*
X94322049Y-47829605D01*
X94112144Y-47779211D01*
X94112145Y-47779211D01*
X94112136Y-47779209D01*
X94085617Y-47773934D01*
X94073226Y-47771469D01*
X94069070Y-47770810D01*
X94054007Y-47768424D01*
X94014597Y-47763759D01*
X93794512Y-47746440D01*
X93774690Y-47745271D01*
X93764941Y-47744888D01*
X93745131Y-47744500D01*
X93745125Y-47744500D01*
X93232901Y-47744500D01*
X93232899Y-47744500D01*
X93200817Y-47748626D01*
X93169183Y-47748626D01*
X93137101Y-47744500D01*
X93137099Y-47744500D01*
X86882901Y-47744500D01*
X86882899Y-47744500D01*
X86850817Y-47748626D01*
X86819183Y-47748626D01*
X86787101Y-47744500D01*
X86787099Y-47744500D01*
X85504875Y-47744500D01*
X85504869Y-47744500D01*
X85485058Y-47744888D01*
X85475309Y-47745271D01*
X85455486Y-47746440D01*
X85235403Y-47763759D01*
X85195997Y-47768424D01*
X85195984Y-47768426D01*
X85176785Y-47771467D01*
X85137856Y-47779210D01*
X85053891Y-47799368D01*
X84927942Y-47829606D01*
X84899297Y-47837685D01*
X84889748Y-47840379D01*
X84882869Y-47842614D01*
X84871249Y-47846389D01*
X84834027Y-47860121D01*
X84634572Y-47942738D01*
X84598524Y-47959357D01*
X84581189Y-47968190D01*
X84546553Y-47987588D01*
X84362522Y-48100363D01*
X84329523Y-48122413D01*
X84313762Y-48133865D01*
X84282606Y-48158427D01*
X84118457Y-48298623D01*
X84089318Y-48325560D01*
X84075560Y-48339318D01*
X84048623Y-48368457D01*
X83908427Y-48532606D01*
X83883850Y-48563780D01*
X83872428Y-48579501D01*
X83871900Y-48580293D01*
X83871742Y-48580446D01*
X83870993Y-48581478D01*
X83870815Y-48581349D01*
X83867471Y-48584606D01*
X83737579Y-48796568D01*
X83718208Y-48831154D01*
X83709366Y-48848506D01*
X83692730Y-48884589D01*
X83623009Y-49052915D01*
X83623008Y-49052917D01*
X83610126Y-49084015D01*
X83596389Y-49121249D01*
X83590379Y-49139749D01*
X83579606Y-49177942D01*
X83571565Y-49211436D01*
X83529210Y-49387856D01*
X83521470Y-49426770D01*
X83521466Y-49426791D01*
X83518424Y-49445997D01*
X83513759Y-49485403D01*
X83496440Y-49705486D01*
X83495271Y-49725309D01*
X83494888Y-49735058D01*
X83494500Y-49754869D01*
X83494500Y-58370500D01*
X83477887Y-58432500D01*
X83432500Y-58477887D01*
X83370500Y-58494500D01*
X79004869Y-58494500D01*
X78985058Y-58494888D01*
X78975309Y-58495271D01*
X78955486Y-58496440D01*
X78735403Y-58513759D01*
X78695997Y-58518424D01*
X78695989Y-58518425D01*
X78695991Y-58518425D01*
X78676785Y-58521467D01*
X78637856Y-58529210D01*
X78553891Y-58549368D01*
X78427942Y-58579606D01*
X78399297Y-58587685D01*
X78389748Y-58590379D01*
X78382869Y-58592614D01*
X78371249Y-58596389D01*
X78334027Y-58610121D01*
X78134572Y-58692738D01*
X78098524Y-58709357D01*
X78081189Y-58718190D01*
X78046553Y-58737588D01*
X77862522Y-58850363D01*
X77829523Y-58872413D01*
X77813762Y-58883865D01*
X77782606Y-58908427D01*
X77618457Y-59048623D01*
X77589318Y-59075560D01*
X77575560Y-59089318D01*
X77548623Y-59118457D01*
X77408427Y-59282606D01*
X77383850Y-59313780D01*
X77372431Y-59329497D01*
X77350358Y-59362530D01*
X77238436Y-59545172D01*
X77238433Y-59545174D01*
X77237611Y-59546515D01*
X77218203Y-59581164D01*
X77209367Y-59598505D01*
X77192730Y-59634590D01*
X77110125Y-59834018D01*
X77096389Y-59871249D01*
X77090377Y-59889755D01*
X77079608Y-59927936D01*
X77069413Y-59970404D01*
X77029205Y-60137872D01*
X77021465Y-60176795D01*
X77018420Y-60196021D01*
X77013758Y-60235417D01*
X76996440Y-60455485D01*
X76995271Y-60475309D01*
X76994888Y-60485058D01*
X76994500Y-60504869D01*
X76994500Y-61995131D01*
X76994888Y-62014941D01*
X76995271Y-62024690D01*
X76996440Y-62044514D01*
X77013759Y-62264593D01*
X77018423Y-62303991D01*
X77021467Y-62323213D01*
X77029209Y-62362136D01*
X77029211Y-62362144D01*
X77068453Y-62525596D01*
X77079605Y-62572049D01*
X77090383Y-62610264D01*
X77090384Y-62610267D01*
X77096392Y-62628759D01*
X77110125Y-62665982D01*
X77192735Y-62865419D01*
X77209356Y-62901472D01*
X77218164Y-62918761D01*
X77218196Y-62918818D01*
X77218199Y-62918824D01*
X77237581Y-62953432D01*
X77237591Y-62953448D01*
X77350358Y-63137468D01*
X77372431Y-63170501D01*
X77383850Y-63186218D01*
X77401504Y-63208610D01*
X77408426Y-63217391D01*
X77548616Y-63381533D01*
X77575560Y-63410680D01*
X77589319Y-63424439D01*
X77618466Y-63451383D01*
X77782608Y-63591573D01*
X77800168Y-63605416D01*
X77813780Y-63616148D01*
X77829497Y-63627567D01*
X77862530Y-63649640D01*
X78046570Y-63762420D01*
X78077390Y-63779680D01*
X78081191Y-63781809D01*
X78098528Y-63790643D01*
X78098538Y-63790648D01*
X78134576Y-63807262D01*
X78134582Y-63807264D01*
X78134581Y-63807264D01*
X78334011Y-63889871D01*
X78371249Y-63903609D01*
X78389755Y-63909622D01*
X78427957Y-63920396D01*
X78637850Y-63970787D01*
X78676775Y-63978530D01*
X78695993Y-63981574D01*
X78719037Y-63984301D01*
X78735402Y-63986239D01*
X78735412Y-63986239D01*
X78735414Y-63986240D01*
X78955485Y-64003560D01*
X78975313Y-64004729D01*
X78985042Y-64005111D01*
X78999916Y-64005402D01*
X79004869Y-64005500D01*
X79004875Y-64005500D01*
X83370500Y-64005500D01*
X83432500Y-64022113D01*
X83477887Y-64067500D01*
X83494500Y-64129500D01*
X83494500Y-67495131D01*
X83494888Y-67514941D01*
X83495271Y-67524690D01*
X83496440Y-67544514D01*
X83513759Y-67764593D01*
X83518423Y-67803991D01*
X83521467Y-67823213D01*
X83529209Y-67862135D01*
X83529211Y-67862144D01*
X83579605Y-68072049D01*
X83590381Y-68110257D01*
X83590384Y-68110267D01*
X83596397Y-68128772D01*
X83610119Y-68165963D01*
X83610125Y-68165979D01*
X83610126Y-68165981D01*
X83614724Y-68177084D01*
X83677462Y-68328548D01*
X83686304Y-68388154D01*
X83666003Y-68444891D01*
X83621354Y-68485358D01*
X83562901Y-68500000D01*
X81830466Y-68500000D01*
X81771040Y-68484833D01*
X81726152Y-68443041D01*
X81706782Y-68384849D01*
X81710041Y-68366780D01*
X81707522Y-68366600D01*
X81711562Y-68310115D01*
X80485001Y-67083553D01*
X80485000Y-67083553D01*
X79258436Y-68310115D01*
X79262477Y-68366600D01*
X79259957Y-68366780D01*
X79263217Y-68384849D01*
X79243847Y-68443041D01*
X79198959Y-68484833D01*
X79139533Y-68500000D01*
X78048466Y-68500000D01*
X78037711Y-68499533D01*
X77794611Y-68478368D01*
X77773425Y-68474651D01*
X77542865Y-68413187D01*
X77522640Y-68405864D01*
X77306180Y-68305486D01*
X77287524Y-68294778D01*
X77087212Y-68155402D01*
X77078651Y-68148876D01*
X76734562Y-67862135D01*
X76543889Y-67703241D01*
X76535872Y-67695943D01*
X76361275Y-67522408D01*
X76347288Y-67505830D01*
X76208759Y-67308986D01*
X76197872Y-67290218D01*
X76187361Y-67267776D01*
X76095774Y-67072234D01*
X76088331Y-67051872D01*
X76025791Y-66819418D01*
X76022013Y-66798079D01*
X76016034Y-66730000D01*
X78479890Y-66730000D01*
X78500300Y-67015357D01*
X78561111Y-67294902D01*
X78661088Y-67562952D01*
X78798193Y-67814042D01*
X78904883Y-67956562D01*
X80131445Y-66730001D01*
X80838553Y-66730001D01*
X82065115Y-67956562D01*
X82171806Y-67814041D01*
X82308911Y-67562952D01*
X82408888Y-67294902D01*
X82469699Y-67015357D01*
X82490109Y-66730000D01*
X82469699Y-66444642D01*
X82408888Y-66165097D01*
X82308911Y-65897047D01*
X82171806Y-65645958D01*
X82065115Y-65503436D01*
X80838553Y-66730000D01*
X80838553Y-66730001D01*
X80131445Y-66730001D01*
X80131446Y-66730000D01*
X78904883Y-65503436D01*
X78904882Y-65503437D01*
X78798195Y-65645954D01*
X78661088Y-65897047D01*
X78561111Y-66165097D01*
X78500300Y-66444642D01*
X78479890Y-66730000D01*
X76016034Y-66730000D01*
X76000473Y-66552834D01*
X76000000Y-66542009D01*
X76000000Y-65149883D01*
X79258436Y-65149883D01*
X80485000Y-66376446D01*
X80485001Y-66376446D01*
X81711562Y-65149883D01*
X81569042Y-65043193D01*
X81317952Y-64906088D01*
X81049902Y-64806111D01*
X80770357Y-64745300D01*
X80485000Y-64724890D01*
X80199642Y-64745300D01*
X79920097Y-64806111D01*
X79652047Y-64906088D01*
X79400954Y-65043195D01*
X79258437Y-65149882D01*
X79258436Y-65149883D01*
X76000000Y-65149883D01*
X76000000Y-56418000D01*
X78719000Y-56418000D01*
X78719000Y-57515824D01*
X78725402Y-57575375D01*
X78775647Y-57710089D01*
X78861811Y-57825188D01*
X78976910Y-57911352D01*
X79111624Y-57961597D01*
X79171176Y-57968000D01*
X80269000Y-57968000D01*
X80269000Y-56418000D01*
X80769000Y-56418000D01*
X80769000Y-57968000D01*
X81866824Y-57968000D01*
X81926375Y-57961597D01*
X82061089Y-57911352D01*
X82176188Y-57825188D01*
X82262352Y-57710089D01*
X82312597Y-57575375D01*
X82319000Y-57515824D01*
X82319000Y-56418000D01*
X80769000Y-56418000D01*
X80269000Y-56418000D01*
X78719000Y-56418000D01*
X76000000Y-56418000D01*
X76000000Y-55918000D01*
X78719000Y-55918000D01*
X80269000Y-55918000D01*
X80269000Y-54368000D01*
X80769000Y-54368000D01*
X80769000Y-55918000D01*
X82319000Y-55918000D01*
X82319000Y-54820176D01*
X82312597Y-54760624D01*
X82262352Y-54625910D01*
X82176188Y-54510811D01*
X82061089Y-54424647D01*
X81926375Y-54374402D01*
X81866824Y-54368000D01*
X80769000Y-54368000D01*
X80269000Y-54368000D01*
X79171176Y-54368000D01*
X79111624Y-54374402D01*
X78976910Y-54424647D01*
X78861811Y-54510811D01*
X78775647Y-54625910D01*
X78725402Y-54760624D01*
X78719000Y-54820176D01*
X78719000Y-55918000D01*
X76000000Y-55918000D01*
X76000000Y-52080115D01*
X79258436Y-52080115D01*
X79400958Y-52186806D01*
X79652047Y-52323911D01*
X79920097Y-52423888D01*
X80199642Y-52484699D01*
X80485000Y-52505109D01*
X80770357Y-52484699D01*
X81049902Y-52423888D01*
X81317952Y-52323911D01*
X81569041Y-52186806D01*
X81711562Y-52080115D01*
X80485001Y-50853553D01*
X80485000Y-50853553D01*
X79258436Y-52080115D01*
X76000000Y-52080115D01*
X76000000Y-50500000D01*
X78479890Y-50500000D01*
X78500300Y-50785357D01*
X78561111Y-51064902D01*
X78661088Y-51332952D01*
X78798193Y-51584042D01*
X78904883Y-51726562D01*
X80131445Y-50500001D01*
X80838553Y-50500001D01*
X82065115Y-51726562D01*
X82171806Y-51584041D01*
X82308911Y-51332952D01*
X82408888Y-51064902D01*
X82469699Y-50785357D01*
X82490109Y-50500000D01*
X82469699Y-50214642D01*
X82408888Y-49935097D01*
X82308911Y-49667047D01*
X82171806Y-49415958D01*
X82065115Y-49273436D01*
X80838553Y-50500000D01*
X80838553Y-50500001D01*
X80131445Y-50500001D01*
X80131446Y-50500000D01*
X78904883Y-49273436D01*
X78904882Y-49273437D01*
X78798195Y-49415954D01*
X78661088Y-49667047D01*
X78561111Y-49935097D01*
X78500300Y-50214642D01*
X78479890Y-50500000D01*
X76000000Y-50500000D01*
X76000000Y-48919883D01*
X79258436Y-48919883D01*
X80485000Y-50146446D01*
X80485001Y-50146446D01*
X81711562Y-48919883D01*
X81569042Y-48813193D01*
X81317952Y-48676088D01*
X81049902Y-48576111D01*
X80770357Y-48515300D01*
X80485000Y-48494890D01*
X80199642Y-48515300D01*
X79920097Y-48576111D01*
X79652047Y-48676088D01*
X79400954Y-48813195D01*
X79258437Y-48919882D01*
X79258436Y-48919883D01*
X76000000Y-48919883D01*
X76000000Y-36324999D01*
X78921957Y-36324999D01*
X78942095Y-36593726D01*
X79002062Y-36856458D01*
X79082364Y-37061063D01*
X79100515Y-37107311D01*
X79126496Y-37152311D01*
X79235256Y-37340689D01*
X79403277Y-37551380D01*
X79600819Y-37734673D01*
X79600822Y-37734675D01*
X79823479Y-37886480D01*
X79823482Y-37886481D01*
X79823483Y-37886482D01*
X80066272Y-38003403D01*
X80066274Y-38003403D01*
X80066275Y-38003404D01*
X80323785Y-38082836D01*
X80590259Y-38123000D01*
X80859741Y-38123000D01*
X81126215Y-38082836D01*
X81383725Y-38003404D01*
X81626521Y-37886480D01*
X81849178Y-37734675D01*
X82046723Y-37551380D01*
X82214743Y-37340690D01*
X82349485Y-37107311D01*
X82447938Y-36856456D01*
X82507904Y-36593729D01*
X82528042Y-36325000D01*
X82528042Y-36324999D01*
X86381957Y-36324999D01*
X86402095Y-36593726D01*
X86462062Y-36856458D01*
X86542364Y-37061063D01*
X86560515Y-37107311D01*
X86586496Y-37152311D01*
X86695256Y-37340689D01*
X86863277Y-37551380D01*
X87060819Y-37734673D01*
X87060822Y-37734675D01*
X87283479Y-37886480D01*
X87283482Y-37886481D01*
X87283483Y-37886482D01*
X87526272Y-38003403D01*
X87526274Y-38003403D01*
X87526275Y-38003404D01*
X87783785Y-38082836D01*
X88050259Y-38123000D01*
X88319741Y-38123000D01*
X88586215Y-38082836D01*
X88843725Y-38003404D01*
X89086521Y-37886480D01*
X89309178Y-37734675D01*
X89506723Y-37551380D01*
X89674743Y-37340690D01*
X89809485Y-37107311D01*
X89907938Y-36856456D01*
X89967904Y-36593729D01*
X89988042Y-36325000D01*
X89988042Y-36324999D01*
X97367750Y-36324999D01*
X97387888Y-36593726D01*
X97447855Y-36856458D01*
X97528157Y-37061063D01*
X97546308Y-37107311D01*
X97572289Y-37152311D01*
X97681049Y-37340689D01*
X97849070Y-37551380D01*
X98046612Y-37734673D01*
X98046615Y-37734675D01*
X98269272Y-37886480D01*
X98269275Y-37886481D01*
X98269276Y-37886482D01*
X98512065Y-38003403D01*
X98512067Y-38003403D01*
X98512068Y-38003404D01*
X98769578Y-38082836D01*
X99036052Y-38123000D01*
X99305534Y-38123000D01*
X99572008Y-38082836D01*
X99829518Y-38003404D01*
X100072314Y-37886480D01*
X100294971Y-37734675D01*
X100492516Y-37551380D01*
X100660536Y-37340690D01*
X100795278Y-37107311D01*
X100893731Y-36856456D01*
X100953697Y-36593729D01*
X100973835Y-36325000D01*
X100953697Y-36056271D01*
X100893731Y-35793544D01*
X100795278Y-35542689D01*
X100660536Y-35309310D01*
X100492516Y-35098620D01*
X100492515Y-35098619D01*
X100294973Y-34915326D01*
X100153672Y-34818989D01*
X100072314Y-34763520D01*
X100072311Y-34763519D01*
X100072309Y-34763517D01*
X99829520Y-34646596D01*
X99572007Y-34567163D01*
X99305534Y-34527000D01*
X99036052Y-34527000D01*
X98769578Y-34567163D01*
X98512065Y-34646596D01*
X98269276Y-34763517D01*
X98046612Y-34915326D01*
X97849070Y-35098619D01*
X97681049Y-35309310D01*
X97546307Y-35542691D01*
X97447855Y-35793541D01*
X97387888Y-36056273D01*
X97367750Y-36324999D01*
X89988042Y-36324999D01*
X89967904Y-36056271D01*
X89907938Y-35793544D01*
X89809485Y-35542689D01*
X89674743Y-35309310D01*
X89506723Y-35098620D01*
X89506722Y-35098619D01*
X89309180Y-34915326D01*
X89167879Y-34818989D01*
X89086521Y-34763520D01*
X89086518Y-34763519D01*
X89086516Y-34763517D01*
X88843727Y-34646596D01*
X88586214Y-34567163D01*
X88319741Y-34527000D01*
X88050259Y-34527000D01*
X87783785Y-34567163D01*
X87526272Y-34646596D01*
X87283483Y-34763517D01*
X87060819Y-34915326D01*
X86863277Y-35098619D01*
X86695256Y-35309310D01*
X86560514Y-35542691D01*
X86462062Y-35793541D01*
X86402095Y-36056273D01*
X86381957Y-36324999D01*
X82528042Y-36324999D01*
X82507904Y-36056271D01*
X82447938Y-35793544D01*
X82349485Y-35542689D01*
X82214743Y-35309310D01*
X82164112Y-35245821D01*
X83727731Y-35245821D01*
X83801260Y-35297306D01*
X84007815Y-35393624D01*
X84227961Y-35452612D01*
X84455000Y-35472475D01*
X84682038Y-35452612D01*
X84902184Y-35393624D01*
X85108735Y-35297307D01*
X85182267Y-35245820D01*
X84455001Y-34518553D01*
X84455000Y-34518553D01*
X83727731Y-35245820D01*
X83727731Y-35245821D01*
X82164112Y-35245821D01*
X82046723Y-35098620D01*
X82046722Y-35098619D01*
X81849180Y-34915326D01*
X81707879Y-34818989D01*
X81626521Y-34763520D01*
X81626518Y-34763519D01*
X81626516Y-34763517D01*
X81383727Y-34646596D01*
X81126214Y-34567163D01*
X80859741Y-34527000D01*
X80590259Y-34527000D01*
X80323785Y-34567163D01*
X80066272Y-34646596D01*
X79823483Y-34763517D01*
X79600819Y-34915326D01*
X79403277Y-35098619D01*
X79235256Y-35309310D01*
X79100514Y-35542691D01*
X79002062Y-35793541D01*
X78942095Y-36056273D01*
X78921957Y-36324999D01*
X76000000Y-36324999D01*
X76000000Y-34164999D01*
X83147524Y-34164999D01*
X83167387Y-34392038D01*
X83226376Y-34612186D01*
X83322690Y-34818734D01*
X83374178Y-34892266D01*
X83374179Y-34892267D01*
X84101446Y-34165001D01*
X84808553Y-34165001D01*
X85535820Y-34892267D01*
X85587307Y-34818735D01*
X85683624Y-34612184D01*
X85742612Y-34392038D01*
X85762475Y-34164999D01*
X101592815Y-34164999D01*
X101599821Y-34245067D01*
X101600293Y-34255875D01*
X101600293Y-42820745D01*
X101600292Y-42820757D01*
X101600292Y-43058574D01*
X101609249Y-43109375D01*
X101610661Y-43120095D01*
X101615158Y-43171486D01*
X101628509Y-43221314D01*
X101630850Y-43231872D01*
X101639807Y-43282670D01*
X101657448Y-43331139D01*
X101660699Y-43341453D01*
X101674051Y-43391283D01*
X101674054Y-43391289D01*
X101695859Y-43438049D01*
X101699994Y-43448034D01*
X101717635Y-43496506D01*
X101743431Y-43541185D01*
X101748426Y-43550779D01*
X101770226Y-43597529D01*
X101799808Y-43639776D01*
X101805620Y-43648899D01*
X101831413Y-43693575D01*
X101831415Y-43693577D01*
X101831416Y-43693579D01*
X101864585Y-43733108D01*
X101871151Y-43741666D01*
X101889098Y-43767297D01*
X101900747Y-43783934D01*
X102070333Y-43953519D01*
X102070339Y-43953524D01*
X107916181Y-49799366D01*
X107943061Y-49839594D01*
X107952500Y-49887047D01*
X107952500Y-59568500D01*
X107935887Y-59630500D01*
X107890500Y-59675887D01*
X107828500Y-59692500D01*
X104263999Y-59692500D01*
X104133169Y-59709724D01*
X104071161Y-59726339D01*
X103949250Y-59776836D01*
X103844557Y-59857170D01*
X103799170Y-59902557D01*
X103718836Y-60007250D01*
X103668339Y-60129161D01*
X103651724Y-60191169D01*
X103634500Y-60321999D01*
X103634500Y-63376001D01*
X103651724Y-63506830D01*
X103668339Y-63568838D01*
X103718836Y-63690749D01*
X103799170Y-63795442D01*
X103844557Y-63840829D01*
X103949250Y-63921163D01*
X104069053Y-63970787D01*
X104071166Y-63971662D01*
X104133166Y-63988275D01*
X104231291Y-64001193D01*
X104263999Y-64005500D01*
X104264000Y-64005500D01*
X111636000Y-64005500D01*
X111636001Y-64005500D01*
X111662166Y-64002054D01*
X111766834Y-63988275D01*
X111828834Y-63971662D01*
X111950750Y-63921163D01*
X112005645Y-63879040D01*
X112061890Y-63835882D01*
X112063020Y-63837354D01*
X112108901Y-63810860D01*
X112173099Y-63810860D01*
X112218979Y-63837354D01*
X112220110Y-63835882D01*
X112331250Y-63921163D01*
X112451053Y-63970787D01*
X112453166Y-63971662D01*
X112515166Y-63988275D01*
X112613291Y-64001193D01*
X112645999Y-64005500D01*
X112646000Y-64005500D01*
X119764000Y-64005500D01*
X119764001Y-64005500D01*
X119790166Y-64002054D01*
X119894834Y-63988275D01*
X119956834Y-63971662D01*
X120078750Y-63921163D01*
X120183442Y-63840829D01*
X120228829Y-63795442D01*
X120309163Y-63690750D01*
X120359662Y-63568834D01*
X120376275Y-63506834D01*
X120390055Y-63402166D01*
X120393500Y-63376001D01*
X120393500Y-60321999D01*
X120376275Y-60191169D01*
X120376275Y-60191166D01*
X120359662Y-60129166D01*
X120309163Y-60007250D01*
X120280889Y-59970403D01*
X120228829Y-59902557D01*
X120183442Y-59857170D01*
X120078749Y-59776836D01*
X119956838Y-59726339D01*
X119894830Y-59709724D01*
X119764001Y-59692500D01*
X119764000Y-59692500D01*
X116453500Y-59692500D01*
X116391500Y-59675887D01*
X116346113Y-59630500D01*
X116329500Y-59568500D01*
X116329500Y-47875999D01*
X116315738Y-47771469D01*
X116312275Y-47745166D01*
X116295662Y-47683166D01*
X116245163Y-47561250D01*
X116205000Y-47508909D01*
X116164829Y-47456557D01*
X116119442Y-47411170D01*
X116014749Y-47330836D01*
X115892838Y-47280339D01*
X115830830Y-47263724D01*
X115700001Y-47246500D01*
X115700000Y-47246500D01*
X112646000Y-47246500D01*
X112645999Y-47246500D01*
X112515169Y-47263724D01*
X112453161Y-47280339D01*
X112331250Y-47330836D01*
X112220110Y-47416118D01*
X112218981Y-47414647D01*
X112173094Y-47441141D01*
X112108906Y-47441141D01*
X112063018Y-47414647D01*
X112061890Y-47416118D01*
X111950749Y-47330836D01*
X111828838Y-47280339D01*
X111766830Y-47263724D01*
X111636001Y-47246500D01*
X111636000Y-47246500D01*
X109093047Y-47246500D01*
X109045594Y-47237061D01*
X109005366Y-47210181D01*
X104237612Y-42442427D01*
X104210732Y-42402199D01*
X104201293Y-42354746D01*
X104201293Y-36324999D01*
X104827750Y-36324999D01*
X104847888Y-36593726D01*
X104907855Y-36856458D01*
X104988157Y-37061063D01*
X105006308Y-37107311D01*
X105032289Y-37152311D01*
X105141049Y-37340689D01*
X105309070Y-37551380D01*
X105506612Y-37734673D01*
X105506615Y-37734675D01*
X105729272Y-37886480D01*
X105729275Y-37886481D01*
X105729276Y-37886482D01*
X105972065Y-38003403D01*
X105972067Y-38003403D01*
X105972068Y-38003404D01*
X106229578Y-38082836D01*
X106496052Y-38123000D01*
X106765534Y-38123000D01*
X107032008Y-38082836D01*
X107289518Y-38003404D01*
X107532314Y-37886480D01*
X107754971Y-37734675D01*
X107952516Y-37551380D01*
X108120536Y-37340690D01*
X108255278Y-37107311D01*
X108353731Y-36856456D01*
X108413697Y-36593729D01*
X108430463Y-36369999D01*
X115767353Y-36369999D01*
X115787491Y-36638726D01*
X115847458Y-36901458D01*
X115927760Y-37106063D01*
X115945911Y-37152311D01*
X116031333Y-37300266D01*
X116080652Y-37385689D01*
X116248673Y-37596380D01*
X116446215Y-37779673D01*
X116446218Y-37779675D01*
X116668875Y-37931480D01*
X116668878Y-37931481D01*
X116668879Y-37931482D01*
X116911668Y-38048403D01*
X116911670Y-38048403D01*
X116911671Y-38048404D01*
X117169181Y-38127836D01*
X117435655Y-38168000D01*
X117705137Y-38168000D01*
X117971611Y-38127836D01*
X118229121Y-38048404D01*
X118471917Y-37931480D01*
X118694574Y-37779675D01*
X118892119Y-37596380D01*
X119060139Y-37385690D01*
X119194881Y-37152311D01*
X119293334Y-36901456D01*
X119353300Y-36638729D01*
X119373438Y-36370000D01*
X119373438Y-36369999D01*
X123227353Y-36369999D01*
X123247491Y-36638726D01*
X123307458Y-36901458D01*
X123387760Y-37106063D01*
X123405911Y-37152311D01*
X123491333Y-37300266D01*
X123540652Y-37385689D01*
X123708673Y-37596380D01*
X123906215Y-37779673D01*
X123906218Y-37779675D01*
X124128875Y-37931480D01*
X124128878Y-37931481D01*
X124128879Y-37931482D01*
X124371668Y-38048403D01*
X124371670Y-38048403D01*
X124371671Y-38048404D01*
X124629181Y-38127836D01*
X124895655Y-38168000D01*
X125165137Y-38168000D01*
X125431611Y-38127836D01*
X125689121Y-38048404D01*
X125931917Y-37931480D01*
X126154574Y-37779675D01*
X126352119Y-37596380D01*
X126520139Y-37385690D01*
X126654881Y-37152311D01*
X126753334Y-36901456D01*
X126813300Y-36638729D01*
X126833438Y-36370000D01*
X126830066Y-36324999D01*
X134166957Y-36324999D01*
X134187095Y-36593726D01*
X134247062Y-36856458D01*
X134327364Y-37061063D01*
X134345515Y-37107311D01*
X134371496Y-37152311D01*
X134480256Y-37340689D01*
X134648277Y-37551380D01*
X134845819Y-37734673D01*
X134845822Y-37734675D01*
X135068479Y-37886480D01*
X135068482Y-37886481D01*
X135068483Y-37886482D01*
X135311272Y-38003403D01*
X135311274Y-38003403D01*
X135311275Y-38003404D01*
X135568785Y-38082836D01*
X135835259Y-38123000D01*
X136104741Y-38123000D01*
X136371215Y-38082836D01*
X136628725Y-38003404D01*
X136871521Y-37886480D01*
X137094178Y-37734675D01*
X137291723Y-37551380D01*
X137459743Y-37340690D01*
X137594485Y-37107311D01*
X137692938Y-36856456D01*
X137752904Y-36593729D01*
X137773042Y-36325000D01*
X141626957Y-36325000D01*
X141647095Y-36593726D01*
X141707062Y-36856458D01*
X141787364Y-37061063D01*
X141805515Y-37107311D01*
X141831496Y-37152311D01*
X141940256Y-37340689D01*
X142108277Y-37551380D01*
X142305819Y-37734673D01*
X142305822Y-37734675D01*
X142528479Y-37886480D01*
X142528482Y-37886481D01*
X142528483Y-37886482D01*
X142771272Y-38003403D01*
X142771274Y-38003403D01*
X142771275Y-38003404D01*
X143028785Y-38082836D01*
X143295259Y-38123000D01*
X143564741Y-38123000D01*
X143831215Y-38082836D01*
X144088725Y-38003404D01*
X144331521Y-37886480D01*
X144554178Y-37734675D01*
X144751723Y-37551380D01*
X144919743Y-37340690D01*
X145054485Y-37107311D01*
X145152938Y-36856456D01*
X145212904Y-36593729D01*
X145233042Y-36325000D01*
X145212904Y-36056271D01*
X145152938Y-35793544D01*
X145054485Y-35542689D01*
X144919743Y-35309310D01*
X144751723Y-35098620D01*
X144751722Y-35098619D01*
X144554180Y-34915326D01*
X144412879Y-34818989D01*
X144331521Y-34763520D01*
X144331518Y-34763519D01*
X144331516Y-34763517D01*
X144088727Y-34646596D01*
X143831214Y-34567163D01*
X143564741Y-34527000D01*
X143295259Y-34527000D01*
X143028785Y-34567163D01*
X142771272Y-34646596D01*
X142528483Y-34763517D01*
X142305819Y-34915326D01*
X142108277Y-35098619D01*
X141940256Y-35309310D01*
X141805514Y-35542691D01*
X141707062Y-35793541D01*
X141647095Y-36056273D01*
X141626957Y-36325000D01*
X137773042Y-36325000D01*
X137752904Y-36056271D01*
X137692938Y-35793544D01*
X137594485Y-35542689D01*
X137459743Y-35309310D01*
X137291723Y-35098620D01*
X137291722Y-35098619D01*
X137094180Y-34915326D01*
X136952879Y-34818989D01*
X136871521Y-34763520D01*
X136871518Y-34763519D01*
X136871516Y-34763517D01*
X136628727Y-34646596D01*
X136371214Y-34567163D01*
X136104741Y-34527000D01*
X135835259Y-34527000D01*
X135568785Y-34567163D01*
X135311272Y-34646596D01*
X135068483Y-34763517D01*
X134845819Y-34915326D01*
X134648277Y-35098619D01*
X134480256Y-35309310D01*
X134345514Y-35542691D01*
X134247062Y-35793541D01*
X134187095Y-36056273D01*
X134166957Y-36324999D01*
X126830066Y-36324999D01*
X126813300Y-36101271D01*
X126753334Y-35838544D01*
X126654881Y-35587689D01*
X126520139Y-35354310D01*
X126352119Y-35143620D01*
X126303621Y-35098620D01*
X126154576Y-34960326D01*
X125947272Y-34818989D01*
X125931917Y-34808520D01*
X125931914Y-34808519D01*
X125931912Y-34808517D01*
X125689123Y-34691596D01*
X125431610Y-34612163D01*
X125165137Y-34572000D01*
X124895655Y-34572000D01*
X124629181Y-34612163D01*
X124371668Y-34691596D01*
X124128879Y-34808517D01*
X123906215Y-34960326D01*
X123708673Y-35143619D01*
X123540652Y-35354310D01*
X123405910Y-35587691D01*
X123307458Y-35838541D01*
X123247491Y-36101273D01*
X123227353Y-36369999D01*
X119373438Y-36369999D01*
X119353300Y-36101271D01*
X119293334Y-35838544D01*
X119194881Y-35587689D01*
X119060139Y-35354310D01*
X118892119Y-35143620D01*
X118843621Y-35098620D01*
X118694576Y-34960326D01*
X118487272Y-34818989D01*
X118471917Y-34808520D01*
X118471914Y-34808519D01*
X118471912Y-34808517D01*
X118229123Y-34691596D01*
X117971610Y-34612163D01*
X117705137Y-34572000D01*
X117435655Y-34572000D01*
X117169181Y-34612163D01*
X116911668Y-34691596D01*
X116668879Y-34808517D01*
X116446215Y-34960326D01*
X116248673Y-35143619D01*
X116080652Y-35354310D01*
X115945910Y-35587691D01*
X115847458Y-35838541D01*
X115787491Y-36101273D01*
X115767353Y-36369999D01*
X108430463Y-36369999D01*
X108433835Y-36325000D01*
X108413697Y-36056271D01*
X108353731Y-35793544D01*
X108255278Y-35542689D01*
X108120536Y-35309310D01*
X107952516Y-35098620D01*
X107952515Y-35098619D01*
X107754973Y-34915326D01*
X107613672Y-34818989D01*
X107532314Y-34763520D01*
X107532311Y-34763519D01*
X107532309Y-34763517D01*
X107289520Y-34646596D01*
X107032007Y-34567163D01*
X106765534Y-34527000D01*
X106496052Y-34527000D01*
X106229578Y-34567163D01*
X105972065Y-34646596D01*
X105729276Y-34763517D01*
X105506612Y-34915326D01*
X105309070Y-35098619D01*
X105141049Y-35309310D01*
X105006307Y-35542691D01*
X104907855Y-35793541D01*
X104847888Y-36056273D01*
X104827750Y-36324999D01*
X104201293Y-36324999D01*
X104201293Y-34255875D01*
X104201765Y-34245067D01*
X104204833Y-34209999D01*
X119992418Y-34209999D01*
X120012289Y-34437125D01*
X120071300Y-34657355D01*
X120146552Y-34818734D01*
X120167655Y-34863989D01*
X120298427Y-35050751D01*
X120459645Y-35211969D01*
X120646407Y-35342741D01*
X120853042Y-35439096D01*
X121073268Y-35498106D01*
X121300396Y-35517977D01*
X121527524Y-35498106D01*
X121747750Y-35439096D01*
X121954385Y-35342741D01*
X122141147Y-35211969D01*
X122302365Y-35050751D01*
X122433137Y-34863989D01*
X122529492Y-34657354D01*
X122588502Y-34437128D01*
X122608373Y-34210000D01*
X122604436Y-34164999D01*
X138392022Y-34164999D01*
X138411893Y-34392125D01*
X138470904Y-34612355D01*
X138562376Y-34808517D01*
X138567259Y-34818989D01*
X138698031Y-35005751D01*
X138859249Y-35166969D01*
X139046011Y-35297741D01*
X139252646Y-35394096D01*
X139472872Y-35453106D01*
X139700000Y-35472977D01*
X139927128Y-35453106D01*
X140147354Y-35394096D01*
X140353989Y-35297741D01*
X140540751Y-35166969D01*
X140701969Y-35005751D01*
X140832741Y-34818989D01*
X140929096Y-34612354D01*
X140988106Y-34392128D01*
X141007977Y-34165000D01*
X140988106Y-33937872D01*
X140929096Y-33717646D01*
X140832741Y-33511012D01*
X140701969Y-33324249D01*
X140540751Y-33163031D01*
X140353989Y-33032259D01*
X140353988Y-33032258D01*
X140147355Y-32935904D01*
X139927125Y-32876893D01*
X139700000Y-32857022D01*
X139472874Y-32876893D01*
X139252644Y-32935904D01*
X139046011Y-33032259D01*
X138859248Y-33163031D01*
X138698031Y-33324248D01*
X138567259Y-33511011D01*
X138470904Y-33717644D01*
X138411893Y-33937874D01*
X138392022Y-34164999D01*
X122604436Y-34164999D01*
X122588502Y-33982872D01*
X122529492Y-33762646D01*
X122433137Y-33556012D01*
X122302365Y-33369249D01*
X122141147Y-33208031D01*
X121954385Y-33077259D01*
X121954384Y-33077258D01*
X121747751Y-32980904D01*
X121527521Y-32921893D01*
X121300396Y-32902022D01*
X121073270Y-32921893D01*
X120853040Y-32980904D01*
X120646407Y-33077259D01*
X120459644Y-33208031D01*
X120298427Y-33369248D01*
X120167655Y-33556011D01*
X120071300Y-33762644D01*
X120012289Y-33982874D01*
X119992418Y-34209999D01*
X104204833Y-34209999D01*
X104208770Y-34164999D01*
X104188899Y-33937874D01*
X104188899Y-33937872D01*
X104129889Y-33717646D01*
X104033534Y-33511012D01*
X103902762Y-33324249D01*
X103741544Y-33163031D01*
X103554782Y-33032259D01*
X103554781Y-33032258D01*
X103348148Y-32935904D01*
X103127918Y-32876893D01*
X102900793Y-32857022D01*
X102673667Y-32876893D01*
X102453437Y-32935904D01*
X102246804Y-33032259D01*
X102060041Y-33163031D01*
X101898824Y-33324248D01*
X101768052Y-33511011D01*
X101671697Y-33717644D01*
X101612686Y-33937874D01*
X101592815Y-34164999D01*
X85762475Y-34164999D01*
X85742612Y-33937961D01*
X85683624Y-33717815D01*
X85587307Y-33511265D01*
X85535819Y-33437733D01*
X84808553Y-34165000D01*
X84808553Y-34165001D01*
X84101446Y-34165001D01*
X84101446Y-34165000D01*
X83374179Y-33437732D01*
X83374178Y-33437732D01*
X83322693Y-33511261D01*
X83226375Y-33717815D01*
X83167387Y-33937961D01*
X83147524Y-34164999D01*
X76000000Y-34164999D01*
X76000000Y-33084179D01*
X83727732Y-33084179D01*
X84455000Y-33811446D01*
X84455001Y-33811446D01*
X85182267Y-33084179D01*
X85182266Y-33084178D01*
X85108734Y-33032690D01*
X84902186Y-32936376D01*
X84682038Y-32877387D01*
X84455000Y-32857524D01*
X84227961Y-32877387D01*
X84007815Y-32936375D01*
X83801261Y-33032693D01*
X83727732Y-33084178D01*
X83727732Y-33084179D01*
X76000000Y-33084179D01*
X76000000Y-29844999D01*
X82651957Y-29844999D01*
X82672095Y-30113726D01*
X82732062Y-30376458D01*
X82812364Y-30581063D01*
X82830515Y-30627311D01*
X82856496Y-30672311D01*
X82965256Y-30860689D01*
X83133277Y-31071380D01*
X83330819Y-31254673D01*
X83330822Y-31254675D01*
X83553479Y-31406480D01*
X83553482Y-31406481D01*
X83553483Y-31406482D01*
X83796272Y-31523403D01*
X83796274Y-31523403D01*
X83796275Y-31523404D01*
X84053785Y-31602836D01*
X84320259Y-31643000D01*
X84589741Y-31643000D01*
X84856215Y-31602836D01*
X85113725Y-31523404D01*
X85356521Y-31406480D01*
X85579178Y-31254675D01*
X85776723Y-31071380D01*
X85944743Y-30860690D01*
X86079485Y-30627311D01*
X86177938Y-30376456D01*
X86237904Y-30113729D01*
X86258042Y-29845000D01*
X86258042Y-29844999D01*
X101097750Y-29844999D01*
X101117888Y-30113726D01*
X101177855Y-30376458D01*
X101258157Y-30581063D01*
X101276308Y-30627311D01*
X101302289Y-30672311D01*
X101411049Y-30860689D01*
X101579070Y-31071380D01*
X101776612Y-31254673D01*
X101776615Y-31254675D01*
X101999272Y-31406480D01*
X101999275Y-31406481D01*
X101999276Y-31406482D01*
X102242065Y-31523403D01*
X102242067Y-31523403D01*
X102242068Y-31523404D01*
X102499578Y-31602836D01*
X102766052Y-31643000D01*
X103035534Y-31643000D01*
X103302008Y-31602836D01*
X103559518Y-31523404D01*
X103802314Y-31406480D01*
X104024971Y-31254675D01*
X104222516Y-31071380D01*
X104390536Y-30860690D01*
X104525278Y-30627311D01*
X104623731Y-30376456D01*
X104683697Y-30113729D01*
X104700463Y-29890000D01*
X119497353Y-29890000D01*
X119517491Y-30158726D01*
X119577458Y-30421458D01*
X119657760Y-30626063D01*
X119675911Y-30672311D01*
X119761333Y-30820266D01*
X119810652Y-30905689D01*
X119978673Y-31116380D01*
X120176215Y-31299673D01*
X120176218Y-31299675D01*
X120398875Y-31451480D01*
X120398878Y-31451481D01*
X120398879Y-31451482D01*
X120641668Y-31568403D01*
X120641670Y-31568403D01*
X120641671Y-31568404D01*
X120899181Y-31647836D01*
X121165655Y-31688000D01*
X121435137Y-31688000D01*
X121701611Y-31647836D01*
X121959121Y-31568404D01*
X122201917Y-31451480D01*
X122424574Y-31299675D01*
X122622119Y-31116380D01*
X122790139Y-30905690D01*
X122924881Y-30672311D01*
X123023334Y-30421456D01*
X123083300Y-30158729D01*
X123103438Y-29890000D01*
X123100066Y-29845000D01*
X137896957Y-29845000D01*
X137917095Y-30113726D01*
X137977062Y-30376458D01*
X138057364Y-30581063D01*
X138075515Y-30627311D01*
X138101496Y-30672311D01*
X138210256Y-30860689D01*
X138378277Y-31071380D01*
X138575819Y-31254673D01*
X138575822Y-31254675D01*
X138798479Y-31406480D01*
X138798482Y-31406481D01*
X138798483Y-31406482D01*
X139041272Y-31523403D01*
X139041274Y-31523403D01*
X139041275Y-31523404D01*
X139298785Y-31602836D01*
X139565259Y-31643000D01*
X139834741Y-31643000D01*
X140101215Y-31602836D01*
X140358725Y-31523404D01*
X140601521Y-31406480D01*
X140824178Y-31254675D01*
X141021723Y-31071380D01*
X141189743Y-30860690D01*
X141324485Y-30627311D01*
X141422938Y-30376456D01*
X141482904Y-30113729D01*
X141503042Y-29845000D01*
X141482904Y-29576271D01*
X141422938Y-29313544D01*
X141324485Y-29062689D01*
X141189743Y-28829310D01*
X141021723Y-28618620D01*
X140872678Y-28480326D01*
X140824180Y-28435326D01*
X140667519Y-28328517D01*
X140601521Y-28283520D01*
X140601518Y-28283519D01*
X140601516Y-28283517D01*
X140358727Y-28166596D01*
X140101214Y-28087163D01*
X139834741Y-28047000D01*
X139565259Y-28047000D01*
X139298785Y-28087163D01*
X139041272Y-28166596D01*
X138798483Y-28283517D01*
X138575819Y-28435326D01*
X138378277Y-28618619D01*
X138210256Y-28829310D01*
X138075514Y-29062691D01*
X137977062Y-29313541D01*
X137917095Y-29576273D01*
X137896957Y-29845000D01*
X123100066Y-29845000D01*
X123083300Y-29621271D01*
X123023334Y-29358544D01*
X122924881Y-29107689D01*
X122790139Y-28874310D01*
X122622119Y-28663620D01*
X122573621Y-28618620D01*
X122424576Y-28480326D01*
X122319781Y-28408878D01*
X122201917Y-28328520D01*
X122201914Y-28328519D01*
X122201912Y-28328517D01*
X121959123Y-28211596D01*
X121701610Y-28132163D01*
X121435137Y-28092000D01*
X121165655Y-28092000D01*
X120899181Y-28132163D01*
X120641668Y-28211596D01*
X120398879Y-28328517D01*
X120176215Y-28480326D01*
X119978673Y-28663619D01*
X119810652Y-28874310D01*
X119675910Y-29107691D01*
X119577458Y-29358541D01*
X119517491Y-29621273D01*
X119497353Y-29890000D01*
X104700463Y-29890000D01*
X104703835Y-29845000D01*
X104683697Y-29576271D01*
X104623731Y-29313544D01*
X104525278Y-29062689D01*
X104390536Y-28829310D01*
X104222516Y-28618620D01*
X104073471Y-28480326D01*
X104024973Y-28435326D01*
X103868312Y-28328517D01*
X103802314Y-28283520D01*
X103802311Y-28283519D01*
X103802309Y-28283517D01*
X103559520Y-28166596D01*
X103302007Y-28087163D01*
X103035534Y-28047000D01*
X102766052Y-28047000D01*
X102499578Y-28087163D01*
X102242065Y-28166596D01*
X101999276Y-28283517D01*
X101776612Y-28435326D01*
X101579070Y-28618619D01*
X101411049Y-28829310D01*
X101276307Y-29062691D01*
X101177855Y-29313541D01*
X101117888Y-29576273D01*
X101097750Y-29844999D01*
X86258042Y-29844999D01*
X86237904Y-29576271D01*
X86177938Y-29313544D01*
X86079485Y-29062689D01*
X85944743Y-28829310D01*
X85776723Y-28618620D01*
X85627678Y-28480326D01*
X85579180Y-28435326D01*
X85422519Y-28328517D01*
X85356521Y-28283520D01*
X85356518Y-28283519D01*
X85356516Y-28283517D01*
X85113727Y-28166596D01*
X84856214Y-28087163D01*
X84589741Y-28047000D01*
X84320259Y-28047000D01*
X84053785Y-28087163D01*
X83796272Y-28166596D01*
X83553483Y-28283517D01*
X83330819Y-28435326D01*
X83133277Y-28618619D01*
X82965256Y-28829310D01*
X82830514Y-29062691D01*
X82732062Y-29313541D01*
X82672095Y-29576273D01*
X82651957Y-29844999D01*
X76000000Y-29844999D01*
X76000000Y-27376195D01*
X76000382Y-27366467D01*
X76017701Y-27146397D01*
X76020743Y-27127185D01*
X76071139Y-26917273D01*
X76077145Y-26898788D01*
X76159757Y-26699346D01*
X76168590Y-26682012D01*
X76281375Y-26497964D01*
X76292811Y-26482223D01*
X76436191Y-26314346D01*
X76442775Y-26307224D01*
X76807224Y-25942775D01*
X76814346Y-25936191D01*
X76982226Y-25792808D01*
X76997964Y-25781375D01*
X77182015Y-25668588D01*
X77199346Y-25659757D01*
X77398788Y-25577145D01*
X77417273Y-25571139D01*
X77627185Y-25520743D01*
X77646391Y-25517701D01*
X77834384Y-25502906D01*
X77866467Y-25500382D01*
X77876195Y-25500000D01*
X147623805Y-25500000D01*
X147633533Y-25500382D01*
G37*
%TD.AperFunction*%
%TD*%
%TA.AperFunction,Conductor*%
%TO.N,/B*%
G36*
X131887959Y-48264468D02*
G01*
X131932522Y-48304497D01*
X131953121Y-48360745D01*
X131944949Y-48420086D01*
X131909913Y-48468673D01*
X131856189Y-48495166D01*
X131769097Y-48514111D01*
X131501047Y-48614088D01*
X131249954Y-48751195D01*
X131107437Y-48857882D01*
X131107436Y-48857883D01*
X132334000Y-50084446D01*
X132334001Y-50084446D01*
X133560562Y-48857883D01*
X133418042Y-48751193D01*
X133166952Y-48614088D01*
X132898902Y-48514111D01*
X132811811Y-48495166D01*
X132758087Y-48468673D01*
X132723051Y-48420086D01*
X132714879Y-48360745D01*
X132735478Y-48304497D01*
X132780041Y-48264468D01*
X132838169Y-48250000D01*
X138179831Y-48250000D01*
X138237959Y-48264468D01*
X138282522Y-48304497D01*
X138303121Y-48360745D01*
X138294949Y-48420086D01*
X138259913Y-48468673D01*
X138206189Y-48495166D01*
X138119097Y-48514111D01*
X137851047Y-48614088D01*
X137599954Y-48751195D01*
X137457437Y-48857882D01*
X137457436Y-48857883D01*
X138684000Y-50084446D01*
X138684001Y-50084446D01*
X139910562Y-48857883D01*
X139768042Y-48751193D01*
X139516952Y-48614088D01*
X139248902Y-48514111D01*
X139161811Y-48495166D01*
X139108087Y-48468673D01*
X139073051Y-48420086D01*
X139064879Y-48360745D01*
X139085478Y-48304497D01*
X139130041Y-48264468D01*
X139188169Y-48250000D01*
X139495125Y-48250000D01*
X139504853Y-48250382D01*
X139543690Y-48253438D01*
X139724927Y-48267701D01*
X139744137Y-48270744D01*
X139954042Y-48321138D01*
X139972534Y-48327147D01*
X140134813Y-48394364D01*
X140171971Y-48409756D01*
X140189308Y-48418590D01*
X140373355Y-48531375D01*
X140389096Y-48542812D01*
X140553238Y-48683002D01*
X140566997Y-48696761D01*
X140707187Y-48860903D01*
X140718624Y-48876644D01*
X140831409Y-49060691D01*
X140840243Y-49078028D01*
X140922850Y-49277458D01*
X140928863Y-49295964D01*
X140979254Y-49505857D01*
X140982298Y-49525075D01*
X140999618Y-49745146D01*
X141000000Y-49754875D01*
X141000000Y-53750000D01*
X145995125Y-53750000D01*
X146004853Y-53750382D01*
X146043690Y-53753438D01*
X146224927Y-53767701D01*
X146244137Y-53770744D01*
X146454042Y-53821138D01*
X146472534Y-53827147D01*
X146634813Y-53894364D01*
X146671971Y-53909756D01*
X146689308Y-53918590D01*
X146873355Y-54031375D01*
X146889096Y-54042812D01*
X147053238Y-54183002D01*
X147066997Y-54196761D01*
X147207187Y-54360903D01*
X147218624Y-54376644D01*
X147331409Y-54560691D01*
X147340243Y-54578028D01*
X147422850Y-54777458D01*
X147428863Y-54795964D01*
X147479254Y-55005857D01*
X147482298Y-55025075D01*
X147499618Y-55245146D01*
X147500000Y-55254875D01*
X147500000Y-56745125D01*
X147499618Y-56754854D01*
X147482298Y-56974924D01*
X147479254Y-56994142D01*
X147428863Y-57204035D01*
X147422850Y-57222541D01*
X147340243Y-57421971D01*
X147331409Y-57439308D01*
X147218624Y-57623355D01*
X147207187Y-57639096D01*
X147066997Y-57803238D01*
X147053238Y-57816997D01*
X146889096Y-57957187D01*
X146873355Y-57968624D01*
X146689308Y-58081409D01*
X146671971Y-58090243D01*
X146472541Y-58172850D01*
X146454035Y-58178863D01*
X146244142Y-58229254D01*
X146224924Y-58232298D01*
X146004854Y-58249618D01*
X145995125Y-58250000D01*
X141000000Y-58250000D01*
X141000000Y-59750000D01*
X141000000Y-59750003D01*
X141000000Y-67495125D01*
X140999618Y-67504854D01*
X140982298Y-67724924D01*
X140979254Y-67744142D01*
X140928863Y-67954035D01*
X140922850Y-67972541D01*
X140840243Y-68171971D01*
X140831409Y-68189308D01*
X140718624Y-68373355D01*
X140707187Y-68389096D01*
X140566997Y-68553238D01*
X140553238Y-68566997D01*
X140389096Y-68707187D01*
X140373355Y-68718624D01*
X140189308Y-68831409D01*
X140171971Y-68840243D01*
X139972541Y-68922850D01*
X139954035Y-68928863D01*
X139744142Y-68979254D01*
X139724924Y-68982298D01*
X139511207Y-68999118D01*
X139501478Y-68999500D01*
X131248522Y-68999500D01*
X131238793Y-68999118D01*
X131025075Y-68982298D01*
X131005857Y-68979254D01*
X130795964Y-68928863D01*
X130777458Y-68922850D01*
X130578028Y-68840243D01*
X130560691Y-68831409D01*
X130376644Y-68718624D01*
X130360903Y-68707187D01*
X130196761Y-68566997D01*
X130183002Y-68553238D01*
X130042812Y-68389096D01*
X130031375Y-68373355D01*
X129954627Y-68248115D01*
X131107436Y-68248115D01*
X131249958Y-68354806D01*
X131501047Y-68491911D01*
X131769097Y-68591888D01*
X132048642Y-68652699D01*
X132334000Y-68673109D01*
X132619357Y-68652699D01*
X132898902Y-68591888D01*
X133166952Y-68491911D01*
X133418041Y-68354806D01*
X133560562Y-68248115D01*
X137457436Y-68248115D01*
X137599958Y-68354806D01*
X137851047Y-68491911D01*
X138119097Y-68591888D01*
X138398642Y-68652699D01*
X138684000Y-68673109D01*
X138969357Y-68652699D01*
X139248902Y-68591888D01*
X139516952Y-68491911D01*
X139768041Y-68354806D01*
X139910562Y-68248115D01*
X138684001Y-67021553D01*
X138684000Y-67021553D01*
X137457436Y-68248115D01*
X133560562Y-68248115D01*
X132334001Y-67021553D01*
X132334000Y-67021553D01*
X131107436Y-68248115D01*
X129954627Y-68248115D01*
X129918590Y-68189308D01*
X129909756Y-68171971D01*
X129894364Y-68134813D01*
X129827147Y-67972534D01*
X129821138Y-67954042D01*
X129770744Y-67744137D01*
X129767701Y-67724923D01*
X129750382Y-67504853D01*
X129750000Y-67495125D01*
X129750000Y-66667999D01*
X130328890Y-66667999D01*
X130349300Y-66953357D01*
X130410111Y-67232902D01*
X130510088Y-67500952D01*
X130647193Y-67752042D01*
X130753883Y-67894562D01*
X131980445Y-66668001D01*
X132687553Y-66668001D01*
X133914115Y-67894562D01*
X134020806Y-67752041D01*
X134157911Y-67500952D01*
X134257888Y-67232902D01*
X134318699Y-66953357D01*
X134339109Y-66667999D01*
X136678890Y-66667999D01*
X136699300Y-66953357D01*
X136760111Y-67232902D01*
X136860088Y-67500952D01*
X136997193Y-67752042D01*
X137103883Y-67894562D01*
X138330446Y-66668001D01*
X138330446Y-66668000D01*
X139037553Y-66668000D01*
X140264115Y-67894562D01*
X140370806Y-67752041D01*
X140507911Y-67500952D01*
X140607888Y-67232902D01*
X140668699Y-66953357D01*
X140689109Y-66667999D01*
X140668699Y-66382642D01*
X140607888Y-66103097D01*
X140507911Y-65835047D01*
X140370806Y-65583958D01*
X140264115Y-65441436D01*
X139037553Y-66668000D01*
X138330446Y-66668000D01*
X137103883Y-65441436D01*
X137103882Y-65441437D01*
X136997195Y-65583954D01*
X136860088Y-65835047D01*
X136760111Y-66103097D01*
X136699300Y-66382642D01*
X136678890Y-66667999D01*
X134339109Y-66667999D01*
X134318699Y-66382642D01*
X134257888Y-66103097D01*
X134157911Y-65835047D01*
X134020806Y-65583958D01*
X133914115Y-65441436D01*
X132687553Y-66668000D01*
X132687553Y-66668001D01*
X131980445Y-66668001D01*
X131980446Y-66668000D01*
X130753883Y-65441436D01*
X130753882Y-65441437D01*
X130647195Y-65583954D01*
X130510088Y-65835047D01*
X130410111Y-66103097D01*
X130349300Y-66382642D01*
X130328890Y-66667999D01*
X129750000Y-66667999D01*
X129750000Y-65087883D01*
X131107436Y-65087883D01*
X132334000Y-66314446D01*
X132334001Y-66314446D01*
X133560562Y-65087883D01*
X137457436Y-65087883D01*
X138684000Y-66314446D01*
X138684001Y-66314446D01*
X139910562Y-65087883D01*
X139768042Y-64981193D01*
X139516952Y-64844088D01*
X139248902Y-64744111D01*
X138969357Y-64683300D01*
X138684000Y-64662890D01*
X138398642Y-64683300D01*
X138119097Y-64744111D01*
X137851047Y-64844088D01*
X137599954Y-64981195D01*
X137457437Y-65087882D01*
X137457436Y-65087883D01*
X133560562Y-65087883D01*
X133418042Y-64981193D01*
X133166952Y-64844088D01*
X132898902Y-64744111D01*
X132619357Y-64683300D01*
X132334000Y-64662890D01*
X132048642Y-64683300D01*
X131769097Y-64744111D01*
X131501047Y-64844088D01*
X131249954Y-64981195D01*
X131107437Y-65087882D01*
X131107436Y-65087883D01*
X129750000Y-65087883D01*
X129750000Y-57358702D01*
X143914848Y-57358702D01*
X144097479Y-57483217D01*
X144340542Y-57600270D01*
X144598339Y-57679791D01*
X144865109Y-57720000D01*
X145134891Y-57720000D01*
X145401660Y-57679791D01*
X145659460Y-57600270D01*
X145902523Y-57483217D01*
X146085150Y-57358702D01*
X145000000Y-56273553D01*
X143914848Y-57358702D01*
X129750000Y-57358702D01*
X129750000Y-55920000D01*
X143194952Y-55920000D01*
X143215113Y-56189026D01*
X143275146Y-56452049D01*
X143373708Y-56703178D01*
X143508598Y-56936816D01*
X143562295Y-57004150D01*
X144646447Y-55920001D01*
X144646447Y-55920000D01*
X145353553Y-55920000D01*
X146437703Y-57004151D01*
X146437704Y-57004150D01*
X146491400Y-56936818D01*
X146626291Y-56703178D01*
X146724853Y-56452049D01*
X146784886Y-56189026D01*
X146805047Y-55920000D01*
X146784886Y-55650973D01*
X146724853Y-55387950D01*
X146626291Y-55136821D01*
X146491398Y-54903178D01*
X146437704Y-54835847D01*
X145353553Y-55920000D01*
X144646447Y-55920000D01*
X143562295Y-54835848D01*
X143508598Y-54903182D01*
X143373708Y-55136821D01*
X143275146Y-55387950D01*
X143215113Y-55650973D01*
X143194952Y-55920000D01*
X129750000Y-55920000D01*
X129750000Y-54481296D01*
X143914848Y-54481296D01*
X145000000Y-55566447D01*
X145000001Y-55566447D01*
X146085150Y-54481296D01*
X145902519Y-54356780D01*
X145659460Y-54239729D01*
X145401660Y-54160208D01*
X145134891Y-54120000D01*
X144865109Y-54120000D01*
X144598339Y-54160208D01*
X144340542Y-54239729D01*
X144097476Y-54356783D01*
X143914848Y-54481296D01*
X129750000Y-54481296D01*
X129750000Y-52018115D01*
X131107436Y-52018115D01*
X131249958Y-52124806D01*
X131501047Y-52261911D01*
X131769097Y-52361888D01*
X132048642Y-52422699D01*
X132334000Y-52443109D01*
X132619357Y-52422699D01*
X132898902Y-52361888D01*
X133166952Y-52261911D01*
X133418041Y-52124806D01*
X133560562Y-52018115D01*
X137457436Y-52018115D01*
X137599958Y-52124806D01*
X137851047Y-52261911D01*
X138119097Y-52361888D01*
X138398642Y-52422699D01*
X138684000Y-52443109D01*
X138969357Y-52422699D01*
X139248902Y-52361888D01*
X139516952Y-52261911D01*
X139768041Y-52124806D01*
X139910562Y-52018115D01*
X138684001Y-50791553D01*
X138684000Y-50791553D01*
X137457436Y-52018115D01*
X133560562Y-52018115D01*
X132334001Y-50791553D01*
X132334000Y-50791553D01*
X131107436Y-52018115D01*
X129750000Y-52018115D01*
X129750000Y-50437999D01*
X130328890Y-50437999D01*
X130349300Y-50723357D01*
X130410111Y-51002902D01*
X130510088Y-51270952D01*
X130647193Y-51522042D01*
X130753883Y-51664562D01*
X131980446Y-50438000D01*
X132687553Y-50438000D01*
X133914115Y-51664562D01*
X134020806Y-51522041D01*
X134157911Y-51270952D01*
X134257888Y-51002902D01*
X134318699Y-50723357D01*
X134339109Y-50438000D01*
X136678890Y-50438000D01*
X136699300Y-50723357D01*
X136760111Y-51002902D01*
X136860088Y-51270952D01*
X136997193Y-51522042D01*
X137103883Y-51664562D01*
X138330446Y-50438001D01*
X138330446Y-50438000D01*
X139037553Y-50438000D01*
X140264115Y-51664562D01*
X140370806Y-51522041D01*
X140507911Y-51270952D01*
X140607888Y-51002902D01*
X140668699Y-50723357D01*
X140689109Y-50438000D01*
X140668699Y-50152642D01*
X140607888Y-49873097D01*
X140507911Y-49605047D01*
X140370806Y-49353958D01*
X140264115Y-49211436D01*
X139037553Y-50437998D01*
X139037553Y-50438000D01*
X138330446Y-50438000D01*
X137103883Y-49211436D01*
X137103882Y-49211437D01*
X136997195Y-49353954D01*
X136860088Y-49605047D01*
X136760111Y-49873097D01*
X136699300Y-50152642D01*
X136678890Y-50438000D01*
X134339109Y-50438000D01*
X134318699Y-50152642D01*
X134257888Y-49873097D01*
X134157911Y-49605047D01*
X134020806Y-49353958D01*
X133914115Y-49211436D01*
X132687553Y-50437998D01*
X132687553Y-50438000D01*
X131980446Y-50438000D01*
X130753883Y-49211436D01*
X130753882Y-49211437D01*
X130647195Y-49353954D01*
X130510088Y-49605047D01*
X130410111Y-49873097D01*
X130349300Y-50152642D01*
X130328890Y-50437999D01*
X129750000Y-50437999D01*
X129750000Y-49754875D01*
X129750382Y-49745147D01*
X129752939Y-49712646D01*
X129767701Y-49525070D01*
X129770743Y-49505864D01*
X129821139Y-49295953D01*
X129827145Y-49277468D01*
X129909757Y-49078024D01*
X129918590Y-49060691D01*
X130031375Y-48876644D01*
X130042812Y-48860903D01*
X130183002Y-48696761D01*
X130196761Y-48683002D01*
X130360903Y-48542812D01*
X130376644Y-48531375D01*
X130404816Y-48514111D01*
X130560694Y-48418588D01*
X130578024Y-48409757D01*
X130777468Y-48327145D01*
X130795953Y-48321139D01*
X131005864Y-48270743D01*
X131025070Y-48267701D01*
X131212646Y-48252939D01*
X131245147Y-48250382D01*
X131254875Y-48250000D01*
X131829831Y-48250000D01*
X131887959Y-48264468D01*
G37*
%TD.AperFunction*%
%TD*%
%TA.AperFunction,Conductor*%
%TO.N,/A*%
G36*
X111698000Y-47768613D02*
G01*
X111743387Y-47814000D01*
X111760000Y-47876000D01*
X111760000Y-63376000D01*
X111743387Y-63438000D01*
X111698000Y-63483387D01*
X111636000Y-63500000D01*
X104264000Y-63500000D01*
X104202000Y-63483387D01*
X104156613Y-63438000D01*
X104140000Y-63376000D01*
X104140000Y-60322000D01*
X104156613Y-60260000D01*
X104202000Y-60214613D01*
X104264000Y-60198000D01*
X108458000Y-60198000D01*
X108458000Y-47876000D01*
X108474613Y-47814000D01*
X108520000Y-47768613D01*
X108582000Y-47752000D01*
X111636000Y-47752000D01*
X111698000Y-47768613D01*
G37*
%TD.AperFunction*%
%TD*%
%TA.AperFunction,Conductor*%
%TO.N,/A*%
G36*
X86835000Y-48262530D02*
G01*
X86882901Y-48250000D01*
X93137099Y-48250000D01*
X93185000Y-48262530D01*
X93232901Y-48250000D01*
X93745125Y-48250000D01*
X93754853Y-48250382D01*
X93793690Y-48253438D01*
X93974927Y-48267701D01*
X93994137Y-48270744D01*
X94204042Y-48321138D01*
X94222534Y-48327147D01*
X94384813Y-48394364D01*
X94421971Y-48409756D01*
X94439308Y-48418590D01*
X94623355Y-48531375D01*
X94639096Y-48542812D01*
X94803238Y-48683002D01*
X94816997Y-48696761D01*
X94957187Y-48860903D01*
X94968624Y-48876644D01*
X95081409Y-49060691D01*
X95090243Y-49078028D01*
X95172850Y-49277458D01*
X95178863Y-49295964D01*
X95229254Y-49505857D01*
X95232298Y-49525076D01*
X95237467Y-49590762D01*
X95224653Y-49656154D01*
X95179842Y-49705471D01*
X95115973Y-49724472D01*
X95051491Y-49707670D01*
X95005017Y-49659916D01*
X94871808Y-49415960D01*
X94765115Y-49273436D01*
X93538553Y-50500000D01*
X93538553Y-50500001D01*
X94765115Y-51726562D01*
X94871806Y-51584041D01*
X95008911Y-51332951D01*
X95009818Y-51330522D01*
X95011437Y-51328325D01*
X95013162Y-51325168D01*
X95013592Y-51325403D01*
X95050278Y-51275659D01*
X95113624Y-51250473D01*
X95180711Y-51262576D01*
X95231262Y-51308311D01*
X95250000Y-51373854D01*
X95250000Y-65856146D01*
X95231262Y-65921689D01*
X95180711Y-65967424D01*
X95113624Y-65979527D01*
X95050278Y-65954341D01*
X95013592Y-65904596D01*
X95013162Y-65904832D01*
X95011437Y-65901674D01*
X95009818Y-65899478D01*
X95008911Y-65897048D01*
X94871806Y-65645958D01*
X94765115Y-65503436D01*
X93538553Y-66730000D01*
X93538553Y-66730001D01*
X94765115Y-67956562D01*
X94871806Y-67814041D01*
X95006857Y-67566714D01*
X95053331Y-67518961D01*
X95117814Y-67502159D01*
X95181683Y-67521161D01*
X95226494Y-67570478D01*
X95239307Y-67635870D01*
X95232298Y-67724924D01*
X95229254Y-67744142D01*
X95178863Y-67954035D01*
X95172850Y-67972541D01*
X95090243Y-68171971D01*
X95081409Y-68189308D01*
X94968624Y-68373355D01*
X94957187Y-68389096D01*
X94816997Y-68553238D01*
X94803238Y-68566997D01*
X94639096Y-68707187D01*
X94623355Y-68718624D01*
X94439308Y-68831409D01*
X94421971Y-68840243D01*
X94222541Y-68922850D01*
X94204035Y-68928863D01*
X93994142Y-68979254D01*
X93974924Y-68982298D01*
X93761207Y-68999118D01*
X93751478Y-68999500D01*
X85498522Y-68999500D01*
X85488793Y-68999118D01*
X85275075Y-68982298D01*
X85255857Y-68979254D01*
X85045964Y-68928863D01*
X85027458Y-68922850D01*
X84828028Y-68840243D01*
X84810691Y-68831409D01*
X84626644Y-68718624D01*
X84610903Y-68707187D01*
X84446761Y-68566997D01*
X84433002Y-68553238D01*
X84292812Y-68389096D01*
X84281375Y-68373355D01*
X84242621Y-68310115D01*
X85608436Y-68310115D01*
X85750958Y-68416806D01*
X86002047Y-68553911D01*
X86270097Y-68653888D01*
X86549642Y-68714699D01*
X86835000Y-68735109D01*
X87120357Y-68714699D01*
X87399902Y-68653888D01*
X87667952Y-68553911D01*
X87919041Y-68416806D01*
X88061562Y-68310115D01*
X91958436Y-68310115D01*
X92100958Y-68416806D01*
X92352047Y-68553911D01*
X92620097Y-68653888D01*
X92899642Y-68714699D01*
X93185000Y-68735109D01*
X93470357Y-68714699D01*
X93749902Y-68653888D01*
X94017952Y-68553911D01*
X94269041Y-68416806D01*
X94411562Y-68310115D01*
X93185001Y-67083553D01*
X93185000Y-67083553D01*
X91958436Y-68310115D01*
X88061562Y-68310115D01*
X86835001Y-67083553D01*
X86835000Y-67083553D01*
X85608436Y-68310115D01*
X84242621Y-68310115D01*
X84168590Y-68189308D01*
X84159756Y-68171971D01*
X84144364Y-68134813D01*
X84077147Y-67972534D01*
X84071138Y-67954042D01*
X84020744Y-67744137D01*
X84017701Y-67724923D01*
X84000382Y-67504853D01*
X84000000Y-67495125D01*
X84000000Y-66730000D01*
X84829890Y-66730000D01*
X84850300Y-67015357D01*
X84911111Y-67294902D01*
X85011088Y-67562952D01*
X85148193Y-67814042D01*
X85254883Y-67956562D01*
X86481446Y-66730001D01*
X87188553Y-66730001D01*
X88415115Y-67956562D01*
X88521806Y-67814041D01*
X88658911Y-67562952D01*
X88758888Y-67294902D01*
X88819699Y-67015357D01*
X88840109Y-66730000D01*
X91179890Y-66730000D01*
X91200300Y-67015357D01*
X91261111Y-67294902D01*
X91361088Y-67562952D01*
X91498193Y-67814042D01*
X91604883Y-67956562D01*
X92831446Y-66730001D01*
X92831446Y-66730000D01*
X91604883Y-65503436D01*
X91604882Y-65503437D01*
X91498195Y-65645954D01*
X91361088Y-65897047D01*
X91261111Y-66165097D01*
X91200300Y-66444642D01*
X91179890Y-66730000D01*
X88840109Y-66730000D01*
X88819699Y-66444642D01*
X88758888Y-66165097D01*
X88658911Y-65897047D01*
X88521806Y-65645958D01*
X88415115Y-65503436D01*
X87188553Y-66730000D01*
X87188553Y-66730001D01*
X86481446Y-66730001D01*
X86481446Y-66730000D01*
X85254883Y-65503436D01*
X85254882Y-65503437D01*
X85148195Y-65645954D01*
X85011088Y-65897047D01*
X84911111Y-66165097D01*
X84850300Y-66444642D01*
X84829890Y-66730000D01*
X84000000Y-66730000D01*
X84000000Y-65149883D01*
X85608436Y-65149883D01*
X86835000Y-66376446D01*
X86835001Y-66376446D01*
X88061562Y-65149883D01*
X91958436Y-65149883D01*
X93185000Y-66376446D01*
X93185001Y-66376446D01*
X94411562Y-65149883D01*
X94269042Y-65043193D01*
X94017952Y-64906088D01*
X93749902Y-64806111D01*
X93470357Y-64745300D01*
X93185000Y-64724890D01*
X92899642Y-64745300D01*
X92620097Y-64806111D01*
X92352047Y-64906088D01*
X92100954Y-65043195D01*
X91958437Y-65149882D01*
X91958436Y-65149883D01*
X88061562Y-65149883D01*
X87919042Y-65043193D01*
X87667952Y-64906088D01*
X87399902Y-64806111D01*
X87120357Y-64745300D01*
X86835000Y-64724890D01*
X86549642Y-64745300D01*
X86270097Y-64806111D01*
X86002047Y-64906088D01*
X85750954Y-65043195D01*
X85608437Y-65149882D01*
X85608436Y-65149883D01*
X84000000Y-65149883D01*
X84000000Y-65000003D01*
X84000000Y-65000000D01*
X84000000Y-63500000D01*
X82500000Y-63500000D01*
X82499997Y-63500000D01*
X79004875Y-63500000D01*
X78995146Y-63499618D01*
X78775075Y-63482298D01*
X78755857Y-63479254D01*
X78545964Y-63428863D01*
X78527458Y-63422850D01*
X78328028Y-63340243D01*
X78310691Y-63331409D01*
X78126644Y-63218624D01*
X78110903Y-63207187D01*
X77946761Y-63066997D01*
X77933002Y-63053238D01*
X77792812Y-62889096D01*
X77781375Y-62873355D01*
X77668590Y-62689308D01*
X77667262Y-62686702D01*
X79433848Y-62686702D01*
X79616479Y-62811217D01*
X79859542Y-62928270D01*
X80117339Y-63007791D01*
X80384109Y-63048000D01*
X80653891Y-63048000D01*
X80920660Y-63007791D01*
X81178460Y-62928270D01*
X81421523Y-62811217D01*
X81604150Y-62686702D01*
X80519000Y-61601553D01*
X79433848Y-62686702D01*
X77667262Y-62686702D01*
X77659756Y-62671971D01*
X77644364Y-62634813D01*
X77577147Y-62472534D01*
X77571138Y-62454042D01*
X77520744Y-62244137D01*
X77517701Y-62224923D01*
X77500382Y-62004853D01*
X77500000Y-61995125D01*
X77500000Y-61248000D01*
X78713952Y-61248000D01*
X78734113Y-61517026D01*
X78794146Y-61780049D01*
X78892708Y-62031178D01*
X79027598Y-62264816D01*
X79081295Y-62332150D01*
X80165447Y-61248001D01*
X80165447Y-61248000D01*
X80872553Y-61248000D01*
X81956703Y-62332151D01*
X81956704Y-62332150D01*
X82010400Y-62264818D01*
X82145291Y-62031178D01*
X82243853Y-61780049D01*
X82303886Y-61517026D01*
X82324047Y-61248000D01*
X82303886Y-60978973D01*
X82243853Y-60715950D01*
X82145291Y-60464821D01*
X82010398Y-60231178D01*
X81956704Y-60163847D01*
X80872553Y-61248000D01*
X80165447Y-61248000D01*
X79081295Y-60163848D01*
X79027598Y-60231182D01*
X78892708Y-60464821D01*
X78794146Y-60715950D01*
X78734113Y-60978973D01*
X78713952Y-61248000D01*
X77500000Y-61248000D01*
X77500000Y-60504875D01*
X77500382Y-60495147D01*
X77517701Y-60275076D01*
X77520743Y-60255864D01*
X77571139Y-60045953D01*
X77577145Y-60027468D01*
X77659757Y-59828024D01*
X77668590Y-59810691D01*
X77669445Y-59809296D01*
X79433848Y-59809296D01*
X80519000Y-60894447D01*
X80519001Y-60894447D01*
X81604150Y-59809296D01*
X81421519Y-59684780D01*
X81178460Y-59567729D01*
X80920660Y-59488208D01*
X80653891Y-59448000D01*
X80384109Y-59448000D01*
X80117339Y-59488208D01*
X79859542Y-59567729D01*
X79616476Y-59684783D01*
X79433848Y-59809296D01*
X77669445Y-59809296D01*
X77781375Y-59626644D01*
X77792812Y-59610903D01*
X77933002Y-59446761D01*
X77946761Y-59433002D01*
X78110903Y-59292812D01*
X78126644Y-59281375D01*
X78310694Y-59168588D01*
X78328024Y-59159757D01*
X78527468Y-59077145D01*
X78545953Y-59071139D01*
X78755864Y-59020743D01*
X78775070Y-59017701D01*
X78962646Y-59002939D01*
X78995147Y-59000382D01*
X79004875Y-59000000D01*
X82499997Y-59000000D01*
X82500000Y-59000000D01*
X84000000Y-59000000D01*
X84000000Y-52080115D01*
X85608436Y-52080115D01*
X85750958Y-52186806D01*
X86002047Y-52323911D01*
X86270097Y-52423888D01*
X86549642Y-52484699D01*
X86835000Y-52505109D01*
X87120357Y-52484699D01*
X87399902Y-52423888D01*
X87667952Y-52323911D01*
X87919041Y-52186806D01*
X88061562Y-52080115D01*
X91958436Y-52080115D01*
X92100958Y-52186806D01*
X92352047Y-52323911D01*
X92620097Y-52423888D01*
X92899642Y-52484699D01*
X93185000Y-52505109D01*
X93470357Y-52484699D01*
X93749902Y-52423888D01*
X94017952Y-52323911D01*
X94269041Y-52186806D01*
X94411562Y-52080115D01*
X93185001Y-50853553D01*
X93185000Y-50853553D01*
X91958436Y-52080115D01*
X88061562Y-52080115D01*
X86835001Y-50853553D01*
X86835000Y-50853553D01*
X85608436Y-52080115D01*
X84000000Y-52080115D01*
X84000000Y-50500000D01*
X84829890Y-50500000D01*
X84850300Y-50785357D01*
X84911111Y-51064902D01*
X85011088Y-51332952D01*
X85148193Y-51584042D01*
X85254883Y-51726562D01*
X86481446Y-50500001D01*
X87188553Y-50500001D01*
X88415115Y-51726562D01*
X88521806Y-51584041D01*
X88658911Y-51332952D01*
X88758888Y-51064902D01*
X88819699Y-50785357D01*
X88840109Y-50500000D01*
X91179890Y-50500000D01*
X91200300Y-50785357D01*
X91261111Y-51064902D01*
X91361088Y-51332952D01*
X91498193Y-51584042D01*
X91604883Y-51726562D01*
X92831446Y-50500001D01*
X92831446Y-50500000D01*
X91604883Y-49273436D01*
X91604882Y-49273437D01*
X91498195Y-49415954D01*
X91361088Y-49667047D01*
X91261111Y-49935097D01*
X91200300Y-50214642D01*
X91179890Y-50500000D01*
X88840109Y-50500000D01*
X88819699Y-50214642D01*
X88758888Y-49935097D01*
X88658911Y-49667047D01*
X88521806Y-49415958D01*
X88415115Y-49273436D01*
X87188553Y-50500000D01*
X87188553Y-50500001D01*
X86481446Y-50500001D01*
X86481446Y-50500000D01*
X85254883Y-49273436D01*
X85254882Y-49273437D01*
X85148195Y-49415954D01*
X85011088Y-49667047D01*
X84911111Y-49935097D01*
X84850300Y-50214642D01*
X84829890Y-50500000D01*
X84000000Y-50500000D01*
X84000000Y-49754875D01*
X84000382Y-49745147D01*
X84006528Y-49667047D01*
X84017701Y-49525070D01*
X84020743Y-49505864D01*
X84071139Y-49295953D01*
X84077145Y-49277468D01*
X84159757Y-49078024D01*
X84168590Y-49060691D01*
X84254878Y-48919883D01*
X85608436Y-48919883D01*
X86835000Y-50146446D01*
X86835001Y-50146446D01*
X88061562Y-48919883D01*
X91958436Y-48919883D01*
X93185000Y-50146446D01*
X93185001Y-50146446D01*
X94411562Y-48919883D01*
X94269042Y-48813193D01*
X94017952Y-48676088D01*
X93749902Y-48576111D01*
X93470357Y-48515300D01*
X93224055Y-48497684D01*
X93185000Y-48484426D01*
X93145945Y-48497684D01*
X92899642Y-48515300D01*
X92620097Y-48576111D01*
X92352047Y-48676088D01*
X92100954Y-48813195D01*
X91958437Y-48919882D01*
X91958436Y-48919883D01*
X88061562Y-48919883D01*
X87919042Y-48813193D01*
X87667952Y-48676088D01*
X87399902Y-48576111D01*
X87120357Y-48515300D01*
X86874055Y-48497684D01*
X86835000Y-48484426D01*
X86795945Y-48497684D01*
X86549642Y-48515300D01*
X86270097Y-48576111D01*
X86002047Y-48676088D01*
X85750954Y-48813195D01*
X85608437Y-48919882D01*
X85608436Y-48919883D01*
X84254878Y-48919883D01*
X84281375Y-48876644D01*
X84292812Y-48860903D01*
X84433002Y-48696761D01*
X84446761Y-48683002D01*
X84610903Y-48542812D01*
X84626644Y-48531375D01*
X84652876Y-48515300D01*
X84810694Y-48418588D01*
X84828024Y-48409757D01*
X85027468Y-48327145D01*
X85045953Y-48321139D01*
X85255864Y-48270743D01*
X85275070Y-48267701D01*
X85462646Y-48252939D01*
X85495147Y-48250382D01*
X85504875Y-48250000D01*
X86787099Y-48250000D01*
X86835000Y-48262530D01*
G37*
%TD.AperFunction*%
%TD*%
%TA.AperFunction,Conductor*%
%TO.N,/B*%
G36*
X115762000Y-47768613D02*
G01*
X115807387Y-47814000D01*
X115824000Y-47876000D01*
X115824000Y-60198000D01*
X119764000Y-60198000D01*
X119826000Y-60214613D01*
X119871387Y-60260000D01*
X119888000Y-60322000D01*
X119888000Y-63376000D01*
X119871387Y-63438000D01*
X119826000Y-63483387D01*
X119764000Y-63500000D01*
X112646000Y-63500000D01*
X112584000Y-63483387D01*
X112538613Y-63438000D01*
X112522000Y-63376000D01*
X112522000Y-47876000D01*
X112538613Y-47814000D01*
X112584000Y-47768613D01*
X112646000Y-47752000D01*
X115700000Y-47752000D01*
X115762000Y-47768613D01*
G37*
%TD.AperFunction*%
%TD*%
M02*
