%TF.GenerationSoftware,KiCad,Pcbnew,7.0.1*%
%TF.CreationDate,2023-08-03T02:37:16+01:00*%
%TF.ProjectId,QA403 Impedance Fixture,51413430-3320-4496-9d70-6564616e6365,rev?*%
%TF.SameCoordinates,Original*%
%TF.FileFunction,Legend,Top*%
%TF.FilePolarity,Positive*%
%FSLAX46Y46*%
G04 Gerber Fmt 4.6, Leading zero omitted, Abs format (unit mm)*
G04 Created by KiCad (PCBNEW 7.0.1) date 2023-08-03 02:37:16*
%MOMM*%
%LPD*%
G01*
G04 APERTURE LIST*
G04 Aperture macros list*
%AMRoundRect*
0 Rectangle with rounded corners*
0 $1 Rounding radius*
0 $2 $3 $4 $5 $6 $7 $8 $9 X,Y pos of 4 corners*
0 Add a 4 corners polygon primitive as box body*
4,1,4,$2,$3,$4,$5,$6,$7,$8,$9,$2,$3,0*
0 Add four circle primitives for the rounded corners*
1,1,$1+$1,$2,$3*
1,1,$1+$1,$4,$5*
1,1,$1+$1,$6,$7*
1,1,$1+$1,$8,$9*
0 Add four rect primitives between the rounded corners*
20,1,$1+$1,$2,$3,$4,$5,0*
20,1,$1+$1,$4,$5,$6,$7,0*
20,1,$1+$1,$6,$7,$8,$9,0*
20,1,$1+$1,$8,$9,$2,$3,0*%
G04 Aperture macros list end*
%ADD10C,0.150000*%
%ADD11C,0.200000*%
%ADD12C,0.300000*%
%ADD13C,0.254000*%
%ADD14C,0.120000*%
%ADD15C,3.000000*%
%ADD16R,2.600000X2.600000*%
%ADD17C,2.600000*%
%ADD18C,1.605000*%
%ADD19C,2.595000*%
%ADD20RoundRect,0.250000X-0.350000X-0.450000X0.350000X-0.450000X0.350000X0.450000X-0.350000X0.450000X0*%
%ADD21RoundRect,0.249999X-0.450001X-1.075001X0.450001X-1.075001X0.450001X1.075001X-0.450001X1.075001X0*%
%ADD22C,1.600000*%
%ADD23O,1.600000X1.600000*%
%ADD24RoundRect,0.250000X-0.400000X-0.625000X0.400000X-0.625000X0.400000X0.625000X-0.400000X0.625000X0*%
G04 APERTURE END LIST*
D10*
G36*
X78631859Y-39118878D02*
G01*
X78703800Y-39190819D01*
X78744142Y-39352186D01*
X78744142Y-39667051D01*
X78703800Y-39828418D01*
X78631856Y-39900361D01*
X78563342Y-39934619D01*
X78408277Y-39934619D01*
X78339758Y-39900360D01*
X78267817Y-39828418D01*
X78227476Y-39667051D01*
X78227476Y-39352187D01*
X78267817Y-39190819D01*
X78339759Y-39118877D01*
X78408275Y-39084619D01*
X78563341Y-39084619D01*
X78631859Y-39118878D01*
G37*
G36*
X80695333Y-40499857D02*
G01*
X76594143Y-40499857D01*
X76594143Y-39577873D01*
X77074374Y-39577873D01*
X77077476Y-39590281D01*
X77077476Y-39591829D01*
X77080080Y-39600698D01*
X77124094Y-39776753D01*
X77123164Y-39785367D01*
X77129330Y-39797700D01*
X77129949Y-39800173D01*
X77134131Y-39807300D01*
X77176426Y-39891890D01*
X77179109Y-39904222D01*
X77193738Y-39918851D01*
X77207798Y-39933967D01*
X77209216Y-39934329D01*
X77287064Y-40012178D01*
X77298343Y-40026187D01*
X77312884Y-40031034D01*
X77326337Y-40038380D01*
X77333405Y-40037874D01*
X77453172Y-40077797D01*
X77463787Y-40084619D01*
X77484466Y-40084619D01*
X77505106Y-40085365D01*
X77506365Y-40084619D01*
X77571645Y-40084619D01*
X77583872Y-40087734D01*
X77603484Y-40081196D01*
X77623307Y-40075376D01*
X77624265Y-40074269D01*
X77743789Y-40034428D01*
X77761366Y-40030605D01*
X77772207Y-40019762D01*
X77784789Y-40011019D01*
X77787496Y-40004473D01*
X77832180Y-39959788D01*
X77847903Y-39930994D01*
X77844760Y-39887063D01*
X77818365Y-39851805D01*
X77777098Y-39836413D01*
X77734061Y-39845776D01*
X77683390Y-39896447D01*
X77568875Y-39934619D01*
X77497979Y-39934619D01*
X77383464Y-39896447D01*
X77309352Y-39822333D01*
X77270859Y-39745347D01*
X77252800Y-39673111D01*
X78074374Y-39673111D01*
X78077476Y-39685519D01*
X78077476Y-39687067D01*
X78080080Y-39695936D01*
X78127056Y-39883842D01*
X78131490Y-39904222D01*
X78140270Y-39913002D01*
X78146551Y-39923707D01*
X78155519Y-39928251D01*
X78235650Y-40008383D01*
X78242095Y-40019234D01*
X78260596Y-40028484D01*
X78278718Y-40038380D01*
X78280178Y-40038275D01*
X78353422Y-40074897D01*
X78368549Y-40084619D01*
X78383879Y-40084619D01*
X78398962Y-40087333D01*
X78405506Y-40084619D01*
X78577007Y-40084619D01*
X78594891Y-40086550D01*
X78608604Y-40079693D01*
X78623307Y-40075376D01*
X78627945Y-40070022D01*
X78701414Y-40033287D01*
X78713746Y-40030605D01*
X78728371Y-40015979D01*
X78743491Y-40001916D01*
X78743853Y-40000496D01*
X78823736Y-39920613D01*
X78838943Y-39906316D01*
X78841954Y-39894268D01*
X78847903Y-39883375D01*
X78847185Y-39873345D01*
X78888909Y-39706448D01*
X78894142Y-39698307D01*
X78894142Y-39685519D01*
X78894518Y-39684015D01*
X78894142Y-39674769D01*
X78894142Y-39355295D01*
X78897244Y-39346126D01*
X78894142Y-39333718D01*
X78894142Y-39332170D01*
X78891537Y-39323300D01*
X78844561Y-39135397D01*
X78840128Y-39115015D01*
X78831348Y-39106235D01*
X78825067Y-39095529D01*
X78816096Y-39090983D01*
X78746492Y-39021379D01*
X79170437Y-39021379D01*
X79172714Y-39026258D01*
X79172714Y-40020401D01*
X79181957Y-40051879D01*
X79215243Y-40080721D01*
X79258838Y-40086989D01*
X79298902Y-40068693D01*
X79322714Y-40031641D01*
X79322714Y-39347686D01*
X79512827Y-39755071D01*
X79521554Y-39774604D01*
X79531484Y-39781102D01*
X79539330Y-39790007D01*
X79549532Y-39792911D01*
X79558409Y-39798720D01*
X79570277Y-39798817D01*
X79581690Y-39802067D01*
X79591840Y-39798995D01*
X79602451Y-39799083D01*
X79612490Y-39792747D01*
X79623846Y-39789311D01*
X79630725Y-39781238D01*
X79639698Y-39775576D01*
X79644717Y-39764820D01*
X79652414Y-39755789D01*
X79653837Y-39745277D01*
X79839380Y-39347686D01*
X79839380Y-40020401D01*
X79848623Y-40051879D01*
X79881909Y-40080721D01*
X79925504Y-40086989D01*
X79965568Y-40068693D01*
X79989380Y-40031641D01*
X79989380Y-39015289D01*
X79991839Y-38999131D01*
X79984917Y-38983638D01*
X79980137Y-38967359D01*
X79976068Y-38963834D01*
X79973873Y-38958919D01*
X79959673Y-38949627D01*
X79946851Y-38938517D01*
X79941523Y-38937750D01*
X79937018Y-38934803D01*
X79920046Y-38934663D01*
X79903256Y-38932249D01*
X79898361Y-38934484D01*
X79892976Y-38934440D01*
X79878621Y-38943498D01*
X79863192Y-38950545D01*
X79860282Y-38955072D01*
X79855729Y-38957946D01*
X79848552Y-38973324D01*
X79839380Y-38987597D01*
X79839380Y-38992980D01*
X79581047Y-39546550D01*
X79318076Y-38983042D01*
X79313471Y-38967359D01*
X79300648Y-38956248D01*
X79289431Y-38943516D01*
X79284252Y-38942041D01*
X79280185Y-38938517D01*
X79263391Y-38936102D01*
X79247071Y-38931456D01*
X79241918Y-38933015D01*
X79236590Y-38932249D01*
X79221153Y-38939298D01*
X79204915Y-38944212D01*
X79201424Y-38948308D01*
X79196526Y-38950545D01*
X79187350Y-38964822D01*
X79176347Y-38977734D01*
X79175624Y-38983067D01*
X79172714Y-38987597D01*
X79172714Y-39004563D01*
X79170437Y-39021379D01*
X78746492Y-39021379D01*
X78735966Y-39010853D01*
X78729523Y-39000004D01*
X78711022Y-38990753D01*
X78692900Y-38980858D01*
X78691439Y-38980962D01*
X78618198Y-38944342D01*
X78603069Y-38934619D01*
X78587739Y-38934619D01*
X78572656Y-38931905D01*
X78566112Y-38934619D01*
X78394602Y-38934619D01*
X78376727Y-38932689D01*
X78363017Y-38939543D01*
X78348311Y-38943862D01*
X78343671Y-38949216D01*
X78270202Y-38985950D01*
X78257872Y-38988633D01*
X78243252Y-39003252D01*
X78228127Y-39017322D01*
X78227764Y-39018740D01*
X78147873Y-39098631D01*
X78132675Y-39112922D01*
X78129663Y-39124966D01*
X78123715Y-39135861D01*
X78124432Y-39145891D01*
X78082708Y-39312788D01*
X78077476Y-39320930D01*
X78077476Y-39333718D01*
X78077100Y-39335222D01*
X78077476Y-39344468D01*
X78077476Y-39663942D01*
X78074374Y-39673111D01*
X77252800Y-39673111D01*
X77227476Y-39571813D01*
X77227476Y-39447425D01*
X77270859Y-39273891D01*
X77309354Y-39196902D01*
X77383465Y-39122790D01*
X77497980Y-39084619D01*
X77568877Y-39084619D01*
X77683390Y-39122790D01*
X77726114Y-39165514D01*
X77754908Y-39181236D01*
X77798839Y-39178094D01*
X77834097Y-39151700D01*
X77849490Y-39110433D01*
X77840128Y-39067396D01*
X77779790Y-39007058D01*
X77768513Y-38993051D01*
X77753971Y-38988203D01*
X77740519Y-38980858D01*
X77733451Y-38981363D01*
X77613684Y-38941441D01*
X77603069Y-38934619D01*
X77582389Y-38934619D01*
X77561750Y-38933873D01*
X77560491Y-38934619D01*
X77495211Y-38934619D01*
X77482983Y-38931504D01*
X77463363Y-38938043D01*
X77443549Y-38943862D01*
X77442590Y-38944968D01*
X77323061Y-38984810D01*
X77305491Y-38988633D01*
X77294652Y-38999471D01*
X77282066Y-39008219D01*
X77279357Y-39014766D01*
X77201329Y-39092794D01*
X77190480Y-39099238D01*
X77181229Y-39117738D01*
X77171334Y-39135861D01*
X77171438Y-39137321D01*
X77138986Y-39202225D01*
X77132675Y-39208160D01*
X77129330Y-39221537D01*
X77128191Y-39223817D01*
X77126727Y-39231949D01*
X77082708Y-39408026D01*
X77077476Y-39416168D01*
X77077476Y-39428956D01*
X77077100Y-39430460D01*
X77077476Y-39439706D01*
X77077476Y-39568704D01*
X77074374Y-39577873D01*
X76594143Y-39577873D01*
X76594143Y-38389143D01*
X80695333Y-38389143D01*
X80695333Y-40499857D01*
G37*
G36*
X115989771Y-39598980D02*
G01*
X116016264Y-39625473D01*
X116050523Y-39693989D01*
X116050523Y-39801436D01*
X116016264Y-39869953D01*
X115985856Y-39900361D01*
X115917342Y-39934619D01*
X115629095Y-39934619D01*
X115629095Y-39560809D01*
X115875258Y-39560809D01*
X115989771Y-39598980D01*
G37*
G36*
X115938240Y-39118878D02*
G01*
X115968645Y-39149283D01*
X116002904Y-39217799D01*
X116002904Y-39277627D01*
X115968645Y-39346144D01*
X115938238Y-39376551D01*
X115871007Y-39410166D01*
X115868131Y-39410063D01*
X115866872Y-39410809D01*
X115629095Y-39410809D01*
X115629095Y-39084619D01*
X115869722Y-39084619D01*
X115938240Y-39118878D01*
G37*
G36*
X116858857Y-40499857D02*
G01*
X114948143Y-40499857D01*
X114948143Y-40020743D01*
X115476725Y-40020743D01*
X115483644Y-40035895D01*
X115488338Y-40051879D01*
X115492650Y-40055615D01*
X115495021Y-40060807D01*
X115509037Y-40069814D01*
X115521624Y-40080721D01*
X115527270Y-40081532D01*
X115532073Y-40084619D01*
X115548735Y-40084619D01*
X115565219Y-40086989D01*
X115570409Y-40084619D01*
X115931007Y-40084619D01*
X115948891Y-40086550D01*
X115962604Y-40079693D01*
X115977307Y-40075376D01*
X115981945Y-40070022D01*
X116055413Y-40033287D01*
X116067747Y-40030605D01*
X116082378Y-40015972D01*
X116097491Y-40001916D01*
X116097853Y-40000496D01*
X116124287Y-39974062D01*
X116135138Y-39967618D01*
X116144394Y-39949104D01*
X116154284Y-39930994D01*
X116154179Y-39929534D01*
X116190801Y-39856290D01*
X116200523Y-39841164D01*
X116200523Y-39825834D01*
X116203237Y-39810751D01*
X116200523Y-39804207D01*
X116200523Y-39680316D01*
X116202453Y-39662441D01*
X116195598Y-39648731D01*
X116191280Y-39634025D01*
X116185925Y-39629385D01*
X116149191Y-39555916D01*
X116146509Y-39543586D01*
X116131889Y-39528966D01*
X116117820Y-39513841D01*
X116116401Y-39513478D01*
X116086171Y-39483248D01*
X116074894Y-39469241D01*
X116061984Y-39464937D01*
X116076669Y-39450252D01*
X116087519Y-39443809D01*
X116096773Y-39425299D01*
X116106664Y-39407186D01*
X116106559Y-39405727D01*
X116143182Y-39332481D01*
X116152904Y-39317355D01*
X116152904Y-39302025D01*
X116155618Y-39286942D01*
X116152904Y-39280398D01*
X116152904Y-39204126D01*
X116154834Y-39186251D01*
X116147979Y-39172541D01*
X116143661Y-39157835D01*
X116138306Y-39153195D01*
X116101572Y-39079726D01*
X116098890Y-39067396D01*
X116084270Y-39052776D01*
X116070201Y-39037651D01*
X116068782Y-39037288D01*
X116042347Y-39010853D01*
X116035904Y-39000004D01*
X116017403Y-38990753D01*
X115999281Y-38980858D01*
X115997820Y-38980962D01*
X115924579Y-38944342D01*
X115909450Y-38934619D01*
X115894120Y-38934619D01*
X115879037Y-38931905D01*
X115872493Y-38934619D01*
X115559455Y-38934619D01*
X115542971Y-38932249D01*
X115527818Y-38939168D01*
X115511835Y-38943862D01*
X115508098Y-38948174D01*
X115502907Y-38950545D01*
X115493899Y-38964561D01*
X115482993Y-38977148D01*
X115482181Y-38982794D01*
X115479095Y-38987597D01*
X115479095Y-39004259D01*
X115476725Y-39020743D01*
X115479095Y-39025933D01*
X115479095Y-39480449D01*
X115476725Y-39496933D01*
X115479095Y-39502123D01*
X115479095Y-40004259D01*
X115476725Y-40020743D01*
X114948143Y-40020743D01*
X114948143Y-38389143D01*
X116858857Y-38389143D01*
X116858857Y-40499857D01*
G37*
G36*
X134277771Y-39598980D02*
G01*
X134304264Y-39625473D01*
X134338523Y-39693989D01*
X134338523Y-39801436D01*
X134304264Y-39869953D01*
X134273856Y-39900361D01*
X134205342Y-39934619D01*
X133917095Y-39934619D01*
X133917095Y-39560809D01*
X134163258Y-39560809D01*
X134277771Y-39598980D01*
G37*
G36*
X134226240Y-39118878D02*
G01*
X134256645Y-39149283D01*
X134290904Y-39217799D01*
X134290904Y-39277627D01*
X134256645Y-39346144D01*
X134226238Y-39376551D01*
X134159007Y-39410166D01*
X134156131Y-39410063D01*
X134154872Y-39410809D01*
X133917095Y-39410809D01*
X133917095Y-39084619D01*
X134157722Y-39084619D01*
X134226240Y-39118878D01*
G37*
G36*
X135146857Y-40499857D02*
G01*
X133236143Y-40499857D01*
X133236143Y-40020743D01*
X133764725Y-40020743D01*
X133771644Y-40035895D01*
X133776338Y-40051879D01*
X133780650Y-40055615D01*
X133783021Y-40060807D01*
X133797037Y-40069814D01*
X133809624Y-40080721D01*
X133815270Y-40081532D01*
X133820073Y-40084619D01*
X133836735Y-40084619D01*
X133853219Y-40086989D01*
X133858409Y-40084619D01*
X134219007Y-40084619D01*
X134236891Y-40086550D01*
X134250604Y-40079693D01*
X134265307Y-40075376D01*
X134269945Y-40070022D01*
X134343413Y-40033287D01*
X134355747Y-40030605D01*
X134370378Y-40015972D01*
X134385491Y-40001916D01*
X134385853Y-40000496D01*
X134412287Y-39974062D01*
X134423138Y-39967618D01*
X134432394Y-39949104D01*
X134442284Y-39930994D01*
X134442179Y-39929534D01*
X134478801Y-39856290D01*
X134488523Y-39841164D01*
X134488523Y-39825834D01*
X134491237Y-39810751D01*
X134488523Y-39804207D01*
X134488523Y-39680316D01*
X134490453Y-39662441D01*
X134483598Y-39648731D01*
X134479280Y-39634025D01*
X134473925Y-39629385D01*
X134437191Y-39555916D01*
X134434509Y-39543586D01*
X134419889Y-39528966D01*
X134405820Y-39513841D01*
X134404401Y-39513478D01*
X134374171Y-39483248D01*
X134362894Y-39469241D01*
X134349984Y-39464937D01*
X134364669Y-39450252D01*
X134375519Y-39443809D01*
X134384773Y-39425299D01*
X134394664Y-39407186D01*
X134394559Y-39405727D01*
X134431182Y-39332481D01*
X134440904Y-39317355D01*
X134440904Y-39302025D01*
X134443618Y-39286942D01*
X134440904Y-39280398D01*
X134440904Y-39204126D01*
X134442834Y-39186251D01*
X134435979Y-39172541D01*
X134431661Y-39157835D01*
X134426306Y-39153195D01*
X134389572Y-39079726D01*
X134386890Y-39067396D01*
X134372270Y-39052776D01*
X134358201Y-39037651D01*
X134356782Y-39037288D01*
X134330347Y-39010853D01*
X134323904Y-39000004D01*
X134305403Y-38990753D01*
X134287281Y-38980858D01*
X134285820Y-38980962D01*
X134212579Y-38944342D01*
X134197450Y-38934619D01*
X134182120Y-38934619D01*
X134167037Y-38931905D01*
X134160493Y-38934619D01*
X133847455Y-38934619D01*
X133830971Y-38932249D01*
X133815818Y-38939168D01*
X133799835Y-38943862D01*
X133796098Y-38948174D01*
X133790907Y-38950545D01*
X133781899Y-38964561D01*
X133770993Y-38977148D01*
X133770181Y-38982794D01*
X133767095Y-38987597D01*
X133767095Y-39004259D01*
X133764725Y-39020743D01*
X133767095Y-39025933D01*
X133767095Y-39480449D01*
X133764725Y-39496933D01*
X133767095Y-39502123D01*
X133767095Y-40004259D01*
X133764725Y-40020743D01*
X133236143Y-40020743D01*
X133236143Y-38389143D01*
X135146857Y-38389143D01*
X135146857Y-40499857D01*
G37*
G36*
X97336609Y-39648904D02*
G01*
X97068533Y-39648904D01*
X97202571Y-39246790D01*
X97336609Y-39648904D01*
G37*
G36*
X98174000Y-40499857D02*
G01*
X96406143Y-40499857D01*
X96406143Y-40028916D01*
X96793492Y-40028916D01*
X96815949Y-40066804D01*
X96855325Y-40086536D01*
X96899118Y-40081849D01*
X96933425Y-40054228D01*
X97018533Y-39798904D01*
X97386609Y-39798904D01*
X97468162Y-40043564D01*
X97486885Y-40070504D01*
X97527584Y-40087340D01*
X97570924Y-40079500D01*
X97603146Y-40049474D01*
X97614019Y-40006793D01*
X97517426Y-39717016D01*
X97518036Y-39712780D01*
X97510552Y-39696392D01*
X97278011Y-38998769D01*
X97278317Y-38990322D01*
X97271185Y-38978289D01*
X97270313Y-38975673D01*
X97265700Y-38969035D01*
X97255860Y-38952434D01*
X97253254Y-38951128D01*
X97251590Y-38948733D01*
X97233736Y-38941347D01*
X97216484Y-38932702D01*
X97213586Y-38933012D01*
X97210891Y-38931897D01*
X97191883Y-38935335D01*
X97172690Y-38937390D01*
X97170419Y-38939218D01*
X97167551Y-38939737D01*
X97153427Y-38952898D01*
X97138384Y-38965010D01*
X97137461Y-38967776D01*
X97135329Y-38969764D01*
X97130561Y-38988476D01*
X96898036Y-39686051D01*
X96893374Y-39691433D01*
X96891197Y-39706568D01*
X96794677Y-39996131D01*
X96793492Y-40028916D01*
X96406143Y-40028916D01*
X96406143Y-38389143D01*
X98174000Y-38389143D01*
X98174000Y-40499857D01*
G37*
X103473047Y-46745238D02*
X102806380Y-45792857D01*
X102330190Y-46745238D02*
X102330190Y-44745238D01*
X102330190Y-44745238D02*
X103092095Y-44745238D01*
X103092095Y-44745238D02*
X103282571Y-44840476D01*
X103282571Y-44840476D02*
X103377809Y-44935714D01*
X103377809Y-44935714D02*
X103473047Y-45126190D01*
X103473047Y-45126190D02*
X103473047Y-45411904D01*
X103473047Y-45411904D02*
X103377809Y-45602380D01*
X103377809Y-45602380D02*
X103282571Y-45697619D01*
X103282571Y-45697619D02*
X103092095Y-45792857D01*
X103092095Y-45792857D02*
X102330190Y-45792857D01*
X104330190Y-45697619D02*
X105854000Y-45697619D01*
X105854000Y-46269047D02*
X104330190Y-46269047D01*
X106426000Y-44704000D02*
X119380000Y-44704000D01*
X119380000Y-47498000D01*
X106426000Y-47498000D01*
X106426000Y-44704000D01*
G36*
X106426000Y-44704000D02*
G01*
X119380000Y-44704000D01*
X119380000Y-47498000D01*
X106426000Y-47498000D01*
X106426000Y-44704000D01*
G37*
G36*
X114522618Y-28042590D02*
G01*
X114150486Y-26926190D01*
X114894752Y-26926190D01*
X114522618Y-28042590D01*
G37*
G36*
X116763906Y-26436639D02*
G01*
X116931086Y-26603819D01*
X117019047Y-26955662D01*
X117019047Y-27603861D01*
X116931086Y-27955703D01*
X116763906Y-28122883D01*
X116600152Y-28204761D01*
X116254608Y-28204761D01*
X116090855Y-28122884D01*
X115923674Y-27955703D01*
X115835714Y-27603861D01*
X115835714Y-26955663D01*
X115923674Y-26603819D01*
X116046428Y-26481066D01*
X116272460Y-26707098D01*
X116278904Y-26717948D01*
X116297404Y-26727197D01*
X116315527Y-26737094D01*
X116316987Y-26736989D01*
X116485467Y-26821228D01*
X116500597Y-26830952D01*
X116515928Y-26830952D01*
X116531011Y-26833666D01*
X116537555Y-26830952D01*
X116723877Y-26830952D01*
X116755355Y-26821709D01*
X116784197Y-26788423D01*
X116790465Y-26744828D01*
X116772169Y-26704764D01*
X116735117Y-26680952D01*
X116540323Y-26680952D01*
X116376569Y-26599075D01*
X116173040Y-26395546D01*
X116254609Y-26354761D01*
X116600152Y-26354761D01*
X116763906Y-26436639D01*
G37*
G36*
X111049620Y-26436639D02*
G01*
X111127645Y-26514664D01*
X111213758Y-26686890D01*
X111304761Y-27050900D01*
X111304761Y-27508623D01*
X111213758Y-27872634D01*
X111127646Y-28044857D01*
X111049620Y-28122883D01*
X110885866Y-28204761D01*
X110730798Y-28204761D01*
X110567045Y-28122884D01*
X110489019Y-28044858D01*
X110402906Y-27872632D01*
X110311904Y-27508623D01*
X110311904Y-27050901D01*
X110402906Y-26686891D01*
X110489019Y-26514664D01*
X110567044Y-26436639D01*
X110730799Y-26354761D01*
X110885866Y-26354761D01*
X111049620Y-26436639D01*
G37*
G36*
X117985714Y-28920714D02*
G01*
X107465476Y-28920714D01*
X107465476Y-26669105D01*
X108254428Y-26669105D01*
X108257142Y-26675649D01*
X108257142Y-27132864D01*
X108255211Y-27150748D01*
X108262067Y-27164461D01*
X108266385Y-27179164D01*
X108271738Y-27183802D01*
X108356092Y-27352510D01*
X108358775Y-27364841D01*
X108373401Y-27379467D01*
X108387465Y-27394586D01*
X108388882Y-27394948D01*
X108462935Y-27469002D01*
X108469380Y-27479853D01*
X108487880Y-27489103D01*
X108506003Y-27498999D01*
X108507463Y-27498894D01*
X108675942Y-27583133D01*
X108691072Y-27592857D01*
X108706402Y-27592857D01*
X108721485Y-27595571D01*
X108728029Y-27592857D01*
X108833526Y-27592857D01*
X108290069Y-28213948D01*
X108289882Y-28214004D01*
X108275663Y-28230413D01*
X108268599Y-28238487D01*
X108268520Y-28238657D01*
X108261040Y-28247290D01*
X108259467Y-28258230D01*
X108254826Y-28268264D01*
X108256397Y-28279579D01*
X108254772Y-28290885D01*
X108259363Y-28300939D01*
X108260884Y-28311888D01*
X108268321Y-28320556D01*
X108273068Y-28330949D01*
X108282368Y-28336926D01*
X108289565Y-28345313D01*
X108300508Y-28348583D01*
X108310120Y-28354761D01*
X108321175Y-28354761D01*
X108331764Y-28357926D01*
X108342739Y-28354761D01*
X109581019Y-28354761D01*
X109612497Y-28345518D01*
X109641339Y-28312232D01*
X109647607Y-28268637D01*
X109629311Y-28228573D01*
X109592259Y-28204761D01*
X108497425Y-28204761D01*
X109040881Y-27583669D01*
X109041069Y-27583614D01*
X109055287Y-27567204D01*
X109062352Y-27559131D01*
X109062430Y-27558960D01*
X109069911Y-27550328D01*
X109071484Y-27539386D01*
X109076124Y-27529355D01*
X109074553Y-27518041D01*
X109075036Y-27514683D01*
X110158802Y-27514683D01*
X110161904Y-27527091D01*
X110161904Y-27528639D01*
X110164508Y-27537508D01*
X110256141Y-27904039D01*
X110255211Y-27912653D01*
X110261377Y-27924986D01*
X110261996Y-27927459D01*
X110266177Y-27934585D01*
X110356092Y-28114415D01*
X110358775Y-28126746D01*
X110373399Y-28141370D01*
X110387465Y-28156491D01*
X110388882Y-28156853D01*
X110462936Y-28230907D01*
X110469380Y-28241757D01*
X110487880Y-28251007D01*
X110506003Y-28260903D01*
X110507463Y-28260798D01*
X110675942Y-28345037D01*
X110691072Y-28354761D01*
X110706402Y-28354761D01*
X110721485Y-28357475D01*
X110728029Y-28354761D01*
X110899531Y-28354761D01*
X110917415Y-28356692D01*
X110931128Y-28349835D01*
X110945831Y-28345518D01*
X110950469Y-28340164D01*
X111119177Y-28255810D01*
X111131508Y-28253128D01*
X111146132Y-28238503D01*
X111161253Y-28224438D01*
X111161615Y-28223020D01*
X111235669Y-28148966D01*
X111246519Y-28142523D01*
X111255769Y-28124022D01*
X111265665Y-28105900D01*
X111265560Y-28104439D01*
X111345630Y-27944299D01*
X111351943Y-27938364D01*
X111355287Y-27924984D01*
X111356427Y-27922706D01*
X111357889Y-27914576D01*
X111449528Y-27548020D01*
X111454761Y-27539879D01*
X111454761Y-27527091D01*
X111455137Y-27525587D01*
X111454761Y-27516341D01*
X111454761Y-27054009D01*
X111457863Y-27044840D01*
X111454761Y-27032432D01*
X111454761Y-27030884D01*
X111452156Y-27022014D01*
X111436040Y-26957552D01*
X111969058Y-26957552D01*
X111987354Y-26997616D01*
X112024406Y-27021428D01*
X112257142Y-27021428D01*
X112257142Y-27623877D01*
X112266385Y-27655355D01*
X112299671Y-27684197D01*
X112343266Y-27690465D01*
X112383330Y-27672169D01*
X112407142Y-27635117D01*
X112407142Y-27021428D01*
X113180466Y-27021428D01*
X112733772Y-28361512D01*
X112732587Y-28394297D01*
X112755044Y-28432185D01*
X112794420Y-28451917D01*
X112838213Y-28447230D01*
X112872520Y-28419609D01*
X113350962Y-26984279D01*
X113355625Y-26978899D01*
X113357800Y-26963765D01*
X113359084Y-26959916D01*
X113359329Y-26953136D01*
X113361893Y-26935304D01*
X113360114Y-26931409D01*
X113360269Y-26927131D01*
X113351083Y-26911634D01*
X113343597Y-26895240D01*
X113339994Y-26892924D01*
X113337812Y-26889243D01*
X113321710Y-26881174D01*
X113306545Y-26871428D01*
X113302261Y-26871428D01*
X113298436Y-26869511D01*
X113280525Y-26871428D01*
X112407142Y-26871428D01*
X112407142Y-26282586D01*
X113777837Y-26282586D01*
X113969667Y-26858076D01*
X113969058Y-26862314D01*
X113976543Y-26878704D01*
X114447178Y-28290610D01*
X114446873Y-28299058D01*
X114454004Y-28311090D01*
X114454877Y-28313707D01*
X114459488Y-28320342D01*
X114469330Y-28336946D01*
X114471936Y-28338251D01*
X114473600Y-28340646D01*
X114491442Y-28348026D01*
X114508706Y-28356678D01*
X114511605Y-28356367D01*
X114514299Y-28357482D01*
X114533292Y-28354046D01*
X114552499Y-28351991D01*
X114554771Y-28350161D01*
X114557639Y-28349643D01*
X114571761Y-28336482D01*
X114586806Y-28324370D01*
X114587728Y-28321603D01*
X114589861Y-28319616D01*
X114594628Y-28300903D01*
X115065248Y-26889041D01*
X115069911Y-26883661D01*
X115072087Y-26868526D01*
X115263846Y-26293249D01*
X115265031Y-26260464D01*
X115242574Y-26222576D01*
X115203198Y-26202844D01*
X115159405Y-26207531D01*
X115125098Y-26235152D01*
X114944752Y-26776190D01*
X114100486Y-26776190D01*
X113923694Y-26245815D01*
X113904971Y-26218875D01*
X113864272Y-26202039D01*
X113820932Y-26209879D01*
X113788710Y-26239906D01*
X113777837Y-26282586D01*
X112407142Y-26282586D01*
X112407142Y-26268979D01*
X112397899Y-26237501D01*
X112364613Y-26208659D01*
X112321018Y-26202391D01*
X112280954Y-26220687D01*
X112257142Y-26257739D01*
X112257142Y-26871428D01*
X112035646Y-26871428D01*
X112004168Y-26880671D01*
X111975326Y-26913957D01*
X111969058Y-26957552D01*
X111436040Y-26957552D01*
X111360523Y-26655483D01*
X111361454Y-26646870D01*
X111355287Y-26634536D01*
X111354669Y-26632064D01*
X111350486Y-26624935D01*
X111260572Y-26445107D01*
X111257890Y-26432777D01*
X111243270Y-26418157D01*
X111229201Y-26403032D01*
X111227782Y-26402669D01*
X111153727Y-26328614D01*
X111147285Y-26317767D01*
X111128801Y-26308524D01*
X111110662Y-26298620D01*
X111109200Y-26298724D01*
X110940720Y-26214482D01*
X110925593Y-26204761D01*
X110910263Y-26204761D01*
X110895180Y-26202047D01*
X110888636Y-26204761D01*
X110717129Y-26204761D01*
X110699250Y-26202831D01*
X110685541Y-26209685D01*
X110670834Y-26214004D01*
X110666193Y-26219359D01*
X110497487Y-26303712D01*
X110485157Y-26306395D01*
X110470532Y-26321019D01*
X110455412Y-26335085D01*
X110455049Y-26336502D01*
X110380995Y-26410556D01*
X110370147Y-26417000D01*
X110360906Y-26435481D01*
X110351000Y-26453623D01*
X110351104Y-26455084D01*
X110271034Y-26615225D01*
X110264722Y-26621160D01*
X110261377Y-26634538D01*
X110260238Y-26636817D01*
X110258774Y-26644949D01*
X110167136Y-27011502D01*
X110161904Y-27019644D01*
X110161904Y-27032432D01*
X110161528Y-27033936D01*
X110161904Y-27043182D01*
X110161904Y-27505514D01*
X110158802Y-27514683D01*
X109075036Y-27514683D01*
X109076179Y-27506733D01*
X109071586Y-27496677D01*
X109070067Y-27485730D01*
X109062629Y-27477061D01*
X109057883Y-27466669D01*
X109048582Y-27460691D01*
X109041386Y-27452305D01*
X109030442Y-27449034D01*
X109020831Y-27442857D01*
X109009775Y-27442857D01*
X108999186Y-27439692D01*
X108988211Y-27442857D01*
X108730798Y-27442857D01*
X108567043Y-27360979D01*
X108489020Y-27282954D01*
X108407142Y-27119199D01*
X108407142Y-26678420D01*
X108489019Y-26514664D01*
X108567044Y-26436639D01*
X108730799Y-26354761D01*
X109266818Y-26354761D01*
X109430572Y-26436639D01*
X109524828Y-26530895D01*
X109553622Y-26546618D01*
X109597553Y-26543475D01*
X109632812Y-26517081D01*
X109648204Y-26475814D01*
X109638842Y-26432777D01*
X109534679Y-26328614D01*
X109528237Y-26317767D01*
X109509753Y-26308524D01*
X109491614Y-26298620D01*
X109490152Y-26298724D01*
X109321672Y-26214482D01*
X109306545Y-26204761D01*
X109291215Y-26204761D01*
X109276132Y-26202047D01*
X109269588Y-26204761D01*
X108717129Y-26204761D01*
X108699250Y-26202831D01*
X108685541Y-26209685D01*
X108670834Y-26214004D01*
X108666193Y-26219359D01*
X108497487Y-26303712D01*
X108485157Y-26306395D01*
X108470532Y-26321019D01*
X108455412Y-26335085D01*
X108455049Y-26336502D01*
X108380995Y-26410556D01*
X108370147Y-26417000D01*
X108360906Y-26435481D01*
X108351000Y-26453623D01*
X108351104Y-26455084D01*
X108266865Y-26623561D01*
X108257142Y-26638692D01*
X108257142Y-26654022D01*
X108254428Y-26669105D01*
X107465476Y-26669105D01*
X107465476Y-26108650D01*
X115589747Y-26108650D01*
X115612238Y-26146519D01*
X115811524Y-26246161D01*
X115940362Y-26374999D01*
X115803730Y-26511631D01*
X115788532Y-26525922D01*
X115785520Y-26537966D01*
X115779572Y-26548861D01*
X115780289Y-26558891D01*
X115690946Y-26916264D01*
X115685714Y-26924406D01*
X115685714Y-26937194D01*
X115685338Y-26938698D01*
X115685714Y-26947944D01*
X115685714Y-27600752D01*
X115682612Y-27609921D01*
X115685714Y-27622329D01*
X115685714Y-27623877D01*
X115688318Y-27632746D01*
X115782913Y-28011125D01*
X115787347Y-28031508D01*
X115796127Y-28040288D01*
X115802408Y-28050993D01*
X115811376Y-28055537D01*
X115986746Y-28230907D01*
X115993190Y-28241757D01*
X116011690Y-28251007D01*
X116029813Y-28260903D01*
X116031273Y-28260798D01*
X116199752Y-28345037D01*
X116214882Y-28354761D01*
X116230212Y-28354761D01*
X116245295Y-28357475D01*
X116251839Y-28354761D01*
X116613817Y-28354761D01*
X116631701Y-28356692D01*
X116645414Y-28349835D01*
X116660117Y-28345518D01*
X116664755Y-28340164D01*
X116833463Y-28255810D01*
X116845794Y-28253128D01*
X116860418Y-28238503D01*
X116875539Y-28224438D01*
X116875901Y-28223020D01*
X117051021Y-28047900D01*
X117066229Y-28033602D01*
X117069240Y-28021555D01*
X117075189Y-28010662D01*
X117074471Y-28000632D01*
X117163814Y-27643258D01*
X117169047Y-27635117D01*
X117169047Y-27622329D01*
X117169423Y-27620825D01*
X117169047Y-27611579D01*
X117169047Y-26958771D01*
X117172149Y-26949602D01*
X117169047Y-26937194D01*
X117169047Y-26935646D01*
X117166442Y-26926776D01*
X117071847Y-26548397D01*
X117067414Y-26528015D01*
X117058634Y-26519235D01*
X117052353Y-26508529D01*
X117043382Y-26503983D01*
X116868013Y-26328614D01*
X116861571Y-26317767D01*
X116843087Y-26308524D01*
X116824948Y-26298620D01*
X116823486Y-26298724D01*
X116655006Y-26214482D01*
X116639879Y-26204761D01*
X116624549Y-26204761D01*
X116609466Y-26202047D01*
X116602922Y-26204761D01*
X116240939Y-26204761D01*
X116223060Y-26202831D01*
X116209351Y-26209685D01*
X116194644Y-26214004D01*
X116190003Y-26219359D01*
X116061237Y-26283742D01*
X115915633Y-26138138D01*
X115909190Y-26127290D01*
X115890708Y-26118049D01*
X115872567Y-26108143D01*
X115871105Y-26108247D01*
X115689373Y-26017381D01*
X115657085Y-26011571D01*
X115616402Y-26028444D01*
X115591299Y-26064634D01*
X115589747Y-26108650D01*
X107465476Y-26108650D01*
X107465476Y-25524286D01*
X117985714Y-25524286D01*
X117985714Y-28920714D01*
G37*
D11*
X116928857Y-56506095D02*
X117005047Y-56506095D01*
X117005047Y-56506095D02*
X117081238Y-56544190D01*
X117081238Y-56544190D02*
X117119333Y-56582285D01*
X117119333Y-56582285D02*
X117157428Y-56658476D01*
X117157428Y-56658476D02*
X117195523Y-56810857D01*
X117195523Y-56810857D02*
X117195523Y-57001333D01*
X117195523Y-57001333D02*
X117157428Y-57153714D01*
X117157428Y-57153714D02*
X117119333Y-57229904D01*
X117119333Y-57229904D02*
X117081238Y-57268000D01*
X117081238Y-57268000D02*
X117005047Y-57306095D01*
X117005047Y-57306095D02*
X116928857Y-57306095D01*
X116928857Y-57306095D02*
X116852666Y-57268000D01*
X116852666Y-57268000D02*
X116814571Y-57229904D01*
X116814571Y-57229904D02*
X116776476Y-57153714D01*
X116776476Y-57153714D02*
X116738380Y-57001333D01*
X116738380Y-57001333D02*
X116738380Y-56810857D01*
X116738380Y-56810857D02*
X116776476Y-56658476D01*
X116776476Y-56658476D02*
X116814571Y-56582285D01*
X116814571Y-56582285D02*
X116852666Y-56544190D01*
X116852666Y-56544190D02*
X116928857Y-56506095D01*
X117652666Y-56848952D02*
X117576476Y-56810857D01*
X117576476Y-56810857D02*
X117538381Y-56772761D01*
X117538381Y-56772761D02*
X117500285Y-56696571D01*
X117500285Y-56696571D02*
X117500285Y-56658476D01*
X117500285Y-56658476D02*
X117538381Y-56582285D01*
X117538381Y-56582285D02*
X117576476Y-56544190D01*
X117576476Y-56544190D02*
X117652666Y-56506095D01*
X117652666Y-56506095D02*
X117805047Y-56506095D01*
X117805047Y-56506095D02*
X117881238Y-56544190D01*
X117881238Y-56544190D02*
X117919333Y-56582285D01*
X117919333Y-56582285D02*
X117957428Y-56658476D01*
X117957428Y-56658476D02*
X117957428Y-56696571D01*
X117957428Y-56696571D02*
X117919333Y-56772761D01*
X117919333Y-56772761D02*
X117881238Y-56810857D01*
X117881238Y-56810857D02*
X117805047Y-56848952D01*
X117805047Y-56848952D02*
X117652666Y-56848952D01*
X117652666Y-56848952D02*
X117576476Y-56887047D01*
X117576476Y-56887047D02*
X117538381Y-56925142D01*
X117538381Y-56925142D02*
X117500285Y-57001333D01*
X117500285Y-57001333D02*
X117500285Y-57153714D01*
X117500285Y-57153714D02*
X117538381Y-57229904D01*
X117538381Y-57229904D02*
X117576476Y-57268000D01*
X117576476Y-57268000D02*
X117652666Y-57306095D01*
X117652666Y-57306095D02*
X117805047Y-57306095D01*
X117805047Y-57306095D02*
X117881238Y-57268000D01*
X117881238Y-57268000D02*
X117919333Y-57229904D01*
X117919333Y-57229904D02*
X117957428Y-57153714D01*
X117957428Y-57153714D02*
X117957428Y-57001333D01*
X117957428Y-57001333D02*
X117919333Y-56925142D01*
X117919333Y-56925142D02*
X117881238Y-56887047D01*
X117881238Y-56887047D02*
X117805047Y-56848952D01*
X118452667Y-56506095D02*
X118528857Y-56506095D01*
X118528857Y-56506095D02*
X118605048Y-56544190D01*
X118605048Y-56544190D02*
X118643143Y-56582285D01*
X118643143Y-56582285D02*
X118681238Y-56658476D01*
X118681238Y-56658476D02*
X118719333Y-56810857D01*
X118719333Y-56810857D02*
X118719333Y-57001333D01*
X118719333Y-57001333D02*
X118681238Y-57153714D01*
X118681238Y-57153714D02*
X118643143Y-57229904D01*
X118643143Y-57229904D02*
X118605048Y-57268000D01*
X118605048Y-57268000D02*
X118528857Y-57306095D01*
X118528857Y-57306095D02*
X118452667Y-57306095D01*
X118452667Y-57306095D02*
X118376476Y-57268000D01*
X118376476Y-57268000D02*
X118338381Y-57229904D01*
X118338381Y-57229904D02*
X118300286Y-57153714D01*
X118300286Y-57153714D02*
X118262190Y-57001333D01*
X118262190Y-57001333D02*
X118262190Y-56810857D01*
X118262190Y-56810857D02*
X118300286Y-56658476D01*
X118300286Y-56658476D02*
X118338381Y-56582285D01*
X118338381Y-56582285D02*
X118376476Y-56544190D01*
X118376476Y-56544190D02*
X118452667Y-56506095D01*
X119443143Y-56506095D02*
X119062191Y-56506095D01*
X119062191Y-56506095D02*
X119024095Y-56887047D01*
X119024095Y-56887047D02*
X119062191Y-56848952D01*
X119062191Y-56848952D02*
X119138381Y-56810857D01*
X119138381Y-56810857D02*
X119328857Y-56810857D01*
X119328857Y-56810857D02*
X119405048Y-56848952D01*
X119405048Y-56848952D02*
X119443143Y-56887047D01*
X119443143Y-56887047D02*
X119481238Y-56963238D01*
X119481238Y-56963238D02*
X119481238Y-57153714D01*
X119481238Y-57153714D02*
X119443143Y-57229904D01*
X119443143Y-57229904D02*
X119405048Y-57268000D01*
X119405048Y-57268000D02*
X119328857Y-57306095D01*
X119328857Y-57306095D02*
X119138381Y-57306095D01*
X119138381Y-57306095D02*
X119062191Y-57268000D01*
X119062191Y-57268000D02*
X119024095Y-57229904D01*
X120662191Y-57610857D02*
X120624096Y-57572761D01*
X120624096Y-57572761D02*
X120547905Y-57458476D01*
X120547905Y-57458476D02*
X120509810Y-57382285D01*
X120509810Y-57382285D02*
X120471715Y-57268000D01*
X120471715Y-57268000D02*
X120433620Y-57077523D01*
X120433620Y-57077523D02*
X120433620Y-56925142D01*
X120433620Y-56925142D02*
X120471715Y-56734666D01*
X120471715Y-56734666D02*
X120509810Y-56620380D01*
X120509810Y-56620380D02*
X120547905Y-56544190D01*
X120547905Y-56544190D02*
X120624096Y-56429904D01*
X120624096Y-56429904D02*
X120662191Y-56391809D01*
X120928857Y-56582285D02*
X120966953Y-56544190D01*
X120966953Y-56544190D02*
X121043143Y-56506095D01*
X121043143Y-56506095D02*
X121233619Y-56506095D01*
X121233619Y-56506095D02*
X121309810Y-56544190D01*
X121309810Y-56544190D02*
X121347905Y-56582285D01*
X121347905Y-56582285D02*
X121386000Y-56658476D01*
X121386000Y-56658476D02*
X121386000Y-56734666D01*
X121386000Y-56734666D02*
X121347905Y-56848952D01*
X121347905Y-56848952D02*
X120890762Y-57306095D01*
X120890762Y-57306095D02*
X121386000Y-57306095D01*
X121881239Y-56506095D02*
X121957429Y-56506095D01*
X121957429Y-56506095D02*
X122033620Y-56544190D01*
X122033620Y-56544190D02*
X122071715Y-56582285D01*
X122071715Y-56582285D02*
X122109810Y-56658476D01*
X122109810Y-56658476D02*
X122147905Y-56810857D01*
X122147905Y-56810857D02*
X122147905Y-57001333D01*
X122147905Y-57001333D02*
X122109810Y-57153714D01*
X122109810Y-57153714D02*
X122071715Y-57229904D01*
X122071715Y-57229904D02*
X122033620Y-57268000D01*
X122033620Y-57268000D02*
X121957429Y-57306095D01*
X121957429Y-57306095D02*
X121881239Y-57306095D01*
X121881239Y-57306095D02*
X121805048Y-57268000D01*
X121805048Y-57268000D02*
X121766953Y-57229904D01*
X121766953Y-57229904D02*
X121728858Y-57153714D01*
X121728858Y-57153714D02*
X121690762Y-57001333D01*
X121690762Y-57001333D02*
X121690762Y-56810857D01*
X121690762Y-56810857D02*
X121728858Y-56658476D01*
X121728858Y-56658476D02*
X121766953Y-56582285D01*
X121766953Y-56582285D02*
X121805048Y-56544190D01*
X121805048Y-56544190D02*
X121881239Y-56506095D01*
X122909810Y-57306095D02*
X122452667Y-57306095D01*
X122681239Y-57306095D02*
X122681239Y-56506095D01*
X122681239Y-56506095D02*
X122605048Y-56620380D01*
X122605048Y-56620380D02*
X122528858Y-56696571D01*
X122528858Y-56696571D02*
X122452667Y-56734666D01*
X123214572Y-56582285D02*
X123252668Y-56544190D01*
X123252668Y-56544190D02*
X123328858Y-56506095D01*
X123328858Y-56506095D02*
X123519334Y-56506095D01*
X123519334Y-56506095D02*
X123595525Y-56544190D01*
X123595525Y-56544190D02*
X123633620Y-56582285D01*
X123633620Y-56582285D02*
X123671715Y-56658476D01*
X123671715Y-56658476D02*
X123671715Y-56734666D01*
X123671715Y-56734666D02*
X123633620Y-56848952D01*
X123633620Y-56848952D02*
X123176477Y-57306095D01*
X123176477Y-57306095D02*
X123671715Y-57306095D01*
X123938382Y-57610857D02*
X123976477Y-57572761D01*
X123976477Y-57572761D02*
X124052668Y-57458476D01*
X124052668Y-57458476D02*
X124090763Y-57382285D01*
X124090763Y-57382285D02*
X124128858Y-57268000D01*
X124128858Y-57268000D02*
X124166954Y-57077523D01*
X124166954Y-57077523D02*
X124166954Y-56925142D01*
X124166954Y-56925142D02*
X124128858Y-56734666D01*
X124128858Y-56734666D02*
X124090763Y-56620380D01*
X124090763Y-56620380D02*
X124052668Y-56544190D01*
X124052668Y-56544190D02*
X123976477Y-56429904D01*
X123976477Y-56429904D02*
X123938382Y-56391809D01*
D10*
G36*
X99197581Y-64916028D02*
G01*
X99366931Y-65085378D01*
X99453044Y-65257604D01*
X99544047Y-65621614D01*
X99544047Y-65888861D01*
X99453044Y-66252872D01*
X99366931Y-66425096D01*
X99197581Y-66594447D01*
X98940208Y-66680238D01*
X98551190Y-66680238D01*
X98551190Y-64830238D01*
X98940210Y-64830238D01*
X99197581Y-64916028D01*
G37*
G36*
X107860335Y-64912115D02*
G01*
X107938360Y-64990140D01*
X108020238Y-65153895D01*
X108020238Y-65404200D01*
X107938360Y-65567953D01*
X107860335Y-65645979D01*
X107696581Y-65727857D01*
X107432443Y-65727857D01*
X107414398Y-65725987D01*
X107410698Y-65727857D01*
X107027381Y-65727857D01*
X107027381Y-64830238D01*
X107696580Y-64830238D01*
X107860335Y-64912115D01*
G37*
G36*
X101384144Y-64912115D02*
G01*
X101462169Y-64990140D01*
X101544047Y-65153895D01*
X101544047Y-65404200D01*
X101462169Y-65567953D01*
X101384144Y-65645979D01*
X101220390Y-65727857D01*
X100956252Y-65727857D01*
X100938207Y-65725987D01*
X100934507Y-65727857D01*
X100551190Y-65727857D01*
X100551190Y-64830238D01*
X101220389Y-64830238D01*
X101384144Y-64912115D01*
G37*
G36*
X108961905Y-67510714D02*
G01*
X97489286Y-67510714D01*
X97489286Y-66766362D01*
X98398820Y-66766362D01*
X98405739Y-66781514D01*
X98410433Y-66797498D01*
X98414745Y-66801234D01*
X98417116Y-66806426D01*
X98431132Y-66815433D01*
X98443719Y-66826340D01*
X98449365Y-66827151D01*
X98454168Y-66830238D01*
X98470830Y-66830238D01*
X98487314Y-66832608D01*
X98492504Y-66830238D01*
X98942977Y-66830238D01*
X98955205Y-66833353D01*
X98974817Y-66826815D01*
X98994640Y-66820995D01*
X98995598Y-66819888D01*
X99257985Y-66732427D01*
X99275556Y-66728605D01*
X99286394Y-66717766D01*
X99298981Y-66709019D01*
X99301689Y-66702471D01*
X99474955Y-66529204D01*
X99485805Y-66522761D01*
X99495059Y-66504251D01*
X99504950Y-66486138D01*
X99504845Y-66484679D01*
X99584916Y-66324537D01*
X99591229Y-66318602D01*
X99594573Y-66305222D01*
X99595713Y-66302944D01*
X99597175Y-66294814D01*
X99688814Y-65928258D01*
X99694047Y-65920117D01*
X99694047Y-65907329D01*
X99694423Y-65905825D01*
X99694047Y-65896579D01*
X99694047Y-65813981D01*
X100398820Y-65813981D01*
X100401190Y-65819171D01*
X100401190Y-66766020D01*
X100410433Y-66797498D01*
X100443719Y-66826340D01*
X100487314Y-66832608D01*
X100527378Y-66814312D01*
X100551190Y-66777260D01*
X100551190Y-65877857D01*
X100913331Y-65877857D01*
X101563787Y-66807080D01*
X101589411Y-66827568D01*
X101633220Y-66832108D01*
X101672529Y-66812242D01*
X101694858Y-66774279D01*
X101694531Y-66766020D01*
X102401190Y-66766020D01*
X102410433Y-66797498D01*
X102443719Y-66826340D01*
X102487314Y-66832608D01*
X102527378Y-66814312D01*
X102551190Y-66777260D01*
X102551190Y-64758063D01*
X103064742Y-64758063D01*
X103734082Y-66766087D01*
X103733777Y-66774535D01*
X103740908Y-66786567D01*
X103741781Y-66789184D01*
X103746393Y-66795821D01*
X103756234Y-66812423D01*
X103758839Y-66813728D01*
X103760504Y-66816124D01*
X103778357Y-66823509D01*
X103795610Y-66832155D01*
X103798507Y-66831844D01*
X103801203Y-66832960D01*
X103820204Y-66829522D01*
X103839403Y-66827468D01*
X103841674Y-66825638D01*
X103844543Y-66825120D01*
X103858669Y-66811956D01*
X103873710Y-66799847D01*
X103874631Y-66797081D01*
X103876765Y-66795094D01*
X103881532Y-66776379D01*
X103884871Y-66766362D01*
X105065487Y-66766362D01*
X105072406Y-66781514D01*
X105077100Y-66797498D01*
X105081412Y-66801234D01*
X105083783Y-66806426D01*
X105097799Y-66815433D01*
X105110386Y-66826340D01*
X105116032Y-66827151D01*
X105120835Y-66830238D01*
X105137497Y-66830238D01*
X105153981Y-66832608D01*
X105159171Y-66830238D01*
X106106020Y-66830238D01*
X106137498Y-66820995D01*
X106166340Y-66787709D01*
X106172608Y-66744114D01*
X106154312Y-66704050D01*
X106117260Y-66680238D01*
X105217857Y-66680238D01*
X105217857Y-65813981D01*
X106875011Y-65813981D01*
X106877381Y-65819171D01*
X106877381Y-66766020D01*
X106886624Y-66797498D01*
X106919910Y-66826340D01*
X106963505Y-66832608D01*
X107003569Y-66814312D01*
X107027381Y-66777260D01*
X107027381Y-65877857D01*
X107389522Y-65877857D01*
X108039978Y-66807080D01*
X108065602Y-66827568D01*
X108109411Y-66832108D01*
X108148720Y-66812242D01*
X108171049Y-66774279D01*
X108169309Y-66730269D01*
X107572620Y-65877857D01*
X107710246Y-65877857D01*
X107728130Y-65879788D01*
X107741843Y-65872931D01*
X107756546Y-65868614D01*
X107761184Y-65863260D01*
X107929892Y-65778906D01*
X107942223Y-65776224D01*
X107956845Y-65761601D01*
X107971968Y-65747534D01*
X107972330Y-65746116D01*
X108046384Y-65672061D01*
X108057234Y-65665618D01*
X108066483Y-65647118D01*
X108076380Y-65628994D01*
X108076275Y-65627534D01*
X108160514Y-65459055D01*
X108170238Y-65443926D01*
X108170238Y-65428596D01*
X108172952Y-65413513D01*
X108170238Y-65406969D01*
X108170238Y-65140231D01*
X108172169Y-65122346D01*
X108165312Y-65108632D01*
X108160995Y-65093930D01*
X108155641Y-65089291D01*
X108071287Y-64920583D01*
X108068605Y-64908253D01*
X108053985Y-64893633D01*
X108039916Y-64878508D01*
X108038497Y-64878145D01*
X107964443Y-64804091D01*
X107958000Y-64793243D01*
X107939518Y-64784002D01*
X107921377Y-64774096D01*
X107919915Y-64774200D01*
X107751438Y-64689961D01*
X107736308Y-64680238D01*
X107720978Y-64680238D01*
X107705895Y-64677524D01*
X107699351Y-64680238D01*
X106957741Y-64680238D01*
X106941257Y-64677868D01*
X106926104Y-64684787D01*
X106910121Y-64689481D01*
X106906384Y-64693793D01*
X106901193Y-64696164D01*
X106892185Y-64710180D01*
X106881279Y-64722767D01*
X106880467Y-64728413D01*
X106877381Y-64733216D01*
X106877381Y-64749878D01*
X106875011Y-64766362D01*
X106877381Y-64771552D01*
X106877381Y-65797497D01*
X106875011Y-65813981D01*
X105217857Y-65813981D01*
X105217857Y-65782619D01*
X105820306Y-65782619D01*
X105851784Y-65773376D01*
X105880626Y-65740090D01*
X105886894Y-65696495D01*
X105868598Y-65656431D01*
X105831546Y-65632619D01*
X105217857Y-65632619D01*
X105217857Y-64830238D01*
X106106020Y-64830238D01*
X106137498Y-64820995D01*
X106166340Y-64787709D01*
X106172608Y-64744114D01*
X106154312Y-64704050D01*
X106117260Y-64680238D01*
X105148217Y-64680238D01*
X105131733Y-64677868D01*
X105116580Y-64684787D01*
X105100597Y-64689481D01*
X105096860Y-64693793D01*
X105091669Y-64696164D01*
X105082661Y-64710180D01*
X105071755Y-64722767D01*
X105070943Y-64728413D01*
X105067857Y-64733216D01*
X105067857Y-64749878D01*
X105065487Y-64766362D01*
X105067857Y-64771552D01*
X105067857Y-65702259D01*
X105065487Y-65718743D01*
X105067857Y-65723933D01*
X105067857Y-66749878D01*
X105065487Y-66766362D01*
X103884871Y-66766362D01*
X104550751Y-64768727D01*
X104551936Y-64735941D01*
X104529479Y-64698053D01*
X104490103Y-64678321D01*
X104446310Y-64683009D01*
X104412003Y-64710629D01*
X103809522Y-66518067D01*
X103210599Y-64721292D01*
X103191876Y-64694352D01*
X103151177Y-64677516D01*
X103107837Y-64685356D01*
X103075615Y-64715383D01*
X103064742Y-64758063D01*
X102551190Y-64758063D01*
X102551190Y-64744456D01*
X102541947Y-64712978D01*
X102508661Y-64684136D01*
X102465066Y-64677868D01*
X102425002Y-64696164D01*
X102401190Y-64733216D01*
X102401190Y-66766020D01*
X101694531Y-66766020D01*
X101693118Y-66730269D01*
X101096429Y-65877857D01*
X101234055Y-65877857D01*
X101251939Y-65879788D01*
X101265652Y-65872931D01*
X101280355Y-65868614D01*
X101284993Y-65863260D01*
X101453701Y-65778906D01*
X101466032Y-65776224D01*
X101480654Y-65761601D01*
X101495777Y-65747534D01*
X101496139Y-65746116D01*
X101570193Y-65672061D01*
X101581043Y-65665618D01*
X101590292Y-65647118D01*
X101600189Y-65628994D01*
X101600084Y-65627534D01*
X101684323Y-65459055D01*
X101694047Y-65443926D01*
X101694047Y-65428596D01*
X101696761Y-65413513D01*
X101694047Y-65406969D01*
X101694047Y-65140231D01*
X101695978Y-65122346D01*
X101689121Y-65108632D01*
X101684804Y-65093930D01*
X101679450Y-65089291D01*
X101595096Y-64920583D01*
X101592414Y-64908253D01*
X101577794Y-64893633D01*
X101563725Y-64878508D01*
X101562306Y-64878145D01*
X101488252Y-64804091D01*
X101481809Y-64793243D01*
X101463327Y-64784002D01*
X101445186Y-64774096D01*
X101443724Y-64774200D01*
X101275247Y-64689961D01*
X101260117Y-64680238D01*
X101244787Y-64680238D01*
X101229704Y-64677524D01*
X101223160Y-64680238D01*
X100481550Y-64680238D01*
X100465066Y-64677868D01*
X100449913Y-64684787D01*
X100433930Y-64689481D01*
X100430193Y-64693793D01*
X100425002Y-64696164D01*
X100415994Y-64710180D01*
X100405088Y-64722767D01*
X100404276Y-64728413D01*
X100401190Y-64733216D01*
X100401190Y-64749878D01*
X100398820Y-64766362D01*
X100401190Y-64771552D01*
X100401190Y-65797497D01*
X100398820Y-65813981D01*
X99694047Y-65813981D01*
X99694047Y-65624723D01*
X99697149Y-65615554D01*
X99694047Y-65603146D01*
X99694047Y-65601598D01*
X99691442Y-65592728D01*
X99599809Y-65226197D01*
X99600740Y-65217584D01*
X99594573Y-65205250D01*
X99593955Y-65202778D01*
X99589772Y-65195649D01*
X99499858Y-65015821D01*
X99497176Y-65003491D01*
X99482556Y-64988871D01*
X99468487Y-64973746D01*
X99467068Y-64973383D01*
X99293982Y-64800297D01*
X99282704Y-64786289D01*
X99268162Y-64781441D01*
X99254710Y-64774096D01*
X99247642Y-64774601D01*
X98985017Y-64687060D01*
X98974402Y-64680238D01*
X98953722Y-64680238D01*
X98933083Y-64679492D01*
X98931824Y-64680238D01*
X98481550Y-64680238D01*
X98465066Y-64677868D01*
X98449913Y-64684787D01*
X98433930Y-64689481D01*
X98430193Y-64693793D01*
X98425002Y-64696164D01*
X98415994Y-64710180D01*
X98405088Y-64722767D01*
X98404276Y-64728413D01*
X98401190Y-64733216D01*
X98401190Y-64749878D01*
X98398820Y-64766362D01*
X98401190Y-64771552D01*
X98401190Y-66749878D01*
X98398820Y-66766362D01*
X97489286Y-66766362D01*
X97489286Y-64114286D01*
X108961905Y-64114286D01*
X108961905Y-67510714D01*
G37*
G36*
X120943561Y-66108809D02*
G01*
X120199295Y-66108809D01*
X120571428Y-64992408D01*
X120943561Y-66108809D01*
G37*
G36*
X126622240Y-64912115D02*
G01*
X126700265Y-64990140D01*
X126782143Y-65153895D01*
X126782143Y-65404200D01*
X126700265Y-65567953D01*
X126622240Y-65645979D01*
X126458486Y-65727857D01*
X126194348Y-65727857D01*
X126176303Y-65725987D01*
X126172603Y-65727857D01*
X125789286Y-65727857D01*
X125789286Y-64830238D01*
X126458485Y-64830238D01*
X126622240Y-64912115D01*
G37*
G36*
X117288906Y-64912115D02*
G01*
X117366931Y-64990140D01*
X117448809Y-65153895D01*
X117448809Y-65404200D01*
X117366931Y-65567953D01*
X117288906Y-65645979D01*
X117125152Y-65727857D01*
X116455952Y-65727857D01*
X116455952Y-64830238D01*
X117125151Y-64830238D01*
X117288906Y-64912115D01*
G37*
G36*
X127723810Y-67510714D02*
G01*
X113489286Y-67510714D01*
X113489286Y-65144581D01*
X114303238Y-65144581D01*
X114305952Y-65151125D01*
X114305952Y-65322626D01*
X114304021Y-65340510D01*
X114310877Y-65354223D01*
X114315195Y-65368926D01*
X114320548Y-65373564D01*
X114404902Y-65542272D01*
X114407585Y-65554603D01*
X114422209Y-65569227D01*
X114436275Y-65584348D01*
X114437692Y-65584710D01*
X114511747Y-65658765D01*
X114518190Y-65669613D01*
X114536673Y-65678855D01*
X114554813Y-65688760D01*
X114556274Y-65688655D01*
X114716414Y-65768726D01*
X114722349Y-65775039D01*
X114735727Y-65778383D01*
X114738006Y-65779523D01*
X114746138Y-65780986D01*
X115116679Y-65873621D01*
X115288906Y-65959734D01*
X115366931Y-66037759D01*
X115448809Y-66201514D01*
X115448809Y-66356581D01*
X115366931Y-66520334D01*
X115288906Y-66598360D01*
X115125152Y-66680238D01*
X114678836Y-66680238D01*
X114394440Y-66585439D01*
X114361655Y-66584254D01*
X114323767Y-66606711D01*
X114304035Y-66646087D01*
X114308722Y-66689880D01*
X114336343Y-66724187D01*
X114634028Y-66823415D01*
X114644644Y-66830238D01*
X114665324Y-66830238D01*
X114685963Y-66830984D01*
X114687222Y-66830238D01*
X115138817Y-66830238D01*
X115156701Y-66832169D01*
X115170414Y-66825312D01*
X115185117Y-66820995D01*
X115189755Y-66815641D01*
X115358463Y-66731287D01*
X115370794Y-66728605D01*
X115385416Y-66713982D01*
X115400539Y-66699915D01*
X115400901Y-66698497D01*
X115474955Y-66624442D01*
X115485805Y-66617999D01*
X115495054Y-66599499D01*
X115504951Y-66581375D01*
X115504846Y-66579915D01*
X115589085Y-66411436D01*
X115598809Y-66396307D01*
X115598809Y-66380977D01*
X115601523Y-66365894D01*
X115598809Y-66359350D01*
X115598809Y-66187850D01*
X115600740Y-66169965D01*
X115593883Y-66156251D01*
X115589566Y-66141549D01*
X115584212Y-66136910D01*
X115499858Y-65968202D01*
X115497176Y-65955872D01*
X115482556Y-65941252D01*
X115468487Y-65926127D01*
X115467068Y-65925764D01*
X115393014Y-65851710D01*
X115386571Y-65840862D01*
X115368089Y-65831621D01*
X115349948Y-65821715D01*
X115348486Y-65821819D01*
X115332810Y-65813981D01*
X116303582Y-65813981D01*
X116305952Y-65819171D01*
X116305952Y-66766020D01*
X116315195Y-66797498D01*
X116348481Y-66826340D01*
X116392076Y-66832608D01*
X116432140Y-66814312D01*
X116455952Y-66777260D01*
X116455952Y-66766362D01*
X118303582Y-66766362D01*
X118310501Y-66781514D01*
X118315195Y-66797498D01*
X118319507Y-66801234D01*
X118321878Y-66806426D01*
X118335894Y-66815433D01*
X118348481Y-66826340D01*
X118354127Y-66827151D01*
X118358930Y-66830238D01*
X118375592Y-66830238D01*
X118392076Y-66832608D01*
X118397266Y-66830238D01*
X119344115Y-66830238D01*
X119375593Y-66820995D01*
X119404435Y-66787709D01*
X119406329Y-66774535D01*
X119829016Y-66774535D01*
X119851473Y-66812423D01*
X119890849Y-66832155D01*
X119934642Y-66827468D01*
X119968949Y-66799847D01*
X120149295Y-66258809D01*
X120993561Y-66258809D01*
X121170353Y-66789184D01*
X121189076Y-66816123D01*
X121229775Y-66832959D01*
X121273115Y-66825120D01*
X121305337Y-66795093D01*
X121316210Y-66752413D01*
X121124379Y-66176922D01*
X121124989Y-66172685D01*
X121117503Y-66156294D01*
X121025898Y-65881480D01*
X121828382Y-65881480D01*
X121829762Y-65900769D01*
X121829762Y-66766020D01*
X121839005Y-66797498D01*
X121872291Y-66826340D01*
X121915886Y-66832608D01*
X121955950Y-66814312D01*
X121979762Y-66777260D01*
X121979762Y-65929161D01*
X122182362Y-65726560D01*
X122994088Y-66808863D01*
X123020369Y-66828500D01*
X123064303Y-66831602D01*
X123102940Y-66810459D01*
X123124014Y-66771784D01*
X123123621Y-66766362D01*
X123827392Y-66766362D01*
X123834311Y-66781514D01*
X123839005Y-66797498D01*
X123843317Y-66801234D01*
X123845688Y-66806426D01*
X123859704Y-66815433D01*
X123872291Y-66826340D01*
X123877937Y-66827151D01*
X123882740Y-66830238D01*
X123899402Y-66830238D01*
X123915886Y-66832608D01*
X123921076Y-66830238D01*
X124867925Y-66830238D01*
X124899403Y-66820995D01*
X124928245Y-66787709D01*
X124934513Y-66744114D01*
X124916217Y-66704050D01*
X124879165Y-66680238D01*
X123979762Y-66680238D01*
X123979762Y-65813981D01*
X125636916Y-65813981D01*
X125639286Y-65819171D01*
X125639286Y-66766020D01*
X125648529Y-66797498D01*
X125681815Y-66826340D01*
X125725410Y-66832608D01*
X125765474Y-66814312D01*
X125789286Y-66777260D01*
X125789286Y-65877857D01*
X126151427Y-65877857D01*
X126801883Y-66807080D01*
X126827507Y-66827568D01*
X126871316Y-66832108D01*
X126910625Y-66812242D01*
X126932954Y-66774279D01*
X126931214Y-66730269D01*
X126334525Y-65877857D01*
X126472151Y-65877857D01*
X126490035Y-65879788D01*
X126503748Y-65872931D01*
X126518451Y-65868614D01*
X126523089Y-65863260D01*
X126691797Y-65778906D01*
X126704128Y-65776224D01*
X126718750Y-65761601D01*
X126733873Y-65747534D01*
X126734235Y-65746116D01*
X126808289Y-65672061D01*
X126819139Y-65665618D01*
X126828388Y-65647118D01*
X126838285Y-65628994D01*
X126838180Y-65627534D01*
X126922419Y-65459055D01*
X126932143Y-65443926D01*
X126932143Y-65428596D01*
X126934857Y-65413513D01*
X126932143Y-65406969D01*
X126932143Y-65140231D01*
X126934074Y-65122346D01*
X126927217Y-65108632D01*
X126922900Y-65093930D01*
X126917546Y-65089291D01*
X126833192Y-64920583D01*
X126830510Y-64908253D01*
X126815890Y-64893633D01*
X126801821Y-64878508D01*
X126800402Y-64878145D01*
X126726348Y-64804091D01*
X126719905Y-64793243D01*
X126701423Y-64784002D01*
X126683282Y-64774096D01*
X126681820Y-64774200D01*
X126513343Y-64689961D01*
X126498213Y-64680238D01*
X126482883Y-64680238D01*
X126467800Y-64677524D01*
X126461256Y-64680238D01*
X125719646Y-64680238D01*
X125703162Y-64677868D01*
X125688009Y-64684787D01*
X125672026Y-64689481D01*
X125668289Y-64693793D01*
X125663098Y-64696164D01*
X125654090Y-64710180D01*
X125643184Y-64722767D01*
X125642372Y-64728413D01*
X125639286Y-64733216D01*
X125639286Y-64749878D01*
X125636916Y-64766362D01*
X125639286Y-64771552D01*
X125639286Y-65797497D01*
X125636916Y-65813981D01*
X123979762Y-65813981D01*
X123979762Y-65782619D01*
X124582211Y-65782619D01*
X124613689Y-65773376D01*
X124642531Y-65740090D01*
X124648799Y-65696495D01*
X124630503Y-65656431D01*
X124593451Y-65632619D01*
X123979762Y-65632619D01*
X123979762Y-64830238D01*
X124867925Y-64830238D01*
X124899403Y-64820995D01*
X124928245Y-64787709D01*
X124934513Y-64744114D01*
X124916217Y-64704050D01*
X124879165Y-64680238D01*
X123910122Y-64680238D01*
X123893638Y-64677868D01*
X123878485Y-64684787D01*
X123862502Y-64689481D01*
X123858765Y-64693793D01*
X123853574Y-64696164D01*
X123844566Y-64710180D01*
X123833660Y-64722767D01*
X123832848Y-64728413D01*
X123829762Y-64733216D01*
X123829762Y-64749878D01*
X123827392Y-64766362D01*
X123829762Y-64771552D01*
X123829762Y-65702259D01*
X123827392Y-65718743D01*
X123829762Y-65723933D01*
X123829762Y-66749878D01*
X123827392Y-66766362D01*
X123123621Y-66766362D01*
X123120832Y-66727855D01*
X122289504Y-65619418D01*
X123108276Y-64800647D01*
X123123999Y-64771853D01*
X123120856Y-64727922D01*
X123094462Y-64692663D01*
X123053195Y-64677271D01*
X123010158Y-64686633D01*
X122145044Y-65551746D01*
X122135155Y-65557158D01*
X122129793Y-65566997D01*
X121979762Y-65717029D01*
X121979762Y-64744456D01*
X121970519Y-64712978D01*
X121937233Y-64684136D01*
X121893638Y-64677868D01*
X121853574Y-64696164D01*
X121829762Y-64733216D01*
X121829762Y-65878953D01*
X121828382Y-65881480D01*
X121025898Y-65881480D01*
X120646868Y-64744388D01*
X120647174Y-64735941D01*
X120640042Y-64723908D01*
X120639170Y-64721292D01*
X120634557Y-64714654D01*
X120624717Y-64698053D01*
X120622111Y-64696747D01*
X120620447Y-64694352D01*
X120602593Y-64686966D01*
X120585341Y-64678321D01*
X120582443Y-64678631D01*
X120579748Y-64677516D01*
X120560746Y-64680953D01*
X120541548Y-64683008D01*
X120539276Y-64684837D01*
X120536408Y-64685356D01*
X120522285Y-64698516D01*
X120507241Y-64710629D01*
X120506318Y-64713395D01*
X120504186Y-64715383D01*
X120499418Y-64734095D01*
X120028798Y-66145957D01*
X120024136Y-66151338D01*
X120021959Y-66166472D01*
X119830201Y-66741750D01*
X119829016Y-66774535D01*
X119406329Y-66774535D01*
X119410703Y-66744114D01*
X119392407Y-66704050D01*
X119355355Y-66680238D01*
X118455952Y-66680238D01*
X118455952Y-65782619D01*
X119058401Y-65782619D01*
X119089879Y-65773376D01*
X119118721Y-65740090D01*
X119124989Y-65696495D01*
X119106693Y-65656431D01*
X119069641Y-65632619D01*
X118455952Y-65632619D01*
X118455952Y-64830238D01*
X119344115Y-64830238D01*
X119375593Y-64820995D01*
X119404435Y-64787709D01*
X119410703Y-64744114D01*
X119392407Y-64704050D01*
X119355355Y-64680238D01*
X118386312Y-64680238D01*
X118369828Y-64677868D01*
X118354675Y-64684787D01*
X118338692Y-64689481D01*
X118334955Y-64693793D01*
X118329764Y-64696164D01*
X118320756Y-64710180D01*
X118309850Y-64722767D01*
X118309038Y-64728413D01*
X118305952Y-64733216D01*
X118305952Y-64749878D01*
X118303582Y-64766362D01*
X118305952Y-64771552D01*
X118305952Y-65702259D01*
X118303582Y-65718743D01*
X118305952Y-65723933D01*
X118305952Y-66749878D01*
X118303582Y-66766362D01*
X116455952Y-66766362D01*
X116455952Y-65877857D01*
X117138817Y-65877857D01*
X117156701Y-65879788D01*
X117170414Y-65872931D01*
X117185117Y-65868614D01*
X117189755Y-65863260D01*
X117358463Y-65778906D01*
X117370794Y-65776224D01*
X117385416Y-65761601D01*
X117400539Y-65747534D01*
X117400901Y-65746116D01*
X117474955Y-65672061D01*
X117485805Y-65665618D01*
X117495054Y-65647118D01*
X117504951Y-65628994D01*
X117504846Y-65627534D01*
X117589085Y-65459055D01*
X117598809Y-65443926D01*
X117598809Y-65428596D01*
X117601523Y-65413513D01*
X117598809Y-65406969D01*
X117598809Y-65140231D01*
X117600740Y-65122346D01*
X117593883Y-65108632D01*
X117589566Y-65093930D01*
X117584212Y-65089291D01*
X117499858Y-64920583D01*
X117497176Y-64908253D01*
X117482556Y-64893633D01*
X117468487Y-64878508D01*
X117467068Y-64878145D01*
X117393014Y-64804091D01*
X117386571Y-64793243D01*
X117368089Y-64784002D01*
X117349948Y-64774096D01*
X117348486Y-64774200D01*
X117180009Y-64689961D01*
X117164879Y-64680238D01*
X117149549Y-64680238D01*
X117134466Y-64677524D01*
X117127922Y-64680238D01*
X116386312Y-64680238D01*
X116369828Y-64677868D01*
X116354675Y-64684787D01*
X116338692Y-64689481D01*
X116334955Y-64693793D01*
X116329764Y-64696164D01*
X116320756Y-64710180D01*
X116309850Y-64722767D01*
X116309038Y-64728413D01*
X116305952Y-64733216D01*
X116305952Y-64749878D01*
X116303582Y-64766362D01*
X116305952Y-64771552D01*
X116305952Y-65797497D01*
X116303582Y-65813981D01*
X115332810Y-65813981D01*
X115188345Y-65741749D01*
X115182411Y-65735437D01*
X115169033Y-65732092D01*
X115166754Y-65730953D01*
X115158621Y-65729489D01*
X114788078Y-65636854D01*
X114615854Y-65550740D01*
X114537829Y-65472715D01*
X114455952Y-65308961D01*
X114455952Y-65153896D01*
X114537829Y-64990140D01*
X114615854Y-64912115D01*
X114779609Y-64830238D01*
X115225925Y-64830238D01*
X115510321Y-64925037D01*
X115543106Y-64926222D01*
X115580994Y-64903765D01*
X115600726Y-64864389D01*
X115596039Y-64820596D01*
X115568418Y-64786289D01*
X115270732Y-64687060D01*
X115260117Y-64680238D01*
X115239437Y-64680238D01*
X115218798Y-64679492D01*
X115217539Y-64680238D01*
X114765945Y-64680238D01*
X114748060Y-64678307D01*
X114734346Y-64685163D01*
X114719644Y-64689481D01*
X114715005Y-64694834D01*
X114546297Y-64779188D01*
X114533967Y-64781871D01*
X114519347Y-64796490D01*
X114504222Y-64810560D01*
X114503859Y-64811978D01*
X114429805Y-64886032D01*
X114418957Y-64892476D01*
X114409716Y-64910957D01*
X114399810Y-64929099D01*
X114399914Y-64930560D01*
X114315675Y-65099037D01*
X114305952Y-65114168D01*
X114305952Y-65129498D01*
X114303238Y-65144581D01*
X113489286Y-65144581D01*
X113489286Y-64114286D01*
X127723810Y-64114286D01*
X127723810Y-67510714D01*
G37*
X81565714Y-42671000D02*
X81780000Y-42742428D01*
X81780000Y-42742428D02*
X82137142Y-42742428D01*
X82137142Y-42742428D02*
X82280000Y-42671000D01*
X82280000Y-42671000D02*
X82351428Y-42599571D01*
X82351428Y-42599571D02*
X82422857Y-42456714D01*
X82422857Y-42456714D02*
X82422857Y-42313857D01*
X82422857Y-42313857D02*
X82351428Y-42171000D01*
X82351428Y-42171000D02*
X82280000Y-42099571D01*
X82280000Y-42099571D02*
X82137142Y-42028142D01*
X82137142Y-42028142D02*
X81851428Y-41956714D01*
X81851428Y-41956714D02*
X81708571Y-41885285D01*
X81708571Y-41885285D02*
X81637142Y-41813857D01*
X81637142Y-41813857D02*
X81565714Y-41671000D01*
X81565714Y-41671000D02*
X81565714Y-41528142D01*
X81565714Y-41528142D02*
X81637142Y-41385285D01*
X81637142Y-41385285D02*
X81708571Y-41313857D01*
X81708571Y-41313857D02*
X81851428Y-41242428D01*
X81851428Y-41242428D02*
X82208571Y-41242428D01*
X82208571Y-41242428D02*
X82422857Y-41313857D01*
X83065713Y-41742428D02*
X83065713Y-43242428D01*
X83065713Y-41813857D02*
X83208571Y-41742428D01*
X83208571Y-41742428D02*
X83494285Y-41742428D01*
X83494285Y-41742428D02*
X83637142Y-41813857D01*
X83637142Y-41813857D02*
X83708571Y-41885285D01*
X83708571Y-41885285D02*
X83779999Y-42028142D01*
X83779999Y-42028142D02*
X83779999Y-42456714D01*
X83779999Y-42456714D02*
X83708571Y-42599571D01*
X83708571Y-42599571D02*
X83637142Y-42671000D01*
X83637142Y-42671000D02*
X83494285Y-42742428D01*
X83494285Y-42742428D02*
X83208571Y-42742428D01*
X83208571Y-42742428D02*
X83065713Y-42671000D01*
X84994285Y-42671000D02*
X84851428Y-42742428D01*
X84851428Y-42742428D02*
X84565714Y-42742428D01*
X84565714Y-42742428D02*
X84422856Y-42671000D01*
X84422856Y-42671000D02*
X84351428Y-42528142D01*
X84351428Y-42528142D02*
X84351428Y-41956714D01*
X84351428Y-41956714D02*
X84422856Y-41813857D01*
X84422856Y-41813857D02*
X84565714Y-41742428D01*
X84565714Y-41742428D02*
X84851428Y-41742428D01*
X84851428Y-41742428D02*
X84994285Y-41813857D01*
X84994285Y-41813857D02*
X85065714Y-41956714D01*
X85065714Y-41956714D02*
X85065714Y-42099571D01*
X85065714Y-42099571D02*
X84351428Y-42242428D01*
X86351428Y-42742428D02*
X86351428Y-41956714D01*
X86351428Y-41956714D02*
X86279999Y-41813857D01*
X86279999Y-41813857D02*
X86137142Y-41742428D01*
X86137142Y-41742428D02*
X85851428Y-41742428D01*
X85851428Y-41742428D02*
X85708570Y-41813857D01*
X86351428Y-42671000D02*
X86208570Y-42742428D01*
X86208570Y-42742428D02*
X85851428Y-42742428D01*
X85851428Y-42742428D02*
X85708570Y-42671000D01*
X85708570Y-42671000D02*
X85637142Y-42528142D01*
X85637142Y-42528142D02*
X85637142Y-42385285D01*
X85637142Y-42385285D02*
X85708570Y-42242428D01*
X85708570Y-42242428D02*
X85851428Y-42171000D01*
X85851428Y-42171000D02*
X86208570Y-42171000D01*
X86208570Y-42171000D02*
X86351428Y-42099571D01*
X87065713Y-42742428D02*
X87065713Y-41242428D01*
X87208571Y-42171000D02*
X87637142Y-42742428D01*
X87637142Y-41742428D02*
X87065713Y-42313857D01*
X88851428Y-42671000D02*
X88708571Y-42742428D01*
X88708571Y-42742428D02*
X88422857Y-42742428D01*
X88422857Y-42742428D02*
X88279999Y-42671000D01*
X88279999Y-42671000D02*
X88208571Y-42528142D01*
X88208571Y-42528142D02*
X88208571Y-41956714D01*
X88208571Y-41956714D02*
X88279999Y-41813857D01*
X88279999Y-41813857D02*
X88422857Y-41742428D01*
X88422857Y-41742428D02*
X88708571Y-41742428D01*
X88708571Y-41742428D02*
X88851428Y-41813857D01*
X88851428Y-41813857D02*
X88922857Y-41956714D01*
X88922857Y-41956714D02*
X88922857Y-42099571D01*
X88922857Y-42099571D02*
X88208571Y-42242428D01*
X89565713Y-42742428D02*
X89565713Y-41742428D01*
X89565713Y-42028142D02*
X89637142Y-41885285D01*
X89637142Y-41885285D02*
X89708571Y-41813857D01*
X89708571Y-41813857D02*
X89851428Y-41742428D01*
X89851428Y-41742428D02*
X89994285Y-41742428D01*
X91637141Y-42742428D02*
X91637141Y-41242428D01*
X92351427Y-42742428D02*
X92351427Y-41742428D01*
X92351427Y-41885285D02*
X92422856Y-41813857D01*
X92422856Y-41813857D02*
X92565713Y-41742428D01*
X92565713Y-41742428D02*
X92779999Y-41742428D01*
X92779999Y-41742428D02*
X92922856Y-41813857D01*
X92922856Y-41813857D02*
X92994285Y-41956714D01*
X92994285Y-41956714D02*
X92994285Y-42742428D01*
X92994285Y-41956714D02*
X93065713Y-41813857D01*
X93065713Y-41813857D02*
X93208570Y-41742428D01*
X93208570Y-41742428D02*
X93422856Y-41742428D01*
X93422856Y-41742428D02*
X93565713Y-41813857D01*
X93565713Y-41813857D02*
X93637142Y-41956714D01*
X93637142Y-41956714D02*
X93637142Y-42742428D01*
X94351427Y-41742428D02*
X94351427Y-43242428D01*
X94351427Y-41813857D02*
X94494285Y-41742428D01*
X94494285Y-41742428D02*
X94779999Y-41742428D01*
X94779999Y-41742428D02*
X94922856Y-41813857D01*
X94922856Y-41813857D02*
X94994285Y-41885285D01*
X94994285Y-41885285D02*
X95065713Y-42028142D01*
X95065713Y-42028142D02*
X95065713Y-42456714D01*
X95065713Y-42456714D02*
X94994285Y-42599571D01*
X94994285Y-42599571D02*
X94922856Y-42671000D01*
X94922856Y-42671000D02*
X94779999Y-42742428D01*
X94779999Y-42742428D02*
X94494285Y-42742428D01*
X94494285Y-42742428D02*
X94351427Y-42671000D01*
X96279999Y-42671000D02*
X96137142Y-42742428D01*
X96137142Y-42742428D02*
X95851428Y-42742428D01*
X95851428Y-42742428D02*
X95708570Y-42671000D01*
X95708570Y-42671000D02*
X95637142Y-42528142D01*
X95637142Y-42528142D02*
X95637142Y-41956714D01*
X95637142Y-41956714D02*
X95708570Y-41813857D01*
X95708570Y-41813857D02*
X95851428Y-41742428D01*
X95851428Y-41742428D02*
X96137142Y-41742428D01*
X96137142Y-41742428D02*
X96279999Y-41813857D01*
X96279999Y-41813857D02*
X96351428Y-41956714D01*
X96351428Y-41956714D02*
X96351428Y-42099571D01*
X96351428Y-42099571D02*
X95637142Y-42242428D01*
X97637142Y-42742428D02*
X97637142Y-41242428D01*
X97637142Y-42671000D02*
X97494284Y-42742428D01*
X97494284Y-42742428D02*
X97208570Y-42742428D01*
X97208570Y-42742428D02*
X97065713Y-42671000D01*
X97065713Y-42671000D02*
X96994284Y-42599571D01*
X96994284Y-42599571D02*
X96922856Y-42456714D01*
X96922856Y-42456714D02*
X96922856Y-42028142D01*
X96922856Y-42028142D02*
X96994284Y-41885285D01*
X96994284Y-41885285D02*
X97065713Y-41813857D01*
X97065713Y-41813857D02*
X97208570Y-41742428D01*
X97208570Y-41742428D02*
X97494284Y-41742428D01*
X97494284Y-41742428D02*
X97637142Y-41813857D01*
X98994285Y-42742428D02*
X98994285Y-41956714D01*
X98994285Y-41956714D02*
X98922856Y-41813857D01*
X98922856Y-41813857D02*
X98779999Y-41742428D01*
X98779999Y-41742428D02*
X98494285Y-41742428D01*
X98494285Y-41742428D02*
X98351427Y-41813857D01*
X98994285Y-42671000D02*
X98851427Y-42742428D01*
X98851427Y-42742428D02*
X98494285Y-42742428D01*
X98494285Y-42742428D02*
X98351427Y-42671000D01*
X98351427Y-42671000D02*
X98279999Y-42528142D01*
X98279999Y-42528142D02*
X98279999Y-42385285D01*
X98279999Y-42385285D02*
X98351427Y-42242428D01*
X98351427Y-42242428D02*
X98494285Y-42171000D01*
X98494285Y-42171000D02*
X98851427Y-42171000D01*
X98851427Y-42171000D02*
X98994285Y-42099571D01*
X99708570Y-41742428D02*
X99708570Y-42742428D01*
X99708570Y-41885285D02*
X99779999Y-41813857D01*
X99779999Y-41813857D02*
X99922856Y-41742428D01*
X99922856Y-41742428D02*
X100137142Y-41742428D01*
X100137142Y-41742428D02*
X100279999Y-41813857D01*
X100279999Y-41813857D02*
X100351428Y-41956714D01*
X100351428Y-41956714D02*
X100351428Y-42742428D01*
X101708571Y-42671000D02*
X101565713Y-42742428D01*
X101565713Y-42742428D02*
X101279999Y-42742428D01*
X101279999Y-42742428D02*
X101137142Y-42671000D01*
X101137142Y-42671000D02*
X101065713Y-42599571D01*
X101065713Y-42599571D02*
X100994285Y-42456714D01*
X100994285Y-42456714D02*
X100994285Y-42028142D01*
X100994285Y-42028142D02*
X101065713Y-41885285D01*
X101065713Y-41885285D02*
X101137142Y-41813857D01*
X101137142Y-41813857D02*
X101279999Y-41742428D01*
X101279999Y-41742428D02*
X101565713Y-41742428D01*
X101565713Y-41742428D02*
X101708571Y-41813857D01*
X102922856Y-42671000D02*
X102779999Y-42742428D01*
X102779999Y-42742428D02*
X102494285Y-42742428D01*
X102494285Y-42742428D02*
X102351427Y-42671000D01*
X102351427Y-42671000D02*
X102279999Y-42528142D01*
X102279999Y-42528142D02*
X102279999Y-41956714D01*
X102279999Y-41956714D02*
X102351427Y-41813857D01*
X102351427Y-41813857D02*
X102494285Y-41742428D01*
X102494285Y-41742428D02*
X102779999Y-41742428D01*
X102779999Y-41742428D02*
X102922856Y-41813857D01*
X102922856Y-41813857D02*
X102994285Y-41956714D01*
X102994285Y-41956714D02*
X102994285Y-42099571D01*
X102994285Y-42099571D02*
X102279999Y-42242428D01*
X105279998Y-41956714D02*
X104779998Y-41956714D01*
X104779998Y-42742428D02*
X104779998Y-41242428D01*
X104779998Y-41242428D02*
X105494284Y-41242428D01*
X106065712Y-42742428D02*
X106065712Y-41742428D01*
X106065712Y-41242428D02*
X105994284Y-41313857D01*
X105994284Y-41313857D02*
X106065712Y-41385285D01*
X106065712Y-41385285D02*
X106137141Y-41313857D01*
X106137141Y-41313857D02*
X106065712Y-41242428D01*
X106065712Y-41242428D02*
X106065712Y-41385285D01*
X106637141Y-42742428D02*
X107422856Y-41742428D01*
X106637141Y-41742428D02*
X107422856Y-42742428D01*
X107779999Y-41742428D02*
X108351427Y-41742428D01*
X107994284Y-41242428D02*
X107994284Y-42528142D01*
X107994284Y-42528142D02*
X108065713Y-42671000D01*
X108065713Y-42671000D02*
X108208570Y-42742428D01*
X108208570Y-42742428D02*
X108351427Y-42742428D01*
X109494285Y-41742428D02*
X109494285Y-42742428D01*
X108851427Y-41742428D02*
X108851427Y-42528142D01*
X108851427Y-42528142D02*
X108922856Y-42671000D01*
X108922856Y-42671000D02*
X109065713Y-42742428D01*
X109065713Y-42742428D02*
X109279999Y-42742428D01*
X109279999Y-42742428D02*
X109422856Y-42671000D01*
X109422856Y-42671000D02*
X109494285Y-42599571D01*
X110208570Y-42742428D02*
X110208570Y-41742428D01*
X110208570Y-42028142D02*
X110279999Y-41885285D01*
X110279999Y-41885285D02*
X110351428Y-41813857D01*
X110351428Y-41813857D02*
X110494285Y-41742428D01*
X110494285Y-41742428D02*
X110637142Y-41742428D01*
X111708570Y-42671000D02*
X111565713Y-42742428D01*
X111565713Y-42742428D02*
X111279999Y-42742428D01*
X111279999Y-42742428D02*
X111137141Y-42671000D01*
X111137141Y-42671000D02*
X111065713Y-42528142D01*
X111065713Y-42528142D02*
X111065713Y-41956714D01*
X111065713Y-41956714D02*
X111137141Y-41813857D01*
X111137141Y-41813857D02*
X111279999Y-41742428D01*
X111279999Y-41742428D02*
X111565713Y-41742428D01*
X111565713Y-41742428D02*
X111708570Y-41813857D01*
X111708570Y-41813857D02*
X111779999Y-41956714D01*
X111779999Y-41956714D02*
X111779999Y-42099571D01*
X111779999Y-42099571D02*
X111065713Y-42242428D01*
X113351427Y-41742428D02*
X113922855Y-41742428D01*
X113565712Y-42742428D02*
X113565712Y-41456714D01*
X113565712Y-41456714D02*
X113637141Y-41313857D01*
X113637141Y-41313857D02*
X113779998Y-41242428D01*
X113779998Y-41242428D02*
X113922855Y-41242428D01*
X114637141Y-42742428D02*
X114494284Y-42671000D01*
X114494284Y-42671000D02*
X114422855Y-42599571D01*
X114422855Y-42599571D02*
X114351427Y-42456714D01*
X114351427Y-42456714D02*
X114351427Y-42028142D01*
X114351427Y-42028142D02*
X114422855Y-41885285D01*
X114422855Y-41885285D02*
X114494284Y-41813857D01*
X114494284Y-41813857D02*
X114637141Y-41742428D01*
X114637141Y-41742428D02*
X114851427Y-41742428D01*
X114851427Y-41742428D02*
X114994284Y-41813857D01*
X114994284Y-41813857D02*
X115065713Y-41885285D01*
X115065713Y-41885285D02*
X115137141Y-42028142D01*
X115137141Y-42028142D02*
X115137141Y-42456714D01*
X115137141Y-42456714D02*
X115065713Y-42599571D01*
X115065713Y-42599571D02*
X114994284Y-42671000D01*
X114994284Y-42671000D02*
X114851427Y-42742428D01*
X114851427Y-42742428D02*
X114637141Y-42742428D01*
X115779998Y-42742428D02*
X115779998Y-41742428D01*
X115779998Y-42028142D02*
X115851427Y-41885285D01*
X115851427Y-41885285D02*
X115922856Y-41813857D01*
X115922856Y-41813857D02*
X116065713Y-41742428D01*
X116065713Y-41742428D02*
X116208570Y-41742428D01*
X117637141Y-41742428D02*
X118208569Y-41742428D01*
X117851426Y-41242428D02*
X117851426Y-42528142D01*
X117851426Y-42528142D02*
X117922855Y-42671000D01*
X117922855Y-42671000D02*
X118065712Y-42742428D01*
X118065712Y-42742428D02*
X118208569Y-42742428D01*
X118708569Y-42742428D02*
X118708569Y-41242428D01*
X119351427Y-42742428D02*
X119351427Y-41956714D01*
X119351427Y-41956714D02*
X119279998Y-41813857D01*
X119279998Y-41813857D02*
X119137141Y-41742428D01*
X119137141Y-41742428D02*
X118922855Y-41742428D01*
X118922855Y-41742428D02*
X118779998Y-41813857D01*
X118779998Y-41813857D02*
X118708569Y-41885285D01*
X120637141Y-42671000D02*
X120494284Y-42742428D01*
X120494284Y-42742428D02*
X120208570Y-42742428D01*
X120208570Y-42742428D02*
X120065712Y-42671000D01*
X120065712Y-42671000D02*
X119994284Y-42528142D01*
X119994284Y-42528142D02*
X119994284Y-41956714D01*
X119994284Y-41956714D02*
X120065712Y-41813857D01*
X120065712Y-41813857D02*
X120208570Y-41742428D01*
X120208570Y-41742428D02*
X120494284Y-41742428D01*
X120494284Y-41742428D02*
X120637141Y-41813857D01*
X120637141Y-41813857D02*
X120708570Y-41956714D01*
X120708570Y-41956714D02*
X120708570Y-42099571D01*
X120708570Y-42099571D02*
X119994284Y-42242428D01*
X123494283Y-42885285D02*
X123351426Y-42813857D01*
X123351426Y-42813857D02*
X123208569Y-42671000D01*
X123208569Y-42671000D02*
X122994283Y-42456714D01*
X122994283Y-42456714D02*
X122851426Y-42385285D01*
X122851426Y-42385285D02*
X122708569Y-42385285D01*
X122779998Y-42742428D02*
X122637141Y-42671000D01*
X122637141Y-42671000D02*
X122494283Y-42528142D01*
X122494283Y-42528142D02*
X122422855Y-42242428D01*
X122422855Y-42242428D02*
X122422855Y-41742428D01*
X122422855Y-41742428D02*
X122494283Y-41456714D01*
X122494283Y-41456714D02*
X122637141Y-41313857D01*
X122637141Y-41313857D02*
X122779998Y-41242428D01*
X122779998Y-41242428D02*
X123065712Y-41242428D01*
X123065712Y-41242428D02*
X123208569Y-41313857D01*
X123208569Y-41313857D02*
X123351426Y-41456714D01*
X123351426Y-41456714D02*
X123422855Y-41742428D01*
X123422855Y-41742428D02*
X123422855Y-42242428D01*
X123422855Y-42242428D02*
X123351426Y-42528142D01*
X123351426Y-42528142D02*
X123208569Y-42671000D01*
X123208569Y-42671000D02*
X123065712Y-42742428D01*
X123065712Y-42742428D02*
X122779998Y-42742428D01*
X124708570Y-41742428D02*
X124708570Y-42742428D01*
X124065712Y-41742428D02*
X124065712Y-42528142D01*
X124065712Y-42528142D02*
X124137141Y-42671000D01*
X124137141Y-42671000D02*
X124279998Y-42742428D01*
X124279998Y-42742428D02*
X124494284Y-42742428D01*
X124494284Y-42742428D02*
X124637141Y-42671000D01*
X124637141Y-42671000D02*
X124708570Y-42599571D01*
X126065713Y-42742428D02*
X126065713Y-41956714D01*
X126065713Y-41956714D02*
X125994284Y-41813857D01*
X125994284Y-41813857D02*
X125851427Y-41742428D01*
X125851427Y-41742428D02*
X125565713Y-41742428D01*
X125565713Y-41742428D02*
X125422855Y-41813857D01*
X126065713Y-42671000D02*
X125922855Y-42742428D01*
X125922855Y-42742428D02*
X125565713Y-42742428D01*
X125565713Y-42742428D02*
X125422855Y-42671000D01*
X125422855Y-42671000D02*
X125351427Y-42528142D01*
X125351427Y-42528142D02*
X125351427Y-42385285D01*
X125351427Y-42385285D02*
X125422855Y-42242428D01*
X125422855Y-42242428D02*
X125565713Y-42171000D01*
X125565713Y-42171000D02*
X125922855Y-42171000D01*
X125922855Y-42171000D02*
X126065713Y-42099571D01*
X126779998Y-41742428D02*
X126779998Y-42742428D01*
X126779998Y-41885285D02*
X126851427Y-41813857D01*
X126851427Y-41813857D02*
X126994284Y-41742428D01*
X126994284Y-41742428D02*
X127208570Y-41742428D01*
X127208570Y-41742428D02*
X127351427Y-41813857D01*
X127351427Y-41813857D02*
X127422856Y-41956714D01*
X127422856Y-41956714D02*
X127422856Y-42742428D01*
X127922856Y-41742428D02*
X128494284Y-41742428D01*
X128137141Y-41242428D02*
X128137141Y-42528142D01*
X128137141Y-42528142D02*
X128208570Y-42671000D01*
X128208570Y-42671000D02*
X128351427Y-42742428D01*
X128351427Y-42742428D02*
X128494284Y-42742428D01*
X128922856Y-42313857D02*
X129637142Y-42313857D01*
X128779999Y-42742428D02*
X129279999Y-41242428D01*
X129279999Y-41242428D02*
X129779999Y-42742428D01*
X130208570Y-42671000D02*
X130351427Y-42742428D01*
X130351427Y-42742428D02*
X130637141Y-42742428D01*
X130637141Y-42742428D02*
X130779998Y-42671000D01*
X130779998Y-42671000D02*
X130851427Y-42528142D01*
X130851427Y-42528142D02*
X130851427Y-42456714D01*
X130851427Y-42456714D02*
X130779998Y-42313857D01*
X130779998Y-42313857D02*
X130637141Y-42242428D01*
X130637141Y-42242428D02*
X130422856Y-42242428D01*
X130422856Y-42242428D02*
X130279998Y-42171000D01*
X130279998Y-42171000D02*
X130208570Y-42028142D01*
X130208570Y-42028142D02*
X130208570Y-41956714D01*
X130208570Y-41956714D02*
X130279998Y-41813857D01*
X130279998Y-41813857D02*
X130422856Y-41742428D01*
X130422856Y-41742428D02*
X130637141Y-41742428D01*
X130637141Y-41742428D02*
X130779998Y-41813857D01*
X131351427Y-41742428D02*
X131708570Y-42742428D01*
X132065713Y-41742428D02*
X131708570Y-42742428D01*
X131708570Y-42742428D02*
X131565713Y-43099571D01*
X131565713Y-43099571D02*
X131494284Y-43171000D01*
X131494284Y-43171000D02*
X131351427Y-43242428D01*
X132851427Y-42742428D02*
X132708570Y-42671000D01*
X132708570Y-42671000D02*
X132637141Y-42528142D01*
X132637141Y-42528142D02*
X132637141Y-41242428D01*
X134065713Y-41742428D02*
X134065713Y-42742428D01*
X133422855Y-41742428D02*
X133422855Y-42528142D01*
X133422855Y-42528142D02*
X133494284Y-42671000D01*
X133494284Y-42671000D02*
X133637141Y-42742428D01*
X133637141Y-42742428D02*
X133851427Y-42742428D01*
X133851427Y-42742428D02*
X133994284Y-42671000D01*
X133994284Y-42671000D02*
X134065713Y-42599571D01*
X134779998Y-42742428D02*
X134779998Y-41742428D01*
X134779998Y-41885285D02*
X134851427Y-41813857D01*
X134851427Y-41813857D02*
X134994284Y-41742428D01*
X134994284Y-41742428D02*
X135208570Y-41742428D01*
X135208570Y-41742428D02*
X135351427Y-41813857D01*
X135351427Y-41813857D02*
X135422856Y-41956714D01*
X135422856Y-41956714D02*
X135422856Y-42742428D01*
X135422856Y-41956714D02*
X135494284Y-41813857D01*
X135494284Y-41813857D02*
X135637141Y-41742428D01*
X135637141Y-41742428D02*
X135851427Y-41742428D01*
X135851427Y-41742428D02*
X135994284Y-41813857D01*
X135994284Y-41813857D02*
X136065713Y-41956714D01*
X136065713Y-41956714D02*
X136065713Y-42742428D01*
X138922855Y-42885285D02*
X138779998Y-42813857D01*
X138779998Y-42813857D02*
X138637141Y-42671000D01*
X138637141Y-42671000D02*
X138422855Y-42456714D01*
X138422855Y-42456714D02*
X138279998Y-42385285D01*
X138279998Y-42385285D02*
X138137141Y-42385285D01*
X138208570Y-42742428D02*
X138065713Y-42671000D01*
X138065713Y-42671000D02*
X137922855Y-42528142D01*
X137922855Y-42528142D02*
X137851427Y-42242428D01*
X137851427Y-42242428D02*
X137851427Y-41742428D01*
X137851427Y-41742428D02*
X137922855Y-41456714D01*
X137922855Y-41456714D02*
X138065713Y-41313857D01*
X138065713Y-41313857D02*
X138208570Y-41242428D01*
X138208570Y-41242428D02*
X138494284Y-41242428D01*
X138494284Y-41242428D02*
X138637141Y-41313857D01*
X138637141Y-41313857D02*
X138779998Y-41456714D01*
X138779998Y-41456714D02*
X138851427Y-41742428D01*
X138851427Y-41742428D02*
X138851427Y-42242428D01*
X138851427Y-42242428D02*
X138779998Y-42528142D01*
X138779998Y-42528142D02*
X138637141Y-42671000D01*
X138637141Y-42671000D02*
X138494284Y-42742428D01*
X138494284Y-42742428D02*
X138208570Y-42742428D01*
X139422856Y-42313857D02*
X140137142Y-42313857D01*
X139279999Y-42742428D02*
X139779999Y-41242428D01*
X139779999Y-41242428D02*
X140279999Y-42742428D01*
X141422856Y-41742428D02*
X141422856Y-42742428D01*
X141065713Y-41171000D02*
X140708570Y-42242428D01*
X140708570Y-42242428D02*
X141637141Y-42242428D01*
X142494284Y-41242428D02*
X142637141Y-41242428D01*
X142637141Y-41242428D02*
X142779998Y-41313857D01*
X142779998Y-41313857D02*
X142851427Y-41385285D01*
X142851427Y-41385285D02*
X142922855Y-41528142D01*
X142922855Y-41528142D02*
X142994284Y-41813857D01*
X142994284Y-41813857D02*
X142994284Y-42171000D01*
X142994284Y-42171000D02*
X142922855Y-42456714D01*
X142922855Y-42456714D02*
X142851427Y-42599571D01*
X142851427Y-42599571D02*
X142779998Y-42671000D01*
X142779998Y-42671000D02*
X142637141Y-42742428D01*
X142637141Y-42742428D02*
X142494284Y-42742428D01*
X142494284Y-42742428D02*
X142351427Y-42671000D01*
X142351427Y-42671000D02*
X142279998Y-42599571D01*
X142279998Y-42599571D02*
X142208569Y-42456714D01*
X142208569Y-42456714D02*
X142137141Y-42171000D01*
X142137141Y-42171000D02*
X142137141Y-41813857D01*
X142137141Y-41813857D02*
X142208569Y-41528142D01*
X142208569Y-41528142D02*
X142279998Y-41385285D01*
X142279998Y-41385285D02*
X142351427Y-41313857D01*
X142351427Y-41313857D02*
X142494284Y-41242428D01*
X143494283Y-41242428D02*
X144422855Y-41242428D01*
X144422855Y-41242428D02*
X143922855Y-41813857D01*
X143922855Y-41813857D02*
X144137140Y-41813857D01*
X144137140Y-41813857D02*
X144279998Y-41885285D01*
X144279998Y-41885285D02*
X144351426Y-41956714D01*
X144351426Y-41956714D02*
X144422855Y-42099571D01*
X144422855Y-42099571D02*
X144422855Y-42456714D01*
X144422855Y-42456714D02*
X144351426Y-42599571D01*
X144351426Y-42599571D02*
X144279998Y-42671000D01*
X144279998Y-42671000D02*
X144137140Y-42742428D01*
X144137140Y-42742428D02*
X143708569Y-42742428D01*
X143708569Y-42742428D02*
X143565712Y-42671000D01*
X143565712Y-42671000D02*
X143494283Y-42599571D01*
D12*
X138642857Y-55755000D02*
X137500000Y-55755000D01*
X138071428Y-55183571D02*
X138071428Y-56326428D01*
D10*
G36*
X102333888Y-26797380D02*
G01*
X102045642Y-26797380D01*
X101977124Y-26763121D01*
X101946717Y-26732714D01*
X101912460Y-26664199D01*
X101912460Y-26556753D01*
X101946719Y-26488235D01*
X101977124Y-26457829D01*
X102045640Y-26423571D01*
X102333888Y-26423571D01*
X102333888Y-26797380D01*
G37*
G36*
X98613537Y-26425441D02*
G01*
X98617237Y-26423571D01*
X98762459Y-26423571D01*
X98762459Y-26797380D01*
X98474213Y-26797380D01*
X98405695Y-26763121D01*
X98375288Y-26732714D01*
X98341031Y-26664199D01*
X98341031Y-26556753D01*
X98375290Y-26488235D01*
X98405695Y-26457829D01*
X98474211Y-26423571D01*
X98595492Y-26423571D01*
X98613537Y-26425441D01*
G37*
G36*
X104538650Y-27492857D02*
G01*
X96294603Y-27492857D01*
X96294603Y-26264457D01*
X96998185Y-26264457D01*
X97016481Y-26304521D01*
X97053533Y-26328333D01*
X97381507Y-26328333D01*
X97381507Y-26645067D01*
X97390750Y-26676545D01*
X97424036Y-26705387D01*
X97467631Y-26711655D01*
X97507695Y-26693359D01*
X97531507Y-26656307D01*
X97531507Y-26547438D01*
X98188317Y-26547438D01*
X98191031Y-26553982D01*
X98191031Y-26677864D01*
X98189100Y-26695748D01*
X98195956Y-26709461D01*
X98200274Y-26724164D01*
X98205627Y-26728802D01*
X98242362Y-26802271D01*
X98245045Y-26814603D01*
X98259672Y-26829230D01*
X98273734Y-26844348D01*
X98275152Y-26844710D01*
X98301587Y-26871145D01*
X98308031Y-26881995D01*
X98326540Y-26891249D01*
X98344654Y-26901140D01*
X98346112Y-26901035D01*
X98419358Y-26937658D01*
X98434485Y-26947380D01*
X98449815Y-26947380D01*
X98464898Y-26950094D01*
X98471442Y-26947380D01*
X98832099Y-26947380D01*
X98848583Y-26949750D01*
X98863735Y-26942830D01*
X98879719Y-26938137D01*
X98883455Y-26933824D01*
X98888647Y-26931454D01*
X98897654Y-26917437D01*
X98908561Y-26904851D01*
X98909372Y-26899204D01*
X98912459Y-26894402D01*
X98912459Y-26883504D01*
X99855328Y-26883504D01*
X99873624Y-26923568D01*
X99910676Y-26947380D01*
X100213052Y-26947380D01*
X100229536Y-26949750D01*
X100234726Y-26947380D01*
X100514908Y-26947380D01*
X100546386Y-26938137D01*
X100575228Y-26904851D01*
X100581496Y-26861256D01*
X100563200Y-26821192D01*
X100526148Y-26797380D01*
X100293412Y-26797380D01*
X100293412Y-26071248D01*
X100759746Y-26071248D01*
X100762460Y-26077792D01*
X100762460Y-26883162D01*
X100771703Y-26914640D01*
X100804989Y-26943482D01*
X100848584Y-26949750D01*
X100888648Y-26931454D01*
X100912460Y-26894402D01*
X100912460Y-26080563D01*
X100946719Y-26012045D01*
X100977125Y-25981638D01*
X101045641Y-25947380D01*
X101200706Y-25947380D01*
X101269223Y-25981639D01*
X101299629Y-26012045D01*
X101333888Y-26080561D01*
X101333888Y-26883162D01*
X101343131Y-26914640D01*
X101376417Y-26943482D01*
X101420012Y-26949750D01*
X101460076Y-26931454D01*
X101483888Y-26894402D01*
X101483888Y-26547438D01*
X101759746Y-26547438D01*
X101762460Y-26553982D01*
X101762460Y-26677864D01*
X101760529Y-26695748D01*
X101767385Y-26709461D01*
X101771703Y-26724164D01*
X101777056Y-26728802D01*
X101813791Y-26802271D01*
X101816474Y-26814603D01*
X101831101Y-26829230D01*
X101845163Y-26844348D01*
X101846581Y-26844710D01*
X101873016Y-26871145D01*
X101879460Y-26881995D01*
X101897969Y-26891249D01*
X101916083Y-26901140D01*
X101917541Y-26901035D01*
X101990787Y-26937658D01*
X102005914Y-26947380D01*
X102021244Y-26947380D01*
X102036327Y-26950094D01*
X102042871Y-26947380D01*
X102403528Y-26947380D01*
X102420012Y-26949750D01*
X102435164Y-26942830D01*
X102451148Y-26938137D01*
X102454884Y-26933824D01*
X102460076Y-26931454D01*
X102469083Y-26917437D01*
X102479990Y-26904851D01*
X102480801Y-26899204D01*
X102483888Y-26894402D01*
X102483888Y-26877740D01*
X102486258Y-26861256D01*
X102483888Y-26856066D01*
X102483888Y-26353931D01*
X102486258Y-26337447D01*
X102483888Y-26332257D01*
X102483888Y-25890470D01*
X102809035Y-25890470D01*
X102810079Y-25892297D01*
X102810079Y-26883162D01*
X102819322Y-26914640D01*
X102852608Y-26943482D01*
X102896203Y-26949750D01*
X102936267Y-26931454D01*
X102960079Y-26894402D01*
X102960079Y-26154797D01*
X103387025Y-26901954D01*
X103390750Y-26914640D01*
X103405913Y-26927779D01*
X103420381Y-26941697D01*
X103422446Y-26942104D01*
X103424036Y-26943482D01*
X103443896Y-26946337D01*
X103463591Y-26950224D01*
X103465548Y-26949450D01*
X103467631Y-26949750D01*
X103485886Y-26941413D01*
X103504552Y-26934037D01*
X103505780Y-26932328D01*
X103507695Y-26931454D01*
X103518545Y-26914569D01*
X103530260Y-26898274D01*
X103530369Y-26896171D01*
X103531507Y-26894402D01*
X103531507Y-26883162D01*
X103857697Y-26883162D01*
X103866940Y-26914640D01*
X103900226Y-26943482D01*
X103943821Y-26949750D01*
X103983885Y-26931454D01*
X104007697Y-26894402D01*
X104007697Y-25861598D01*
X103998454Y-25830120D01*
X103965168Y-25801278D01*
X103921573Y-25795010D01*
X103881509Y-25813306D01*
X103857697Y-25850358D01*
X103857697Y-26883162D01*
X103531507Y-26883162D01*
X103531507Y-26874333D01*
X103532551Y-26854290D01*
X103531507Y-26852463D01*
X103531507Y-25861598D01*
X103522264Y-25830120D01*
X103488978Y-25801278D01*
X103445383Y-25795010D01*
X103405319Y-25813306D01*
X103381507Y-25850358D01*
X103381507Y-26589963D01*
X102954560Y-25842805D01*
X102950836Y-25830120D01*
X102935672Y-25816980D01*
X102921205Y-25803063D01*
X102919139Y-25802655D01*
X102917550Y-25801278D01*
X102897689Y-25798422D01*
X102877995Y-25794536D01*
X102876037Y-25795309D01*
X102873955Y-25795010D01*
X102855699Y-25803346D01*
X102837034Y-25810723D01*
X102835805Y-25812431D01*
X102833891Y-25813306D01*
X102823040Y-25830190D01*
X102811326Y-25846486D01*
X102811216Y-25848588D01*
X102810079Y-25850358D01*
X102810079Y-25870427D01*
X102809035Y-25890470D01*
X102483888Y-25890470D01*
X102483888Y-25861598D01*
X102474645Y-25830120D01*
X102441359Y-25801278D01*
X102397764Y-25795010D01*
X102357700Y-25813306D01*
X102333888Y-25850358D01*
X102333888Y-26273571D01*
X102031967Y-26273571D01*
X102014092Y-26271641D01*
X102000382Y-26278495D01*
X101985676Y-26282814D01*
X101981036Y-26288168D01*
X101907567Y-26324902D01*
X101895237Y-26327585D01*
X101880617Y-26342204D01*
X101865492Y-26356274D01*
X101865129Y-26357692D01*
X101838694Y-26384127D01*
X101827845Y-26390571D01*
X101818594Y-26409071D01*
X101808699Y-26427194D01*
X101808803Y-26428654D01*
X101772183Y-26501895D01*
X101762460Y-26517025D01*
X101762460Y-26532355D01*
X101759746Y-26547438D01*
X101483888Y-26547438D01*
X101483888Y-26066888D01*
X101485818Y-26049013D01*
X101478963Y-26035303D01*
X101474645Y-26020597D01*
X101469290Y-26015957D01*
X101432556Y-25942488D01*
X101429874Y-25930158D01*
X101415254Y-25915538D01*
X101401185Y-25900413D01*
X101399766Y-25900050D01*
X101373333Y-25873617D01*
X101366889Y-25862767D01*
X101348392Y-25853518D01*
X101330265Y-25843620D01*
X101328804Y-25843724D01*
X101255561Y-25807101D01*
X101240434Y-25797380D01*
X101225105Y-25797380D01*
X101210022Y-25794666D01*
X101203478Y-25797380D01*
X101031976Y-25797380D01*
X101014092Y-25795449D01*
X101000378Y-25802305D01*
X100985676Y-25806623D01*
X100981036Y-25811976D01*
X100907566Y-25848712D01*
X100895237Y-25851395D01*
X100880612Y-25866019D01*
X100865492Y-25880085D01*
X100865129Y-25881502D01*
X100838694Y-25907937D01*
X100827845Y-25914381D01*
X100818594Y-25932881D01*
X100808699Y-25951004D01*
X100808803Y-25952464D01*
X100772183Y-26025705D01*
X100762460Y-26040835D01*
X100762460Y-26056165D01*
X100759746Y-26071248D01*
X100293412Y-26071248D01*
X100293412Y-25861598D01*
X100284169Y-25830120D01*
X100250883Y-25801278D01*
X100207288Y-25795010D01*
X100167224Y-25813306D01*
X100143412Y-25850358D01*
X100143412Y-26797380D01*
X99921916Y-26797380D01*
X99890438Y-26806623D01*
X99861596Y-26839909D01*
X99855328Y-26883504D01*
X98912459Y-26883504D01*
X98912459Y-26877740D01*
X98914829Y-26861256D01*
X98912459Y-26856066D01*
X98912459Y-26353931D01*
X98914829Y-26337447D01*
X98912459Y-26332257D01*
X98912459Y-25861598D01*
X98903216Y-25830120D01*
X98869930Y-25801278D01*
X98826335Y-25795010D01*
X98786271Y-25813306D01*
X98762459Y-25850358D01*
X98762459Y-26273571D01*
X98638413Y-26273571D01*
X98321290Y-25820537D01*
X98295667Y-25800050D01*
X98251858Y-25795510D01*
X98212549Y-25815375D01*
X98190219Y-25853339D01*
X98191960Y-25897348D01*
X98454888Y-26272960D01*
X98442663Y-26271641D01*
X98428953Y-26278495D01*
X98414247Y-26282814D01*
X98409607Y-26288168D01*
X98336138Y-26324902D01*
X98323808Y-26327585D01*
X98309188Y-26342204D01*
X98294063Y-26356274D01*
X98293700Y-26357692D01*
X98267265Y-26384127D01*
X98256416Y-26390571D01*
X98247165Y-26409071D01*
X98237270Y-26427194D01*
X98237374Y-26428654D01*
X98200754Y-26501895D01*
X98191031Y-26517025D01*
X98191031Y-26532355D01*
X98188317Y-26547438D01*
X97531507Y-26547438D01*
X97531507Y-26328333D01*
X97848241Y-26328333D01*
X97879719Y-26319090D01*
X97908561Y-26285804D01*
X97914829Y-26242209D01*
X97896533Y-26202145D01*
X97859481Y-26178333D01*
X97531507Y-26178333D01*
X97531507Y-25861598D01*
X97522264Y-25830120D01*
X97488978Y-25801278D01*
X97445383Y-25795010D01*
X97405319Y-25813306D01*
X97381507Y-25850358D01*
X97381507Y-26178333D01*
X97064773Y-26178333D01*
X97033295Y-26187576D01*
X97004453Y-26220862D01*
X96998185Y-26264457D01*
X96294603Y-26264457D01*
X96294603Y-25382143D01*
X104538650Y-25382143D01*
X104538650Y-27492857D01*
G37*
G36*
X126876287Y-26812704D02*
G01*
X126588041Y-26812704D01*
X126519523Y-26778445D01*
X126489116Y-26748038D01*
X126454859Y-26679523D01*
X126454859Y-26572077D01*
X126489118Y-26503559D01*
X126519523Y-26473153D01*
X126588039Y-26438895D01*
X126876287Y-26438895D01*
X126876287Y-26812704D01*
G37*
G36*
X129081049Y-27508181D02*
G01*
X121027478Y-27508181D01*
X121027478Y-26279781D01*
X121731060Y-26279781D01*
X121749356Y-26319845D01*
X121786408Y-26343657D01*
X122114382Y-26343657D01*
X122114382Y-26660391D01*
X122123625Y-26691869D01*
X122156911Y-26720711D01*
X122200506Y-26726979D01*
X122240570Y-26708683D01*
X122264382Y-26671631D01*
X122264382Y-26343657D01*
X122581116Y-26343657D01*
X122612594Y-26334414D01*
X122641436Y-26301128D01*
X122647704Y-26257533D01*
X122629408Y-26217469D01*
X122592356Y-26193657D01*
X122264382Y-26193657D01*
X122264382Y-25898828D01*
X122826298Y-25898828D01*
X122844594Y-25938892D01*
X122881646Y-25962704D01*
X123304858Y-25962704D01*
X123304858Y-26898486D01*
X123314101Y-26929964D01*
X123347387Y-26958806D01*
X123390982Y-26965074D01*
X123431046Y-26946778D01*
X123454858Y-26909726D01*
X123454858Y-26898828D01*
X124397727Y-26898828D01*
X124416023Y-26938892D01*
X124453075Y-26962704D01*
X124755451Y-26962704D01*
X124771935Y-26965074D01*
X124777125Y-26962704D01*
X125057307Y-26962704D01*
X125088785Y-26953461D01*
X125117627Y-26920175D01*
X125123895Y-26876580D01*
X125105599Y-26836516D01*
X125068547Y-26812704D01*
X124835811Y-26812704D01*
X124835811Y-26086572D01*
X125302145Y-26086572D01*
X125304859Y-26093116D01*
X125304859Y-26898486D01*
X125314102Y-26929964D01*
X125347388Y-26958806D01*
X125390983Y-26965074D01*
X125431047Y-26946778D01*
X125454859Y-26909726D01*
X125454859Y-26095887D01*
X125489118Y-26027369D01*
X125519524Y-25996962D01*
X125588040Y-25962704D01*
X125743105Y-25962704D01*
X125811622Y-25996963D01*
X125842028Y-26027369D01*
X125876287Y-26095885D01*
X125876287Y-26898486D01*
X125885530Y-26929964D01*
X125918816Y-26958806D01*
X125962411Y-26965074D01*
X126002475Y-26946778D01*
X126026287Y-26909726D01*
X126026287Y-26562762D01*
X126302145Y-26562762D01*
X126304859Y-26569306D01*
X126304859Y-26693188D01*
X126302928Y-26711072D01*
X126309784Y-26724785D01*
X126314102Y-26739488D01*
X126319455Y-26744126D01*
X126356190Y-26817595D01*
X126358873Y-26829927D01*
X126373500Y-26844554D01*
X126387562Y-26859672D01*
X126388980Y-26860034D01*
X126415415Y-26886469D01*
X126421859Y-26897319D01*
X126440368Y-26906573D01*
X126458482Y-26916464D01*
X126459940Y-26916359D01*
X126533186Y-26952982D01*
X126548313Y-26962704D01*
X126563643Y-26962704D01*
X126578726Y-26965418D01*
X126585270Y-26962704D01*
X126945927Y-26962704D01*
X126962411Y-26965074D01*
X126977563Y-26958154D01*
X126993547Y-26953461D01*
X126997283Y-26949148D01*
X127002475Y-26946778D01*
X127011482Y-26932761D01*
X127022389Y-26920175D01*
X127023200Y-26914528D01*
X127026287Y-26909726D01*
X127026287Y-26893064D01*
X127028657Y-26876580D01*
X127026287Y-26871390D01*
X127026287Y-26369255D01*
X127028657Y-26352771D01*
X127026287Y-26347581D01*
X127026287Y-25905794D01*
X127351434Y-25905794D01*
X127352478Y-25907621D01*
X127352478Y-26898486D01*
X127361721Y-26929964D01*
X127395007Y-26958806D01*
X127438602Y-26965074D01*
X127478666Y-26946778D01*
X127502478Y-26909726D01*
X127502478Y-26170121D01*
X127929424Y-26917278D01*
X127933149Y-26929964D01*
X127948312Y-26943103D01*
X127962780Y-26957021D01*
X127964845Y-26957428D01*
X127966435Y-26958806D01*
X127986295Y-26961661D01*
X128005990Y-26965548D01*
X128007947Y-26964774D01*
X128010030Y-26965074D01*
X128028285Y-26956737D01*
X128046951Y-26949361D01*
X128048179Y-26947652D01*
X128050094Y-26946778D01*
X128060944Y-26929893D01*
X128072659Y-26913598D01*
X128072768Y-26911495D01*
X128073906Y-26909726D01*
X128073906Y-26898486D01*
X128400096Y-26898486D01*
X128409339Y-26929964D01*
X128442625Y-26958806D01*
X128486220Y-26965074D01*
X128526284Y-26946778D01*
X128550096Y-26909726D01*
X128550096Y-25876922D01*
X128540853Y-25845444D01*
X128507567Y-25816602D01*
X128463972Y-25810334D01*
X128423908Y-25828630D01*
X128400096Y-25865682D01*
X128400096Y-26898486D01*
X128073906Y-26898486D01*
X128073906Y-26889657D01*
X128074950Y-26869614D01*
X128073906Y-26867787D01*
X128073906Y-25876922D01*
X128064663Y-25845444D01*
X128031377Y-25816602D01*
X127987782Y-25810334D01*
X127947718Y-25828630D01*
X127923906Y-25865682D01*
X127923906Y-26605287D01*
X127496959Y-25858129D01*
X127493235Y-25845444D01*
X127478071Y-25832304D01*
X127463604Y-25818387D01*
X127461538Y-25817979D01*
X127459949Y-25816602D01*
X127440088Y-25813746D01*
X127420394Y-25809860D01*
X127418436Y-25810633D01*
X127416354Y-25810334D01*
X127398098Y-25818670D01*
X127379433Y-25826047D01*
X127378204Y-25827755D01*
X127376290Y-25828630D01*
X127365439Y-25845514D01*
X127353725Y-25861810D01*
X127353615Y-25863912D01*
X127352478Y-25865682D01*
X127352478Y-25885751D01*
X127351434Y-25905794D01*
X127026287Y-25905794D01*
X127026287Y-25876922D01*
X127017044Y-25845444D01*
X126983758Y-25816602D01*
X126940163Y-25810334D01*
X126900099Y-25828630D01*
X126876287Y-25865682D01*
X126876287Y-26288895D01*
X126574366Y-26288895D01*
X126556491Y-26286965D01*
X126542781Y-26293819D01*
X126528075Y-26298138D01*
X126523435Y-26303492D01*
X126449966Y-26340226D01*
X126437636Y-26342909D01*
X126423016Y-26357528D01*
X126407891Y-26371598D01*
X126407528Y-26373016D01*
X126381093Y-26399451D01*
X126370244Y-26405895D01*
X126360993Y-26424395D01*
X126351098Y-26442518D01*
X126351202Y-26443978D01*
X126314582Y-26517219D01*
X126304859Y-26532349D01*
X126304859Y-26547679D01*
X126302145Y-26562762D01*
X126026287Y-26562762D01*
X126026287Y-26082212D01*
X126028217Y-26064337D01*
X126021362Y-26050627D01*
X126017044Y-26035921D01*
X126011689Y-26031281D01*
X125974955Y-25957812D01*
X125972273Y-25945482D01*
X125957653Y-25930862D01*
X125943584Y-25915737D01*
X125942165Y-25915374D01*
X125915732Y-25888941D01*
X125909288Y-25878091D01*
X125890791Y-25868842D01*
X125872664Y-25858944D01*
X125871203Y-25859048D01*
X125797960Y-25822425D01*
X125782833Y-25812704D01*
X125767504Y-25812704D01*
X125752421Y-25809990D01*
X125745877Y-25812704D01*
X125574375Y-25812704D01*
X125556491Y-25810773D01*
X125542777Y-25817629D01*
X125528075Y-25821947D01*
X125523435Y-25827300D01*
X125449965Y-25864036D01*
X125437636Y-25866719D01*
X125423011Y-25881343D01*
X125407891Y-25895409D01*
X125407528Y-25896826D01*
X125381093Y-25923261D01*
X125370244Y-25929705D01*
X125360993Y-25948205D01*
X125351098Y-25966328D01*
X125351202Y-25967788D01*
X125314582Y-26041029D01*
X125304859Y-26056159D01*
X125304859Y-26071489D01*
X125302145Y-26086572D01*
X124835811Y-26086572D01*
X124835811Y-25876922D01*
X124826568Y-25845444D01*
X124793282Y-25816602D01*
X124749687Y-25810334D01*
X124709623Y-25828630D01*
X124685811Y-25865682D01*
X124685811Y-26812704D01*
X124464315Y-26812704D01*
X124432837Y-26821947D01*
X124403995Y-26855233D01*
X124397727Y-26898828D01*
X123454858Y-26898828D01*
X123454858Y-25893064D01*
X123457228Y-25876580D01*
X123450308Y-25861427D01*
X123445615Y-25845444D01*
X123441302Y-25841707D01*
X123438932Y-25836516D01*
X123424915Y-25827508D01*
X123412329Y-25816602D01*
X123406682Y-25815790D01*
X123401880Y-25812704D01*
X123385218Y-25812704D01*
X123368734Y-25810334D01*
X123363544Y-25812704D01*
X122892886Y-25812704D01*
X122861408Y-25821947D01*
X122832566Y-25855233D01*
X122826298Y-25898828D01*
X122264382Y-25898828D01*
X122264382Y-25876922D01*
X122255139Y-25845444D01*
X122221853Y-25816602D01*
X122178258Y-25810334D01*
X122138194Y-25828630D01*
X122114382Y-25865682D01*
X122114382Y-26193657D01*
X121797648Y-26193657D01*
X121766170Y-26202900D01*
X121737328Y-26236186D01*
X121731060Y-26279781D01*
X121027478Y-26279781D01*
X121027478Y-25397467D01*
X129081049Y-25397467D01*
X129081049Y-27508181D01*
G37*
D12*
X87357142Y-61245000D02*
X88500000Y-61245000D01*
X87928571Y-61816428D02*
X87928571Y-60673571D01*
D11*
X117195523Y-54258095D02*
X116738380Y-54258095D01*
X116966952Y-54258095D02*
X116966952Y-53458095D01*
X116966952Y-53458095D02*
X116890761Y-53572380D01*
X116890761Y-53572380D02*
X116814571Y-53648571D01*
X116814571Y-53648571D02*
X116738380Y-53686666D01*
X117500285Y-53534285D02*
X117538381Y-53496190D01*
X117538381Y-53496190D02*
X117614571Y-53458095D01*
X117614571Y-53458095D02*
X117805047Y-53458095D01*
X117805047Y-53458095D02*
X117881238Y-53496190D01*
X117881238Y-53496190D02*
X117919333Y-53534285D01*
X117919333Y-53534285D02*
X117957428Y-53610476D01*
X117957428Y-53610476D02*
X117957428Y-53686666D01*
X117957428Y-53686666D02*
X117919333Y-53800952D01*
X117919333Y-53800952D02*
X117462190Y-54258095D01*
X117462190Y-54258095D02*
X117957428Y-54258095D01*
X118452667Y-53458095D02*
X118528857Y-53458095D01*
X118528857Y-53458095D02*
X118605048Y-53496190D01*
X118605048Y-53496190D02*
X118643143Y-53534285D01*
X118643143Y-53534285D02*
X118681238Y-53610476D01*
X118681238Y-53610476D02*
X118719333Y-53762857D01*
X118719333Y-53762857D02*
X118719333Y-53953333D01*
X118719333Y-53953333D02*
X118681238Y-54105714D01*
X118681238Y-54105714D02*
X118643143Y-54181904D01*
X118643143Y-54181904D02*
X118605048Y-54220000D01*
X118605048Y-54220000D02*
X118528857Y-54258095D01*
X118528857Y-54258095D02*
X118452667Y-54258095D01*
X118452667Y-54258095D02*
X118376476Y-54220000D01*
X118376476Y-54220000D02*
X118338381Y-54181904D01*
X118338381Y-54181904D02*
X118300286Y-54105714D01*
X118300286Y-54105714D02*
X118262190Y-53953333D01*
X118262190Y-53953333D02*
X118262190Y-53762857D01*
X118262190Y-53762857D02*
X118300286Y-53610476D01*
X118300286Y-53610476D02*
X118338381Y-53534285D01*
X118338381Y-53534285D02*
X118376476Y-53496190D01*
X118376476Y-53496190D02*
X118452667Y-53458095D01*
X119405048Y-53458095D02*
X119252667Y-53458095D01*
X119252667Y-53458095D02*
X119176476Y-53496190D01*
X119176476Y-53496190D02*
X119138381Y-53534285D01*
X119138381Y-53534285D02*
X119062191Y-53648571D01*
X119062191Y-53648571D02*
X119024095Y-53800952D01*
X119024095Y-53800952D02*
X119024095Y-54105714D01*
X119024095Y-54105714D02*
X119062191Y-54181904D01*
X119062191Y-54181904D02*
X119100286Y-54220000D01*
X119100286Y-54220000D02*
X119176476Y-54258095D01*
X119176476Y-54258095D02*
X119328857Y-54258095D01*
X119328857Y-54258095D02*
X119405048Y-54220000D01*
X119405048Y-54220000D02*
X119443143Y-54181904D01*
X119443143Y-54181904D02*
X119481238Y-54105714D01*
X119481238Y-54105714D02*
X119481238Y-53915238D01*
X119481238Y-53915238D02*
X119443143Y-53839047D01*
X119443143Y-53839047D02*
X119405048Y-53800952D01*
X119405048Y-53800952D02*
X119328857Y-53762857D01*
X119328857Y-53762857D02*
X119176476Y-53762857D01*
X119176476Y-53762857D02*
X119100286Y-53800952D01*
X119100286Y-53800952D02*
X119062191Y-53839047D01*
X119062191Y-53839047D02*
X119024095Y-53915238D01*
X120662191Y-54562857D02*
X120624096Y-54524761D01*
X120624096Y-54524761D02*
X120547905Y-54410476D01*
X120547905Y-54410476D02*
X120509810Y-54334285D01*
X120509810Y-54334285D02*
X120471715Y-54220000D01*
X120471715Y-54220000D02*
X120433620Y-54029523D01*
X120433620Y-54029523D02*
X120433620Y-53877142D01*
X120433620Y-53877142D02*
X120471715Y-53686666D01*
X120471715Y-53686666D02*
X120509810Y-53572380D01*
X120509810Y-53572380D02*
X120547905Y-53496190D01*
X120547905Y-53496190D02*
X120624096Y-53381904D01*
X120624096Y-53381904D02*
X120662191Y-53343809D01*
X120890762Y-53458095D02*
X121386000Y-53458095D01*
X121386000Y-53458095D02*
X121119334Y-53762857D01*
X121119334Y-53762857D02*
X121233619Y-53762857D01*
X121233619Y-53762857D02*
X121309810Y-53800952D01*
X121309810Y-53800952D02*
X121347905Y-53839047D01*
X121347905Y-53839047D02*
X121386000Y-53915238D01*
X121386000Y-53915238D02*
X121386000Y-54105714D01*
X121386000Y-54105714D02*
X121347905Y-54181904D01*
X121347905Y-54181904D02*
X121309810Y-54220000D01*
X121309810Y-54220000D02*
X121233619Y-54258095D01*
X121233619Y-54258095D02*
X121005048Y-54258095D01*
X121005048Y-54258095D02*
X120928857Y-54220000D01*
X120928857Y-54220000D02*
X120890762Y-54181904D01*
X121690762Y-53534285D02*
X121728858Y-53496190D01*
X121728858Y-53496190D02*
X121805048Y-53458095D01*
X121805048Y-53458095D02*
X121995524Y-53458095D01*
X121995524Y-53458095D02*
X122071715Y-53496190D01*
X122071715Y-53496190D02*
X122109810Y-53534285D01*
X122109810Y-53534285D02*
X122147905Y-53610476D01*
X122147905Y-53610476D02*
X122147905Y-53686666D01*
X122147905Y-53686666D02*
X122109810Y-53800952D01*
X122109810Y-53800952D02*
X121652667Y-54258095D01*
X121652667Y-54258095D02*
X122147905Y-54258095D01*
X122909810Y-54258095D02*
X122452667Y-54258095D01*
X122681239Y-54258095D02*
X122681239Y-53458095D01*
X122681239Y-53458095D02*
X122605048Y-53572380D01*
X122605048Y-53572380D02*
X122528858Y-53648571D01*
X122528858Y-53648571D02*
X122452667Y-53686666D01*
X123595525Y-53458095D02*
X123443144Y-53458095D01*
X123443144Y-53458095D02*
X123366953Y-53496190D01*
X123366953Y-53496190D02*
X123328858Y-53534285D01*
X123328858Y-53534285D02*
X123252668Y-53648571D01*
X123252668Y-53648571D02*
X123214572Y-53800952D01*
X123214572Y-53800952D02*
X123214572Y-54105714D01*
X123214572Y-54105714D02*
X123252668Y-54181904D01*
X123252668Y-54181904D02*
X123290763Y-54220000D01*
X123290763Y-54220000D02*
X123366953Y-54258095D01*
X123366953Y-54258095D02*
X123519334Y-54258095D01*
X123519334Y-54258095D02*
X123595525Y-54220000D01*
X123595525Y-54220000D02*
X123633620Y-54181904D01*
X123633620Y-54181904D02*
X123671715Y-54105714D01*
X123671715Y-54105714D02*
X123671715Y-53915238D01*
X123671715Y-53915238D02*
X123633620Y-53839047D01*
X123633620Y-53839047D02*
X123595525Y-53800952D01*
X123595525Y-53800952D02*
X123519334Y-53762857D01*
X123519334Y-53762857D02*
X123366953Y-53762857D01*
X123366953Y-53762857D02*
X123290763Y-53800952D01*
X123290763Y-53800952D02*
X123252668Y-53839047D01*
X123252668Y-53839047D02*
X123214572Y-53915238D01*
X123938382Y-54562857D02*
X123976477Y-54524761D01*
X123976477Y-54524761D02*
X124052668Y-54410476D01*
X124052668Y-54410476D02*
X124090763Y-54334285D01*
X124090763Y-54334285D02*
X124128858Y-54220000D01*
X124128858Y-54220000D02*
X124166954Y-54029523D01*
X124166954Y-54029523D02*
X124166954Y-53877142D01*
X124166954Y-53877142D02*
X124128858Y-53686666D01*
X124128858Y-53686666D02*
X124090763Y-53572380D01*
X124090763Y-53572380D02*
X124052668Y-53496190D01*
X124052668Y-53496190D02*
X123976477Y-53381904D01*
X123976477Y-53381904D02*
X123938382Y-53343809D01*
D10*
G36*
X83759712Y-26782402D02*
G01*
X83471466Y-26782402D01*
X83402948Y-26748143D01*
X83372541Y-26717736D01*
X83338284Y-26649221D01*
X83338284Y-26541775D01*
X83372543Y-26473257D01*
X83402948Y-26442851D01*
X83471464Y-26408593D01*
X83759712Y-26408593D01*
X83759712Y-26782402D01*
G37*
G36*
X85964474Y-27477879D02*
G01*
X77910903Y-27477879D01*
X77910903Y-26249479D01*
X78614485Y-26249479D01*
X78632781Y-26289543D01*
X78669833Y-26313355D01*
X79464541Y-26313355D01*
X79496019Y-26304112D01*
X79524861Y-26270826D01*
X79531129Y-26227231D01*
X79512833Y-26187167D01*
X79475781Y-26163355D01*
X78681073Y-26163355D01*
X78649595Y-26172598D01*
X78620753Y-26205884D01*
X78614485Y-26249479D01*
X77910903Y-26249479D01*
X77910903Y-25868526D01*
X79709723Y-25868526D01*
X79728019Y-25908590D01*
X79765071Y-25932402D01*
X80188283Y-25932402D01*
X80188283Y-26868184D01*
X80197526Y-26899662D01*
X80230812Y-26928504D01*
X80274407Y-26934772D01*
X80314471Y-26916476D01*
X80338283Y-26879424D01*
X80338283Y-26868526D01*
X81281152Y-26868526D01*
X81299448Y-26908590D01*
X81336500Y-26932402D01*
X81638876Y-26932402D01*
X81655360Y-26934772D01*
X81660550Y-26932402D01*
X81940732Y-26932402D01*
X81972210Y-26923159D01*
X82001052Y-26889873D01*
X82007320Y-26846278D01*
X81989024Y-26806214D01*
X81951972Y-26782402D01*
X81719236Y-26782402D01*
X81719236Y-26056270D01*
X82185570Y-26056270D01*
X82188284Y-26062814D01*
X82188284Y-26868184D01*
X82197527Y-26899662D01*
X82230813Y-26928504D01*
X82274408Y-26934772D01*
X82314472Y-26916476D01*
X82338284Y-26879424D01*
X82338284Y-26065585D01*
X82372543Y-25997067D01*
X82402949Y-25966660D01*
X82471465Y-25932402D01*
X82626530Y-25932402D01*
X82695047Y-25966661D01*
X82725453Y-25997067D01*
X82759712Y-26065583D01*
X82759712Y-26868184D01*
X82768955Y-26899662D01*
X82802241Y-26928504D01*
X82845836Y-26934772D01*
X82885900Y-26916476D01*
X82909712Y-26879424D01*
X82909712Y-26532460D01*
X83185570Y-26532460D01*
X83188284Y-26539004D01*
X83188284Y-26662886D01*
X83186353Y-26680770D01*
X83193209Y-26694483D01*
X83197527Y-26709186D01*
X83202880Y-26713824D01*
X83239615Y-26787293D01*
X83242298Y-26799625D01*
X83256925Y-26814252D01*
X83270987Y-26829370D01*
X83272405Y-26829732D01*
X83298840Y-26856167D01*
X83305284Y-26867017D01*
X83323793Y-26876271D01*
X83341907Y-26886162D01*
X83343365Y-26886057D01*
X83416611Y-26922680D01*
X83431738Y-26932402D01*
X83447068Y-26932402D01*
X83462151Y-26935116D01*
X83468695Y-26932402D01*
X83829352Y-26932402D01*
X83845836Y-26934772D01*
X83860988Y-26927852D01*
X83876972Y-26923159D01*
X83880708Y-26918846D01*
X83885900Y-26916476D01*
X83894907Y-26902459D01*
X83905814Y-26889873D01*
X83906625Y-26884226D01*
X83909712Y-26879424D01*
X83909712Y-26862762D01*
X83912082Y-26846278D01*
X83909712Y-26841088D01*
X83909712Y-26338953D01*
X83912082Y-26322469D01*
X83909712Y-26317279D01*
X83909712Y-25875492D01*
X84234859Y-25875492D01*
X84235903Y-25877319D01*
X84235903Y-26868184D01*
X84245146Y-26899662D01*
X84278432Y-26928504D01*
X84322027Y-26934772D01*
X84362091Y-26916476D01*
X84385903Y-26879424D01*
X84385903Y-26139819D01*
X84812849Y-26886976D01*
X84816574Y-26899662D01*
X84831737Y-26912801D01*
X84846205Y-26926719D01*
X84848270Y-26927126D01*
X84849860Y-26928504D01*
X84869720Y-26931359D01*
X84889415Y-26935246D01*
X84891372Y-26934472D01*
X84893455Y-26934772D01*
X84911710Y-26926435D01*
X84930376Y-26919059D01*
X84931604Y-26917350D01*
X84933519Y-26916476D01*
X84944369Y-26899591D01*
X84956084Y-26883296D01*
X84956193Y-26881193D01*
X84957331Y-26879424D01*
X84957331Y-26868184D01*
X85283521Y-26868184D01*
X85292764Y-26899662D01*
X85326050Y-26928504D01*
X85369645Y-26934772D01*
X85409709Y-26916476D01*
X85433521Y-26879424D01*
X85433521Y-25846620D01*
X85424278Y-25815142D01*
X85390992Y-25786300D01*
X85347397Y-25780032D01*
X85307333Y-25798328D01*
X85283521Y-25835380D01*
X85283521Y-26868184D01*
X84957331Y-26868184D01*
X84957331Y-26859355D01*
X84958375Y-26839312D01*
X84957331Y-26837485D01*
X84957331Y-25846620D01*
X84948088Y-25815142D01*
X84914802Y-25786300D01*
X84871207Y-25780032D01*
X84831143Y-25798328D01*
X84807331Y-25835380D01*
X84807331Y-26574985D01*
X84380384Y-25827827D01*
X84376660Y-25815142D01*
X84361496Y-25802002D01*
X84347029Y-25788085D01*
X84344963Y-25787677D01*
X84343374Y-25786300D01*
X84323513Y-25783444D01*
X84303819Y-25779558D01*
X84301861Y-25780331D01*
X84299779Y-25780032D01*
X84281523Y-25788368D01*
X84262858Y-25795745D01*
X84261629Y-25797453D01*
X84259715Y-25798328D01*
X84248864Y-25815212D01*
X84237150Y-25831508D01*
X84237040Y-25833610D01*
X84235903Y-25835380D01*
X84235903Y-25855449D01*
X84234859Y-25875492D01*
X83909712Y-25875492D01*
X83909712Y-25846620D01*
X83900469Y-25815142D01*
X83867183Y-25786300D01*
X83823588Y-25780032D01*
X83783524Y-25798328D01*
X83759712Y-25835380D01*
X83759712Y-26258593D01*
X83457791Y-26258593D01*
X83439916Y-26256663D01*
X83426206Y-26263517D01*
X83411500Y-26267836D01*
X83406860Y-26273190D01*
X83333391Y-26309924D01*
X83321061Y-26312607D01*
X83306441Y-26327226D01*
X83291316Y-26341296D01*
X83290953Y-26342714D01*
X83264518Y-26369149D01*
X83253669Y-26375593D01*
X83244418Y-26394093D01*
X83234523Y-26412216D01*
X83234627Y-26413676D01*
X83198007Y-26486917D01*
X83188284Y-26502047D01*
X83188284Y-26517377D01*
X83185570Y-26532460D01*
X82909712Y-26532460D01*
X82909712Y-26051910D01*
X82911642Y-26034035D01*
X82904787Y-26020325D01*
X82900469Y-26005619D01*
X82895114Y-26000979D01*
X82858380Y-25927510D01*
X82855698Y-25915180D01*
X82841078Y-25900560D01*
X82827009Y-25885435D01*
X82825590Y-25885072D01*
X82799157Y-25858639D01*
X82792713Y-25847789D01*
X82774216Y-25838540D01*
X82756089Y-25828642D01*
X82754628Y-25828746D01*
X82681385Y-25792123D01*
X82666258Y-25782402D01*
X82650929Y-25782402D01*
X82635846Y-25779688D01*
X82629302Y-25782402D01*
X82457800Y-25782402D01*
X82439916Y-25780471D01*
X82426202Y-25787327D01*
X82411500Y-25791645D01*
X82406860Y-25796998D01*
X82333390Y-25833734D01*
X82321061Y-25836417D01*
X82306436Y-25851041D01*
X82291316Y-25865107D01*
X82290953Y-25866524D01*
X82264518Y-25892959D01*
X82253669Y-25899403D01*
X82244418Y-25917903D01*
X82234523Y-25936026D01*
X82234627Y-25937486D01*
X82198007Y-26010727D01*
X82188284Y-26025857D01*
X82188284Y-26041187D01*
X82185570Y-26056270D01*
X81719236Y-26056270D01*
X81719236Y-25846620D01*
X81709993Y-25815142D01*
X81676707Y-25786300D01*
X81633112Y-25780032D01*
X81593048Y-25798328D01*
X81569236Y-25835380D01*
X81569236Y-26782402D01*
X81347740Y-26782402D01*
X81316262Y-26791645D01*
X81287420Y-26824931D01*
X81281152Y-26868526D01*
X80338283Y-26868526D01*
X80338283Y-25862762D01*
X80340653Y-25846278D01*
X80333733Y-25831125D01*
X80329040Y-25815142D01*
X80324727Y-25811405D01*
X80322357Y-25806214D01*
X80308340Y-25797206D01*
X80295754Y-25786300D01*
X80290107Y-25785488D01*
X80285305Y-25782402D01*
X80268643Y-25782402D01*
X80252159Y-25780032D01*
X80246969Y-25782402D01*
X79776311Y-25782402D01*
X79744833Y-25791645D01*
X79715991Y-25824931D01*
X79709723Y-25868526D01*
X77910903Y-25868526D01*
X77910903Y-25367165D01*
X85964474Y-25367165D01*
X85964474Y-27477879D01*
G37*
D11*
X116738380Y-49724285D02*
X116776476Y-49686190D01*
X116776476Y-49686190D02*
X116852666Y-49648095D01*
X116852666Y-49648095D02*
X117043142Y-49648095D01*
X117043142Y-49648095D02*
X117119333Y-49686190D01*
X117119333Y-49686190D02*
X117157428Y-49724285D01*
X117157428Y-49724285D02*
X117195523Y-49800476D01*
X117195523Y-49800476D02*
X117195523Y-49876666D01*
X117195523Y-49876666D02*
X117157428Y-49990952D01*
X117157428Y-49990952D02*
X116700285Y-50448095D01*
X116700285Y-50448095D02*
X117195523Y-50448095D01*
X117690762Y-49648095D02*
X117766952Y-49648095D01*
X117766952Y-49648095D02*
X117843143Y-49686190D01*
X117843143Y-49686190D02*
X117881238Y-49724285D01*
X117881238Y-49724285D02*
X117919333Y-49800476D01*
X117919333Y-49800476D02*
X117957428Y-49952857D01*
X117957428Y-49952857D02*
X117957428Y-50143333D01*
X117957428Y-50143333D02*
X117919333Y-50295714D01*
X117919333Y-50295714D02*
X117881238Y-50371904D01*
X117881238Y-50371904D02*
X117843143Y-50410000D01*
X117843143Y-50410000D02*
X117766952Y-50448095D01*
X117766952Y-50448095D02*
X117690762Y-50448095D01*
X117690762Y-50448095D02*
X117614571Y-50410000D01*
X117614571Y-50410000D02*
X117576476Y-50371904D01*
X117576476Y-50371904D02*
X117538381Y-50295714D01*
X117538381Y-50295714D02*
X117500285Y-50143333D01*
X117500285Y-50143333D02*
X117500285Y-49952857D01*
X117500285Y-49952857D02*
X117538381Y-49800476D01*
X117538381Y-49800476D02*
X117576476Y-49724285D01*
X117576476Y-49724285D02*
X117614571Y-49686190D01*
X117614571Y-49686190D02*
X117690762Y-49648095D01*
X118719333Y-50448095D02*
X118262190Y-50448095D01*
X118490762Y-50448095D02*
X118490762Y-49648095D01*
X118490762Y-49648095D02*
X118414571Y-49762380D01*
X118414571Y-49762380D02*
X118338381Y-49838571D01*
X118338381Y-49838571D02*
X118262190Y-49876666D01*
X119214572Y-49648095D02*
X119290762Y-49648095D01*
X119290762Y-49648095D02*
X119366953Y-49686190D01*
X119366953Y-49686190D02*
X119405048Y-49724285D01*
X119405048Y-49724285D02*
X119443143Y-49800476D01*
X119443143Y-49800476D02*
X119481238Y-49952857D01*
X119481238Y-49952857D02*
X119481238Y-50143333D01*
X119481238Y-50143333D02*
X119443143Y-50295714D01*
X119443143Y-50295714D02*
X119405048Y-50371904D01*
X119405048Y-50371904D02*
X119366953Y-50410000D01*
X119366953Y-50410000D02*
X119290762Y-50448095D01*
X119290762Y-50448095D02*
X119214572Y-50448095D01*
X119214572Y-50448095D02*
X119138381Y-50410000D01*
X119138381Y-50410000D02*
X119100286Y-50371904D01*
X119100286Y-50371904D02*
X119062191Y-50295714D01*
X119062191Y-50295714D02*
X119024095Y-50143333D01*
X119024095Y-50143333D02*
X119024095Y-49952857D01*
X119024095Y-49952857D02*
X119062191Y-49800476D01*
X119062191Y-49800476D02*
X119100286Y-49724285D01*
X119100286Y-49724285D02*
X119138381Y-49686190D01*
X119138381Y-49686190D02*
X119214572Y-49648095D01*
X120662191Y-50752857D02*
X120624096Y-50714761D01*
X120624096Y-50714761D02*
X120547905Y-50600476D01*
X120547905Y-50600476D02*
X120509810Y-50524285D01*
X120509810Y-50524285D02*
X120471715Y-50410000D01*
X120471715Y-50410000D02*
X120433620Y-50219523D01*
X120433620Y-50219523D02*
X120433620Y-50067142D01*
X120433620Y-50067142D02*
X120471715Y-49876666D01*
X120471715Y-49876666D02*
X120509810Y-49762380D01*
X120509810Y-49762380D02*
X120547905Y-49686190D01*
X120547905Y-49686190D02*
X120624096Y-49571904D01*
X120624096Y-49571904D02*
X120662191Y-49533809D01*
X121347905Y-49648095D02*
X120966953Y-49648095D01*
X120966953Y-49648095D02*
X120928857Y-50029047D01*
X120928857Y-50029047D02*
X120966953Y-49990952D01*
X120966953Y-49990952D02*
X121043143Y-49952857D01*
X121043143Y-49952857D02*
X121233619Y-49952857D01*
X121233619Y-49952857D02*
X121309810Y-49990952D01*
X121309810Y-49990952D02*
X121347905Y-50029047D01*
X121347905Y-50029047D02*
X121386000Y-50105238D01*
X121386000Y-50105238D02*
X121386000Y-50295714D01*
X121386000Y-50295714D02*
X121347905Y-50371904D01*
X121347905Y-50371904D02*
X121309810Y-50410000D01*
X121309810Y-50410000D02*
X121233619Y-50448095D01*
X121233619Y-50448095D02*
X121043143Y-50448095D01*
X121043143Y-50448095D02*
X120966953Y-50410000D01*
X120966953Y-50410000D02*
X120928857Y-50371904D01*
X121881239Y-49648095D02*
X121957429Y-49648095D01*
X121957429Y-49648095D02*
X122033620Y-49686190D01*
X122033620Y-49686190D02*
X122071715Y-49724285D01*
X122071715Y-49724285D02*
X122109810Y-49800476D01*
X122109810Y-49800476D02*
X122147905Y-49952857D01*
X122147905Y-49952857D02*
X122147905Y-50143333D01*
X122147905Y-50143333D02*
X122109810Y-50295714D01*
X122109810Y-50295714D02*
X122071715Y-50371904D01*
X122071715Y-50371904D02*
X122033620Y-50410000D01*
X122033620Y-50410000D02*
X121957429Y-50448095D01*
X121957429Y-50448095D02*
X121881239Y-50448095D01*
X121881239Y-50448095D02*
X121805048Y-50410000D01*
X121805048Y-50410000D02*
X121766953Y-50371904D01*
X121766953Y-50371904D02*
X121728858Y-50295714D01*
X121728858Y-50295714D02*
X121690762Y-50143333D01*
X121690762Y-50143333D02*
X121690762Y-49952857D01*
X121690762Y-49952857D02*
X121728858Y-49800476D01*
X121728858Y-49800476D02*
X121766953Y-49724285D01*
X121766953Y-49724285D02*
X121805048Y-49686190D01*
X121805048Y-49686190D02*
X121881239Y-49648095D01*
X122452667Y-49724285D02*
X122490763Y-49686190D01*
X122490763Y-49686190D02*
X122566953Y-49648095D01*
X122566953Y-49648095D02*
X122757429Y-49648095D01*
X122757429Y-49648095D02*
X122833620Y-49686190D01*
X122833620Y-49686190D02*
X122871715Y-49724285D01*
X122871715Y-49724285D02*
X122909810Y-49800476D01*
X122909810Y-49800476D02*
X122909810Y-49876666D01*
X122909810Y-49876666D02*
X122871715Y-49990952D01*
X122871715Y-49990952D02*
X122414572Y-50448095D01*
X122414572Y-50448095D02*
X122909810Y-50448095D01*
X123633620Y-49648095D02*
X123252668Y-49648095D01*
X123252668Y-49648095D02*
X123214572Y-50029047D01*
X123214572Y-50029047D02*
X123252668Y-49990952D01*
X123252668Y-49990952D02*
X123328858Y-49952857D01*
X123328858Y-49952857D02*
X123519334Y-49952857D01*
X123519334Y-49952857D02*
X123595525Y-49990952D01*
X123595525Y-49990952D02*
X123633620Y-50029047D01*
X123633620Y-50029047D02*
X123671715Y-50105238D01*
X123671715Y-50105238D02*
X123671715Y-50295714D01*
X123671715Y-50295714D02*
X123633620Y-50371904D01*
X123633620Y-50371904D02*
X123595525Y-50410000D01*
X123595525Y-50410000D02*
X123519334Y-50448095D01*
X123519334Y-50448095D02*
X123328858Y-50448095D01*
X123328858Y-50448095D02*
X123252668Y-50410000D01*
X123252668Y-50410000D02*
X123214572Y-50371904D01*
X123938382Y-50752857D02*
X123976477Y-50714761D01*
X123976477Y-50714761D02*
X124052668Y-50600476D01*
X124052668Y-50600476D02*
X124090763Y-50524285D01*
X124090763Y-50524285D02*
X124128858Y-50410000D01*
X124128858Y-50410000D02*
X124166954Y-50219523D01*
X124166954Y-50219523D02*
X124166954Y-50067142D01*
X124166954Y-50067142D02*
X124128858Y-49876666D01*
X124128858Y-49876666D02*
X124090763Y-49762380D01*
X124090763Y-49762380D02*
X124052668Y-49686190D01*
X124052668Y-49686190D02*
X123976477Y-49571904D01*
X123976477Y-49571904D02*
X123938382Y-49533809D01*
D10*
G36*
X145317064Y-26776055D02*
G01*
X145028818Y-26776055D01*
X144960300Y-26741796D01*
X144929893Y-26711389D01*
X144895636Y-26642874D01*
X144895636Y-26535428D01*
X144929895Y-26466910D01*
X144960300Y-26436504D01*
X145028816Y-26402246D01*
X145317064Y-26402246D01*
X145317064Y-26776055D01*
G37*
G36*
X141596713Y-26404116D02*
G01*
X141600413Y-26402246D01*
X141745635Y-26402246D01*
X141745635Y-26776055D01*
X141457389Y-26776055D01*
X141388871Y-26741796D01*
X141358464Y-26711389D01*
X141324207Y-26642874D01*
X141324207Y-26535428D01*
X141358466Y-26466910D01*
X141388871Y-26436504D01*
X141457387Y-26402246D01*
X141578668Y-26402246D01*
X141596713Y-26404116D01*
G37*
G36*
X147521826Y-27471532D02*
G01*
X139277779Y-27471532D01*
X139277779Y-26526113D01*
X141171493Y-26526113D01*
X141174207Y-26532657D01*
X141174207Y-26656539D01*
X141172276Y-26674423D01*
X141179132Y-26688136D01*
X141183450Y-26702839D01*
X141188803Y-26707477D01*
X141225538Y-26780946D01*
X141228221Y-26793278D01*
X141242848Y-26807905D01*
X141256910Y-26823023D01*
X141258328Y-26823385D01*
X141284763Y-26849820D01*
X141291207Y-26860670D01*
X141309716Y-26869924D01*
X141327830Y-26879815D01*
X141329288Y-26879710D01*
X141402534Y-26916333D01*
X141417661Y-26926055D01*
X141432991Y-26926055D01*
X141448074Y-26928769D01*
X141454618Y-26926055D01*
X141815275Y-26926055D01*
X141831759Y-26928425D01*
X141846911Y-26921505D01*
X141862895Y-26916812D01*
X141866631Y-26912499D01*
X141871823Y-26910129D01*
X141880830Y-26896112D01*
X141891737Y-26883526D01*
X141892548Y-26877879D01*
X141895635Y-26873077D01*
X141895635Y-26862179D01*
X142838504Y-26862179D01*
X142856800Y-26902243D01*
X142893852Y-26926055D01*
X143196228Y-26926055D01*
X143212712Y-26928425D01*
X143217902Y-26926055D01*
X143498084Y-26926055D01*
X143529562Y-26916812D01*
X143558404Y-26883526D01*
X143564672Y-26839931D01*
X143546376Y-26799867D01*
X143509324Y-26776055D01*
X143276588Y-26776055D01*
X143276588Y-26049923D01*
X143742922Y-26049923D01*
X143745636Y-26056467D01*
X143745636Y-26861837D01*
X143754879Y-26893315D01*
X143788165Y-26922157D01*
X143831760Y-26928425D01*
X143871824Y-26910129D01*
X143895636Y-26873077D01*
X143895636Y-26059238D01*
X143929895Y-25990720D01*
X143960301Y-25960313D01*
X144028817Y-25926055D01*
X144183882Y-25926055D01*
X144252399Y-25960314D01*
X144282805Y-25990720D01*
X144317064Y-26059236D01*
X144317064Y-26861837D01*
X144326307Y-26893315D01*
X144359593Y-26922157D01*
X144403188Y-26928425D01*
X144443252Y-26910129D01*
X144467064Y-26873077D01*
X144467064Y-26526113D01*
X144742922Y-26526113D01*
X144745636Y-26532657D01*
X144745636Y-26656539D01*
X144743705Y-26674423D01*
X144750561Y-26688136D01*
X144754879Y-26702839D01*
X144760232Y-26707477D01*
X144796967Y-26780946D01*
X144799650Y-26793278D01*
X144814277Y-26807905D01*
X144828339Y-26823023D01*
X144829757Y-26823385D01*
X144856192Y-26849820D01*
X144862636Y-26860670D01*
X144881145Y-26869924D01*
X144899259Y-26879815D01*
X144900717Y-26879710D01*
X144973963Y-26916333D01*
X144989090Y-26926055D01*
X145004420Y-26926055D01*
X145019503Y-26928769D01*
X145026047Y-26926055D01*
X145386704Y-26926055D01*
X145403188Y-26928425D01*
X145418340Y-26921505D01*
X145434324Y-26916812D01*
X145438060Y-26912499D01*
X145443252Y-26910129D01*
X145452259Y-26896112D01*
X145463166Y-26883526D01*
X145463977Y-26877879D01*
X145467064Y-26873077D01*
X145467064Y-26856415D01*
X145469434Y-26839931D01*
X145467064Y-26834741D01*
X145467064Y-26332606D01*
X145469434Y-26316122D01*
X145467064Y-26310932D01*
X145467064Y-25869145D01*
X145792211Y-25869145D01*
X145793255Y-25870972D01*
X145793255Y-26861837D01*
X145802498Y-26893315D01*
X145835784Y-26922157D01*
X145879379Y-26928425D01*
X145919443Y-26910129D01*
X145943255Y-26873077D01*
X145943255Y-26133472D01*
X146370201Y-26880629D01*
X146373926Y-26893315D01*
X146389089Y-26906454D01*
X146403557Y-26920372D01*
X146405622Y-26920779D01*
X146407212Y-26922157D01*
X146427072Y-26925012D01*
X146446767Y-26928899D01*
X146448724Y-26928125D01*
X146450807Y-26928425D01*
X146469062Y-26920088D01*
X146487728Y-26912712D01*
X146488956Y-26911003D01*
X146490871Y-26910129D01*
X146501721Y-26893244D01*
X146513436Y-26876949D01*
X146513545Y-26874846D01*
X146514683Y-26873077D01*
X146514683Y-26861837D01*
X146840873Y-26861837D01*
X146850116Y-26893315D01*
X146883402Y-26922157D01*
X146926997Y-26928425D01*
X146967061Y-26910129D01*
X146990873Y-26873077D01*
X146990873Y-25840273D01*
X146981630Y-25808795D01*
X146948344Y-25779953D01*
X146904749Y-25773685D01*
X146864685Y-25791981D01*
X146840873Y-25829033D01*
X146840873Y-26861837D01*
X146514683Y-26861837D01*
X146514683Y-26853008D01*
X146515727Y-26832965D01*
X146514683Y-26831138D01*
X146514683Y-25840273D01*
X146505440Y-25808795D01*
X146472154Y-25779953D01*
X146428559Y-25773685D01*
X146388495Y-25791981D01*
X146364683Y-25829033D01*
X146364683Y-26568638D01*
X145937736Y-25821480D01*
X145934012Y-25808795D01*
X145918848Y-25795655D01*
X145904381Y-25781738D01*
X145902315Y-25781330D01*
X145900726Y-25779953D01*
X145880865Y-25777097D01*
X145861171Y-25773211D01*
X145859213Y-25773984D01*
X145857131Y-25773685D01*
X145838875Y-25782021D01*
X145820210Y-25789398D01*
X145818981Y-25791106D01*
X145817067Y-25791981D01*
X145806216Y-25808865D01*
X145794502Y-25825161D01*
X145794392Y-25827263D01*
X145793255Y-25829033D01*
X145793255Y-25849102D01*
X145792211Y-25869145D01*
X145467064Y-25869145D01*
X145467064Y-25840273D01*
X145457821Y-25808795D01*
X145424535Y-25779953D01*
X145380940Y-25773685D01*
X145340876Y-25791981D01*
X145317064Y-25829033D01*
X145317064Y-26252246D01*
X145015143Y-26252246D01*
X144997268Y-26250316D01*
X144983558Y-26257170D01*
X144968852Y-26261489D01*
X144964212Y-26266843D01*
X144890743Y-26303577D01*
X144878413Y-26306260D01*
X144863793Y-26320879D01*
X144848668Y-26334949D01*
X144848305Y-26336367D01*
X144821870Y-26362802D01*
X144811021Y-26369246D01*
X144801770Y-26387746D01*
X144791875Y-26405869D01*
X144791979Y-26407329D01*
X144755359Y-26480570D01*
X144745636Y-26495700D01*
X144745636Y-26511030D01*
X144742922Y-26526113D01*
X144467064Y-26526113D01*
X144467064Y-26045563D01*
X144468994Y-26027688D01*
X144462139Y-26013978D01*
X144457821Y-25999272D01*
X144452466Y-25994632D01*
X144415732Y-25921163D01*
X144413050Y-25908833D01*
X144398430Y-25894213D01*
X144384361Y-25879088D01*
X144382942Y-25878725D01*
X144356509Y-25852292D01*
X144350065Y-25841442D01*
X144331568Y-25832193D01*
X144313441Y-25822295D01*
X144311980Y-25822399D01*
X144238737Y-25785776D01*
X144223610Y-25776055D01*
X144208281Y-25776055D01*
X144193198Y-25773341D01*
X144186654Y-25776055D01*
X144015152Y-25776055D01*
X143997268Y-25774124D01*
X143983554Y-25780980D01*
X143968852Y-25785298D01*
X143964212Y-25790651D01*
X143890742Y-25827387D01*
X143878413Y-25830070D01*
X143863788Y-25844694D01*
X143848668Y-25858760D01*
X143848305Y-25860177D01*
X143821870Y-25886612D01*
X143811021Y-25893056D01*
X143801770Y-25911556D01*
X143791875Y-25929679D01*
X143791979Y-25931139D01*
X143755359Y-26004380D01*
X143745636Y-26019510D01*
X143745636Y-26034840D01*
X143742922Y-26049923D01*
X143276588Y-26049923D01*
X143276588Y-25840273D01*
X143267345Y-25808795D01*
X143234059Y-25779953D01*
X143190464Y-25773685D01*
X143150400Y-25791981D01*
X143126588Y-25829033D01*
X143126588Y-26776055D01*
X142905092Y-26776055D01*
X142873614Y-26785298D01*
X142844772Y-26818584D01*
X142838504Y-26862179D01*
X141895635Y-26862179D01*
X141895635Y-26856415D01*
X141898005Y-26839931D01*
X141895635Y-26834741D01*
X141895635Y-26332606D01*
X141898005Y-26316122D01*
X141895635Y-26310932D01*
X141895635Y-25840273D01*
X141886392Y-25808795D01*
X141853106Y-25779953D01*
X141809511Y-25773685D01*
X141769447Y-25791981D01*
X141745635Y-25829033D01*
X141745635Y-26252246D01*
X141621589Y-26252246D01*
X141304466Y-25799212D01*
X141278843Y-25778725D01*
X141235034Y-25774185D01*
X141195725Y-25794050D01*
X141173395Y-25832014D01*
X141175136Y-25876023D01*
X141438064Y-26251635D01*
X141425839Y-26250316D01*
X141412129Y-26257170D01*
X141397423Y-26261489D01*
X141392783Y-26266843D01*
X141319314Y-26303577D01*
X141306984Y-26306260D01*
X141292364Y-26320879D01*
X141277239Y-26334949D01*
X141276876Y-26336367D01*
X141250441Y-26362802D01*
X141239592Y-26369246D01*
X141230341Y-26387746D01*
X141220446Y-26405869D01*
X141220550Y-26407329D01*
X141183930Y-26480570D01*
X141174207Y-26495700D01*
X141174207Y-26511030D01*
X141171493Y-26526113D01*
X139277779Y-26526113D01*
X139277779Y-26243132D01*
X139981361Y-26243132D01*
X139999657Y-26283196D01*
X140036709Y-26307008D01*
X140831417Y-26307008D01*
X140862895Y-26297765D01*
X140891737Y-26264479D01*
X140898005Y-26220884D01*
X140879709Y-26180820D01*
X140842657Y-26157008D01*
X140047949Y-26157008D01*
X140016471Y-26166251D01*
X139987629Y-26199537D01*
X139981361Y-26243132D01*
X139277779Y-26243132D01*
X139277779Y-25360818D01*
X147521826Y-25360818D01*
X147521826Y-27471532D01*
G37*
D12*
X138642857Y-60755000D02*
X137500000Y-60755000D01*
X87357142Y-56245000D02*
X88500000Y-56245000D01*
D10*
%TO.C,J2*%
X138350666Y-46900619D02*
X138350666Y-47614904D01*
X138350666Y-47614904D02*
X138303047Y-47757761D01*
X138303047Y-47757761D02*
X138207809Y-47853000D01*
X138207809Y-47853000D02*
X138064952Y-47900619D01*
X138064952Y-47900619D02*
X137969714Y-47900619D01*
X138779238Y-46995857D02*
X138826857Y-46948238D01*
X138826857Y-46948238D02*
X138922095Y-46900619D01*
X138922095Y-46900619D02*
X139160190Y-46900619D01*
X139160190Y-46900619D02*
X139255428Y-46948238D01*
X139255428Y-46948238D02*
X139303047Y-46995857D01*
X139303047Y-46995857D02*
X139350666Y-47091095D01*
X139350666Y-47091095D02*
X139350666Y-47186333D01*
X139350666Y-47186333D02*
X139303047Y-47329190D01*
X139303047Y-47329190D02*
X138731619Y-47900619D01*
X138731619Y-47900619D02*
X139350666Y-47900619D01*
%TO.C,J1*%
X86501666Y-69192619D02*
X86501666Y-69906904D01*
X86501666Y-69906904D02*
X86454047Y-70049761D01*
X86454047Y-70049761D02*
X86358809Y-70145000D01*
X86358809Y-70145000D02*
X86215952Y-70192619D01*
X86215952Y-70192619D02*
X86120714Y-70192619D01*
X87501666Y-70192619D02*
X86930238Y-70192619D01*
X87215952Y-70192619D02*
X87215952Y-69192619D01*
X87215952Y-69192619D02*
X87120714Y-69335476D01*
X87120714Y-69335476D02*
X87025476Y-69430714D01*
X87025476Y-69430714D02*
X86930238Y-69478333D01*
D13*
%TO.C,J6*%
X136736667Y-32212526D02*
X136736667Y-33119669D01*
X136736667Y-33119669D02*
X136676190Y-33301097D01*
X136676190Y-33301097D02*
X136555238Y-33422050D01*
X136555238Y-33422050D02*
X136373809Y-33482526D01*
X136373809Y-33482526D02*
X136252857Y-33482526D01*
X137885714Y-32212526D02*
X137643809Y-32212526D01*
X137643809Y-32212526D02*
X137522857Y-32273002D01*
X137522857Y-32273002D02*
X137462381Y-32333478D01*
X137462381Y-32333478D02*
X137341428Y-32514907D01*
X137341428Y-32514907D02*
X137280952Y-32756811D01*
X137280952Y-32756811D02*
X137280952Y-33240621D01*
X137280952Y-33240621D02*
X137341428Y-33361573D01*
X137341428Y-33361573D02*
X137401905Y-33422050D01*
X137401905Y-33422050D02*
X137522857Y-33482526D01*
X137522857Y-33482526D02*
X137764762Y-33482526D01*
X137764762Y-33482526D02*
X137885714Y-33422050D01*
X137885714Y-33422050D02*
X137946190Y-33361573D01*
X137946190Y-33361573D02*
X138006667Y-33240621D01*
X138006667Y-33240621D02*
X138006667Y-32938240D01*
X138006667Y-32938240D02*
X137946190Y-32817288D01*
X137946190Y-32817288D02*
X137885714Y-32756811D01*
X137885714Y-32756811D02*
X137764762Y-32696335D01*
X137764762Y-32696335D02*
X137522857Y-32696335D01*
X137522857Y-32696335D02*
X137401905Y-32756811D01*
X137401905Y-32756811D02*
X137341428Y-32817288D01*
X137341428Y-32817288D02*
X137280952Y-32938240D01*
%TO.C,J3*%
X118337063Y-32257526D02*
X118337063Y-33164669D01*
X118337063Y-33164669D02*
X118276586Y-33346097D01*
X118276586Y-33346097D02*
X118155634Y-33467050D01*
X118155634Y-33467050D02*
X117974205Y-33527526D01*
X117974205Y-33527526D02*
X117853253Y-33527526D01*
X118820872Y-32257526D02*
X119607063Y-32257526D01*
X119607063Y-32257526D02*
X119183729Y-32741335D01*
X119183729Y-32741335D02*
X119365158Y-32741335D01*
X119365158Y-32741335D02*
X119486110Y-32801811D01*
X119486110Y-32801811D02*
X119546586Y-32862288D01*
X119546586Y-32862288D02*
X119607063Y-32983240D01*
X119607063Y-32983240D02*
X119607063Y-33285621D01*
X119607063Y-33285621D02*
X119546586Y-33406573D01*
X119546586Y-33406573D02*
X119486110Y-33467050D01*
X119486110Y-33467050D02*
X119365158Y-33527526D01*
X119365158Y-33527526D02*
X119002301Y-33527526D01*
X119002301Y-33527526D02*
X118881348Y-33467050D01*
X118881348Y-33467050D02*
X118820872Y-33406573D01*
%TO.C,J5*%
X99937460Y-32212526D02*
X99937460Y-33119669D01*
X99937460Y-33119669D02*
X99876983Y-33301097D01*
X99876983Y-33301097D02*
X99756031Y-33422050D01*
X99756031Y-33422050D02*
X99574602Y-33482526D01*
X99574602Y-33482526D02*
X99453650Y-33482526D01*
X101146983Y-32212526D02*
X100542221Y-32212526D01*
X100542221Y-32212526D02*
X100481745Y-32817288D01*
X100481745Y-32817288D02*
X100542221Y-32756811D01*
X100542221Y-32756811D02*
X100663174Y-32696335D01*
X100663174Y-32696335D02*
X100965555Y-32696335D01*
X100965555Y-32696335D02*
X101086507Y-32756811D01*
X101086507Y-32756811D02*
X101146983Y-32817288D01*
X101146983Y-32817288D02*
X101207460Y-32938240D01*
X101207460Y-32938240D02*
X101207460Y-33240621D01*
X101207460Y-33240621D02*
X101146983Y-33361573D01*
X101146983Y-33361573D02*
X101086507Y-33422050D01*
X101086507Y-33422050D02*
X100965555Y-33482526D01*
X100965555Y-33482526D02*
X100663174Y-33482526D01*
X100663174Y-33482526D02*
X100542221Y-33422050D01*
X100542221Y-33422050D02*
X100481745Y-33361573D01*
D10*
%TO.C,R3*%
X109053333Y-58374619D02*
X108720000Y-57898428D01*
X108481905Y-58374619D02*
X108481905Y-57374619D01*
X108481905Y-57374619D02*
X108862857Y-57374619D01*
X108862857Y-57374619D02*
X108958095Y-57422238D01*
X108958095Y-57422238D02*
X109005714Y-57469857D01*
X109005714Y-57469857D02*
X109053333Y-57565095D01*
X109053333Y-57565095D02*
X109053333Y-57707952D01*
X109053333Y-57707952D02*
X109005714Y-57803190D01*
X109005714Y-57803190D02*
X108958095Y-57850809D01*
X108958095Y-57850809D02*
X108862857Y-57898428D01*
X108862857Y-57898428D02*
X108481905Y-57898428D01*
X109386667Y-57374619D02*
X110005714Y-57374619D01*
X110005714Y-57374619D02*
X109672381Y-57755571D01*
X109672381Y-57755571D02*
X109815238Y-57755571D01*
X109815238Y-57755571D02*
X109910476Y-57803190D01*
X109910476Y-57803190D02*
X109958095Y-57850809D01*
X109958095Y-57850809D02*
X110005714Y-57946047D01*
X110005714Y-57946047D02*
X110005714Y-58184142D01*
X110005714Y-58184142D02*
X109958095Y-58279380D01*
X109958095Y-58279380D02*
X109910476Y-58327000D01*
X109910476Y-58327000D02*
X109815238Y-58374619D01*
X109815238Y-58374619D02*
X109529524Y-58374619D01*
X109529524Y-58374619D02*
X109434286Y-58327000D01*
X109434286Y-58327000D02*
X109386667Y-58279380D01*
%TO.C,R1*%
X107275333Y-50246619D02*
X106942000Y-49770428D01*
X106703905Y-50246619D02*
X106703905Y-49246619D01*
X106703905Y-49246619D02*
X107084857Y-49246619D01*
X107084857Y-49246619D02*
X107180095Y-49294238D01*
X107180095Y-49294238D02*
X107227714Y-49341857D01*
X107227714Y-49341857D02*
X107275333Y-49437095D01*
X107275333Y-49437095D02*
X107275333Y-49579952D01*
X107275333Y-49579952D02*
X107227714Y-49675190D01*
X107227714Y-49675190D02*
X107180095Y-49722809D01*
X107180095Y-49722809D02*
X107084857Y-49770428D01*
X107084857Y-49770428D02*
X106703905Y-49770428D01*
X108227714Y-50246619D02*
X107656286Y-50246619D01*
X107942000Y-50246619D02*
X107942000Y-49246619D01*
X107942000Y-49246619D02*
X107846762Y-49389476D01*
X107846762Y-49389476D02*
X107751524Y-49484714D01*
X107751524Y-49484714D02*
X107656286Y-49532333D01*
%TO.C,R4*%
X111847333Y-62438619D02*
X111514000Y-61962428D01*
X111275905Y-62438619D02*
X111275905Y-61438619D01*
X111275905Y-61438619D02*
X111656857Y-61438619D01*
X111656857Y-61438619D02*
X111752095Y-61486238D01*
X111752095Y-61486238D02*
X111799714Y-61533857D01*
X111799714Y-61533857D02*
X111847333Y-61629095D01*
X111847333Y-61629095D02*
X111847333Y-61771952D01*
X111847333Y-61771952D02*
X111799714Y-61867190D01*
X111799714Y-61867190D02*
X111752095Y-61914809D01*
X111752095Y-61914809D02*
X111656857Y-61962428D01*
X111656857Y-61962428D02*
X111275905Y-61962428D01*
X112704476Y-61771952D02*
X112704476Y-62438619D01*
X112466381Y-61391000D02*
X112228286Y-62105285D01*
X112228286Y-62105285D02*
X112847333Y-62105285D01*
D13*
%TO.C,J4*%
X81491667Y-32212526D02*
X81491667Y-33119669D01*
X81491667Y-33119669D02*
X81431190Y-33301097D01*
X81431190Y-33301097D02*
X81310238Y-33422050D01*
X81310238Y-33422050D02*
X81128809Y-33482526D01*
X81128809Y-33482526D02*
X81007857Y-33482526D01*
X82640714Y-32635859D02*
X82640714Y-33482526D01*
X82338333Y-32152050D02*
X82035952Y-33059192D01*
X82035952Y-33059192D02*
X82822143Y-33059192D01*
D10*
%TO.C,R2*%
X108037333Y-54770619D02*
X107704000Y-54294428D01*
X107465905Y-54770619D02*
X107465905Y-53770619D01*
X107465905Y-53770619D02*
X107846857Y-53770619D01*
X107846857Y-53770619D02*
X107942095Y-53818238D01*
X107942095Y-53818238D02*
X107989714Y-53865857D01*
X107989714Y-53865857D02*
X108037333Y-53961095D01*
X108037333Y-53961095D02*
X108037333Y-54103952D01*
X108037333Y-54103952D02*
X107989714Y-54199190D01*
X107989714Y-54199190D02*
X107942095Y-54246809D01*
X107942095Y-54246809D02*
X107846857Y-54294428D01*
X107846857Y-54294428D02*
X107465905Y-54294428D01*
X108418286Y-53865857D02*
X108465905Y-53818238D01*
X108465905Y-53818238D02*
X108561143Y-53770619D01*
X108561143Y-53770619D02*
X108799238Y-53770619D01*
X108799238Y-53770619D02*
X108894476Y-53818238D01*
X108894476Y-53818238D02*
X108942095Y-53865857D01*
X108942095Y-53865857D02*
X108989714Y-53961095D01*
X108989714Y-53961095D02*
X108989714Y-54056333D01*
X108989714Y-54056333D02*
X108942095Y-54199190D01*
X108942095Y-54199190D02*
X108370667Y-54770619D01*
X108370667Y-54770619D02*
X108989714Y-54770619D01*
D14*
%TO.C,J2*%
X125384000Y-54083000D02*
X128304000Y-54083000D01*
X125384000Y-62983000D02*
X125384000Y-54083000D01*
X125384000Y-63023000D02*
X128304000Y-63023000D01*
X128304000Y-49333000D02*
X130934000Y-49333000D01*
X128304000Y-54083000D02*
X128304000Y-49333000D01*
X128304000Y-67773000D02*
X128304000Y-63023000D01*
X130934000Y-67773000D02*
X128304000Y-67773000D01*
X133734000Y-49333000D02*
X137334000Y-49333000D01*
X137334000Y-67773000D02*
X133734000Y-67773000D01*
X139739000Y-53320000D02*
X149660000Y-53320000D01*
X139739000Y-63600000D02*
X139739000Y-53320000D01*
X139739000Y-63600000D02*
X149660000Y-63600000D01*
X140034000Y-49333000D02*
X143634000Y-49333000D01*
X142699000Y-63600000D02*
X142699000Y-53320000D01*
X143634000Y-67773000D02*
X140034000Y-67773000D01*
X143725000Y-54850000D02*
X143761000Y-54885000D01*
X143931000Y-54645000D02*
X143977000Y-54692000D01*
X146023000Y-57147000D02*
X146069000Y-57194000D01*
X146239000Y-56954000D02*
X146274000Y-56989000D01*
X147600000Y-63600000D02*
X147600000Y-53320000D01*
X149100000Y-63600000D02*
X149100000Y-53320000D01*
X149154000Y-49333000D02*
X146434000Y-49333000D01*
X149154000Y-52733000D02*
X149154000Y-49333000D01*
X149154000Y-52733000D02*
X152154000Y-52733000D01*
X149154000Y-64373000D02*
X152154000Y-64373000D01*
X149154000Y-67773000D02*
X146434000Y-67773000D01*
X149154000Y-67773000D02*
X149154000Y-64373000D01*
X149160000Y-63840000D02*
X149900000Y-63840000D01*
X149660000Y-63600000D02*
X149660000Y-53320000D01*
X149900000Y-63840000D02*
X149900000Y-63340000D01*
X152154000Y-64373000D02*
X152154000Y-52733000D01*
X143465000Y-60316000D02*
G75*
G03*
X143464574Y-61683042I1535000J-684000D01*
G01*
X145684000Y-59465000D02*
G75*
G03*
X144316958Y-59464574I-684000J-1535000D01*
G01*
X144316000Y-62535000D02*
G75*
G03*
X145683042Y-62535426I684000J1535000D01*
G01*
X146679999Y-61000000D02*
G75*
G03*
X146534755Y-60316682I-1679999J0D01*
G01*
X146534999Y-61684000D02*
G75*
G03*
X146680252Y-60971195I-1534999J684000D01*
G01*
X146680000Y-55920000D02*
G75*
G03*
X146680000Y-55920000I-1680000J0D01*
G01*
%TO.C,J1*%
X100135000Y-63085000D02*
X97215000Y-63085000D01*
X100135000Y-54185000D02*
X100135000Y-63085000D01*
X100135000Y-54145000D02*
X97215000Y-54145000D01*
X97215000Y-67835000D02*
X94585000Y-67835000D01*
X97215000Y-63085000D02*
X97215000Y-67835000D01*
X97215000Y-49395000D02*
X97215000Y-54145000D01*
X94585000Y-49395000D02*
X97215000Y-49395000D01*
X91785000Y-67835000D02*
X88185000Y-67835000D01*
X88185000Y-49395000D02*
X91785000Y-49395000D01*
X85780000Y-63848000D02*
X75859000Y-63848000D01*
X85780000Y-53568000D02*
X85780000Y-63848000D01*
X85780000Y-53568000D02*
X75859000Y-53568000D01*
X85485000Y-67835000D02*
X81885000Y-67835000D01*
X82820000Y-53568000D02*
X82820000Y-63848000D01*
X81885000Y-49395000D02*
X85485000Y-49395000D01*
X81794000Y-62318000D02*
X81758000Y-62283000D01*
X81588000Y-62523000D02*
X81542000Y-62476000D01*
X79496000Y-60021000D02*
X79450000Y-59974000D01*
X79280000Y-60214000D02*
X79245000Y-60179000D01*
X77919000Y-53568000D02*
X77919000Y-63848000D01*
X76419000Y-53568000D02*
X76419000Y-63848000D01*
X76365000Y-67835000D02*
X79085000Y-67835000D01*
X76365000Y-64435000D02*
X76365000Y-67835000D01*
X76365000Y-64435000D02*
X73365000Y-64435000D01*
X76365000Y-52795000D02*
X73365000Y-52795000D01*
X76365000Y-49395000D02*
X79085000Y-49395000D01*
X76365000Y-49395000D02*
X76365000Y-52795000D01*
X76359000Y-53328000D02*
X75619000Y-53328000D01*
X75859000Y-53568000D02*
X75859000Y-63848000D01*
X75619000Y-53328000D02*
X75619000Y-53828000D01*
X73365000Y-52795000D02*
X73365000Y-64435000D01*
X82054000Y-56852000D02*
G75*
G03*
X82054426Y-55484958I-1535000J684000D01*
G01*
X79835000Y-57703000D02*
G75*
G03*
X81202042Y-57703426I684000J1535000D01*
G01*
X81203000Y-54633000D02*
G75*
G03*
X79835958Y-54632574I-684000J-1535000D01*
G01*
X78839001Y-56168000D02*
G75*
G03*
X78984245Y-56851318I1679999J0D01*
G01*
X78984001Y-55484000D02*
G75*
G03*
X78838748Y-56196805I1534999J-684000D01*
G01*
X82199000Y-61248000D02*
G75*
G03*
X82199000Y-61248000I-1680000J0D01*
G01*
D11*
%TO.C,J6*%
X146400000Y-34165000D02*
X146400000Y-34165000D01*
X146400000Y-34165000D02*
X146400000Y-34165000D01*
X146500000Y-34165000D02*
X146500000Y-34165000D01*
X146500000Y-34165000D02*
G75*
G03*
X146400000Y-34165000I-50000J0D01*
G01*
X146400000Y-34165000D02*
G75*
G03*
X146500000Y-34165000I50000J0D01*
G01*
X146400000Y-34165000D02*
G75*
G03*
X146500000Y-34165000I50000J0D01*
G01*
%TO.C,J3*%
X128000396Y-34210000D02*
X128000396Y-34210000D01*
X128000396Y-34210000D02*
X128000396Y-34210000D01*
X128100396Y-34210000D02*
X128100396Y-34210000D01*
X128100396Y-34210000D02*
G75*
G03*
X128000396Y-34210000I-50000J0D01*
G01*
X128000396Y-34210000D02*
G75*
G03*
X128100396Y-34210000I50000J0D01*
G01*
X128000396Y-34210000D02*
G75*
G03*
X128100396Y-34210000I50000J0D01*
G01*
%TO.C,J5*%
X109600793Y-34165000D02*
X109600793Y-34165000D01*
X109600793Y-34165000D02*
X109600793Y-34165000D01*
X109700793Y-34165000D02*
X109700793Y-34165000D01*
X109700793Y-34165000D02*
G75*
G03*
X109600793Y-34165000I-50000J0D01*
G01*
X109600793Y-34165000D02*
G75*
G03*
X109700793Y-34165000I50000J0D01*
G01*
X109600793Y-34165000D02*
G75*
G03*
X109700793Y-34165000I50000J0D01*
G01*
D14*
%TO.C,R3*%
X112024936Y-57177000D02*
X112479064Y-57177000D01*
X112024936Y-58647000D02*
X112479064Y-58647000D01*
%TO.C,R1*%
X110724936Y-48536000D02*
X113779064Y-48536000D01*
X110724936Y-51256000D02*
X113779064Y-51256000D01*
%TO.C,R4*%
X107040000Y-62000000D02*
X107730000Y-62000000D01*
X107730000Y-60280000D02*
X107730000Y-63720000D01*
X107730000Y-63720000D02*
X116970000Y-63720000D01*
X116970000Y-60280000D02*
X107730000Y-60280000D01*
X116970000Y-63720000D02*
X116970000Y-60280000D01*
X117660000Y-62000000D02*
X116970000Y-62000000D01*
D11*
%TO.C,J4*%
X91155000Y-34165000D02*
X91155000Y-34165000D01*
X91155000Y-34165000D02*
X91155000Y-34165000D01*
X91255000Y-34165000D02*
X91255000Y-34165000D01*
X91255000Y-34165000D02*
G75*
G03*
X91155000Y-34165000I-50000J0D01*
G01*
X91155000Y-34165000D02*
G75*
G03*
X91255000Y-34165000I50000J0D01*
G01*
X91155000Y-34165000D02*
G75*
G03*
X91255000Y-34165000I50000J0D01*
G01*
D14*
%TO.C,R2*%
X111524936Y-53446000D02*
X112979064Y-53446000D01*
X111524936Y-55266000D02*
X112979064Y-55266000D01*
%TD*%
%LPC*%
D15*
%TO.C,J2*%
X138684000Y-50438000D03*
X138684000Y-66668000D03*
X145034000Y-50438000D03*
D16*
X145000000Y-61000000D03*
D15*
X145034000Y-66668000D03*
X132334000Y-50438000D03*
D17*
X145000000Y-55920000D03*
D15*
X132334000Y-66668000D03*
%TD*%
%TO.C,J1*%
X86835000Y-66730000D03*
X86835000Y-50500000D03*
X80485000Y-66730000D03*
D16*
X80519000Y-56168000D03*
D15*
X80485000Y-50500000D03*
X93185000Y-66730000D03*
D17*
X80519000Y-61248000D03*
D15*
X93185000Y-50500000D03*
%TD*%
D18*
%TO.C,J6*%
X139700000Y-34165000D03*
D19*
X139700000Y-29845000D03*
X143430000Y-36325000D03*
X135970000Y-36325000D03*
%TD*%
D18*
%TO.C,J3*%
X121300396Y-34210000D03*
D19*
X121300396Y-29890000D03*
X125030396Y-36370000D03*
X117570396Y-36370000D03*
%TD*%
D18*
%TO.C,J5*%
X102900793Y-34165000D03*
D19*
X102900793Y-29845000D03*
X106630793Y-36325000D03*
X99170793Y-36325000D03*
%TD*%
D20*
%TO.C,R3*%
X111252000Y-57912000D03*
X113252000Y-57912000D03*
%TD*%
D21*
%TO.C,R1*%
X109852000Y-49896000D03*
X114652000Y-49896000D03*
%TD*%
D22*
%TO.C,R4*%
X106000000Y-62000000D03*
D23*
X118700000Y-62000000D03*
%TD*%
D18*
%TO.C,J4*%
X84455000Y-34165000D03*
D19*
X84455000Y-29845000D03*
X88185000Y-36325000D03*
X80725000Y-36325000D03*
%TD*%
D24*
%TO.C,R2*%
X110702000Y-54356000D03*
X113802000Y-54356000D03*
%TD*%
M02*
