%TF.GenerationSoftware,KiCad,Pcbnew,7.0.1*%
%TF.CreationDate,2023-08-03T02:37:53+01:00*%
%TF.ProjectId,QA403 Impedance Fixture,51413430-3320-4496-9d70-6564616e6365,rev?*%
%TF.SameCoordinates,Original*%
%TF.FileFunction,Drillmap*%
%TF.FilePolarity,Positive*%
%FSLAX45Y45*%
G04 Gerber Fmt 4.5, Leading zero omitted, Abs format (unit mm)*
G04 Created by KiCad (PCBNEW 7.0.1) date 2023-08-03 02:37:53*
%MOMM*%
%LPD*%
G01*
G04 APERTURE LIST*
%ADD10C,0.100000*%
%ADD11C,0.200000*%
G04 APERTURE END LIST*
D10*
X7850000Y-2500000D02*
G75*
G03*
X7550000Y-2800000I0J-300000D01*
G01*
X15000000Y-2800000D02*
G75*
G03*
X14700000Y-2500000I-300000J0D01*
G01*
X7550000Y-6600000D02*
X7550000Y-2800000D01*
X7850000Y-2500000D02*
X14700000Y-2500000D01*
X15000000Y-2800000D02*
X15000000Y-6600000D01*
X14700000Y-6900000D02*
X7850000Y-6900000D01*
X7550000Y-6600000D02*
G75*
G03*
X7850000Y-6900000I300000J0D01*
G01*
X14700000Y-6900000D02*
G75*
G03*
X15000000Y-6600000I0J300000D01*
G01*
D11*
X7792619Y-7217524D02*
X7792619Y-7017524D01*
X7792619Y-7017524D02*
X7840238Y-7017524D01*
X7840238Y-7017524D02*
X7868809Y-7027048D01*
X7868809Y-7027048D02*
X7887857Y-7046095D01*
X7887857Y-7046095D02*
X7897381Y-7065143D01*
X7897381Y-7065143D02*
X7906905Y-7103238D01*
X7906905Y-7103238D02*
X7906905Y-7131809D01*
X7906905Y-7131809D02*
X7897381Y-7169905D01*
X7897381Y-7169905D02*
X7887857Y-7188952D01*
X7887857Y-7188952D02*
X7868809Y-7208000D01*
X7868809Y-7208000D02*
X7840238Y-7217524D01*
X7840238Y-7217524D02*
X7792619Y-7217524D01*
X7992619Y-7217524D02*
X7992619Y-7084190D01*
X7992619Y-7122286D02*
X8002143Y-7103238D01*
X8002143Y-7103238D02*
X8011667Y-7093714D01*
X8011667Y-7093714D02*
X8030714Y-7084190D01*
X8030714Y-7084190D02*
X8049762Y-7084190D01*
X8116428Y-7217524D02*
X8116428Y-7084190D01*
X8116428Y-7017524D02*
X8106905Y-7027048D01*
X8106905Y-7027048D02*
X8116428Y-7036571D01*
X8116428Y-7036571D02*
X8125952Y-7027048D01*
X8125952Y-7027048D02*
X8116428Y-7017524D01*
X8116428Y-7017524D02*
X8116428Y-7036571D01*
X8240238Y-7217524D02*
X8221190Y-7208000D01*
X8221190Y-7208000D02*
X8211667Y-7188952D01*
X8211667Y-7188952D02*
X8211667Y-7017524D01*
X8345000Y-7217524D02*
X8325952Y-7208000D01*
X8325952Y-7208000D02*
X8316428Y-7188952D01*
X8316428Y-7188952D02*
X8316428Y-7017524D01*
X8573571Y-7217524D02*
X8573571Y-7017524D01*
X8573571Y-7017524D02*
X8640238Y-7160381D01*
X8640238Y-7160381D02*
X8706905Y-7017524D01*
X8706905Y-7017524D02*
X8706905Y-7217524D01*
X8887857Y-7217524D02*
X8887857Y-7112762D01*
X8887857Y-7112762D02*
X8878333Y-7093714D01*
X8878333Y-7093714D02*
X8859286Y-7084190D01*
X8859286Y-7084190D02*
X8821190Y-7084190D01*
X8821190Y-7084190D02*
X8802143Y-7093714D01*
X8887857Y-7208000D02*
X8868810Y-7217524D01*
X8868810Y-7217524D02*
X8821190Y-7217524D01*
X8821190Y-7217524D02*
X8802143Y-7208000D01*
X8802143Y-7208000D02*
X8792619Y-7188952D01*
X8792619Y-7188952D02*
X8792619Y-7169905D01*
X8792619Y-7169905D02*
X8802143Y-7150857D01*
X8802143Y-7150857D02*
X8821190Y-7141333D01*
X8821190Y-7141333D02*
X8868810Y-7141333D01*
X8868810Y-7141333D02*
X8887857Y-7131809D01*
X8983095Y-7084190D02*
X8983095Y-7284190D01*
X8983095Y-7093714D02*
X9002143Y-7084190D01*
X9002143Y-7084190D02*
X9040238Y-7084190D01*
X9040238Y-7084190D02*
X9059286Y-7093714D01*
X9059286Y-7093714D02*
X9068810Y-7103238D01*
X9068810Y-7103238D02*
X9078333Y-7122286D01*
X9078333Y-7122286D02*
X9078333Y-7179428D01*
X9078333Y-7179428D02*
X9068810Y-7198476D01*
X9068810Y-7198476D02*
X9059286Y-7208000D01*
X9059286Y-7208000D02*
X9040238Y-7217524D01*
X9040238Y-7217524D02*
X9002143Y-7217524D01*
X9002143Y-7217524D02*
X8983095Y-7208000D01*
X9164048Y-7198476D02*
X9173571Y-7208000D01*
X9173571Y-7208000D02*
X9164048Y-7217524D01*
X9164048Y-7217524D02*
X9154524Y-7208000D01*
X9154524Y-7208000D02*
X9164048Y-7198476D01*
X9164048Y-7198476D02*
X9164048Y-7217524D01*
X9164048Y-7093714D02*
X9173571Y-7103238D01*
X9173571Y-7103238D02*
X9164048Y-7112762D01*
X9164048Y-7112762D02*
X9154524Y-7103238D01*
X9154524Y-7103238D02*
X9164048Y-7093714D01*
X9164048Y-7093714D02*
X9164048Y-7112762D01*
M02*
